<svg xmlns="http://www.w3.org/2000/svg" xmlns:xlink="http://www.w3.org/1999/xlink" viewBox="0 0 5000 2916"><defs><style>.cls-1{fill:none;clip-rule:evenodd;}.cls-2{fill:#1e003d;}.cls-3{clip-path:url(#clip-path);}.cls-4{fill:url(#linear-gradient);}.cls-5{fill:#39d4ff;opacity:0.26;}.cls-5,.cls-6,.cls-7{fill-rule:evenodd;}.cls-6{fill:#47eadf;opacity:0.3;}.cls-7{fill:#51f4e9;opacity:0.32;}</style><clipPath id="clip-path"><path class="cls-1" d="M3487.49,1589.12c-62.21,438.5,212.21,1085.55-688.65,1085.55-768.75,0-1816.38-182.75-2798.84-466.88V2916H5000V1574.06c-73.76-39.46-150.45-78.53-228.42-115.58h-.45v-.21l-7.69-3.65-92.21-42.26v-.06q-63.25-28.14-126.79-53.72h0q-61.34-24.61-122.22-46.11h-.74v-.26l-80.69-26.63v-.23q-32.06-10-63.72-19h-1.6v-.43l-26.9-7.26v-.07l-30.74-7.61v-.21l-15.37-3.63v-.05l-34.58-7.64v-.15l-38.43-7.53v-.12c-6.9-1.28-13.81-2.56-20.65-3.73h-2.41v-.38q-24.88-4.17-49.21-7.29h-4.58v-.56l-30.74-3.29v0q-30.89-2.91-60.63-3.81h-12.38v-.33q-13.59-.21-26.89,0v.29a579.28,579.28,0,0,0-88.38,6.91v.78h-4.41c-12.88,2.09-25.53,4.57-37.86,7.51v.16l-26.9,7.13v.57h-1.77c-11.19,3.43-22.15,7.2-32.81,11.44v.08l-7.68,3.14v.7h-1.61c-10.55,4.5-20.9,9.32-30.86,14.67-4.74,2.55-9.15,5.29-13.65,8v.41h-.72a380.33,380.33,0,0,0-49.23,34.44v.14l-3.84,2.93v.92h-1.14A344.53,344.53,0,0,0,3583.8,1350v.91h-.72a349.29,349.29,0,0,0-30,41.3v1h-.57l-14.8,26.89h-.25l-3.59,7.69h-.27l-3.57,7.68h-.15c-5.64,12.36-10.66,25.1-15.22,38.11v.32h-.1l-3.74,11.52h-.18q-6.39,20-11.36,40.85v1.43h-.36c-2.38,10.15-11.16,52.5-11.16,61.47Z"/></clipPath><linearGradient id="linear-gradient" x1="270.24" y1="2572.43" x2="4963.31" y2="1502.41" gradientUnits="userSpaceOnUse"><stop offset="0" stop-color="#4e046d"/><stop offset="1" stop-color="#39d4ff"/></linearGradient></defs><g id="Layer_2" data-name="Layer 2"><g id="Layer_1-2" data-name="Layer 1"><rect class="cls-2" width="5000" height="2916"/><g class="cls-3"><rect class="cls-4" y="1212.09" width="5000" height="1703.91"/></g><path class="cls-5" d="M2798.84,2674.67c-768.75,0-1816.38-182.75-2798.84-466.88V2916H5000V1851.9c-60.68-33.73-125.79-68.9-194.07-104.35h-.1v-.06l-37.14-19.17c-99.58-51-205.23-102.08-313.18-149.84H4455v-.21l-8.26-3.65-99-42.26v-.06q-68-28.14-136.18-53.73h0q-65.86-24.61-131.27-46.11h-.79v-.26l-86.67-26.63v-.23q-34.42-10-68.43-19h-1.72v-.43l-28.89-7.26v-.07l-33-7.61v-.21l-16.5-3.63v-.05l-37.15-7.64v-.15l-41.27-7.53v-.12c-7.42-1.29-14.83-2.56-22.18-3.73h-2.58v-.38q-26.73-4.18-52.86-7.29h-4.92v-.56l-33-3.29v0q-25.89-2.28-51.06-3.32-7-.3-14.05-.49h-13.3v-.33q-14.59-.21-28.89,0v.29a668,668,0,0,0-94.92,6.91v.78h-4.74c-13.82,2.09-27.41,4.57-40.65,7.51v.16l-28.89,7.13v.56h-1.9c-12,3.44-23.8,7.21-35.25,11.45v.08l-8.24,3.13v.71h-1.73c-11.33,4.5-22.45,9.32-33.15,14.67-5.09,2.55-9.83,5.29-14.65,8v.41h-.78a409,409,0,0,0-52.87,34.44v.14l-4.13,2.93v.92h-1.22a358.06,358.06,0,0,0-40,37.52v.91H3179a351.36,351.36,0,0,0-32.25,41.3v1h-.61l-15.9,26.89H3130l-3.86,7.69h-.29l-3.82,7.68h-.17c-6.06,12.36-11.45,25.1-16.34,38.11v.32h-.12l-4,11.52h-.19q-6.87,20-12.2,40.85v1.42h-.39c-4.89,19.38-8.84,39.29-12,59.66v1.82h-.25c-49,321.72,96.58,755.71-204.53,964q-35.15,1.5-73,1.51"/><path class="cls-6" d="M2267.75,2916h1960.6c-67.89-38.05-141.81-78.22-219.87-118.76h-.11v0L3971.23,2778c-99.58-51-205.23-102.08-313.17-149.85h-.48v-.2l-8.26-3.65-99-42.26V2582q-68-28.12-136.17-53.72h0q-31.64-11.82-63.2-23-34.12-12-68.06-23.16h-.8v-.26l-86.66-26.63V2455q-34.44-10.05-68.44-19h-1.72v-.44l-28.89-7.25v-.08l-33-7.6v-.22l-16.5-3.63v0l-2.45-.5-34.7-7.15V2409l-41.27-7.52v-.13c-7.42-1.28-14.83-2.55-22.18-3.72h-2.58v-.38q-26.73-4.18-52.86-7.3h-4.92v-.55l-33-3.29v0q-33.17-2.91-65.11-3.81h-13.3v-.33q-14.59-.21-28.89,0v.28a666.52,666.52,0,0,0-94.92,6.92v.77h-4.74c-13.82,2.09-27.41,4.58-40.65,7.52v.16l-28.89,7.12v.57h-1.9c-12,3.43-23.79,7.21-35.25,11.45v.07l-8.24,3.14v.71h-1.73c-11.33,4.5-22.45,9.31-33.14,14.67-5.09,2.55-9.83,5.28-14.66,8v.42h-.78a408.58,408.58,0,0,0-52.87,34.44v.14l-4.13,2.93v.91h-1.22a358.08,358.08,0,0,0-40,37.53v.9h-.78a354.42,354.42,0,0,0-32.25,41.31v1h-.61l-15.9,26.9h-.27l-3.85,7.69h-.3l-3.82,7.68h-.17c-6.06,12.36-11.45,25.09-16.34,38.11v.31h-.12l-3.36,9.66-.65,1.87h-.19q-6.87,20-12.2,40.84v1.43h-.39c-4.89,19.38-8.84,39.29-12,59.66v1.82h-.25c-7.64,50.09-10.55,102.91-11.16,157.18"/><path class="cls-7" d="M0,2207.79V2916H3178.55c-40.65-87.53-80.33-176.85-127.63-262.78-19.22-34.91-39.7-69.26-62-102.7-38.8-58.16-83.15-113.57-136.09-164.42l0,0c-184.16-176.86-463.07-274.57-702.69-246.23-146.38,17.32-273,77-405.63,123.16-224.83,78.26-495.48,63.48-744-45.67-280-123-487.75-345.46-729.09-520C244.69,1678,136.26,1602.85,0,1513.49Z"/></g></g></svg>