<svg xmlns="http://www.w3.org/2000/svg" viewBox="0 0 34.4 50.81"><g id="Layer_2" data-name="Layer 2"><g id="Layer_1-2" data-name="Layer 1"><path d="M30.34,47.66v-.17l-.79-2.25L29.25,44c-.2-.73-.33-1.21-.39-1.45l.05-.29s-.18-.77-.22-.92l0-.07L28.8,41v-.65l-.62-1.75h.13l-1.14-3.85c-.73-2.16-1.37-4.26-1.93-6.26l.29-.36a49.73,49.73,0,0,0,4.7-6.4C33,17.2,34.4,13.11,34.4,9.6a6,6,0,0,0-.49-2.28c-.1-.24-.17-.41-.21-.52V6.64l-.16-.25a17.1,17.1,0,0,0-2.21-3l-.06-.06-.07-.06s0,0-.06-.06l-.06-.06L31,3.09,31,3,30.9,3l-.06-.06-.06-.06-.06-.06-.06-.06-.06-.06-.06-.06-.06-.06s0,0-.06-.06l-.06-.06-.06-.07-.06-.06-.07-.06-.06-.06-.06-.06L30,2.06,29.93,2l-.06-.06-.06-.06-.06-.06-.06-.06-.06-.06s0-.05-.06-.06,0,0-.06-.06l-.06-.06s0-.05-.06-.06a2.47,2.47,0,0,0-.51-.39A4.83,4.83,0,0,0,25.5,0a6.26,6.26,0,0,0-3.8,1.5c-.49.24-1.28.87-3.08,3-.13.17-.23.34-.35.51h0A6.06,6.06,0,0,0,17,2.56l-.06-.06-.06-.06-.06-.06-.06-.06-.06-.06-.06-.06-.06-.06-.07-.06L16.45,2,16.39,2l-.06-.06-.06-.06-.06-.07-.06-.06-.06-.06L16,1.59,16,1.53l-.06-.06-.06-.06-.06-.06-.06-.06-.06-.06-.06-.06-.07-.06-.06-.06L15.42,1,15.36.93,15.3.87,15.24.8,15.18.74,15.12.68,15.06.62A1.82,1.82,0,0,0,13.7,0c-1.53,0-3.22,1.55-5.47,5a49.75,49.75,0,0,0-3.62,6.09A27.87,27.87,0,0,0,2.78,15c-.27.59-.7,1.66-1.31,3.23A26.6,26.6,0,0,0,.14,23.07l-.06.28,0,.06A1.81,1.81,0,0,0,0,24v.34l0,.28a1.39,1.39,0,0,0,0,.3L.06,26H.11V26H.18v.06H.24v.06H.3v0h0A9.41,9.41,0,0,0,2.45,29.4l.06.06h0l.06.05h0l.06.06h0l0,.06h0l0,.06h0l.05.05h0l.05.05h0l.05.05h0l.05.05H3l0,.05h0s0,0,0,0h0l0,.05h0l0,.05h0s0,0,0,0h0l.06.05h0l.06.05h0l.06.05h0l.06.05h0l.06.05h0l.05.06h0l.05.06h0l0,.05h0l0,.05h0l0,.05h0l0,.05H4s0,0,0,0H4l0,.05h0l0,.05h0s0,0,0,0h0l0,.05h0l.05.05h0l.06,0h0l.06.05h0a3.55,3.55,0,0,0,1.55,1l.16,0h.17A6.36,6.36,0,0,0,8.38,32L5.23,38.48l0,.09a1.23,1.23,0,0,0-.55,1.07v.15H4.21v1c-.06.13-.2.45-.56,1.16l-2,4.19v1.43h.06v.06h.06v.06h.06v.07h.06v.06h.06v.06H2V48H2V48h0v.15h.06v.06h.07v.07h.06v.06H2.3v.06h.06v.06h.06v.06h.06v.06h.06v.06H2.6v.06h.06v.06h.06v.06h.06v.06h.06V49H2.9V49H3v.06H3v.06h.06v.06h.07v.07h.06v.06h.06v.06h.06v.06h.06v.06h.06v.06h.06v.06h.06v.06h.06v.06h.06v.06h.06v.06h.06V50h.06V50h.06v.06H4v.06h.06v.06H4.5v0h0l0,.06h0l0,.06h0l0,.06h0l0,.06h0l0,.07h0l0,.06h0l0,.06H5l0,.06H5l0,.06h.67c.63,0,.92-.46,1.37-1.22h.28L7.63,49c.13-.28.21-.46.27-.56l.1,0L8.17,48c.21-.44.4-.82.57-1.16l.47-.4h.34l.29-.48c.57-.92,1.69-3.09,3.43-6.63l.11-.2A5.46,5.46,0,0,0,13.92,38a10.51,10.51,0,0,0,.8-1.46H15a.85.85,0,0,0,0,.22A1.32,1.32,0,0,0,15,37v.31a8.89,8.89,0,0,0-.26,1.46V39a2.1,2.1,0,0,0,.15.6l-.14.49.06,0v0l.06,0v0l.06,0v0l.07,0v0l.07,0v0l.07,0h0l.07,0h0l.07.05h0l.07,0h0l.07,0h0l.07.05h0l.06,0h0l.06,0h0l.06.05v0l.06,0v0l.06,0v0l.06,0v0l.06,0v0l.06,0v0l.06,0v0l.07,0v0l.07,0h0l.07,0h0l.07.05h0l.07.05h0l.07,0h0l.07.05h0l.07.05h0l.06,0h0l.06,0v0l.06,0v0l.06,0v0l.06,0v0l.37.25h0l.06,0v0h0l0,0v0h.06v.06h.06v.06h.06v.06h.06v.06h.06v.06h.06v.06h.06v.06h.06V43h.07V43h.07v.06h.07v.06H18v.07H18v.06h1.75l.27-.59a27.93,27.93,0,0,0,1.25-4c.14-.67.27-1.28.4-1.86.23.65.52,1.44.86,2.35A6.68,6.68,0,0,0,23.2,41c.45,1.27.9,2.45,1.31,3.48,1.16,3.28,1.4,4,1.75,4.17l0,0s0,.05.06.06l.06.06a2985492971495.23,2985492971495.23,0,0,1,.12.12l.06.07.06.06.06.06.06.06.06.06.06.06.06.06.06.06.06.06.06.06.06.06.06.06.07.06a2985492971498.09,2985492971498.09,0,0,0,.12.12l.06.06.06.07.06.06.06.06.06.06.06.06.06.06.06.06.06.06.06.06h0a.7.7,0,0,0,.51.33l.12,0h.8l.1-.13h.36l.18-.76c0-.08,0-.13.05-.17l.43-.31-.34-1.36A1.07,1.07,0,0,0,30.34,47.66ZM14.27,26.84A12.42,12.42,0,0,1,13,31.46a12.38,12.38,0,0,0-.71,2.06h-.06l-.11-.07A10.92,10.92,0,0,1,11,35.59a3.68,3.68,0,0,1-.55,1.15l-.27-.16a7.81,7.81,0,0,0,.77-1.78h0a9.2,9.2,0,0,1-.56.93L8.71,38.94v.27h.17A16,16,0,0,1,10,37l.22-.27h.17v.13Q7.8,42.09,7,43.42a.72.72,0,0,0-.39.2v-.13a20.35,20.35,0,0,0,1.29-2.64A3.18,3.18,0,0,0,7.1,42.2a22.13,22.13,0,0,0-1.83,3.35,2.94,2.94,0,0,0-.55,1c-.19,0-.33.15-.45.43a2.76,2.76,0,0,1-.55.79l-.06-.14v-.07A1.53,1.53,0,0,1,4,46.77c0-.11,0-.16-.12-.16a2.91,2.91,0,0,0-.38.52H3.39L3.27,47c0,.1,0,.15-.1.15H3.05V47c0-.09.05-.13.12-.13a2.58,2.58,0,0,1-.06-.5l-.33.27H2.61v-.2l1.94-4A10.23,10.23,0,0,0,5.21,41v-.2c.13,0,.35-.36.67-1.08v-.07H5.72v-.07c0-.07,0-.13.16-.2h0v.07l0,.13H6a6.2,6.2,0,0,1,.39-.92l-.06-.14,4.27-8.76a23.51,23.51,0,0,0,1.17-3.2v-.07h0A9.33,9.33,0,0,0,8.6,27.9a10.09,10.09,0,0,1-4.27,1.5,2.58,2.58,0,0,1-1.12-.65c-1.26-1.42-1.92-2.44-2-3.05-.06,0-.11-.24-.16-.72C1,25,1,25,1,24.91s0-.14.06-.14L1,24.28V24a1.51,1.51,0,0,1,.17-.57l-.06-.15a25.81,25.81,0,0,1,1.28-4.62C3,17,3.47,15.91,3.72,15.37A28.71,28.71,0,0,1,5.5,11.53,47.11,47.11,0,0,1,9,5.56C11,2.52,12.59,1,13.7,1h.06c.55,0,1.07.78,1.55,2.34,0,.06,0,.09-.05.09l.05.49a7.81,7.81,0,0,1-.83,3.13,9.41,9.41,0,0,1-.78,2.27Q12,14.09,11.6,14.16h0c0-.28-.17-.43-.51-.43-.4-.45-.61-.78-.61-1h0l-.17.14-.05-.14Q13.1,5.4,13.1,4.55H13a7.25,7.25,0,0,0-1.22,1.51A17.28,17.28,0,0,0,9.55,9.12a6.18,6.18,0,0,0-.9,1.64c0,.18.08.27.23.27v.07A20.33,20.33,0,0,1,7.71,13l-.16-.15a40,40,0,0,0-2.77,6,.74.74,0,0,1,0,.22l.11-.07c0,.05,0,.07,0,.07a7.47,7.47,0,0,0-.39,1.06H4.5V20c-.51.59-1,2-1.33,4.12a3.08,3.08,0,0,0-.06.72h.06V25a1.61,1.61,0,0,0,.1.58L3.21,26a24.38,24.38,0,0,0,5.11-2.43,7.57,7.57,0,0,1,3-.85c1.15.41,1.73.86,1.73,1.34a14.11,14.11,0,0,1,1.17,2.5ZM6.94,23.21Zm8.66,1.66a.34.34,0,0,0-.06-.06l-.06-.07a.34.34,0,0,1-.06-.06l-.06-.06-.06-.06s-.05,0-.06-.06l-.07-.06-.06-.06-.06-.06L15,24.26l-.06-.06-.06-.06-.06-.06L14.75,24,14.69,24l-.06-.06-.06-.06a.34.34,0,0,0-.06-.06l-.06-.07-.06-.06-.06-.06-.06-.06-.06-.06-.07-.06s0,0-.06-.06,0,0-.06-.06L14,23.23l-.06-.06-.06-.06-.06-.06L13.72,23l-.06-.06a4.73,4.73,0,0,0-1.95-1.17l-.16-.05h-.18a8.34,8.34,0,0,0-3.47.94l-.05,0,0,0-.2.11v-.48c.05-.16.16-.42.32-.81l.56-1.38H8.4l0-.06H8.34l0-.06H8.28l0-.06H8.21l0-.06h0c.43-1.06.95-2.19,1.57-3.4l.07.06.66-1,.16-.24,0,.08,0,0,0,.09,0,0,0,.09,0,0,0,.09,0,0,0,.09,0,0,0,.09,0,0,0,.08,0,0,0,.08,0,0,0,.08,0,0,0,.08,0,0,0,.08,0,0,0,.08,0,0,0,.08,0,0,0,.08,0,0,0,.08,0,0,0,.08,0,0,0,.08,0,0,0,.08,0,0,0,.09.11-.1h0v.06H12v.06h.05v.06h.06v.07h.06v.06h.06v.06h.06v.06h.06v.06h.06V17h.06V17h.06v.06h.06v.06h1.1l.09,0c.3-.06.53-.1.89-.72,0,.09,0,.19,0,.29a3.15,3.15,0,0,0,.15,1.05l.32.91,0,0,0,.08,0,0,0,.08h0l0,.07h0l0,.07h0l0,.07h0l0,.07h0l0,.07h0l0,.07h0l0,.07h0l0,.07h0l0,.07h0l0,.07h0l0,.07h0l0,.07h0l0,.07h0l0,.07h0l0,.08,0,0,0,.08h0l0,.07h0l0,.07h0l0,.07h0l0,.07h0l0,.07h0l0,.07h0l0,.07h0l0,.07h0l0,.07h0l0,.07h0l0,.07h0l0,.07h0l0,.07h0l0,.07h0l0,.08.33-.11,0,0,0,0,0,0,0,0,0,0,0,0,0,0,0,0,0,0,0,0,0,0,0,0a2.61,2.61,0,0,0,.34.33c-.2,1-.36,1.71-.47,2.16a2.16,2.16,0,0,0-.27.93v.12c-.07.23-.13.53-.2.89h0l-.05.53-.07.38,0,.06a2,2,0,0,1-.2.56l-.08.17v.12a13.28,13.28,0,0,0-.72-1.46A1.75,1.75,0,0,0,15.6,24.87Zm11.55,22.8s-.1,0-.17.14h-.17s-.5-1.23-1.35-3.64c-.44-1.08-.89-2.28-1.36-3.59a5.68,5.68,0,0,1-.61-1.74q-1.32-3.53-1.57-4.5a1,1,0,0,0,0-.25,17.86,17.86,0,0,1-.74-2.67,1.26,1.26,0,0,1,0-.21,5.13,5.13,0,0,1-.25-.9l0-.39a11.68,11.68,0,0,1-.35-1.81h-.12a1.57,1.57,0,0,0-.75,1.29c-.21.82-.72,3.17-1.53,7a27.23,27.23,0,0,1-1.18,3.83h0l0-.45H17c-.08.17-.18.26-.3.26-.24-.2-.35-.33-.35-.4h-.05c-.07.1-.13.14-.17.14a.56.56,0,0,1-.27-.14A6.26,6.26,0,0,1,16.1,39L16,39l-.18.32c-.06,0-.1-.13-.13-.39A7,7,0,0,1,16,37.47V37a4,4,0,0,1,.08-.51v-.07L16,36.5a.85.85,0,0,1-.05-.21c.38-1.49.7-2.94,1-4.36a19,19,0,0,0,.66-3.24,7.23,7.23,0,0,0,.22-1.37,3,3,0,0,0,.31-1h0l0-.13a10.61,10.61,0,0,1,.39-1.76l0-.12a1.57,1.57,0,0,1,.22-.58c.14-.58.38-1.67.7-3.27.17,0,.26-.17.26-.51V19.9c-.09,0-.14,0-.14-.07,0-.34.07-.51.14-.51l.08.05.09-.19v-.13a.11.11,0,0,1-.12-.12q.12-1.23.39-1.23c.23-.95.49-1.86.78-2.74q.53-2.58.84-5c.15,0,.32-1,.51-3h0a1.36,1.36,0,0,1,.65.32c.12,0,.29.22.53.65h.05a56.82,56.82,0,0,1-1,8.2Q21.3,21.83,21,23.54h.08l.14-.13h0v-.06l1.19-1.43c0,.09,0,.13,0,.13a.28.28,0,0,1,.13-.06v-.21h-.08a9.13,9.13,0,0,0,1-1.55c.1,0,.39-.41.88-1.23h-.09q0,.18-.09.18h-.08a38.65,38.65,0,0,0,4.1-7.81,18.17,18.17,0,0,0,1.18-5.52c0-1-.29-1.59-.87-1.82a3.17,3.17,0,0,0-1.35-.4h-.44c-1.06,0-2.49.77-4.28,2.29a19.66,19.66,0,0,0-4.94,9.69c-.17,1.13-.26,1.76-.26,1.88,0,.38.05.66.05.86l-.27.25q-.25,0-.57-.39c-.38-.32-.56-.6-.56-.85l-.22.06a2.23,2.23,0,0,1-.09-.71v-.06a4.83,4.83,0,0,1,0-.59,4.87,4.87,0,0,1-.12-1.1,3.93,3.93,0,0,0,0-.46v-.07h0v.14h-.1V14.5a34.62,34.62,0,0,1,1-3.45c-.09,0-.14,0-.14-.07a20.17,20.17,0,0,1,3.11-5.84A11.49,11.49,0,0,1,22.22,2.4,5.39,5.39,0,0,1,25.5,1a3.7,3.7,0,0,1,2.84.9c.29,0,1.08,1,2.36,3a4.19,4.19,0,0,0,.3.79,5,5,0,0,1,.4,1.88q0,5-4,11.65a47,47,0,0,1-4.58,6.24,2.92,2.92,0,0,0-.62.92c.58,2.13,1.27,4.37,2.06,6.7L25,35.64h-.09v.21c0,.09.31,1,.92,2.71v.28a2.1,2.1,0,0,0-.13.44s.08.37.22,1l0,.27c0,.06.14.62.43,1.69l.31,1.3.75,2.14c0,.09-.05.13-.14.13A9.9,9.9,0,0,0,27.46,47,1.25,1.25,0,0,0,27.15,47.67ZM24,19.44v-.07q0-.12.09-.12h0C24.15,19.31,24.1,19.37,24,19.44ZM26.4,9V8.93h-.06V8.87h-.06V8.81h-.06V8.75h-.06V8.69h-.07V8.63H26V8.57H26V8.51h-.06V8.44h-.06V8.38h-.06V8.32h-.06V8.26h0a7.58,7.58,0,0,1,2.72-1.57,21,21,0,0,1-1.07,4.38,19.54,19.54,0,0,1-1.22,2.8c.14-1.21.25-2.48.33-3.82V9Z"/><path d="M20.91,24.07H21a2.72,2.72,0,0,0,.52-.78h0l-.14.12h-.05v.2A.49.49,0,0,0,20.91,24.07Z"/><path d="M7.93,40.65v.14a5.85,5.85,0,0,0,.72-1.35H8.6A2.55,2.55,0,0,0,7.93,40.65Z"/><rect x="16.06" y="36.17" width="0.09" height="0.19"/><path d="M17.55,8.38v.07s.08-.06.12-.19V8.2S17.59,8.26,17.55,8.38Z"/></g></g></svg>