<svg xmlns="http://www.w3.org/2000/svg" xmlns:xlink="http://www.w3.org/1999/xlink" viewBox="0 0 144.35 140.58"><defs><style>.cls-1{isolation:isolate;}.cls-2{fill:url(#linear-gradient);}.cls-3{fill:url(#linear-gradient-2);}.cls-4{fill:url(#linear-gradient-3);}.cls-5{fill:url(#linear-gradient-4);}.cls-11,.cls-12,.cls-13,.cls-14,.cls-15,.cls-6,.cls-7{opacity:0.5;mix-blend-mode:overlay;}.cls-6{fill:url(#linear-gradient-5);}.cls-7{fill:url(#linear-gradient-6);}.cls-8{fill:url(#linear-gradient-7);}.cls-9{fill:url(#linear-gradient-8);}.cls-10{fill:url(#linear-gradient-9);}.cls-11{fill:url(#linear-gradient-10);}.cls-12{fill:url(#linear-gradient-11);}.cls-13{fill:url(#linear-gradient-12);}.cls-14{fill:url(#linear-gradient-13);}.cls-15{fill:url(#linear-gradient-14);}</style><linearGradient id="linear-gradient" x1="1784.94" y1="68.83" x2="1769.12" y2="37.19" gradientTransform="matrix(-1, 0, 0, 1, 1860.1, 0)" gradientUnits="userSpaceOnUse"><stop offset="0" stop-color="#ff31fa"/><stop offset="0.49" stop-color="#8733ff"/><stop offset="1" stop-color="#221dff"/></linearGradient><linearGradient id="linear-gradient-2" x1="1694.04" y1="69.45" x2="1800.12" y2="65.27" gradientTransform="matrix(-1, -0.06, -0.06, 1, 1841.95, 47.35)" xlink:href="#linear-gradient"/><linearGradient id="linear-gradient-3" x1="432.34" y1="220.31" x2="381.53" y2="267.05" gradientTransform="translate(-239.5 -221.9) rotate(11.91)" gradientUnits="userSpaceOnUse"><stop offset="0" stop-color="#ffde3e"/><stop offset="1" stop-color="#ff793e"/></linearGradient><linearGradient id="linear-gradient-4" x1="405.3" y1="235.27" x2="316.91" y2="285.75" xlink:href="#linear-gradient-3"/><linearGradient id="linear-gradient-5" x1="102.35" y1="143.38" x2="70.54" y2="192.93" gradientTransform="matrix(1, 0.08, -0.08, 1, -25.83, -65.97)" gradientUnits="userSpaceOnUse"><stop offset="0.11" stop-color="#fff"/><stop offset="0.92" stop-color="#fff" stop-opacity="0"/></linearGradient><linearGradient id="linear-gradient-6" x1="158.06" y1="155.39" x2="128.92" y2="200.78" xlink:href="#linear-gradient-5"/><linearGradient id="linear-gradient-7" x1="1742.34" y1="44.46" x2="1815.8" y2="43.05" xlink:href="#linear-gradient"/><linearGradient id="linear-gradient-8" x1="1872.46" y1="-588.85" x2="1867.66" y2="-544.52" gradientTransform="matrix(-0.71, 0.71, 0.71, 0.71, 1751.27, -866.76)" xlink:href="#linear-gradient-3"/><linearGradient id="linear-gradient-9" x1="1812.87" y1="105.89" x2="1859.53" y2="104.05" gradientTransform="matrix(-1, -0.06, -0.06, 1, 1841.95, 47.35)" xlink:href="#linear-gradient"/><linearGradient id="linear-gradient-10" x1="10.42" y1="39.52" x2="2.57" y2="51.74" gradientTransform="matrix(1, 0, 0, 1, 0, 0)" xlink:href="#linear-gradient-5"/><linearGradient id="linear-gradient-11" x1="62.37" y1="53.22" x2="62.01" y2="53.77" gradientTransform="matrix(1, 0, 0, 1, 0, 0)" xlink:href="#linear-gradient-5"/><linearGradient id="linear-gradient-12" x1="25.62" y1="51.33" x2="12.52" y2="71.75" gradientTransform="matrix(1, 0, 0, 1, 0, 0)" xlink:href="#linear-gradient-5"/><linearGradient id="linear-gradient-13" x1="102.09" y1="27.94" x2="64.05" y2="87.2" gradientTransform="matrix(1, 0, 0, 1, 0, 0)" xlink:href="#linear-gradient-5"/><linearGradient id="linear-gradient-14" x1="110.89" y1="1.34" x2="96.46" y2="23.81" gradientTransform="matrix(1, 0, 0, 1, 0, 0)" xlink:href="#linear-gradient-5"/></defs><g class="cls-1"><g id="Layer_2" data-name="Layer 2"><g id="OBJECTS"><path class="cls-2" d="M59.86,48.57a77.33,77.33,0,0,1-13.26,4c-1.74.37-4,1.11-5.83.94,11,1,22.4,1.18,32.77-3.1C77,49,80.05,46.86,83.41,45.26a39.85,39.85,0,0,1,9.69-2.92,19.3,19.3,0,0,1,9.66.79c-2.42,3.57-4.93,12.54-5,12.91-.45,2.06-.85,4.2-1.24,6.41-.5,2.8-1.28,5.84-.67,8.68,1.51,7,9.24,9.31,15.1,5.81,6.8-4,7.89-14.44,8.76-21.63.3-2.46-.36-6-1.07-8.9a21.79,21.79,0,0,0-11.22-14.12,20.88,20.88,0,0,0-5.89-2.11c-8.15-1.12-14,2.07-20.38,6.63a101.66,101.66,0,0,1-11,6.89A103,103,0,0,1,59.86,48.57Zm49.38-2.15a20,20,0,0,1,8.31,12.17,2.64,2.64,0,0,1-.3,1.76,11.69,11.69,0,0,1-2.09,3.14,11.49,11.49,0,0,1-9.45,3.11c-4.52-.74-6.79-3.81-7.51-7.6A35.34,35.34,0,0,1,109.24,46.42Z"/><path class="cls-3" d="M91.25,11.94A12.69,12.69,0,1,0,104.66,0,12.68,12.68,0,0,0,91.25,11.94Z"/><path class="cls-4" d="M125.76,121.7A26,26,0,0,1,112.9,128c-4.46.63-9.12-1.41-8.72-6.91.18-2.46,1.26-4.72,2.17-7,2.57-6.41,4.67-14.23,3-21.17A20.51,20.51,0,0,0,99.74,80,23.09,23.09,0,0,0,94,77.69C79,73.84,63.58,82.31,52.59,92,24,117.14,18.19,133.82,16.21,136.22c13.66-16.49,29.89-31.69,48.5-41.67,9.12-4.89,19.83-8,29.81-4.08l.22.09a18.42,18.42,0,0,1,10.65,13c1.76,7.78-2.54,14.46-3.51,22-.47,3.57-1.24,7.37.23,10.84s4.69,4.33,7.93,4.15c7.71-.43,14.27-6.66,19.1-12.47,8.07-9.72,12.64-21.77,15.17-34.28C145.05,90.19,134.61,114.06,125.76,121.7Z"/><path class="cls-5" d="M106.35,114.05c2.57-6.41,4.67-14.23,3-21.17A20.51,20.51,0,0,0,99.74,80,23.09,23.09,0,0,0,94,77.69C79,73.84,63.58,82.31,52.59,92,24,117.14,18.19,133.82,16.21,136.22c13.66-16.49,29.89-31.69,48.5-41.67,9.12-4.89,19.83-8,29.81-4.08l.22.09a18.42,18.42,0,0,1,10.65,13c1.06,4.7.4,10.06-.29,13.59C105.49,116.14,105.94,115.1,106.35,114.05Z"/><path class="cls-6" d="M70.34,91.88a75.38,75.38,0,0,1-9.4-6.32A77.52,77.52,0,0,0,52.59,92a201.2,201.2,0,0,0-18.93,18.85c.89,1.39,1.83,2.73,2.8,4A142.07,142.07,0,0,1,64.71,94.55,61.73,61.73,0,0,1,70.34,91.88Z"/><path class="cls-7" d="M112.9,128c-4.46.63-9.13-1.41-8.72-6.91.18-2.46,1.26-4.72,2.17-7,2.08-5.2,3.86-11.32,3.56-17.15q-3.33.7-6.67,1.25a19.31,19.31,0,0,1,2.15,5.46c1.76,7.78-2.54,14.46-3.51,22-.43,3.27-1.1,6.74-.07,10a61.81,61.81,0,0,0,16.82-9.29A21.75,21.75,0,0,1,112.9,128Z"/><path class="cls-8" d="M117.55,58.59a20,20,0,0,0-8.31-12.17l-6.48-3.29a19.3,19.3,0,0,0-9.66-.79C84.77,44,77.57,49.21,69.48,51.88c-9.09,3-19.33,2.51-28.71,1.63,1.81.17,4.09-.57,5.83-.94a77.33,77.33,0,0,0,13.26-4,103,103,0,0,0,10.3-4.87,101.66,101.66,0,0,0,11-6.89c6.36-4.56,12.23-7.75,20.38-6.63a20.88,20.88,0,0,1,5.89,2.11,21.79,21.79,0,0,1,11.22,14.12C120.55,55.59,117.55,58.59,117.55,58.59Z"/><path class="cls-9" d="M0,60.55c-1-8.91,62.65-7.13,62.65-7.13S1,69.47,0,60.55Z"/><path class="cls-10" d="M1.53,44.1a5.58,5.58,0,1,0,5.9-5.24A5.58,5.58,0,0,0,1.53,44.1Z"/><path class="cls-11" d="M7.43,38.86a5.55,5.55,0,0,0-3.87,1.26c1.69,3.11,3.22,6.39,4.65,9.77a5.58,5.58,0,0,0-.78-11Z"/><path class="cls-12" d="M61.82,53.4l.67.07.17,0Z"/><path class="cls-13" d="M13.14,63a193.66,193.66,0,0,0,19.31-2.83C31,58.1,29.61,56,28.37,53.77a161,161,0,0,0-17.93,1.72C11.38,58,12.28,60.49,13.14,63Z"/><path class="cls-14" d="M118.64,46.41a21.59,21.59,0,0,0-4-8.16l-.5-.6a182.68,182.68,0,0,0-24.37,1.26c-4.79.51-9.57,1.12-14.31,1.7q-2.61,1.62-5.31,3.09a103,103,0,0,1-10.3,4.87,76.06,76.06,0,0,1-9.75,3.19c3.93.76,8,1.3,12.09,1.68a47.21,47.21,0,0,0,11.34-3C77,49,80.05,46.86,83.41,45.25a40.28,40.28,0,0,1,9.69-2.91,19.3,19.3,0,0,1,9.66.79c-1.87,2.75-3.79,8.71-4.6,11.46l2.7.07a39.26,39.26,0,0,1,8.38-8.24,20.42,20.42,0,0,1,8,10.89c.71.28,1.43.58,2.12.9.13-1,.25-2,.36-2.9C120,52.85,119.35,49.29,118.64,46.41Z"/><path class="cls-15" d="M100.12,10.83a37.37,37.37,0,0,1,15.95,5.44,12.51,12.51,0,0,0,.51-2.84,12.68,12.68,0,0,0-25.16-2.9C94.39,10.59,97.31,10.68,100.12,10.83Z"/></g></g></g></svg>