<svg xmlns="http://www.w3.org/2000/svg" xmlns:xlink="http://www.w3.org/1999/xlink" viewBox="0 0 214.34 47.07"><defs><style>.cls-1{isolation:isolate;}.cls-2{fill:none;}.cls-3{fill:url(#linear-gradient);}.cls-4{fill:url(#linear-gradient-2);}.cls-5{fill:url(#linear-gradient-3);}.cls-6{fill:url(#linear-gradient-4);}.cls-7{fill:url(#linear-gradient-5);}.cls-8{fill:url(#linear-gradient-6);}.cls-9{fill:url(#linear-gradient-7);}.cls-10{fill:url(#linear-gradient-8);}.cls-11{fill:url(#linear-gradient-9);}.cls-12{fill:url(#linear-gradient-10);}.cls-13{fill:url(#linear-gradient-11);}.cls-14{fill:url(#linear-gradient-12);}.cls-15{fill:url(#linear-gradient-13);}.cls-16{fill:url(#linear-gradient-14);}.cls-17{fill:url(#linear-gradient-15);}.cls-18{fill:url(#linear-gradient-16);}.cls-19{fill:url(#linear-gradient-17);}.cls-20{fill:url(#linear-gradient-18);}.cls-21{fill:url(#linear-gradient-19);}.cls-22{fill:url(#linear-gradient-20);}.cls-23{fill:url(#linear-gradient-21);}.cls-24{fill:url(#linear-gradient-22);}.cls-25{fill:url(#linear-gradient-23);}.cls-26{fill:url(#linear-gradient-24);}.cls-27{fill:url(#linear-gradient-25);}.cls-28{fill:url(#linear-gradient-26);}.cls-29{fill:url(#linear-gradient-27);}.cls-30{fill:url(#linear-gradient-28);}.cls-31{fill:url(#linear-gradient-29);}.cls-32{fill:url(#linear-gradient-30);}.cls-33{fill:url(#linear-gradient-31);}.cls-34{fill:url(#linear-gradient-32);}.cls-35{fill:url(#linear-gradient-33);}.cls-36{fill:url(#linear-gradient-34);}.cls-37{fill:url(#linear-gradient-35);}.cls-38{fill:url(#linear-gradient-36);}.cls-39{fill:url(#linear-gradient-37);}.cls-40{fill:url(#linear-gradient-38);}.cls-41{fill:url(#linear-gradient-39);}.cls-42{fill:url(#linear-gradient-40);}.cls-43{fill:url(#linear-gradient-41);}.cls-44{fill:url(#linear-gradient-42);}.cls-45{fill:url(#linear-gradient-43);}.cls-46{fill:url(#linear-gradient-44);}.cls-47{fill:url(#linear-gradient-45);}.cls-48{fill:url(#linear-gradient-46);}.cls-49{fill:url(#linear-gradient-47);}.cls-50{fill:url(#linear-gradient-48);}.cls-51{fill:url(#linear-gradient-49);}.cls-52{fill:url(#linear-gradient-50);}.cls-53{fill:url(#linear-gradient-51);}.cls-54{fill:url(#linear-gradient-52);}.cls-55{fill:url(#linear-gradient-53);}.cls-56{fill:url(#linear-gradient-54);}.cls-57{fill:url(#linear-gradient-55);}.cls-58{fill:url(#linear-gradient-56);}.cls-59{fill:url(#linear-gradient-57);}.cls-60{fill:url(#linear-gradient-58);}.cls-61{fill:url(#linear-gradient-59);}.cls-62{fill:url(#linear-gradient-60);}.cls-63{fill:url(#linear-gradient-61);}.cls-64{fill:url(#linear-gradient-62);}.cls-65{fill:url(#linear-gradient-63);}.cls-66{fill:url(#linear-gradient-64);}.cls-67{fill:url(#linear-gradient-65);}.cls-68{fill:url(#linear-gradient-66);}.cls-69{fill:url(#linear-gradient-67);}.cls-70{fill:url(#linear-gradient-68);}.cls-71{fill:url(#linear-gradient-69);}.cls-72{fill:url(#linear-gradient-70);}.cls-73{fill:url(#linear-gradient-71);}.cls-101,.cls-103,.cls-106,.cls-159,.cls-160,.cls-161,.cls-162,.cls-163,.cls-164,.cls-165,.cls-167,.cls-170,.cls-173,.cls-176,.cls-180,.cls-181,.cls-182,.cls-183,.cls-184,.cls-185,.cls-186,.cls-187,.cls-188,.cls-189,.cls-191,.cls-192,.cls-193,.cls-194,.cls-195,.cls-196,.cls-197,.cls-198,.cls-199,.cls-200,.cls-201,.cls-202,.cls-203,.cls-204,.cls-205,.cls-206,.cls-207,.cls-208,.cls-209,.cls-211,.cls-213,.cls-215,.cls-217,.cls-219,.cls-221,.cls-223,.cls-225,.cls-227,.cls-230,.cls-233,.cls-236,.cls-240,.cls-243,.cls-244,.cls-247,.cls-248,.cls-249,.cls-250,.cls-251,.cls-252,.cls-253,.cls-254,.cls-255,.cls-256,.cls-257,.cls-258,.cls-260,.cls-74,.cls-75,.cls-76,.cls-77,.cls-78,.cls-79,.cls-80,.cls-81,.cls-82,.cls-83,.cls-84,.cls-87,.cls-88,.cls-89,.cls-90,.cls-91,.cls-92,.cls-93,.cls-94,.cls-95,.cls-96,.cls-97,.cls-98,.cls-99{opacity:0.5;mix-blend-mode:overlay;}.cls-74{fill:url(#linear-gradient-72);}.cls-75{fill:url(#linear-gradient-73);}.cls-76{fill:url(#linear-gradient-74);}.cls-77{fill:url(#linear-gradient-75);}.cls-78{fill:url(#linear-gradient-76);}.cls-79{fill:url(#linear-gradient-77);}.cls-80{fill:url(#linear-gradient-78);}.cls-81{fill:url(#linear-gradient-79);}.cls-82{fill:url(#linear-gradient-80);}.cls-83{fill:url(#linear-gradient-81);}.cls-84{fill:url(#linear-gradient-82);}.cls-85{fill:url(#linear-gradient-83);}.cls-86{fill:url(#linear-gradient-84);}.cls-87{fill:url(#linear-gradient-85);}.cls-88{fill:url(#linear-gradient-86);}.cls-89{fill:url(#linear-gradient-87);}.cls-90{fill:url(#linear-gradient-88);}.cls-91{fill:url(#linear-gradient-89);}.cls-92{fill:url(#linear-gradient-90);}.cls-93{fill:url(#linear-gradient-91);}.cls-94{fill:url(#linear-gradient-92);}.cls-95{fill:url(#linear-gradient-93);}.cls-96{fill:url(#linear-gradient-94);}.cls-97{fill:url(#linear-gradient-95);}.cls-98{fill:url(#linear-gradient-96);}.cls-99{fill:url(#linear-gradient-97);}.cls-100{fill:url(#linear-gradient-98);}.cls-101{fill:url(#linear-gradient-99);}.cls-102{fill:url(#linear-gradient-100);}.cls-103{fill:url(#linear-gradient-101);}.cls-104{fill:url(#linear-gradient-102);}.cls-105{fill:url(#linear-gradient-103);}.cls-106{fill:url(#linear-gradient-104);}.cls-107{fill:url(#linear-gradient-105);}.cls-108{fill:url(#linear-gradient-106);}.cls-109{fill:url(#linear-gradient-107);}.cls-110{fill:url(#linear-gradient-108);}.cls-111{fill:url(#linear-gradient-109);}.cls-112{fill:url(#linear-gradient-110);}.cls-113{fill:url(#linear-gradient-111);}.cls-114{fill:url(#linear-gradient-112);}.cls-115{fill:url(#linear-gradient-113);}.cls-116{fill:url(#linear-gradient-114);}.cls-117{fill:url(#linear-gradient-115);}.cls-118{fill:url(#linear-gradient-116);}.cls-119{fill:url(#linear-gradient-117);}.cls-120{fill:url(#linear-gradient-118);}.cls-121{fill:url(#linear-gradient-119);}.cls-122{fill:url(#linear-gradient-120);}.cls-123{fill:url(#linear-gradient-121);}.cls-124{fill:url(#linear-gradient-122);}.cls-125{fill:url(#linear-gradient-123);}.cls-126{fill:url(#linear-gradient-124);}.cls-127{fill:url(#linear-gradient-125);}.cls-128{fill:url(#linear-gradient-126);}.cls-129{fill:url(#linear-gradient-127);}.cls-130{fill:url(#linear-gradient-128);}.cls-131{fill:url(#linear-gradient-129);}.cls-132{fill:url(#linear-gradient-130);}.cls-133{fill:url(#linear-gradient-131);}.cls-134{fill:url(#linear-gradient-132);}.cls-135{fill:url(#linear-gradient-133);}.cls-136{fill:url(#linear-gradient-134);}.cls-137{fill:url(#linear-gradient-135);}.cls-138{fill:url(#linear-gradient-136);}.cls-139{fill:url(#linear-gradient-137);}.cls-140{fill:url(#linear-gradient-138);}.cls-141{fill:url(#linear-gradient-139);}.cls-142{fill:url(#linear-gradient-140);}.cls-143{fill:url(#linear-gradient-141);}.cls-144{fill:url(#linear-gradient-142);}.cls-145{fill:url(#linear-gradient-143);}.cls-146{fill:url(#linear-gradient-144);}.cls-147{fill:url(#linear-gradient-145);}.cls-148{fill:url(#linear-gradient-146);}.cls-149{fill:url(#linear-gradient-147);}.cls-150{fill:url(#linear-gradient-148);}.cls-151{fill:url(#linear-gradient-149);}.cls-152{fill:url(#linear-gradient-150);}.cls-153{fill:url(#linear-gradient-151);}.cls-154{fill:url(#linear-gradient-152);}.cls-155{fill:url(#linear-gradient-153);}.cls-156{fill:url(#linear-gradient-154);}.cls-157{fill:url(#linear-gradient-155);}.cls-158{fill:url(#linear-gradient-156);}.cls-159{fill:url(#linear-gradient-157);}.cls-160{fill:url(#linear-gradient-158);}.cls-161{fill:url(#linear-gradient-159);}.cls-162{fill:url(#linear-gradient-160);}.cls-163{fill:url(#linear-gradient-161);}.cls-164{fill:url(#linear-gradient-162);}.cls-165{fill:url(#linear-gradient-163);}.cls-166{fill:url(#linear-gradient-164);}.cls-167{fill:url(#linear-gradient-165);}.cls-168{fill:url(#linear-gradient-166);}.cls-169{fill:url(#linear-gradient-167);}.cls-170{fill:url(#linear-gradient-168);}.cls-171{fill:url(#linear-gradient-169);}.cls-172{fill:url(#linear-gradient-170);}.cls-173{fill:url(#linear-gradient-171);}.cls-174{fill:url(#linear-gradient-172);}.cls-175{fill:url(#linear-gradient-173);}.cls-176{fill:url(#linear-gradient-174);}.cls-177{fill:url(#linear-gradient-175);}.cls-178{fill:url(#linear-gradient-176);}.cls-179{fill:url(#linear-gradient-177);}.cls-180{fill:url(#linear-gradient-178);}.cls-181{fill:url(#linear-gradient-179);}.cls-182{fill:url(#linear-gradient-180);}.cls-183{fill:url(#linear-gradient-181);}.cls-184{fill:url(#linear-gradient-182);}.cls-185{fill:url(#linear-gradient-183);}.cls-186{fill:url(#linear-gradient-184);}.cls-187{fill:url(#linear-gradient-185);}.cls-188{fill:url(#linear-gradient-186);}.cls-189{fill:url(#linear-gradient-187);}.cls-190{fill:url(#linear-gradient-188);}.cls-191{fill:url(#linear-gradient-189);}.cls-192{fill:url(#linear-gradient-190);}.cls-193{fill:url(#linear-gradient-191);}.cls-194{fill:url(#linear-gradient-192);}.cls-195{fill:url(#linear-gradient-193);}.cls-196{fill:url(#linear-gradient-194);}.cls-197{fill:url(#linear-gradient-195);}.cls-198{fill:url(#linear-gradient-196);}.cls-199{fill:url(#linear-gradient-197);}.cls-200{fill:url(#linear-gradient-198);}.cls-201{fill:url(#linear-gradient-199);}.cls-202{fill:url(#linear-gradient-200);}.cls-203{fill:url(#linear-gradient-201);}.cls-204{fill:url(#linear-gradient-202);}.cls-205{fill:url(#linear-gradient-203);}.cls-206{fill:url(#linear-gradient-204);}.cls-207{fill:url(#linear-gradient-205);}.cls-208{fill:url(#linear-gradient-206);}.cls-209{fill:url(#linear-gradient-207);}.cls-210{fill:url(#linear-gradient-208);}.cls-211{fill:url(#linear-gradient-209);}.cls-212{fill:url(#linear-gradient-210);}.cls-213{fill:url(#linear-gradient-211);}.cls-214{fill:url(#linear-gradient-212);}.cls-215{fill:url(#linear-gradient-213);}.cls-216{fill:url(#linear-gradient-214);}.cls-217{fill:url(#linear-gradient-215);}.cls-218{fill:url(#linear-gradient-216);}.cls-219{fill:url(#linear-gradient-217);}.cls-220{fill:url(#linear-gradient-218);}.cls-221{fill:url(#linear-gradient-219);}.cls-222{fill:url(#linear-gradient-220);}.cls-223{fill:url(#linear-gradient-221);}.cls-224{fill:url(#linear-gradient-222);}.cls-225{fill:url(#linear-gradient-223);}.cls-226{fill:url(#linear-gradient-224);}.cls-227{fill:url(#linear-gradient-225);}.cls-228{fill:url(#linear-gradient-226);}.cls-229{fill:url(#linear-gradient-227);}.cls-230{fill:url(#linear-gradient-228);}.cls-231{fill:url(#linear-gradient-229);}.cls-232{fill:url(#linear-gradient-230);}.cls-233{fill:url(#linear-gradient-231);}.cls-234{fill:url(#linear-gradient-232);}.cls-235{fill:url(#linear-gradient-233);}.cls-236{fill:url(#linear-gradient-234);}.cls-237{fill:url(#linear-gradient-235);}.cls-238{fill:url(#linear-gradient-236);}.cls-239{fill:url(#linear-gradient-237);}.cls-240{fill:url(#linear-gradient-238);}.cls-241{fill:url(#linear-gradient-239);}.cls-242{fill:url(#linear-gradient-240);}.cls-243{fill:url(#linear-gradient-241);}.cls-244{fill:url(#linear-gradient-242);}.cls-245{fill:url(#linear-gradient-243);}.cls-246{fill:url(#linear-gradient-244);}.cls-247{fill:url(#linear-gradient-246);}.cls-248{fill:url(#linear-gradient-247);}.cls-249{fill:url(#linear-gradient-248);}.cls-250{fill:url(#linear-gradient-249);}.cls-251{fill:url(#linear-gradient-250);}.cls-252{fill:url(#linear-gradient-251);}.cls-253{fill:url(#linear-gradient-252);}.cls-254{fill:url(#linear-gradient-253);}.cls-255{fill:url(#linear-gradient-254);}.cls-256{fill:url(#linear-gradient-255);}.cls-257{fill:url(#linear-gradient-256);}.cls-258{fill:url(#linear-gradient-257);}.cls-259{fill:url(#linear-gradient-258);}.cls-260{fill:url(#linear-gradient-259);}.cls-261{fill:#fff;}.cls-262{fill:#a00007;}</style><linearGradient id="linear-gradient" x1="2136.5" y1="25.13" x2="2131.2" y2="14.53" gradientTransform="matrix(-1, 0, 0, 1, 2173.21, 0)" gradientUnits="userSpaceOnUse"><stop offset="0" stop-color="#ff31fa"/><stop offset="0.49" stop-color="#8733ff"/><stop offset="1" stop-color="#221dff"/></linearGradient><linearGradient id="linear-gradient-2" x1="2136.43" y1="25.16" x2="2131.13" y2="14.57" xlink:href="#linear-gradient"/><linearGradient id="linear-gradient-3" x1="2134.76" y1="26" x2="2129.46" y2="15.4" xlink:href="#linear-gradient"/><linearGradient id="linear-gradient-4" x1="2136.74" y1="25.01" x2="2131.44" y2="14.41" xlink:href="#linear-gradient"/><linearGradient id="linear-gradient-5" x1="2132.23" y1="27.26" x2="2126.93" y2="16.67" xlink:href="#linear-gradient"/><linearGradient id="linear-gradient-6" x1="2136.68" y1="25.03" x2="2131.38" y2="14.44" xlink:href="#linear-gradient"/><linearGradient id="linear-gradient-7" x1="2135.26" y1="25.75" x2="2129.96" y2="15.15" xlink:href="#linear-gradient"/><linearGradient id="linear-gradient-8" x1="2136.63" y1="25.06" x2="2131.33" y2="14.47" xlink:href="#linear-gradient"/><linearGradient id="linear-gradient-9" x1="2130.39" y1="28.18" x2="2125.09" y2="17.59" xlink:href="#linear-gradient"/><linearGradient id="linear-gradient-10" x1="2136.72" y1="25.02" x2="2131.42" y2="14.42" xlink:href="#linear-gradient"/><linearGradient id="linear-gradient-11" x1="2132.91" y1="26.92" x2="2127.62" y2="16.32" xlink:href="#linear-gradient"/><linearGradient id="linear-gradient-12" x1="2133.53" y1="26.61" x2="2128.23" y2="16.02" xlink:href="#linear-gradient"/><linearGradient id="linear-gradient-13" x1="2136.56" y1="25.09" x2="2131.27" y2="14.5" xlink:href="#linear-gradient"/><linearGradient id="linear-gradient-14" x1="2136.72" y1="25.02" x2="2131.42" y2="14.42" xlink:href="#linear-gradient"/><linearGradient id="linear-gradient-15" x1="2114.93" y1="70.46" x2="2150.46" y2="69.07" gradientTransform="matrix(-1, -0.06, -0.06, 1, 2172.28, 57.08)" xlink:href="#linear-gradient"/><linearGradient id="linear-gradient-16" x1="2114.99" y1="71.81" x2="2150.51" y2="70.41" gradientTransform="matrix(-1, -0.06, -0.06, 1, 2172.28, 57.08)" xlink:href="#linear-gradient"/><linearGradient id="linear-gradient-17" x1="2114.96" y1="71.1" x2="2150.48" y2="69.7" gradientTransform="matrix(-1, -0.06, -0.06, 1, 2172.28, 57.08)" xlink:href="#linear-gradient"/><linearGradient id="linear-gradient-18" x1="2115.02" y1="72.59" x2="2150.54" y2="71.19" gradientTransform="matrix(-1, -0.06, -0.06, 1, 2172.28, 57.08)" xlink:href="#linear-gradient"/><linearGradient id="linear-gradient-19" x1="2114.91" y1="69.93" x2="2150.43" y2="68.53" gradientTransform="matrix(-1, -0.06, -0.06, 1, 2172.28, 57.08)" xlink:href="#linear-gradient"/><linearGradient id="linear-gradient-20" x1="2115.07" y1="73.95" x2="2150.59" y2="72.55" gradientTransform="matrix(-1, -0.06, -0.06, 1, 2172.28, 57.08)" xlink:href="#linear-gradient"/><linearGradient id="linear-gradient-21" x1="2114.89" y1="69.5" x2="2150.42" y2="68.1" gradientTransform="matrix(-1, -0.06, -0.06, 1, 2172.28, 57.08)" xlink:href="#linear-gradient"/><linearGradient id="linear-gradient-22" x1="2114.88" y1="69.2" x2="2150.41" y2="67.8" gradientTransform="matrix(-1, -0.06, -0.06, 1, 2172.28, 57.08)" xlink:href="#linear-gradient"/><linearGradient id="linear-gradient-23" x1="2115.12" y1="75.16" x2="2150.64" y2="73.76" gradientTransform="matrix(-1, -0.06, -0.06, 1, 2172.28, 57.08)" xlink:href="#linear-gradient"/><linearGradient id="linear-gradient-24" x1="286.72" y1="229.32" x2="269.71" y2="244.97" gradientTransform="translate(-174.87 -247.84) rotate(11.91)" gradientUnits="userSpaceOnUse"><stop offset="0" stop-color="#ffde3e"/><stop offset="1" stop-color="#ff793e"/></linearGradient><linearGradient id="linear-gradient-25" x1="284.85" y1="227.29" x2="267.84" y2="242.94" xlink:href="#linear-gradient-24"/><linearGradient id="linear-gradient-26" x1="286.52" y1="229.1" x2="269.51" y2="244.75" xlink:href="#linear-gradient-24"/><linearGradient id="linear-gradient-27" x1="277.2" y1="218.97" x2="260.19" y2="234.63" xlink:href="#linear-gradient-24"/><linearGradient id="linear-gradient-28" x1="278.36" y1="220.24" x2="261.35" y2="235.89" xlink:href="#linear-gradient-24"/><linearGradient id="linear-gradient-29" x1="276.3" y1="218" x2="259.29" y2="233.65" xlink:href="#linear-gradient-24"/><linearGradient id="linear-gradient-30" x1="285.4" y1="227.89" x2="268.39" y2="243.54" xlink:href="#linear-gradient-24"/><linearGradient id="linear-gradient-31" x1="270.03" y1="225.12" x2="240.43" y2="242.02" xlink:href="#linear-gradient-24"/><linearGradient id="linear-gradient-32" x1="273.6" y1="231.37" x2="244" y2="248.28" xlink:href="#linear-gradient-24"/><linearGradient id="linear-gradient-33" x1="271.95" y1="228.49" x2="242.35" y2="245.4" xlink:href="#linear-gradient-24"/><linearGradient id="linear-gradient-34" x1="272.6" y1="229.62" x2="243" y2="246.52" xlink:href="#linear-gradient-24"/><linearGradient id="linear-gradient-35" x1="274.99" y1="233.81" x2="245.39" y2="250.71" xlink:href="#linear-gradient-24"/><linearGradient id="linear-gradient-36" x1="281.66" y1="223.82" x2="264.65" y2="239.47" xlink:href="#linear-gradient-24"/><linearGradient id="linear-gradient-37" x1="273.71" y1="231.56" x2="244.11" y2="248.47" xlink:href="#linear-gradient-24"/><linearGradient id="linear-gradient-38" x1="274.22" y1="215.73" x2="257.21" y2="231.39" xlink:href="#linear-gradient-24"/><linearGradient id="linear-gradient-39" x1="269.93" y1="224.95" x2="240.33" y2="241.85" xlink:href="#linear-gradient-24"/><linearGradient id="linear-gradient-40" x1="272.09" y1="213.41" x2="255.08" y2="229.07" xlink:href="#linear-gradient-24"/><linearGradient id="linear-gradient-41" x1="268.1" y1="221.75" x2="238.5" y2="238.65" xlink:href="#linear-gradient-24"/><linearGradient id="linear-gradient-42" x1="272.88" y1="214.28" x2="255.87" y2="229.93" xlink:href="#linear-gradient-24"/><linearGradient id="linear-gradient-43" x1="269.38" y1="223.98" x2="239.78" y2="240.89" xlink:href="#linear-gradient-24"/><linearGradient id="linear-gradient-44" x1="282.07" y1="224.26" x2="265.06" y2="239.91" xlink:href="#linear-gradient-24"/><linearGradient id="linear-gradient-45" x1="274.07" y1="232.19" x2="244.47" y2="249.09" xlink:href="#linear-gradient-24"/><linearGradient id="linear-gradient-46" x1="273.25" y1="214.68" x2="256.24" y2="230.33" xlink:href="#linear-gradient-24"/><linearGradient id="linear-gradient-47" x1="269.88" y1="224.85" x2="240.28" y2="241.76" xlink:href="#linear-gradient-24"/><linearGradient id="linear-gradient-48" x1="274.35" y1="215.87" x2="257.34" y2="231.53" xlink:href="#linear-gradient-24"/><linearGradient id="linear-gradient-49" x1="270.34" y1="225.66" x2="240.74" y2="242.57" xlink:href="#linear-gradient-24"/><linearGradient id="linear-gradient-50" x1="280.65" y1="222.72" x2="263.64" y2="238.37" xlink:href="#linear-gradient-24"/><linearGradient id="linear-gradient-51" x1="272.85" y1="230.05" x2="243.25" y2="246.96" xlink:href="#linear-gradient-24"/><linearGradient id="linear-gradient-52" x1="280.16" y1="222.19" x2="263.15" y2="237.84" xlink:href="#linear-gradient-24"/><linearGradient id="linear-gradient-53" x1="272.44" y1="229.35" x2="242.84" y2="246.25" xlink:href="#linear-gradient-24"/><linearGradient id="linear-gradient-54" x1="272.23" y1="213.57" x2="255.22" y2="229.22" xlink:href="#linear-gradient-24"/><linearGradient id="linear-gradient-55" x1="268.4" y1="222.27" x2="238.8" y2="239.17" xlink:href="#linear-gradient-24"/><linearGradient id="linear-gradient-56" x1="281.21" y1="223.33" x2="264.2" y2="238.98" xlink:href="#linear-gradient-24"/><linearGradient id="linear-gradient-57" x1="273.31" y1="230.87" x2="243.71" y2="247.78" xlink:href="#linear-gradient-24"/><linearGradient id="linear-gradient-58" x1="273.63" y1="215.09" x2="256.62" y2="230.74" xlink:href="#linear-gradient-24"/><linearGradient id="linear-gradient-59" x1="270.35" y1="225.69" x2="240.75" y2="242.59" xlink:href="#linear-gradient-24"/><linearGradient id="linear-gradient-60" x1="282.45" y1="224.68" x2="265.44" y2="240.33" xlink:href="#linear-gradient-24"/><linearGradient id="linear-gradient-61" x1="274.41" y1="232.79" x2="244.81" y2="249.7" xlink:href="#linear-gradient-24"/><linearGradient id="linear-gradient-62" x1="274.6" y1="216.14" x2="257.58" y2="231.79" xlink:href="#linear-gradient-24"/><linearGradient id="linear-gradient-63" x1="270.83" y1="226.52" x2="241.23" y2="243.42" xlink:href="#linear-gradient-24"/><linearGradient id="linear-gradient-64" x1="275.96" y1="217.62" x2="258.95" y2="233.28" xlink:href="#linear-gradient-24"/><linearGradient id="linear-gradient-65" x1="269.91" y1="224.91" x2="240.31" y2="241.81" xlink:href="#linear-gradient-24"/><linearGradient id="linear-gradient-66" x1="275.27" y1="216.87" x2="258.26" y2="232.52" xlink:href="#linear-gradient-24"/><linearGradient id="linear-gradient-67" x1="272.14" y1="228.81" x2="242.54" y2="245.71" xlink:href="#linear-gradient-24"/><linearGradient id="linear-gradient-68" x1="280.03" y1="222.04" x2="263.01" y2="237.69" xlink:href="#linear-gradient-24"/><linearGradient id="linear-gradient-69" x1="272.57" y1="229.57" x2="242.97" y2="246.47" xlink:href="#linear-gradient-24"/><linearGradient id="linear-gradient-70" x1="272.49" y1="213.85" x2="255.47" y2="229.5" xlink:href="#linear-gradient-24"/><linearGradient id="linear-gradient-71" x1="268.8" y1="222.97" x2="239.2" y2="239.88" xlink:href="#linear-gradient-24"/><linearGradient id="linear-gradient-72" x1="37.26" y1="103.18" x2="26.61" y2="119.77" gradientTransform="matrix(1, 0.08, -0.08, 1, -0.52, -77.99)" gradientUnits="userSpaceOnUse"><stop offset="0.11" stop-color="#fff"/><stop offset="0.92" stop-color="#fff" stop-opacity="0"/></linearGradient><linearGradient id="linear-gradient-73" x1="36.31" y1="102.57" x2="25.66" y2="119.16" xlink:href="#linear-gradient-72"/><linearGradient id="linear-gradient-74" x1="35.85" y1="102.27" x2="25.2" y2="118.86" xlink:href="#linear-gradient-72"/><linearGradient id="linear-gradient-75" x1="35.73" y1="102.2" x2="25.08" y2="118.79" xlink:href="#linear-gradient-72"/><linearGradient id="linear-gradient-76" x1="36.04" y1="102.39" x2="25.39" y2="118.99" xlink:href="#linear-gradient-72"/><linearGradient id="linear-gradient-77" x1="37.81" y1="103.53" x2="27.16" y2="120.12" xlink:href="#linear-gradient-72"/><linearGradient id="linear-gradient-78" x1="39.43" y1="104.57" x2="28.78" y2="121.16" xlink:href="#linear-gradient-72"/><linearGradient id="linear-gradient-79" x1="40.24" y1="105.09" x2="29.58" y2="121.68" xlink:href="#linear-gradient-72"/><linearGradient id="linear-gradient-80" x1="37.05" y1="103.04" x2="26.4" y2="119.64" xlink:href="#linear-gradient-72"/><linearGradient id="linear-gradient-81" x1="37.48" y1="103.32" x2="26.83" y2="119.91" xlink:href="#linear-gradient-72"/><linearGradient id="linear-gradient-82" x1="38.49" y1="103.97" x2="27.84" y2="120.56" xlink:href="#linear-gradient-72"/><linearGradient id="linear-gradient-83" x1="273.48" y1="214.92" x2="256.46" y2="230.57" xlink:href="#linear-gradient-24"/><linearGradient id="linear-gradient-84" x1="269.66" y1="224.47" x2="240.06" y2="241.37" xlink:href="#linear-gradient-24"/><linearGradient id="linear-gradient-85" x1="38.2" y1="103.78" x2="27.55" y2="120.37" xlink:href="#linear-gradient-72"/><linearGradient id="linear-gradient-86" x1="59.88" y1="109.74" x2="50.12" y2="124.94" xlink:href="#linear-gradient-72"/><linearGradient id="linear-gradient-87" x1="54.07" y1="106.01" x2="44.31" y2="121.21" xlink:href="#linear-gradient-72"/><linearGradient id="linear-gradient-88" x1="60.77" y1="110.31" x2="51.01" y2="125.51" xlink:href="#linear-gradient-72"/><linearGradient id="linear-gradient-89" x1="54.87" y1="106.53" x2="45.12" y2="121.73" xlink:href="#linear-gradient-72"/><linearGradient id="linear-gradient-90" x1="54.44" y1="106.25" x2="44.68" y2="121.45" xlink:href="#linear-gradient-72"/><linearGradient id="linear-gradient-91" x1="55.23" y1="106.76" x2="45.48" y2="121.96" xlink:href="#linear-gradient-72"/><linearGradient id="linear-gradient-92" x1="55.55" y1="106.96" x2="45.79" y2="122.16" xlink:href="#linear-gradient-72"/><linearGradient id="linear-gradient-93" x1="55.8" y1="107.13" x2="46.05" y2="122.33" xlink:href="#linear-gradient-72"/><linearGradient id="linear-gradient-94" x1="56.63" y1="107.66" x2="46.88" y2="122.86" xlink:href="#linear-gradient-72"/><linearGradient id="linear-gradient-95" x1="53.83" y1="105.86" x2="44.08" y2="121.06" xlink:href="#linear-gradient-72"/><linearGradient id="linear-gradient-96" x1="53.09" y1="105.38" x2="43.33" y2="120.58" xlink:href="#linear-gradient-72"/><linearGradient id="linear-gradient-97" x1="56.05" y1="107.29" x2="46.29" y2="122.48" xlink:href="#linear-gradient-72"/><linearGradient id="linear-gradient-98" x1="283.73" y1="226.06" x2="266.71" y2="241.71" xlink:href="#linear-gradient-24"/><linearGradient id="linear-gradient-99" x1="57.56" y1="108.26" x2="47.81" y2="123.45" xlink:href="#linear-gradient-72"/><linearGradient id="linear-gradient-100" x1="274.99" y1="233.81" x2="245.39" y2="250.71" xlink:href="#linear-gradient-24"/><linearGradient id="linear-gradient-101" x1="56.28" y1="107.43" x2="46.52" y2="122.63" xlink:href="#linear-gradient-72"/><linearGradient id="linear-gradient-102" x1="281.35" y1="223.48" x2="264.34" y2="239.13" xlink:href="#linear-gradient-24"/><linearGradient id="linear-gradient-103" x1="273.65" y1="231.47" x2="244.05" y2="248.37" xlink:href="#linear-gradient-24"/><linearGradient id="linear-gradient-104" x1="54.57" y1="106.33" x2="44.81" y2="121.53" xlink:href="#linear-gradient-72"/><linearGradient id="linear-gradient-105" x1="2126.4" y1="15.48" x2="2151" y2="15.01" xlink:href="#linear-gradient"/><linearGradient id="linear-gradient-106" x1="2126.45" y1="17.94" x2="2151.05" y2="17.47" xlink:href="#linear-gradient"/><linearGradient id="linear-gradient-107" x1="2126.32" y1="10.96" x2="2150.91" y2="10.49" xlink:href="#linear-gradient"/><linearGradient id="linear-gradient-108" x1="2126.4" y1="15.22" x2="2151" y2="14.75" xlink:href="#linear-gradient"/><linearGradient id="linear-gradient-109" x1="2139.88" y1="23.44" x2="2134.58" y2="12.84" xlink:href="#linear-gradient"/><linearGradient id="linear-gradient-110" x1="2126.35" y1="12.55" x2="2150.94" y2="12.07" xlink:href="#linear-gradient"/><linearGradient id="linear-gradient-111" x1="2130.78" y1="27.98" x2="2125.49" y2="17.39" xlink:href="#linear-gradient"/><linearGradient id="linear-gradient-112" x1="2126.48" y1="19.4" x2="2151.08" y2="18.93" xlink:href="#linear-gradient"/><linearGradient id="linear-gradient-113" x1="2131.68" y1="27.53" x2="2126.39" y2="16.94" xlink:href="#linear-gradient"/><linearGradient id="linear-gradient-114" x1="2126.45" y1="18.14" x2="2151.05" y2="17.67" xlink:href="#linear-gradient"/><linearGradient id="linear-gradient-115" x1="2132.56" y1="27.1" x2="2127.26" y2="16.5" xlink:href="#linear-gradient"/><linearGradient id="linear-gradient-116" x1="2126.43" y1="17.18" x2="2151.03" y2="16.7" xlink:href="#linear-gradient"/><linearGradient id="linear-gradient-117" x1="2148.78" y1="18.99" x2="2143.48" y2="8.39" xlink:href="#linear-gradient"/><linearGradient id="linear-gradient-118" x1="2126.45" y1="17.94" x2="2151.05" y2="17.47" xlink:href="#linear-gradient"/><linearGradient id="linear-gradient-119" x1="2133.53" y1="26.61" x2="2128.23" y2="16.02" xlink:href="#linear-gradient"/><linearGradient id="linear-gradient-120" x1="2126.42" y1="16.32" x2="2151.02" y2="15.85" xlink:href="#linear-gradient"/><linearGradient id="linear-gradient-121" x1="2145.31" y1="20.72" x2="2140.02" y2="10.13" xlink:href="#linear-gradient"/><linearGradient id="linear-gradient-122" x1="2126.45" y1="18" x2="2151.05" y2="17.53" xlink:href="#linear-gradient"/><linearGradient id="linear-gradient-123" x1="2141.84" y1="22.46" x2="2136.54" y2="11.86" xlink:href="#linear-gradient"/><linearGradient id="linear-gradient-124" x1="2126.41" y1="15.66" x2="2151" y2="15.19" xlink:href="#linear-gradient"/><linearGradient id="linear-gradient-125" x1="2144.45" y1="21.15" x2="2139.15" y2="10.56" xlink:href="#linear-gradient"/><linearGradient id="linear-gradient-126" x1="2126.44" y1="17.66" x2="2151.04" y2="17.19" xlink:href="#linear-gradient"/><linearGradient id="linear-gradient-127" x1="2148.12" y1="19.32" x2="2142.82" y2="8.72" xlink:href="#linear-gradient"/><linearGradient id="linear-gradient-128" x1="2126.43" y1="17" x2="2151.03" y2="16.53" xlink:href="#linear-gradient"/><linearGradient id="linear-gradient-129" x1="1916.21" y1="-631.12" x2="1914.6" y2="-616.27" gradientTransform="matrix(-0.71, 0.71, 0.71, 0.71, 1808.64, -890.52)" xlink:href="#linear-gradient-24"/><linearGradient id="linear-gradient-130" x1="1912.87" y1="-631.48" x2="1911.26" y2="-616.63" gradientTransform="matrix(-0.71, 0.71, 0.71, 0.71, 1808.64, -890.52)" xlink:href="#linear-gradient-24"/><linearGradient id="linear-gradient-131" x1="1913.85" y1="-631.37" x2="1912.24" y2="-616.53" gradientTransform="matrix(-0.71, 0.71, 0.71, 0.71, 1808.64, -890.52)" xlink:href="#linear-gradient-24"/><linearGradient id="linear-gradient-132" x1="1912.94" y1="-631.47" x2="1911.33" y2="-616.62" gradientTransform="matrix(-0.71, 0.71, 0.71, 0.71, 1808.64, -890.52)" xlink:href="#linear-gradient-24"/><linearGradient id="linear-gradient-133" x1="1914.66" y1="-631.29" x2="1913.05" y2="-616.44" gradientTransform="matrix(-0.71, 0.71, 0.71, 0.71, 1808.64, -890.52)" xlink:href="#linear-gradient-24"/><linearGradient id="linear-gradient-134" x1="1911.83" y1="-631.59" x2="1910.22" y2="-616.75" gradientTransform="matrix(-0.71, 0.71, 0.71, 0.71, 1808.64, -890.52)" xlink:href="#linear-gradient-24"/><linearGradient id="linear-gradient-135" x1="1910.69" y1="-631.72" x2="1909.08" y2="-616.87" gradientTransform="matrix(-0.71, 0.71, 0.71, 0.71, 1808.64, -890.52)" xlink:href="#linear-gradient-24"/><linearGradient id="linear-gradient-136" x1="1907.05" y1="-632.11" x2="1905.44" y2="-617.26" gradientTransform="matrix(-0.71, 0.71, 0.71, 0.71, 1808.64, -890.52)" xlink:href="#linear-gradient-24"/><linearGradient id="linear-gradient-137" x1="1911.63" y1="-631.61" x2="1910.02" y2="-616.77" gradientTransform="matrix(-0.71, 0.71, 0.71, 0.71, 1808.64, -890.52)" xlink:href="#linear-gradient-24"/><linearGradient id="linear-gradient-138" x1="2126.46" y1="18.4" x2="2151.06" y2="17.93" xlink:href="#linear-gradient"/><linearGradient id="linear-gradient-139" x1="1905.24" y1="-632.31" x2="1903.63" y2="-617.46" gradientTransform="matrix(-0.71, 0.71, 0.71, 0.71, 1808.64, -890.52)" xlink:href="#linear-gradient-24"/><linearGradient id="linear-gradient-140" x1="2126.46" y1="18.24" x2="2151.05" y2="17.77" xlink:href="#linear-gradient"/><linearGradient id="linear-gradient-141" x1="1902.97" y1="-632.55" x2="1901.37" y2="-617.7" gradientTransform="matrix(-0.71, 0.71, 0.71, 0.71, 1808.64, -890.52)" xlink:href="#linear-gradient-24"/><linearGradient id="linear-gradient-142" x1="2149.06" y1="18.84" x2="2143.77" y2="8.25" xlink:href="#linear-gradient"/><linearGradient id="linear-gradient-143" x1="2126.46" y1="18.39" x2="2151.06" y2="17.92" xlink:href="#linear-gradient"/><linearGradient id="linear-gradient-144" x1="1905.29" y1="-632.3" x2="1903.68" y2="-617.45" gradientTransform="matrix(-0.71, 0.71, 0.71, 0.71, 1808.64, -890.52)" xlink:href="#linear-gradient-24"/><linearGradient id="linear-gradient-145" x1="2146.28" y1="20.24" x2="2140.98" y2="9.64" xlink:href="#linear-gradient"/><linearGradient id="linear-gradient-146" x1="2126.46" y1="18.24" x2="2151.05" y2="17.77" xlink:href="#linear-gradient"/><linearGradient id="linear-gradient-147" x1="1903.1" y1="-632.54" x2="1901.49" y2="-617.69" gradientTransform="matrix(-0.71, 0.71, 0.71, 0.71, 1808.64, -890.52)" xlink:href="#linear-gradient-24"/><linearGradient id="linear-gradient-148" x1="2154.89" y1="86.93" x2="2170.52" y2="86.31" gradientTransform="matrix(-1, -0.06, -0.06, 1, 2172.28, 57.08)" xlink:href="#linear-gradient"/><linearGradient id="linear-gradient-149" x1="2154.79" y1="84.29" x2="2170.41" y2="83.68" gradientTransform="matrix(-1, -0.06, -0.06, 1, 2172.28, 57.08)" xlink:href="#linear-gradient"/><linearGradient id="linear-gradient-150" x1="2154.85" y1="85.76" x2="2170.47" y2="85.15" gradientTransform="matrix(-1, -0.06, -0.06, 1, 2172.28, 57.08)" xlink:href="#linear-gradient"/><linearGradient id="linear-gradient-151" x1="2154.77" y1="83.84" x2="2170.4" y2="83.22" gradientTransform="matrix(-1, -0.06, -0.06, 1, 2172.28, 57.08)" xlink:href="#linear-gradient"/><linearGradient id="linear-gradient-152" x1="2154.87" y1="86.3" x2="2170.49" y2="85.69" gradientTransform="matrix(-1, -0.06, -0.06, 1, 2172.28, 57.08)" xlink:href="#linear-gradient"/><linearGradient id="linear-gradient-153" x1="2154.78" y1="84.03" x2="2170.4" y2="83.41" gradientTransform="matrix(-1, -0.06, -0.06, 1, 2172.28, 57.08)" xlink:href="#linear-gradient"/><linearGradient id="linear-gradient-154" x1="2154.77" y1="83.77" x2="2170.39" y2="83.15" gradientTransform="matrix(-1, -0.06, -0.06, 1, 2172.28, 57.08)" xlink:href="#linear-gradient"/><linearGradient id="linear-gradient-155" x1="2154.77" y1="83.7" x2="2170.39" y2="83.08" gradientTransform="matrix(-1, -0.06, -0.06, 1, 2172.28, 57.08)" xlink:href="#linear-gradient"/><linearGradient id="linear-gradient-156" x1="2154.84" y1="85.69" x2="2170.47" y2="85.08" gradientTransform="matrix(-1, -0.06, -0.06, 1, 2172.28, 57.08)" xlink:href="#linear-gradient"/><linearGradient id="linear-gradient-157" x1="9.94" y1="12.63" x2="7.31" y2="16.72" gradientTransform="matrix(1, 0, 0, 1, 0, 0)" xlink:href="#linear-gradient-72"/><linearGradient id="linear-gradient-158" x1="11.94" y1="13.92" x2="9.31" y2="18.01" gradientTransform="matrix(1, 0, 0, 1, 0, 0)" xlink:href="#linear-gradient-72"/><linearGradient id="linear-gradient-159" x1="9.48" y1="12.34" x2="6.85" y2="16.43" gradientTransform="matrix(1, 0, 0, 1, 0, 0)" xlink:href="#linear-gradient-72"/><linearGradient id="linear-gradient-160" x1="9.66" y1="12.45" x2="7.04" y2="16.55" gradientTransform="matrix(1, 0, 0, 1, 0, 0)" xlink:href="#linear-gradient-72"/><linearGradient id="linear-gradient-161" x1="12.38" y1="14.2" x2="9.75" y2="18.29" gradientTransform="matrix(1, 0, 0, 1, 0, 0)" xlink:href="#linear-gradient-72"/><linearGradient id="linear-gradient-162" x1="12.38" y1="14.2" x2="9.76" y2="18.29" gradientTransform="matrix(1, 0, 0, 1, 0, 0)" xlink:href="#linear-gradient-72"/><linearGradient id="linear-gradient-163" x1="9.36" y1="12.26" x2="6.73" y2="16.35" gradientTransform="matrix(1, 0, 0, 1, 0, 0)" xlink:href="#linear-gradient-72"/><linearGradient id="linear-gradient-164" x1="2154.83" y1="85.44" x2="2170.46" y2="84.82" gradientTransform="matrix(-1, -0.06, -0.06, 1, 2172.28, 57.08)" xlink:href="#linear-gradient"/><linearGradient id="linear-gradient-165" x1="10.87" y1="13.23" x2="8.25" y2="17.32" gradientTransform="matrix(1, 0, 0, 1, 0, 0)" xlink:href="#linear-gradient-72"/><linearGradient id="linear-gradient-166" x1="2146.29" y1="20.23" x2="2140.99" y2="9.64" xlink:href="#linear-gradient"/><linearGradient id="linear-gradient-167" x1="2126.46" y1="18.24" x2="2151.05" y2="17.77" xlink:href="#linear-gradient"/><linearGradient id="linear-gradient-168" x1="28.18" y1="17.76" x2="28.06" y2="17.94" gradientTransform="matrix(1, 0, 0, 1, 0, 0)" xlink:href="#linear-gradient-72"/><linearGradient id="linear-gradient-169" x1="2126.46" y1="18.25" x2="2151.05" y2="17.78" xlink:href="#linear-gradient"/><linearGradient id="linear-gradient-170" x1="1903.05" y1="-632.54" x2="1901.44" y2="-617.7" gradientTransform="matrix(-0.71, 0.71, 0.71, 0.71, 1808.64, -890.52)" xlink:href="#linear-gradient-24"/><linearGradient id="linear-gradient-171" x1="28.26" y1="17.81" x2="28.14" y2="18" gradientTransform="matrix(1, 0, 0, 1, 0, 0)" xlink:href="#linear-gradient-72"/><linearGradient id="linear-gradient-172" x1="2126.46" y1="18.25" x2="2151.05" y2="17.78" xlink:href="#linear-gradient"/><linearGradient id="linear-gradient-173" x1="1902.99" y1="-632.55" x2="1901.38" y2="-617.7" gradientTransform="matrix(-0.71, 0.71, 0.71, 0.71, 1808.64, -890.52)" xlink:href="#linear-gradient-24"/><linearGradient id="linear-gradient-174" x1="28.32" y1="17.85" x2="28.2" y2="18.04" gradientTransform="matrix(1, 0, 0, 1, 0, 0)" xlink:href="#linear-gradient-72"/><linearGradient id="linear-gradient-175" x1="2146.25" y1="20.25" x2="2140.95" y2="9.66" xlink:href="#linear-gradient"/><linearGradient id="linear-gradient-176" x1="2126.46" y1="18.24" x2="2151.05" y2="17.77" xlink:href="#linear-gradient"/><linearGradient id="linear-gradient-177" x1="1903.08" y1="-632.54" x2="1901.47" y2="-617.69" gradientTransform="matrix(-0.71, 0.71, 0.71, 0.71, 1808.64, -890.52)" xlink:href="#linear-gradient-24"/><linearGradient id="linear-gradient-178" x1="28.21" y1="17.78" x2="28.09" y2="17.97" gradientTransform="matrix(1, 0, 0, 1, 0, 0)" xlink:href="#linear-gradient-72"/><linearGradient id="linear-gradient-179" x1="13.04" y1="15.31" x2="8.65" y2="22.15" gradientTransform="matrix(1, 0, 0, 1, 0, 0)" xlink:href="#linear-gradient-72"/><linearGradient id="linear-gradient-180" x1="13.89" y1="15.85" x2="9.5" y2="22.69" gradientTransform="matrix(1, 0, 0, 1, 0, 0)" xlink:href="#linear-gradient-72"/><linearGradient id="linear-gradient-181" x1="14.82" y1="16.45" x2="10.43" y2="23.29" gradientTransform="matrix(1, 0, 0, 1, 0, 0)" xlink:href="#linear-gradient-72"/><linearGradient id="linear-gradient-182" x1="16.98" y1="17.84" x2="12.59" y2="24.68" gradientTransform="matrix(1, 0, 0, 1, 0, 0)" xlink:href="#linear-gradient-72"/><linearGradient id="linear-gradient-183" x1="15.9" y1="17.14" x2="11.51" y2="23.98" gradientTransform="matrix(1, 0, 0, 1, 0, 0)" xlink:href="#linear-gradient-72"/><linearGradient id="linear-gradient-184" x1="18.92" y1="19.08" x2="14.53" y2="25.92" gradientTransform="matrix(1, 0, 0, 1, 0, 0)" xlink:href="#linear-gradient-72"/><linearGradient id="linear-gradient-185" x1="16.8" y1="17.72" x2="12.41" y2="24.56" gradientTransform="matrix(1, 0, 0, 1, 0, 0)" xlink:href="#linear-gradient-72"/><linearGradient id="linear-gradient-186" x1="14.82" y1="16.45" x2="10.43" y2="23.28" gradientTransform="matrix(1, 0, 0, 1, 0, 0)" xlink:href="#linear-gradient-72"/><linearGradient id="linear-gradient-187" x1="17.87" y1="18.41" x2="13.49" y2="25.25" gradientTransform="matrix(1, 0, 0, 1, 0, 0)" xlink:href="#linear-gradient-72"/><linearGradient id="linear-gradient-188" x1="1912.97" y1="-631.47" x2="1911.37" y2="-616.62" gradientTransform="matrix(-0.71, 0.71, 0.71, 0.71, 1808.64, -890.52)" xlink:href="#linear-gradient-24"/><linearGradient id="linear-gradient-189" x1="15.97" y1="17.19" x2="11.58" y2="24.02" gradientTransform="matrix(1, 0, 0, 1, 0, 0)" xlink:href="#linear-gradient-72"/><linearGradient id="linear-gradient-190" x1="37.92" y1="7.01" x2="25.19" y2="26.85" gradientTransform="matrix(1, 0, 0, 1, 0, 0)" xlink:href="#linear-gradient-72"/><linearGradient id="linear-gradient-191" x1="50.27" y1="14.94" x2="37.54" y2="34.78" gradientTransform="matrix(1, 0, 0, 1, 0, 0)" xlink:href="#linear-gradient-72"/><linearGradient id="linear-gradient-192" x1="45.47" y1="11.86" x2="32.73" y2="31.7" gradientTransform="matrix(1, 0, 0, 1, 0, 0)" xlink:href="#linear-gradient-72"/><linearGradient id="linear-gradient-193" x1="46.01" y1="12.21" x2="33.28" y2="32.05" gradientTransform="matrix(1, 0, 0, 1, 0, 0)" xlink:href="#linear-gradient-72"/><linearGradient id="linear-gradient-194" x1="45.71" y1="12.01" x2="32.97" y2="31.85" gradientTransform="matrix(1, 0, 0, 1, 0, 0)" xlink:href="#linear-gradient-72"/><linearGradient id="linear-gradient-195" x1="33.44" y1="4.14" x2="20.71" y2="23.98" gradientTransform="matrix(1, 0, 0, 1, 0, 0)" xlink:href="#linear-gradient-72"/><linearGradient id="linear-gradient-196" x1="44.06" y1="10.95" x2="31.32" y2="30.79" gradientTransform="matrix(1, 0, 0, 1, 0, 0)" xlink:href="#linear-gradient-72"/><linearGradient id="linear-gradient-197" x1="49.25" y1="14.29" x2="36.52" y2="34.13" gradientTransform="matrix(1, 0, 0, 1, 0, 0)" xlink:href="#linear-gradient-72"/><linearGradient id="linear-gradient-198" x1="46.55" y1="12.55" x2="33.81" y2="32.39" gradientTransform="matrix(1, 0, 0, 1, 0, 0)" xlink:href="#linear-gradient-72"/><linearGradient id="linear-gradient-199" x1="47.52" y1="13.17" x2="34.78" y2="33.01" gradientTransform="matrix(1, 0, 0, 1, 0, 0)" xlink:href="#linear-gradient-72"/><linearGradient id="linear-gradient-200" x1="48.43" y1="13.76" x2="35.7" y2="33.6" gradientTransform="matrix(1, 0, 0, 1, 0, 0)" xlink:href="#linear-gradient-72"/><linearGradient id="linear-gradient-201" x1="44.18" y1="11.03" x2="31.45" y2="30.87" gradientTransform="matrix(1, 0, 0, 1, 0, 0)" xlink:href="#linear-gradient-72"/><linearGradient id="linear-gradient-202" x1="44.38" y1="11.16" x2="31.65" y2="31" gradientTransform="matrix(1, 0, 0, 1, 0, 0)" xlink:href="#linear-gradient-72"/><linearGradient id="linear-gradient-203" x1="44.5" y1="11.24" x2="31.76" y2="31.08" gradientTransform="matrix(1, 0, 0, 1, 0, 0)" xlink:href="#linear-gradient-72"/><linearGradient id="linear-gradient-204" x1="44.6" y1="11.3" x2="31.87" y2="31.14" gradientTransform="matrix(1, 0, 0, 1, 0, 0)" xlink:href="#linear-gradient-72"/><linearGradient id="linear-gradient-205" x1="44.7" y1="11.36" x2="39.18" y2="19.96" gradientTransform="matrix(1, 0, 0, 1, 0, 0)" xlink:href="#linear-gradient-72"/><linearGradient id="linear-gradient-206" x1="44.11" y1="10.98" x2="31.37" y2="30.83" gradientTransform="matrix(1, 0, 0, 1, 0, 0)" xlink:href="#linear-gradient-72"/><linearGradient id="linear-gradient-207" x1="44.28" y1="11.1" x2="31.55" y2="30.94" gradientTransform="matrix(1, 0, 0, 1, 0, 0)" xlink:href="#linear-gradient-72"/><linearGradient id="linear-gradient-208" x1="2133.45" y1="26.65" x2="2128.15" y2="16.06" xlink:href="#linear-gradient"/><linearGradient id="linear-gradient-209" x1="47.12" y1="12.91" x2="34.38" y2="32.76" gradientTransform="matrix(1, 0, 0, 1, 0, 0)" xlink:href="#linear-gradient-72"/><linearGradient id="linear-gradient-210" x1="2131.13" y1="27.81" x2="2125.83" y2="17.22" xlink:href="#linear-gradient"/><linearGradient id="linear-gradient-211" x1="49.29" y1="14.31" x2="36.56" y2="34.15" gradientTransform="matrix(1, 0, 0, 1, 0, 0)" xlink:href="#linear-gradient-72"/><linearGradient id="linear-gradient-212" x1="2143.5" y1="21.62" x2="2138.21" y2="11.03" xlink:href="#linear-gradient"/><linearGradient id="linear-gradient-213" x1="38.26" y1="7.23" x2="25.52" y2="27.07" gradientTransform="matrix(1, 0, 0, 1, 0, 0)" xlink:href="#linear-gradient-72"/><linearGradient id="linear-gradient-214" x1="2135.15" y1="25.8" x2="2129.85" y2="15.21" xlink:href="#linear-gradient"/><linearGradient id="linear-gradient-215" x1="45.53" y1="11.89" x2="32.79" y2="31.74" gradientTransform="matrix(1, 0, 0, 1, 0, 0)" xlink:href="#linear-gradient-72"/><linearGradient id="linear-gradient-216" x1="2138.12" y1="24.32" x2="2132.82" y2="13.72" xlink:href="#linear-gradient"/><linearGradient id="linear-gradient-217" x1="42.76" y1="10.12" x2="30.03" y2="29.96" gradientTransform="matrix(1, 0, 0, 1, 0, 0)" xlink:href="#linear-gradient-72"/><linearGradient id="linear-gradient-218" x1="2126.45" y1="18.15" x2="2151.05" y2="17.67" xlink:href="#linear-gradient"/><linearGradient id="linear-gradient-219" x1="36.32" y1="5.99" x2="23.59" y2="25.83" gradientTransform="matrix(1, 0, 0, 1, 0, 0)" xlink:href="#linear-gradient-72"/><linearGradient id="linear-gradient-220" x1="2126.45" y1="17.84" x2="2151.05" y2="17.37" xlink:href="#linear-gradient"/><linearGradient id="linear-gradient-221" x1="37.12" y1="6.5" x2="24.38" y2="26.34" gradientTransform="matrix(1, 0, 0, 1, 0, 0)" xlink:href="#linear-gradient-72"/><linearGradient id="linear-gradient-222" x1="2126.44" y1="17.54" x2="2151.04" y2="17.07" xlink:href="#linear-gradient"/><linearGradient id="linear-gradient-223" x1="37.68" y1="6.86" x2="24.94" y2="26.7" gradientTransform="matrix(1, 0, 0, 1, 0, 0)" xlink:href="#linear-gradient-72"/><linearGradient id="linear-gradient-224" x1="2126.38" y1="14.18" x2="2150.98" y2="13.71" xlink:href="#linear-gradient"/><linearGradient id="linear-gradient-225" x1="47.22" y1="12.98" x2="34.48" y2="32.82" gradientTransform="matrix(1, 0, 0, 1, 0, 0)" xlink:href="#linear-gradient-72"/><linearGradient id="linear-gradient-226" x1="2140.15" y1="23.3" x2="2134.85" y2="12.71" xlink:href="#linear-gradient"/><linearGradient id="linear-gradient-227" x1="2126.41" y1="15.97" x2="2151.01" y2="15.5" xlink:href="#linear-gradient"/><linearGradient id="linear-gradient-228" x1="41.39" y1="9.24" x2="28.65" y2="29.08" gradientTransform="matrix(1, 0, 0, 1, 0, 0)" xlink:href="#linear-gradient-72"/><linearGradient id="linear-gradient-229" x1="2144.02" y1="17.91" x2="2145.97" y2="17.88" xlink:href="#linear-gradient"/><linearGradient id="linear-gradient-230" x1="1901.4" y1="-617.37" x2="1901.23" y2="-615.85" gradientTransform="matrix(-0.71, 0.71, 0.71, 0.71, 1808.64, -890.52)" xlink:href="#linear-gradient-24"/><linearGradient id="linear-gradient-231" x1="28.5" y1="17.45" x2="27.93" y2="18.34" gradientTransform="matrix(1, 0, 0, 1, 0, 0)" xlink:href="#linear-gradient-72"/><linearGradient id="linear-gradient-232" x1="2126.46" y1="18.24" x2="2151.05" y2="17.77" xlink:href="#linear-gradient"/><linearGradient id="linear-gradient-233" x1="1903.01" y1="-632.55" x2="1901.41" y2="-617.7" gradientTransform="matrix(-0.71, 0.71, 0.71, 0.71, 1808.64, -890.52)" xlink:href="#linear-gradient-24"/><linearGradient id="linear-gradient-234" x1="36.01" y1="5.79" x2="23.28" y2="25.63" gradientTransform="matrix(1, 0, 0, 1, 0, 0)" xlink:href="#linear-gradient-72"/><linearGradient id="linear-gradient-235" x1="2146.22" y1="20.26" x2="2140.93" y2="9.67" xlink:href="#linear-gradient"/><linearGradient id="linear-gradient-236" x1="2126.46" y1="18.24" x2="2151.05" y2="17.77" xlink:href="#linear-gradient"/><linearGradient id="linear-gradient-237" x1="1903.06" y1="-632.54" x2="1901.45" y2="-617.7" gradientTransform="matrix(-0.71, 0.71, 0.71, 0.71, 1808.64, -890.52)" xlink:href="#linear-gradient-24"/><linearGradient id="linear-gradient-238" x1="35.96" y1="5.76" x2="23.23" y2="25.6" gradientTransform="matrix(1, 0, 0, 1, 0, 0)" xlink:href="#linear-gradient-72"/><linearGradient id="linear-gradient-239" x1="2126.46" y1="18.25" x2="2151.05" y2="17.77" xlink:href="#linear-gradient"/><linearGradient id="linear-gradient-240" x1="1903.03" y1="-632.55" x2="1901.42" y2="-617.7" gradientTransform="matrix(-0.71, 0.71, 0.71, 0.71, 1808.64, -890.52)" xlink:href="#linear-gradient-24"/><linearGradient id="linear-gradient-241" x1="28.27" y1="17.82" x2="28.15" y2="18.01" gradientTransform="matrix(1, 0, 0, 1, 0, 0)" xlink:href="#linear-gradient-72"/><linearGradient id="linear-gradient-242" x1="36" y1="5.78" x2="23.27" y2="25.62" gradientTransform="matrix(1, 0, 0, 1, 0, 0)" xlink:href="#linear-gradient-72"/><linearGradient id="linear-gradient-243" x1="2146.22" y1="20.26" x2="2140.93" y2="9.67" xlink:href="#linear-gradient"/><linearGradient id="linear-gradient-244" x1="2126.46" y1="18.24" x2="2151.05" y2="17.77" xlink:href="#linear-gradient"/><linearGradient id="linear-gradient-246" x1="28.23" y1="17.8" x2="28.12" y2="17.98" gradientTransform="matrix(1, 0, 0, 1, 0, 0)" xlink:href="#linear-gradient-72"/><linearGradient id="linear-gradient-247" x1="35.96" y1="5.76" x2="23.23" y2="25.6" gradientTransform="matrix(1, 0, 0, 1, 0, 0)" xlink:href="#linear-gradient-72"/><linearGradient id="linear-gradient-248" x1="41.25" y1="-1.65" x2="36.42" y2="5.88" gradientTransform="matrix(1, 0, 0, 1, 0, 0)" xlink:href="#linear-gradient-72"/><linearGradient id="linear-gradient-249" x1="48.02" y1="2.69" x2="43.19" y2="10.22" gradientTransform="matrix(1, 0, 0, 1, 0, 0)" xlink:href="#linear-gradient-72"/><linearGradient id="linear-gradient-250" x1="41.54" y1="-1.46" x2="36.71" y2="6.06" gradientTransform="matrix(1, 0, 0, 1, 0, 0)" xlink:href="#linear-gradient-72"/><linearGradient id="linear-gradient-251" x1="41.95" y1="-1.2" x2="37.12" y2="6.33" gradientTransform="matrix(1, 0, 0, 1, 0, 0)" xlink:href="#linear-gradient-72"/><linearGradient id="linear-gradient-252" x1="41.28" y1="-1.63" x2="36.45" y2="5.9" gradientTransform="matrix(1, 0, 0, 1, 0, 0)" xlink:href="#linear-gradient-72"/><linearGradient id="linear-gradient-253" x1="47.84" y1="2.58" x2="43.01" y2="10.1" gradientTransform="matrix(1, 0, 0, 1, 0, 0)" xlink:href="#linear-gradient-72"/><linearGradient id="linear-gradient-254" x1="42.56" y1="-0.81" x2="37.73" y2="6.71" gradientTransform="matrix(1, 0, 0, 1, 0, 0)" xlink:href="#linear-gradient-72"/><linearGradient id="linear-gradient-255" x1="41.08" y1="-1.76" x2="36.25" y2="5.77" gradientTransform="matrix(1, 0, 0, 1, 0, 0)" xlink:href="#linear-gradient-72"/><linearGradient id="linear-gradient-256" x1="41.03" y1="-1.79" x2="36.2" y2="5.74" gradientTransform="matrix(1, 0, 0, 1, 0, 0)" xlink:href="#linear-gradient-72"/><linearGradient id="linear-gradient-257" x1="41.11" y1="-1.74" x2="36.28" y2="5.79" gradientTransform="matrix(1, 0, 0, 1, 0, 0)" xlink:href="#linear-gradient-72"/><linearGradient id="linear-gradient-258" x1="2114.98" y1="71.56" x2="2150.5" y2="70.16" gradientTransform="matrix(-1, -0.06, -0.06, 1, 2172.28, 57.08)" xlink:href="#linear-gradient"/><linearGradient id="linear-gradient-259" x1="44.52" y1="0.45" x2="39.69" y2="7.98" gradientTransform="matrix(1, 0, 0, 1, 0, 0)" xlink:href="#linear-gradient-72"/></defs><g class="cls-1"><g id="Layer_2" data-name="Layer 2"><g id="OBJECTS"><line class="cls-2" y1="22.34" x2="212.94" y2="22.34"/><polygon points="157.65 22.7 153 22.73 157.65 36.41 157.65 22.7"/><polygon points="174.37 22.62 169.69 22.64 174.37 36.41 174.37 22.62"/><polygon points="162.04 21.68 166.26 21.65 162.04 9.09 162.04 21.68"/><polygon class="cls-2" points="64.12 20.88 64.12 23.17 72.28 23.13 72.28 20.88 64.12 20.88"/><polygon points="145.32 21.76 149.57 21.74 145.32 9.09 145.32 21.76"/><path d="M136.57,43c2.88-.55,4.64-6.38,4.64-12.48V22.78l-10,.06v6.32C131.17,38.15,133.17,43.6,136.57,43Z"/><path class="cls-2" d="M119.45,25.24a4.07,4.07,0,0,0,3.75-2.36l-5.93,0v2.33Z"/><path d="M123.52,14.43c0-4.25-.61-9.86-5.07-9.86h-2.18V21.91l5.93,0C123.29,19.86,123.52,16.9,123.52,14.43Z"/><polygon class="cls-2" points="180.69 22.59 183.25 22.57 180.69 22.08 180.69 22.59"/><path class="cls-2" d="M46.24,18.15l0,0a5.86,5.86,0,0,0-.57-.92l0-.07a9.14,9.14,0,0,0-.71-.81l-.07-.06a9.68,9.68,0,0,0-.85-.71,12.65,12.65,0,0,0-1,.8l-.3.27c-.23.21-.44.43-.65.65a3.45,3.45,0,0,0-.26.28,9.68,9.68,0,0,0-1.51,2.22,2.92,2.92,0,0,0,2.52,2.54,3.56,3.56,0,0,0,3.86-2.09.87.87,0,0,0,.1-.59c0-.15-.07-.29-.11-.43A5.45,5.45,0,0,0,46.24,18.15Z"/><path d="M87.61,42.29c3.46-2.45,4.81-10.72,4.21-19.26l-13.31.07c.06,1.79.21,3.61.45,5.41C80.23,38.15,83.7,45.07,87.61,42.29Z"/><path class="cls-2" d="M192.79,25.24H195a4.18,4.18,0,0,0,3.95-2.75l-6.13,0Z"/><path class="cls-2" d="M99.33,27c2.48,0,4.06-1.49,4.94-4l-6.09,0v4Z"/><path d="M104.17,15.3c0-6.43-1.61-10.73-5.84-10.73H97.18V22l6.09,0A20.69,20.69,0,0,0,104.17,15.3Z"/><path class="cls-3" d="M40.39,17.87a2.91,2.91,0,0,1,.12-.39A2.91,2.91,0,0,0,40.39,17.87Z"/><path class="cls-4" d="M40.26,18.28l.11-.38Z"/><path class="cls-5" d="M43,16.34a12.65,12.65,0,0,1,1-.8C43.63,15.8,43.3,16.06,43,16.34Z"/><path class="cls-6" d="M41.34,15.29c.06-.14.13-.28.2-.41C41.47,15,41.4,15.15,41.34,15.29Z"/><path class="cls-7" d="M39.49,23.82a3.28,3.28,0,0,0,5,1.94,4.83,4.83,0,0,0,1.94-2.5l-7,0A3.07,3.07,0,0,0,39.49,23.82Z"/><path class="cls-8" d="M40.91,16.34a4.52,4.52,0,0,1,.18-.47A4.52,4.52,0,0,0,40.91,16.34Z"/><path class="cls-9" d="M42,17.26c.21-.22.42-.44.65-.65C42.46,16.82,42.25,17,42,17.26Z"/><path class="cls-10" d="M40.72,16.84l.15-.41Z"/><path class="cls-11" d="M47.48,18.52q-.06.46-.12,1Q47.42,19,47.48,18.52Z"/><path class="cls-12" d="M41.59,14.79l.21-.35Z"/><path class="cls-13" d="M47,19.32a1.74,1.74,0,0,1-.2.3.87.87,0,0,1-.1.59,3.56,3.56,0,0,1-3.86,2.09,2.92,2.92,0,0,1-2.52-2.54,9.68,9.68,0,0,1,1.51-2.22c-.22.25-.43.5-.62.76l-.9,0c-.08.27-.13.46-.14.48-.15.7-.28,1.41-.41,2.15a10.08,10.08,0,0,0-.28,2.39l7,0a15.75,15.75,0,0,0,.88-3.77Z"/><path class="cls-14" d="M44.89,16.31l-.07-.06h0l.07.06Z"/><path class="cls-15" d="M40.54,17.4c0-.15.09-.3.15-.46C40.63,17.1,40.58,17.25,40.54,17.4Z"/><path class="cls-16" d="M41.14,15.76c0-.14.11-.28.17-.41C41.25,15.48,41.19,15.62,41.14,15.76Z"/><path class="cls-17" d="M39.19,1.26A3,3,0,0,1,39.45,1,3,3,0,0,0,39.19,1.26Z"/><path class="cls-18" d="M38.3,2.57a2.26,2.26,0,0,1,.17-.35A2.26,2.26,0,0,0,38.3,2.57Z"/><path class="cls-19" d="M38.68,1.87l.23-.31Z"/><path class="cls-20" d="M38.05,3.34c0-.13.06-.26.1-.39C38.11,3.08,38.08,3.21,38.05,3.34Z"/><path class="cls-21" d="M39.8.75a1.89,1.89,0,0,1,.3-.19A1.89,1.89,0,0,0,39.8.75Z"/><path class="cls-22" d="M46.31,5.24a.85.85,0,0,0,0,.17A.85.85,0,0,1,46.31,5.24Z"/><path class="cls-23" d="M40.52.36a2.71,2.71,0,0,1,.3-.13A2.71,2.71,0,0,0,40.52.36Z"/><path class="cls-24" d="M41.33.1A2.61,2.61,0,0,1,41.6,0,2.61,2.61,0,0,0,41.33.1Z"/><path class="cls-25" d="M41.93,8.49a4.24,4.24,0,0,0,4.32-3,12.5,12.5,0,0,0-5.34-1.82c-.93,0-1.9-.08-2.89-.1a3.29,3.29,0,0,0-.08.47A4.26,4.26,0,0,0,41.93,8.49Z"/><path class="cls-26" d="M49.26,41a9.85,9.85,0,0,1-2.15,1.32,20.32,20.32,0,0,1-5.63,3.11,7.79,7.79,0,0,1,0-3.33,7,7,0,0,0,.08,3.63,2.52,2.52,0,0,0,2.66,1.39c2.58-.15,4.78-2.23,6.39-4.18l.24-.31A8.89,8.89,0,0,1,49.26,41Z"/><path class="cls-27" d="M43.12,42.46a1.89,1.89,0,0,1-.82-1.29A1.89,1.89,0,0,0,43.12,42.46Z"/><path class="cls-28" d="M46.11,42.64l.09,0Z"/><path class="cls-29" d="M42.38,28.08a6.22,6.22,0,0,1,.82,1.09A6.22,6.22,0,0,0,42.38,28.08Z"/><path class="cls-30" d="M43.2,29.17A6.56,6.56,0,0,1,44,31.1,6.56,6.56,0,0,0,43.2,29.17Z"/><path class="cls-31" d="M41.36,27.17a6.77,6.77,0,0,1,1,.91A6.77,6.77,0,0,0,41.36,27.17Z"/><path class="cls-32" d="M55.71,31.41c.21-1-2.29,4.61-4.87,7.89A10.31,10.31,0,0,0,52,41,27.57,27.57,0,0,0,55.71,31.41Z"/><path class="cls-33" d="M35.22,29.71A8.73,8.73,0,0,1,39,30.3l.07,0-.07,0A8.73,8.73,0,0,0,35.22,29.71Z"/><path class="cls-34" d="M12.82,45.61a4.35,4.35,0,0,0,.32-.52A4.35,4.35,0,0,1,12.82,45.61Z"/><path class="cls-35" d="M15,42c.37-.58.81-1.22,1.32-1.91C15.77,40.76,15.33,41.4,15,42Z"/><path class="cls-36" d="M14,43.52c.26-.45.57-1,1-1.54C14.58,42.55,14.27,43.07,14,43.52Z"/><path class="cls-37" d="M43,38.19c-.14.35-.29.7-.42,1.05C42.71,38.89,42.86,38.54,43,38.19Z"/><path class="cls-38" d="M43.86,35.52c0,.1,0,.2-.07.29C43.81,35.72,43.84,35.62,43.86,35.52Z"/><path class="cls-39" d="M43.86,35.52c0,.1,0,.2-.07.29C43.81,35.72,43.84,35.62,43.86,35.52Z"/><path class="cls-40" d="M26.64,33.07l-.69.46Z"/><path class="cls-41" d="M26.64,33.07l-.69.46Z"/><path class="cls-42" d="M26.37,29.68c.43-.34.88-.66,1.35-1C27.25,29,26.8,29.34,26.37,29.68Z"/><path class="cls-43" d="M26.37,29.68c.43-.34.88-.66,1.35-1C27.25,29,26.8,29.34,26.37,29.68Z"/><path class="cls-44" d="M21.58,34c.34-.34.71-.7,1.09-1C22.29,33.3,21.92,33.66,21.58,34Z"/><path class="cls-45" d="M21.58,34c.34-.34.71-.7,1.09-1C22.29,33.3,21.92,33.66,21.58,34Z"/><path class="cls-46" d="M43.64,36.36l-.09.29Z"/><path class="cls-47" d="M43.64,36.36l-.09.29Z"/><path class="cls-48" d="M20.14,35.49c.28-.3.59-.62.9-.93C20.73,34.87,20.42,35.19,20.14,35.49Z"/><path class="cls-49" d="M20.14,35.49c.28-.3.59-.62.9-.93C20.73,34.87,20.42,35.19,20.14,35.49Z"/><path class="cls-50" d="M24.3,34.65l-.75.56Z"/><path class="cls-51" d="M24.3,34.65l-.75.56Z"/><path class="cls-52" d="M44.17,33.61c0,.08,0,.17,0,.25C44.16,33.78,44.16,33.7,44.17,33.61Z"/><path class="cls-53" d="M44.17,33.61c0,.08,0,.17,0,.25C44.16,33.78,44.16,33.7,44.17,33.61Z"/><path class="cls-54" d="M44.2,32.72v0Z"/><path class="cls-55" d="M44.2,32.72v0Z"/><path class="cls-56" d="M25,30.8c.41-.36.84-.72,1.29-1.06C25.84,30.08,25.41,30.44,25,30.8Z"/><path class="cls-57" d="M25,30.8c.41-.36.84-.72,1.29-1.06C25.84,30.08,25.41,30.44,25,30.8Z"/><path class="cls-58" d="M44,34.69c0,.06,0,.11,0,.17S44,34.75,44,34.69Z"/><path class="cls-59" d="M44,34.69c0,.06,0,.11,0,.17S44,34.75,44,34.69Z"/><path class="cls-60" d="M18.86,36.9q.38-.43.78-.87Q19.24,36.47,18.86,36.9Z"/><path class="cls-61" d="M18.86,36.9q.38-.43.78-.87Q19.24,36.47,18.86,36.9Z"/><path class="cls-62" d="M43.37,37.2c0,.08,0,.16-.08.24C43.32,37.36,43.34,37.28,43.37,37.2Z"/><path class="cls-63" d="M43.37,37.2c0,.08,0,.16-.08.24C43.32,37.36,43.34,37.28,43.37,37.2Z"/><path class="cls-64" d="M22,36.38l-.73.61Z"/><path class="cls-65" d="M22,36.38l-.73.61Z"/><path class="cls-66" d="M44.18,32.45A6.75,6.75,0,0,0,44,31.1a6.56,6.56,0,0,0-.8-1.93,6.22,6.22,0,0,0-.82-1.09,6.77,6.77,0,0,0-1-.91l-.57-.37A8.16,8.16,0,0,0,38.85,26c-3.84-1-7.77.46-11,2.64a26.6,26.6,0,0,0,3.14,2.12l-.19.09a13.66,13.66,0,0,1,4.47-1.15A8.73,8.73,0,0,1,39,30.3l.07,0A6,6,0,0,1,42,33L42,32.87Q43.07,32.69,44.18,32.45Z"/><path class="cls-67" d="M44.18,32.45A6.75,6.75,0,0,0,44,31.1a6.56,6.56,0,0,0-.8-1.93,6.22,6.22,0,0,0-.82-1.09,6.77,6.77,0,0,0-1-.91l-.57-.37A8.16,8.16,0,0,0,38.85,26c-3.84-1-7.77.46-11,2.64a26.6,26.6,0,0,0,3.14,2.12l-.19.09a13.66,13.66,0,0,1,4.47-1.15A8.73,8.73,0,0,1,39,30.3l.07,0A6,6,0,0,1,42,33L42,32.87Q43.07,32.69,44.18,32.45Z"/><path class="cls-68" d="M18.66,37.12c-.93,1.07-1.72,2.06-2.38,3-.51.69-1,1.33-1.32,1.91s-.69,1.09-1,1.54c-.39.68-.67,1.2-.87,1.57a4.35,4.35,0,0,1-.32.52,68,68,0,0,1,7-7.37l-.26.22C19.27,38,19,37.58,18.66,37.12Z"/><path class="cls-69" d="M18.66,37.12c-.93,1.07-1.72,2.06-2.38,3-.51.69-1,1.33-1.32,1.91s-.69,1.09-1,1.54c-.39.68-.67,1.2-.87,1.57a4.35,4.35,0,0,1-.32.52,68,68,0,0,1,7-7.37l-.26.22C19.27,38,19,37.58,18.66,37.12Z"/><path class="cls-70" d="M42.41,33.83l-.09-.21A1.89,1.89,0,0,1,42.41,33.83Z"/><path class="cls-71" d="M42.41,33.83l-.09-.21A1.89,1.89,0,0,1,42.41,33.83Z"/><path class="cls-72" d="M23.2,32.44c.57-.53,1.16-1.08,1.8-1.64C24.36,31.36,23.77,31.91,23.2,32.44Z"/><path class="cls-73" d="M23.2,32.44c.57-.53,1.16-1.08,1.8-1.64C24.36,31.36,23.77,31.91,23.2,32.44Z"/><path class="cls-74" d="M21.31,37c-.49.41-1,.82-1.45,1.25C20.33,37.81,20.82,37.4,21.31,37Z"/><path class="cls-75" d="M22.67,33c.18-.17.34-.34.53-.51C23,32.61,22.85,32.78,22.67,33Z"/><path class="cls-76" d="M19.64,36c.16-.18.32-.36.5-.54C20,35.67,19.8,35.85,19.64,36Z"/><path class="cls-77" d="M18.66,37.12h0l.2-.22Z"/><path class="cls-78" d="M21,34.56l.54-.56Z"/><path class="cls-79" d="M23.55,35.21c-.51.38-1,.77-1.51,1.17C22.53,36,23,35.59,23.55,35.21Z"/><path class="cls-80" d="M29.06,31.66c-.82.44-1.63.91-2.42,1.41C27.43,32.57,28.24,32.1,29.06,31.66Z"/><path class="cls-81" d="M30.75,30.86c-.57.24-1.14.51-1.69.8C29.6,31.37,30.18,31.1,30.75,30.86Z"/><path class="cls-82" d="M26.29,29.74l.08-.06Z"/><path class="cls-83" d="M27.79,28.65l-.07.06.08-.06Z"/><path class="cls-84" d="M26,33.53c-.55.36-1.11.73-1.65,1.12C24.84,34.26,25.4,33.89,26,33.53Z"/><path class="cls-85" d="M27.8,28.65l-.08.06c-.47.31-.92.63-1.35,1l-.08.06c-.45.34-.88.7-1.29,1.06-.64.56-1.23,1.11-1.8,1.64-.19.17-.35.34-.53.51-.38.35-.75.71-1.09,1l-.54.56c-.31.31-.62.63-.9.93s-.34.36-.5.54-.53.58-.78.87l-.2.22c.3.46.61.91.94,1.34l.26-.22c.47-.43,1-.84,1.45-1.25l.73-.61c.49-.4,1-.79,1.51-1.17l.75-.56c.54-.39,1.1-.76,1.65-1.12l.69-.46c.79-.5,1.6-1,2.42-1.41.55-.29,1.12-.56,1.69-.8l.19-.09A26.6,26.6,0,0,1,27.8,28.65Z"/><path class="cls-86" d="M27.8,28.65l-.08.06c-.47.31-.92.63-1.35,1l-.08.06c-.45.34-.88.7-1.29,1.06-.64.56-1.23,1.11-1.8,1.64-.19.17-.35.34-.53.51-.38.35-.75.71-1.09,1l-.54.56c-.31.31-.62.63-.9.93s-.34.36-.5.54-.53.58-.78.87l-.2.22c.3.46.61.91.94,1.34l.26-.22c.47-.43,1-.84,1.45-1.25l.73-.61c.49-.4,1-.79,1.51-1.17l.75-.56c.54-.39,1.1-.76,1.65-1.12l.69-.46c.79-.5,1.6-1,2.42-1.41.55-.29,1.12-.56,1.69-.8l.19-.09A26.6,26.6,0,0,1,27.8,28.65Z"/><path class="cls-87" d="M27.8,28.65l-.08.06c-.47.31-.92.63-1.35,1l-.08.06c-.45.34-.88.7-1.29,1.06-.64.56-1.23,1.11-1.8,1.64-.19.17-.35.34-.53.51-.38.35-.75.71-1.09,1l-.54.56c-.31.31-.62.63-.9.93s-.34.36-.5.54-.53.58-.78.87l-.2.22c.3.46.61.91.94,1.34l.26-.22c.47-.43,1-.84,1.45-1.25l.73-.61c.49-.4,1-.79,1.51-1.17l.75-.56c.54-.39,1.1-.76,1.65-1.12l.69-.46c.79-.5,1.6-1,2.42-1.41.55-.29,1.12-.56,1.69-.8l.19-.09A26.6,26.6,0,0,1,27.8,28.65Z"/><path class="cls-88" d="M45.19,42.85a7.21,7.21,0,0,0,.92-.21,7.21,7.21,0,0,1-.92.21,3.68,3.68,0,0,1-1.1,0A3.68,3.68,0,0,0,45.19,42.85Z"/><path class="cls-89" d="M44.19,32.45h0c0,.09,0,.18,0,.27C44.19,32.63,44.2,32.54,44.19,32.45Z"/><path class="cls-90" d="M47.11,42.27a7.75,7.75,0,0,1-.91.35,7.75,7.75,0,0,0,.91-.35Z"/><path class="cls-91" d="M44.15,33.86c0,.28-.06.55-.11.83C44.09,34.41,44.12,34.14,44.15,33.86Z"/><path class="cls-92" d="M44.2,33l0,.59Z"/><path class="cls-93" d="M44,34.86c0,.22-.08.44-.14.66C43.92,35.3,44,35.08,44,34.86Z"/><path class="cls-94" d="M43.79,35.81l-.15.55Z"/><path class="cls-95" d="M43.55,36.65l-.18.55Z"/><path class="cls-96" d="M42.58,39.24a5.28,5.28,0,0,0-.31,1.29,5.28,5.28,0,0,1,.31-1.29Z"/><path class="cls-97" d="M42.68,34.69a6.59,6.59,0,0,0-.27-.86A6.59,6.59,0,0,1,42.68,34.69Z"/><path class="cls-98" d="M42.32,33.62c-.09-.22-.19-.43-.3-.64C42.13,33.19,42.23,33.4,42.32,33.62Z"/><path class="cls-99" d="M43,38.19h0c.1-.24.19-.5.29-.75-.1.25-.19.51-.29.75Z"/><path class="cls-100" d="M41.48,45.38a20.32,20.32,0,0,0,5.63-3.11,7.75,7.75,0,0,1-.91.35l-.09,0a7.21,7.21,0,0,1-.92.21,3.68,3.68,0,0,1-1.1,0,2.58,2.58,0,0,1-1-.37,1.89,1.89,0,0,1-.82-1.29,3.31,3.31,0,0,1,0-.64,5.28,5.28,0,0,1,.31-1.29,11.6,11.6,0,0,0,.1-4.55c.59,2.61-.85,4.85-1.18,7.36A7.79,7.79,0,0,0,41.48,45.38Z"/><path class="cls-101" d="M41.48,45.38a20.32,20.32,0,0,0,5.63-3.11,7.75,7.75,0,0,1-.91.35l-.09,0a7.21,7.21,0,0,1-.92.21,3.68,3.68,0,0,1-1.1,0,2.58,2.58,0,0,1-1-.37,1.89,1.89,0,0,1-.82-1.29,3.31,3.31,0,0,1,0-.64,5.28,5.28,0,0,1,.31-1.29,11.6,11.6,0,0,0,.1-4.55c.59,2.61-.85,4.85-1.18,7.36A7.79,7.79,0,0,0,41.48,45.38Z"/><path class="cls-102" d="M42.58,39.24h0c.13-.35.28-.7.42-1.05h0C42.86,38.54,42.71,38.89,42.58,39.24Z"/><path class="cls-103" d="M42.58,39.24h0c.13-.35.28-.7.42-1.05h0C42.86,38.54,42.71,38.89,42.58,39.24Z"/><path class="cls-104" d="M42.58,39.24c.13-.35.28-.7.42-1.05s.19-.5.29-.75c0-.08.05-.16.08-.24l.18-.55.09-.29.15-.55c0-.09.05-.19.07-.29s.1-.44.14-.66c0-.06,0-.11,0-.17.05-.28.08-.55.11-.83,0-.08,0-.17,0-.25l0-.59v-.3c0-.09,0-.18,0-.27q-1.11.24-2.22.42L42,33c.11.21.21.42.3.64l.09.21a6.59,6.59,0,0,1,.27.86A11.6,11.6,0,0,1,42.58,39.24Z"/><path class="cls-105" d="M42.58,39.24c.13-.35.28-.7.42-1.05s.19-.5.29-.75c0-.08.05-.16.08-.24l.18-.55.09-.29.15-.55c0-.09.05-.19.07-.29s.1-.44.14-.66c0-.06,0-.11,0-.17.05-.28.08-.55.11-.83,0-.08,0-.17,0-.25l0-.59v-.3c0-.09,0-.18,0-.27q-1.11.24-2.22.42L42,33c.11.21.21.42.3.64l.09.21a6.59,6.59,0,0,1,.27.86A11.6,11.6,0,0,1,42.58,39.24Z"/><path class="cls-106" d="M42.58,39.24c.13-.35.28-.7.42-1.05s.19-.5.29-.75c0-.08.05-.16.08-.24l.18-.55.09-.29.15-.55c0-.09.05-.19.07-.29s.1-.44.14-.66c0-.06,0-.11,0-.17.05-.28.08-.55.11-.83,0-.08,0-.17,0-.25l0-.59v-.3c0-.09,0-.18,0-.27q-1.11.24-2.22.42L42,33c.11.21.21.42.3.64l.09.21a6.59,6.59,0,0,1,.27.86A11.6,11.6,0,0,1,42.58,39.24Z"/><path class="cls-107" d="M35.32,15.15c-.56.27-1.1.58-1.64.89l-.59.32a23.49,23.49,0,0,1,5.47-2.18,15.12,15.12,0,0,0-2.46.65A7.52,7.52,0,0,0,35.32,15.15Z"/><path class="cls-108" d="M30.48,17.41l-.87.22-.37.08c-.32.07-.65.13-1,.18h.11l-.19.05a13.83,13.83,0,0,0,2.47-.57l.26-.09-.06,0Z"/><path class="cls-109" d="M44.05,11.21a5.9,5.9,0,0,0-.69-.4l-.5-.23.5.23A5.9,5.9,0,0,1,44.05,11.21Z"/><path class="cls-110" d="M32.76,13.54c-.62.38-1.24.75-1.88,1.09a33.92,33.92,0,0,1-3.45,1.63,33.92,33.92,0,0,0,3.45-1.63C31.52,14.29,32.14,13.92,32.76,13.54Z"/><path class="cls-111" d="M32.66,13.6c1.59-.2,3.19-.4,4.79-.57a59.12,59.12,0,0,1,8.15-.42,7.1,7.1,0,0,0-1.55-1.4,5.9,5.9,0,0,0-.69-.4l-.5-.23a5.59,5.59,0,0,0-1.47-.48c-2.73-.37-4.7.7-6.83,2.23-.59.42-1.19.82-1.8,1.21s-1.24.75-1.88,1.09C31.48,14.31,32.08,14,32.66,13.6Z"/><path class="cls-112" d="M32.66,13.6c1.59-.2,3.19-.4,4.79-.57a59.12,59.12,0,0,1,8.15-.42,7.1,7.1,0,0,0-1.55-1.4,5.9,5.9,0,0,0-.69-.4l-.5-.23a5.59,5.59,0,0,0-1.47-.48c-2.73-.37-4.7.7-6.83,2.23-.59.42-1.19.82-1.8,1.21s-1.24.75-1.88,1.09C31.48,14.31,32.08,14,32.66,13.6Z"/><path class="cls-113" d="M46.64,19.19c0,.14.08.28.11.43a1.74,1.74,0,0,0,.2-.3l-.31-.13Z"/><path class="cls-114" d="M46.64,19.19c0,.14.08.28.11.43a1.74,1.74,0,0,0,.2-.3l-.31-.13Z"/><path class="cls-115" d="M46.22,18.11l0,0Z"/><path class="cls-116" d="M46.22,18.11l0,0Z"/><path class="cls-117" d="M45.6,17.12l0,.07Z"/><path class="cls-118" d="M45.6,17.12l0,.07Z"/><path class="cls-119" d="M28.09,17.88h0a38.71,38.71,0,0,1-3.95-.55l.68-.2c-.61.18-1.23.34-1.86.47-.34.07-.73.18-1.13.26C24.83,17.82,27.29,17.86,28.09,17.88Z"/><path class="cls-120" d="M28.09,17.88h0a38.71,38.71,0,0,1-3.95-.55l.68-.2c-.61.18-1.23.34-1.86.47-.34.07-.73.18-1.13.26C24.83,17.82,27.29,17.86,28.09,17.88Z"/><path class="cls-121" d="M44.82,16.25l.07.06Z"/><path class="cls-122" d="M44.82,16.25l.07.06Z"/><path class="cls-123" d="M29.24,17.71l.37-.08Z"/><path class="cls-124" d="M29.24,17.71l.37-.08Z"/><path class="cls-125" d="M36.1,14.83a7.52,7.52,0,0,0-.78.32c-.56.27-1.1.58-1.64.89.54-.31,1.08-.62,1.64-.89A7.52,7.52,0,0,1,36.1,14.83Z"/><path class="cls-126" d="M36.1,14.83a7.52,7.52,0,0,0-.78.32c-.56.27-1.1.58-1.64.89.54-.31,1.08-.62,1.64-.89A7.52,7.52,0,0,1,36.1,14.83Z"/><path class="cls-127" d="M30.48,17.41l.37-.11Z"/><path class="cls-128" d="M30.48,17.41l.37-.11Z"/><path class="cls-129" d="M25.47,17a19.82,19.82,0,0,0,2-.69C26.79,16.52,26.13,16.75,25.47,17Z"/><path class="cls-130" d="M25.47,17a19.82,19.82,0,0,0,2-.69C26.79,16.52,26.13,16.75,25.47,17Z"/><path class="cls-131" d="M7.39,20.28c.1.86,1.9,1,4.4.82-.29-.84-.59-1.69-.9-2.52C8.74,19,7.3,19.49,7.39,20.28Z"/><path class="cls-132" d="M12.33,18.37l1.26-.13Z"/><path class="cls-133" d="M11,18.56l1.18-.17Z"/><path class="cls-134" d="M16.45,20.48l-1.52.24Z"/><path class="cls-135" d="M14.8,20.74c-1,.16-2,.28-2.92.35C12.78,21,13.76,20.9,14.8,20.74Z"/><path class="cls-136" d="M13.76,18.22l1.39-.11Z"/><path class="cls-137" d="M15.41,18.09,16.87,18Z"/><path class="cls-138" d="M21,17.92a3.34,3.34,0,0,0,.82-.06c-1.58,0-3.29.06-5,.14a24.41,24.41,0,0,0,1.36,2.16c4.55-.86,9-2,9.93-2.22A31,31,0,0,1,21,17.92Z"/><path class="cls-139" d="M18.2,20.16l-1.54.28Z"/><path class="cls-140" d="M28.31,17.9H28.2a30.62,30.62,0,0,1-7.16,0,31,31,0,0,0,7.14,0l.19-.05Z"/><path class="cls-141" d="M28.31,17.9H28.2a30.62,30.62,0,0,1-7.16,0,31,31,0,0,0,7.14,0l.19-.05Z"/><path class="cls-142" d="M28.37,17.89h0Z"/><path class="cls-143" d="M28.37,17.89h0Z"/><path class="cls-144" d="M28.2,17.89h-.11c-.8,0-3.26-.06-6.23,0a3.34,3.34,0,0,1-.82.06A30.62,30.62,0,0,0,28.2,17.89Z"/><path class="cls-145" d="M28.2,17.89h-.11c-.8,0-3.26-.06-6.23,0a3.34,3.34,0,0,1-.82.06A30.62,30.62,0,0,0,28.2,17.89Z"/><path class="cls-146" d="M28.2,17.89h-.11c-.8,0-3.26-.06-6.23,0a3.34,3.34,0,0,1-.82.06A30.62,30.62,0,0,0,28.2,17.89Z"/><path class="cls-147" d="M28.12,17.88Z"/><path class="cls-148" d="M28.12,17.88Z"/><path class="cls-149" d="M28.12,17.88Z"/><path class="cls-150" d="M11.13,16.14a1.83,1.83,0,0,1-1,.55A1.83,1.83,0,0,0,11.13,16.14Z"/><path class="cls-151" d="M11.53,14.25a1.86,1.86,0,0,0-.63-.86A1.86,1.86,0,0,1,11.53,14.25Z"/><path class="cls-152" d="M9.66,16.74a1.83,1.83,0,0,0,.47,0,33.7,33.7,0,0,0-1.55-3.26,1.86,1.86,0,0,0,1.08,3.3Z"/><path class="cls-153" d="M9,13.19l.18-.08Z"/><path class="cls-154" d="M11.47,15.63a2.11,2.11,0,0,1-.28.45A2.11,2.11,0,0,0,11.47,15.63Z"/><path class="cls-155" d="M8.67,13.38a1.18,1.18,0,0,1,.18-.13A1.18,1.18,0,0,0,8.67,13.38Z"/><path class="cls-156" d="M10.25,13.07a2.08,2.08,0,0,1,.65.32A2.08,2.08,0,0,0,10.25,13.07Z"/><path class="cls-157" d="M9.35,13.06a.76.76,0,0,1,.16,0A.76.76,0,0,0,9.35,13.06Z"/><path class="cls-158" d="M11.63,15a1.7,1.7,0,0,1-.13.55A1.7,1.7,0,0,0,11.63,15Z"/><path class="cls-159" d="M9.51,13a1.51,1.51,0,0,1,.37,0A1.51,1.51,0,0,0,9.51,13Z"/><path class="cls-160" d="M10.14,16.71a.05.05,0,0,1,0,0h0Z"/><path class="cls-161" d="M8.85,13.25,9,13.19Z"/><path class="cls-162" d="M9.16,13.11l.19,0Z"/><path class="cls-163" d="M11.5,15.54l0,.09Z"/><path class="cls-164" d="M11.19,16.08l-.06.06Z"/><path class="cls-165" d="M8.58,13.44h0l.09-.06Z"/><path class="cls-166" d="M10.18,16.69a1.83,1.83,0,0,0,1-.55l.06-.06a2.11,2.11,0,0,0,.28-.45l0-.09a1.7,1.7,0,0,0,.13-.55,1.82,1.82,0,0,0-.1-.74,1.86,1.86,0,0,0-.63-.86,2.08,2.08,0,0,0-.65-.32A2.2,2.2,0,0,0,9.88,13a1.51,1.51,0,0,0-.37,0,.76.76,0,0,0-.16,0l-.19,0L9,13.19l-.13.06a1.18,1.18,0,0,0-.18.13l-.09.06a33.7,33.7,0,0,1,1.55,3.26Z"/><path class="cls-167" d="M10.18,16.69a1.83,1.83,0,0,0,1-.55l.06-.06a2.11,2.11,0,0,0,.28-.45l0-.09a1.7,1.7,0,0,0,.13-.55,1.82,1.82,0,0,0-.1-.74,1.86,1.86,0,0,0-.63-.86,2.08,2.08,0,0,0-.65-.32A2.2,2.2,0,0,0,9.88,13a1.51,1.51,0,0,0-.37,0,.76.76,0,0,0-.16,0l-.19,0L9,13.19l-.13.06a1.18,1.18,0,0,0-.18.13l-.09.06a33.7,33.7,0,0,1,1.55,3.26Z"/><path class="cls-168" d="M28.09,17.88Z"/><path class="cls-169" d="M28.09,17.88Z"/><path class="cls-170" d="M28.09,17.88Z"/><path class="cls-171" d="M28.2,17.89h0Z"/><path class="cls-172" d="M28.2,17.89h0Z"/><path class="cls-173" d="M28.2,17.89h0Z"/><path class="cls-174" d="M28.22,17.89h0Z"/><path class="cls-175" d="M28.22,17.89h0Z"/><path class="cls-176" d="M28.22,17.89h0Z"/><path class="cls-177" d="M28.12,17.88h0Z"/><path class="cls-178" d="M28.12,17.88h0Z"/><path class="cls-179" d="M28.12,17.88h0Z"/><path class="cls-180" d="M28.12,17.88h0Z"/><path class="cls-181" d="M10.88,18.58h0l.12,0Z"/><path class="cls-182" d="M12.19,18.39l.14,0Z"/><path class="cls-183" d="M13.59,18.24l.17,0Z"/><path class="cls-184" d="M16.89,18h0Z"/><path class="cls-185" d="M15.15,18.11l.26,0Z"/><path class="cls-186" d="M18.25,20.16Z"/><path class="cls-187" d="M14.93,20.72l-.13,0Z"/><path class="cls-188" d="M11.79,21.1h0Z"/><path class="cls-189" d="M16.66,20.44l-.21,0Z"/><path class="cls-190" d="M16.87,18l-1.46.08-.26,0-1.39.11-.17,0-1.26.13-.14,0L11,18.56l-.12,0c.31.83.61,1.68.9,2.52h.09c.9-.07,1.88-.19,2.92-.35l.13,0,1.52-.24.21,0,1.54-.28h.05A24.41,24.41,0,0,1,16.89,18Z"/><path class="cls-191" d="M16.87,18l-1.46.08-.26,0-1.39.11-.17,0-1.26.13-.14,0L11,18.56l-.12,0c.31.83.61,1.68.9,2.52h.09c.9-.07,1.88-.19,2.92-.35l.13,0,1.52-.24.21,0,1.54-.28h.05A24.41,24.41,0,0,1,16.89,18Z"/><path class="cls-192" d="M30.91,17.28c.37-.12.74-.25,1.1-.4-.27.11-.55.2-.83.3Z"/><polygon class="cls-193" points="47.35 19.49 47.36 19.48 47.35 19.49 47.35 19.49"/><path class="cls-194" d="M41.78,17.54a3.45,3.45,0,0,1,.26-.28A3.45,3.45,0,0,0,41.78,17.54Z"/><path class="cls-195" d="M45.61,12.61h0l.18.2A1.63,1.63,0,0,0,45.61,12.61Z"/><path class="cls-196" d="M42.69,16.61l.3-.27Z"/><path class="cls-197" d="M24.85,17.13l.62-.18Z"/><path class="cls-198" d="M41.54,14.88l.05-.09Z"/><path class="cls-199" d="M46.24,18.15a5.45,5.45,0,0,1,.4,1A5.45,5.45,0,0,0,46.24,18.15Z"/><path class="cls-200" d="M44,15.54a9.68,9.68,0,0,1,.85.71A9.68,9.68,0,0,0,44,15.54Z"/><path class="cls-201" d="M45.6,17.12a7.59,7.59,0,0,0-.65-.75l-.06-.06A9.14,9.14,0,0,1,45.6,17.12Z"/><path class="cls-202" d="M45.65,17.19a5.86,5.86,0,0,1,.57.92A5.86,5.86,0,0,0,45.65,17.19Z"/><path class="cls-203" d="M41.09,15.87a.54.54,0,0,1,0-.11A.54.54,0,0,0,41.09,15.87Z"/><path class="cls-204" d="M40.69,16.94l0-.1Z"/><path class="cls-205" d="M40.51,17.48l0-.08Z"/><path class="cls-206" d="M40.37,17.9l0,0Z"/><polygon class="cls-207" points="40.26 18.28 40.26 18.28 40.26 18.28 40.26 18.28"/><path class="cls-208" d="M41.31,15.35l0-.06Z"/><path class="cls-209" d="M40.87,16.43a.36.36,0,0,1,0-.09A.36.36,0,0,0,40.87,16.43Z"/><path class="cls-210" d="M45,16.37l-.06-.06h0Z"/><path class="cls-211" d="M45,16.37l-.06-.06h0Z"/><path class="cls-212" d="M47,19.32l.41.17h0q.06-.5.12-1a9.7,9.7,0,0,0-.36-3A5.67,5.67,0,0,1,47,19.32Z"/><path class="cls-213" d="M47,19.32l.41.17h0q.06-.5.12-1a9.7,9.7,0,0,0-.36-3A5.67,5.67,0,0,1,47,19.32Z"/><path class="cls-214" d="M32,16.88a12,12,0,0,0,1.08-.52c-.62.29-1.26.57-1.91.82C31.46,17.08,31.74,17,32,16.88Z"/><path class="cls-215" d="M32,16.88a12,12,0,0,0,1.08-.52c-.62.29-1.26.57-1.91.82C31.46,17.08,31.74,17,32,16.88Z"/><path class="cls-216" d="M41.78,17.54a3.45,3.45,0,0,1,.26-.28c.21-.22.42-.44.65-.65l.3-.27c.31-.28.64-.54,1-.8a9.68,9.68,0,0,1,.85.71h0a9.68,9.68,0,0,0-.85-.71l-2.17-1.1-.21.35-.05.09c-.07.13-.14.27-.2.41l0,.06c-.06.13-.12.27-.17.41a.54.54,0,0,0,0,.11,4.52,4.52,0,0,0-.18.47.36.36,0,0,0,0,.09l-.15.41,0,.1c-.06.16-.11.31-.15.46l0,.08a2.91,2.91,0,0,0-.12.39l0,0-.11.38h0l.9,0C41.35,18,41.56,17.79,41.78,17.54Z"/><path class="cls-217" d="M41.78,17.54a3.45,3.45,0,0,1,.26-.28c.21-.22.42-.44.65-.65l.3-.27c.31-.28.64-.54,1-.8a9.68,9.68,0,0,1,.85.71h0a9.68,9.68,0,0,0-.85-.71l-2.17-1.1-.21.35-.05.09c-.07.13-.14.27-.2.41l0,.06c-.06.13-.12.27-.17.41a.54.54,0,0,0,0,.11,4.52,4.52,0,0,0-.18.47.36.36,0,0,0,0,.09l-.15.41,0,.1c-.06.16-.11.31-.15.46l0,.08a2.91,2.91,0,0,0-.12.39l0,0-.11.38h0l.9,0C41.35,18,41.56,17.79,41.78,17.54Z"/><path class="cls-218" d="M41,14.22a6.91,6.91,0,0,0-1.63-.14A6.91,6.91,0,0,1,41,14.22Z"/><path class="cls-219" d="M41,14.22a6.91,6.91,0,0,0-1.63-.14A6.91,6.91,0,0,1,41,14.22Z"/><path class="cls-220" d="M29.24,17.71c-.33.07-.67.13-1,.18h0C28.59,17.84,28.92,17.78,29.24,17.71Z"/><path class="cls-221" d="M29.24,17.71c-.33.07-.67.13-1,.18h0C28.59,17.84,28.92,17.78,29.24,17.71Z"/><path class="cls-222" d="M29.61,17.63l.87-.22Z"/><path class="cls-223" d="M29.61,17.63l.87-.22Z"/><path class="cls-224" d="M30.85,17.3l.06,0,.27-.1Z"/><path class="cls-225" d="M30.85,17.3l.06,0,.27-.1Z"/><path class="cls-226" d="M45.78,12.81a7.34,7.34,0,0,1,1.34,2.73A7.34,7.34,0,0,0,45.78,12.81Z"/><path class="cls-227" d="M45.78,12.81a7.34,7.34,0,0,1,1.34,2.73A7.34,7.34,0,0,0,45.78,12.81Z"/><path class="cls-228" d="M44.82,16.25l.07.06.06.06a7.59,7.59,0,0,1,.65.75l0,.07a5.86,5.86,0,0,1,.57.92l0,0a5.45,5.45,0,0,1,.4,1h0l.31.13a5.67,5.67,0,0,0,.17-3.78,7.34,7.34,0,0,0-1.34-2.73l-.18-.2a59.12,59.12,0,0,0-8.15.42c-1.6.17-3.2.37-4.79.57-.58.36-1.18.71-1.78,1a33.92,33.92,0,0,1-3.45,1.63,19.82,19.82,0,0,1-2,.69l-.62.18-.68.2a38.71,38.71,0,0,0,3.95.55h.12c.33-.05.67-.11,1-.18l.37-.08.87-.22.37-.11.33-.12c.65-.25,1.29-.53,1.91-.82l.59-.32c.54-.31,1.08-.62,1.64-.89a7.52,7.52,0,0,1,.78-.32,15.12,15.12,0,0,1,2.46-.65,7,7,0,0,1,.8-.1,6.91,6.91,0,0,1,1.63.14,8.12,8.12,0,0,1,.81.22L44,15.54A9.68,9.68,0,0,1,44.82,16.25Z"/><path class="cls-229" d="M44.82,16.25l.07.06.06.06a7.59,7.59,0,0,1,.65.75l0,.07a5.86,5.86,0,0,1,.57.92l0,0a5.45,5.45,0,0,1,.4,1h0l.31.13a5.67,5.67,0,0,0,.17-3.78,7.34,7.34,0,0,0-1.34-2.73l-.18-.2a59.12,59.12,0,0,0-8.15.42c-1.6.17-3.2.37-4.79.57-.58.36-1.18.71-1.78,1a33.92,33.92,0,0,1-3.45,1.63,19.82,19.82,0,0,1-2,.69l-.62.18-.68.2a38.71,38.71,0,0,0,3.95.55h.12c.33-.05.67-.11,1-.18l.37-.08.87-.22.37-.11.33-.12c.65-.25,1.29-.53,1.91-.82l.59-.32c.54-.31,1.08-.62,1.64-.89a7.52,7.52,0,0,1,.78-.32,15.12,15.12,0,0,1,2.46-.65,7,7,0,0,1,.8-.1,6.91,6.91,0,0,1,1.63.14,8.12,8.12,0,0,1,.81.22L44,15.54A9.68,9.68,0,0,1,44.82,16.25Z"/><path class="cls-230" d="M44.82,16.25l.07.06.06.06a7.59,7.59,0,0,1,.65.75l0,.07a5.86,5.86,0,0,1,.57.92l0,0a5.45,5.45,0,0,1,.4,1h0l.31.13a5.67,5.67,0,0,0,.17-3.78,7.34,7.34,0,0,0-1.34-2.73l-.18-.2a59.12,59.12,0,0,0-8.15.42c-1.6.17-3.2.37-4.79.57-.58.36-1.18.71-1.78,1a33.92,33.92,0,0,1-3.45,1.63,19.82,19.82,0,0,1-2,.69l-.62.18-.68.2a38.71,38.71,0,0,0,3.95.55h.12c.33-.05.67-.11,1-.18l.37-.08.87-.22.37-.11.33-.12c.65-.25,1.29-.53,1.91-.82l.59-.32c.54-.31,1.08-.62,1.64-.89a7.52,7.52,0,0,1,.78-.32,15.12,15.12,0,0,1,2.46-.65,7,7,0,0,1,.8-.1,6.91,6.91,0,0,1,1.63.14,8.12,8.12,0,0,1,.81.22L44,15.54A9.68,9.68,0,0,1,44.82,16.25Z"/><polygon class="cls-231" points="28.21 17.89 28.21 17.89 28.21 17.89 28.21 17.89"/><polygon class="cls-232" points="28.21 17.89 28.21 17.89 28.21 17.89 28.21 17.89"/><polygon class="cls-233" points="28.21 17.89 28.21 17.89 28.21 17.89 28.21 17.89"/><path class="cls-234" d="M28.26,17.89Z"/><path class="cls-235" d="M28.26,17.89Z"/><path class="cls-236" d="M28.26,17.89Z"/><path class="cls-237" d="M28.24,17.89Z"/><path class="cls-238" d="M28.24,17.89Z"/><path class="cls-239" d="M28.24,17.89Z"/><path class="cls-240" d="M28.24,17.89Z"/><path class="cls-241" d="M28.24,17.89h0Z"/><path class="cls-242" d="M28.24,17.89h0Z"/><path class="cls-243" d="M28.24,17.89h0Z"/><path class="cls-244" d="M28.24,17.89h0Z"/><path class="cls-245" d="M28.24,17.89h0Z"/><path class="cls-246" d="M28.24,17.89h0Z"/><path class="cls-239" d="M28.24,17.89h0Z"/><path class="cls-247" d="M28.24,17.89h0Z"/><path class="cls-248" d="M28.24,17.89h0Z"/><path class="cls-249" d="M39.45,1A2.88,2.88,0,0,1,39.8.75,2.88,2.88,0,0,0,39.45,1Z"/><path class="cls-250" d="M46.26,5.45a.06.06,0,0,1,0,0,.05.05,0,0,0,0,0Z"/><path class="cls-251" d="M40.1.56a2.71,2.71,0,0,1,.42-.2A2.71,2.71,0,0,0,40.1.56Z"/><path class="cls-252" d="M40.82.23A4.23,4.23,0,0,1,41.33.1,4.23,4.23,0,0,0,40.82.23Z"/><path class="cls-253" d="M38,3.52h0l0-.19C38,3.4,38,3.46,38,3.52Z"/><path class="cls-254" d="M46.42,4.5a4.55,4.55,0,0,1-.11.74A4.55,4.55,0,0,0,46.42,4.5Z"/><path class="cls-255" d="M41.6,0a3.82,3.82,0,0,1,.83,0A3.82,3.82,0,0,0,41.6,0Z"/><path class="cls-256" d="M38.91,1.56a3.84,3.84,0,0,1,.28-.3A3.84,3.84,0,0,0,38.91,1.56Z"/><path class="cls-257" d="M38.47,2.22a4.05,4.05,0,0,1,.21-.35A4.05,4.05,0,0,0,38.47,2.22Z"/><path class="cls-258" d="M38.15,3c.05-.13.09-.26.15-.38C38.24,2.69,38.2,2.82,38.15,3Z"/><path class="cls-259" d="M46.25,5.45a.05.05,0,0,1,0,0,.85.85,0,0,1,0-.17,4.55,4.55,0,0,0,.11-.74,4.24,4.24,0,0,0-4-4.49,3.82,3.82,0,0,0-.83,0,2.61,2.61,0,0,0-.27.06,4.23,4.23,0,0,0-.51.13,2.71,2.71,0,0,0-.3.13,2.71,2.71,0,0,0-.42.2,1.89,1.89,0,0,0-.3.19,2.88,2.88,0,0,0-.35.26,3,3,0,0,0-.26.25,3.84,3.84,0,0,0-.28.3l-.23.31a4.05,4.05,0,0,0-.21.35,2.26,2.26,0,0,0-.17.35c-.06.12-.1.25-.15.38s-.07.26-.1.39l0,.19c1,0,2,.05,2.89.1A12.5,12.5,0,0,1,46.25,5.45Z"/><path class="cls-260" d="M46.25,5.45a.05.05,0,0,1,0,0,.85.85,0,0,1,0-.17,4.55,4.55,0,0,0,.11-.74,4.24,4.24,0,0,0-4-4.49,3.82,3.82,0,0,0-.83,0,2.61,2.61,0,0,0-.27.06,4.23,4.23,0,0,0-.51.13,2.71,2.71,0,0,0-.3.13,2.71,2.71,0,0,0-.42.2,1.89,1.89,0,0,0-.3.19,2.88,2.88,0,0,0-.35.26,3,3,0,0,0-.26.25,3.84,3.84,0,0,0-.28.3l-.23.31a4.05,4.05,0,0,0-.21.35,2.26,2.26,0,0,0-.17.35c-.06.12-.1.25-.15.38s-.07.26-.1.39l0,.19c1,0,2,.05,2.89.1A12.5,12.5,0,0,1,46.25,5.45Z"/><path d="M50.84,39.3a27.48,27.48,0,0,1-2.5-7.3h-.17l-.7,6.21A23.25,23.25,0,0,0,49.26,41l.24-.2A10.67,10.67,0,0,0,50.84,39.3Z"/><path d="M58.63,36.08c-.18,3.43-1.85,6.43-3.84,6.43A3.77,3.77,0,0,1,52,41c-.35.54-.73,1.07-1.13,1.58a4.76,4.76,0,0,0,3,1c3.33,0,5.84-4.58,5.84-11.06,0-4.77-1.24-7.42-2.82-9.33l-5.37,0C54.42,27.36,59.05,28.11,58.63,36.08Z"/><path d="M49.05,10.62c.14-3.27,1.48-6.32,3.8-6.32,1.85,0,3.56,2.77,4.9,10.08h.16l.71-5.67c-1.39-2.51-3.36-5.12-5.16-5.12-3.78,0-5.3,5.5-5.3,9.91s1,6.86,2.32,8.74l5.37,0C52.91,18.66,48.76,17.7,49.05,10.62Z"/><path class="cls-261" d="M50.84,39.3a10.67,10.67,0,0,1-1.34,1.45l-.24.2a8.89,8.89,0,0,0,1.61,1.63c.4-.51.78-1,1.13-1.58A10.31,10.31,0,0,1,50.84,39.3Z"/><path d="M72.28,39.68c0,1.91-.17,2.72-.54,3.21v.38h2.91v-.38c-.35-.49-.52-1.3-.52-3.21V23.12H72.28Z"/><path d="M62.26,39.68c0,1.91-.16,2.72-.54,3.21v.38h2.91v-.38c-.35-.49-.51-1.3-.51-3.21V23.17H62.26Z"/><path d="M73.65,4.57V4.13H70.74v.44c.37.49.54,1.31.54,3.21V19.5H63.12V7.78c0-1.9.16-2.72.51-3.21V4.13H60.72v.44c.38.49.54,1.31.54,3.21v14.4h1.86V19.88h8.16v2.25h1.85V7.78C73.13,5.88,73.3,5.06,73.65,4.57Z"/><path d="M84.22,3.59c-4.5,0-8.26,8.19-8.49,18.52h1.78c-.27-7.76,1.14-14.95,4.32-17.2C85.74,2.12,89.22,9,90.48,18.63c.15,1.13.26,2.27.34,3.4h1.89C92.46,11.74,88.71,3.59,84.22,3.59Z"/><path d="M87.61,42.29C83.7,45.07,80.23,38.15,79,28.51c-.24-1.8-.39-3.62-.45-5.41H76.73c0,.33,0,.65,0,1,0,10.74,3.87,19.51,8.51,19.51s8.51-8.77,8.51-19.51c0-.36,0-.71,0-1.07H91.82C92.42,31.57,91.07,39.84,87.61,42.29Z"/><path d="M98.33,4.13H94.79v.44c.38.49.54,1.25.54,3.21V22h1.85V4.57h1.15c4.23,0,5.84,4.3,5.84,10.73a20.69,20.69,0,0,1-.9,6.67h1.63A17.13,17.13,0,0,0,106,15.3C106,7.57,103,4.13,98.33,4.13Z"/><path d="M99.33,27H98.18V23H96.33V39.68c0,1.91-.16,2.72-.54,3.21v.38H98.7v-.38c-.35-.49-.52-1.3-.52-3.21V27.42h1.15A6.71,6.71,0,0,0,105.9,23h-1.63C103.39,25.49,101.81,27,99.33,27Z"/><path d="M118.45,4.13H113.9v.44c.35.49.52,1.25.52,3.21V21.91h1.85V4.57h2.18c4.46,0,5.07,5.61,5.07,9.86,0,2.47-.23,5.43-1.32,7.45h1.27a12.94,12.94,0,0,0,1.9-7.44C125.37,7.29,122.09,4.13,118.45,4.13Z"/><path d="M119.45,25.24h-2.18V22.91h-1.85V39.68c0,1.91-.17,2.72-.52,3.21v.38h2.89v-.38c-.36-.49-.52-1.3-.52-3.21v-14h2.18a7.75,7.75,0,0,0,1.06-.1L123,35.75c.91,3.76,1.4,5.73.79,7.14v.38h3.61v-.38c-.91-1.9-1.66-3.76-3-9.37l-2.11-8.61a6.41,6.41,0,0,0,2.2-2H123.2A4.07,4.07,0,0,1,119.45,25.24Z"/><path d="M130.17,7.78c0-2,.17-2.72.52-3.21V4.13h-2.91v.44c.38.49.54,1.25.54,3.21V21.84h1.85Z"/><path d="M141.21,30.47c0,6.1-1.76,11.93-4.64,12.48-3.4.65-5.4-4.8-5.4-13.79V22.84h-1.85v6.32c0,9.92,2.93,14.44,6.43,14.44,3.3,0,5.63-5.56,5.63-13.13V22.78h-.17Z"/><path d="M141.36,4.57V4.13h-2.91v.44c1.15.38,1.76,3.7,1.76,6.7V21.78h.17V10.67C140.38,8.33,140.61,5.49,141.36,4.57Z"/><polygon points="157.65 36.41 153 22.73 150.57 22.74 157.48 43.27 157.84 43.27 157.84 22.7 157.65 22.7 157.65 36.41"/><path d="M158.31,4.57V4.13h-3.14v.44c.77.92,1.48,3.76,1.48,6.1v11h.19v-11C156.84,8.33,157.54,5.49,158.31,4.57Z"/><polygon points="146.02 4.13 143.65 4.13 145.16 8.6 145.16 21.76 145.32 21.76 145.32 9.09 149.57 21.74 152 21.73 146.02 4.13"/><path d="M146.16,36.74c0,2.34-.71,5.23-1.51,6.15v.38h3.17v-.38c-.8-.92-1.5-3.81-1.5-6.15v-14h-.16Z"/><path d="M162.87,36.74c0,2.34-.7,5.23-1.5,6.15v.38h3.17v-.38c-.8-.92-1.5-3.81-1.5-6.15V22.67h-.17Z"/><polygon points="162.74 4.13 160.37 4.13 161.87 8.6 161.87 21.68 162.04 21.68 162.04 9.09 166.26 21.65 168.69 21.64 162.74 4.13"/><polygon points="174.37 36.41 169.69 22.64 167.26 22.65 174.2 43.27 174.55 43.27 174.55 22.62 174.37 22.62 174.37 36.41"/><path d="M175,4.57V4.13h-3.14v.44c.77.92,1.47,3.76,1.47,6.1v11h.19v-11C173.55,8.33,174.26,5.49,175,4.57Z"/><polygon points="186.6 23.22 186.6 22.56 183.25 22.57 186.6 23.22"/><path d="M179.69,20.64V4.57h1.64c2.61,0,4.06,3,5.14,5.83l.12-.22-.5-6h-8.77v.44c.36.49.52,1.31.52,3.21V21.6h1.85v-.51l2.56.49h3.35V19.44Z"/><path d="M178.84,39.68c0,1.91-.16,2.72-.52,3.21v.38h9.53l.51-6.59-.14-.22c-1.1,3.33-3.05,6.43-5.63,6.43h-1.9V22.59h-1.85Z"/><path d="M197.79,24.91a6.58,6.58,0,0,0,2.45-2.42h-1.32A4.18,4.18,0,0,1,195,25.24h-2.18V22.52h-1.85V39.68c0,1.91-.17,2.72-.52,3.21v.38h2.89v-.38c-.36-.49-.52-1.3-.52-3.21v-14H195a7.75,7.75,0,0,0,1.06-.1l2.51,10.18c.91,3.76,1.4,5.73.79,7.14v.38h3.61v-.38c-.91-1.9-1.66-3.76-3-9.37Z"/><path d="M191.79,4.57H194c4.46,0,5.07,5.61,5.07,9.86a17.91,17.91,0,0,1-1.12,7.06h1.32a13.5,13.5,0,0,0,1.65-7.06c0-7.14-3.28-10.3-6.92-10.3h-4.55v.44c.35.49.52,1.25.52,3.21V21.53h1.85Z"/><line class="cls-2" x1="1.41" y1="22.81" x2="214.34" y2="22.81"/><polygon points="159.06 23.16 154.41 23.19 159.06 36.87 159.06 23.16"/><polygon points="175.77 23.08 171.1 23.1 175.77 36.87 175.77 23.08"/><polygon points="163.44 22.14 167.67 22.12 163.44 9.55 163.44 22.14"/><polygon class="cls-2" points="65.53 21.34 65.53 23.64 73.69 23.59 73.69 21.34 65.53 21.34"/><polygon points="146.73 22.22 150.98 22.2 146.73 9.55 146.73 22.22"/><path d="M138,43.41c2.88-.54,4.64-6.38,4.64-12.48V23.25l-10,.05v6.32C132.58,38.62,134.58,44.06,138,43.41Z"/><path class="cls-2" d="M120.86,25.7a4.05,4.05,0,0,0,3.75-2.36l-5.93,0V25.7Z"/><path d="M124.93,14.89c0-4.25-.61-9.86-5.07-9.86h-2.18V22.37l5.93,0C124.7,20.32,124.93,17.36,124.93,14.89Z"/><polygon class="cls-2" points="182.1 23.05 184.66 23.04 182.1 22.54 182.1 23.05"/><path d="M89,42.76C92.48,40.3,93.83,32,93.23,23.5l-13.31.06c.06,1.79.21,3.61.45,5.41C81.63,38.62,85.1,45.54,89,42.76Z"/><path class="cls-2" d="M194.2,25.7h2.18a4.18,4.18,0,0,0,4-2.74l-6.13,0Z"/><path class="cls-2" d="M100.74,27.44c2.48,0,4.06-1.49,4.94-4l-6.09,0v4Z"/><path d="M105.58,15.76C105.58,9.34,104,5,99.74,5H98.59V22.46l6.09,0A20.6,20.6,0,0,0,105.58,15.76Z"/><path d="M60,36.54C59.85,40,58.19,43,56.2,43a3.77,3.77,0,0,1-2.79-1.51c-.35.54-.73,1.07-1.13,1.58a4.75,4.75,0,0,0,2.95,1c3.33,0,5.84-4.57,5.84-11.06,0-4.76-1.23-7.42-2.81-9.33l-5.37,0C55.83,27.82,60.46,28.57,60,36.54Z"/><path d="M50.46,11.08c.14-3.27,1.48-6.32,3.8-6.32,1.85,0,3.56,2.78,4.9,10.08h.16L60,9.17c-1.39-2.5-3.36-5.12-5.16-5.12-3.78,0-5.3,5.5-5.3,9.92s1,6.85,2.32,8.73l5.37,0C54.32,19.13,50.17,18.16,50.46,11.08Z"/><path d="M73.69,40.14c0,1.91-.17,2.73-.54,3.22v.38h2.91v-.38c-.36-.49-.52-1.31-.52-3.22V23.59H73.69Z"/><path d="M63.67,40.14c0,1.91-.16,2.73-.54,3.22v.38H66v-.38c-.35-.49-.51-1.31-.51-3.22V23.64H63.67Z"/><path d="M75.06,5V4.59H72.15V5c.37.49.54,1.31.54,3.22V20H64.53V8.25c0-1.91.16-2.73.51-3.22V4.59H62.13V5c.38.49.54,1.31.54,3.22v14.4h1.86v-2.3h8.16V22.6h1.85V8.25C74.54,6.34,74.7,5.52,75.06,5Z"/><path d="M85.63,4.05c-4.5,0-8.26,8.2-8.49,18.52h1.78c-.27-7.76,1.13-14.94,4.32-17.2,3.91-2.78,7.38,4.14,8.65,13.73.15,1.13.26,2.27.34,3.41h1.89C93.87,12.2,90.12,4.05,85.63,4.05Z"/><path d="M89,42.76C85.1,45.54,81.63,38.62,80.37,29c-.24-1.8-.39-3.62-.45-5.41H78.14c0,.33,0,.65,0,1,0,10.73,3.87,19.5,8.51,19.5s8.51-8.77,8.51-19.5c0-.36,0-.72,0-1.07H93.23C93.83,32,92.48,40.3,89,42.76Z"/><path d="M99.74,4.59H96.2V5c.38.49.54,1.25.54,3.22V22.47h1.85V5h1.15c4.22,0,5.84,4.31,5.84,10.73a20.6,20.6,0,0,1-.9,6.67h1.63a17.22,17.22,0,0,0,1.13-6.67C107.44,8,104.36,4.59,99.74,4.59Z"/><path d="M100.74,27.44H99.59v-4H97.74V40.14c0,1.91-.16,2.73-.54,3.22v.38h2.91v-.38c-.35-.49-.52-1.31-.52-3.22V27.88h1.15a6.73,6.73,0,0,0,6.57-4.45h-1.63C104.8,26,103.22,27.44,100.74,27.44Z"/><path d="M119.86,4.59h-4.55V5c.35.49.52,1.25.52,3.22V22.38h1.85V5h2.18c4.46,0,5.07,5.61,5.07,9.86,0,2.47-.23,5.43-1.32,7.45h1.27a12.91,12.91,0,0,0,1.9-7.44C126.78,7.76,123.49,4.59,119.86,4.59Z"/><path d="M120.86,25.7h-2.18V23.37h-1.85V40.14c0,1.91-.17,2.73-.52,3.22v.38h2.88v-.38c-.35-.49-.51-1.31-.51-3.22v-14h2.18a7.78,7.78,0,0,0,1.06-.11l2.5,10.19c.92,3.76,1.41,5.72.8,7.14v.38h3.61v-.38c-.91-1.91-1.66-3.76-3.05-9.38l-2.11-8.61a6.35,6.35,0,0,0,2.21-2h-1.27A4.05,4.05,0,0,1,120.86,25.7Z"/><path d="M131.58,8.25c0-2,.17-2.73.52-3.22V4.59h-2.91V5c.38.49.54,1.25.54,3.22V22.31h1.85Z"/><path d="M142.62,30.93c0,6.1-1.76,11.94-4.64,12.48-3.4.65-5.4-4.79-5.4-13.79V23.3h-1.85v6.31c0,9.92,2.93,14.44,6.43,14.44,3.3,0,5.62-5.55,5.62-13.13V23.25h-.16Z"/><path d="M142.77,5V4.59h-2.91V5c1.15.38,1.76,3.71,1.76,6.7V22.25h.16V11.13C141.78,8.79,142,6,142.77,5Z"/><polygon points="159.06 36.87 154.41 23.19 151.98 23.2 158.89 43.74 159.24 43.74 159.24 23.16 159.06 23.16 159.06 36.87"/><path d="M159.72,5V4.59h-3.14V5c.77.93,1.48,3.76,1.48,6.1v11h.18v-11C158.24,8.79,159,6,159.72,5Z"/><polygon points="147.43 4.59 145.06 4.59 146.56 9.06 146.56 22.22 146.73 22.22 146.73 9.55 150.98 22.2 153.41 22.19 147.43 4.59"/><path d="M147.56,37.2c0,2.34-.7,5.23-1.5,6.16v.38h3.17v-.38c-.8-.93-1.5-3.82-1.5-6.16v-14h-.17Z"/><path d="M164.28,37.2c0,2.34-.7,5.23-1.5,6.16v.38H166v-.38c-.8-.93-1.5-3.82-1.5-6.16V23.14h-.17Z"/><polygon points="164.15 4.59 161.78 4.59 163.28 9.06 163.28 22.14 163.44 22.14 163.44 9.55 167.67 22.12 170.1 22.1 164.15 4.59"/><polygon points="175.77 36.87 171.1 23.1 168.67 23.12 175.61 43.74 175.96 43.74 175.96 23.08 175.77 23.08 175.77 36.87"/><path d="M176.44,5V4.59H173.3V5c.77.93,1.47,3.76,1.47,6.1V22.08H175V11.13C175,8.79,175.66,6,176.44,5Z"/><polygon points="188.01 23.68 188.01 23.02 184.66 23.04 188.01 23.68"/><path d="M181.1,21.1V5h1.64c2.61,0,4.06,3,5.14,5.83l.12-.22-.5-6.05h-8.77V5c.35.49.52,1.31.52,3.22V22.06h1.85v-.51l2.56.5L187,22V19.91Z"/><path d="M180.25,40.14c0,1.91-.17,2.73-.52,3.22v.38h9.52l.52-6.6-.14-.21c-1.1,3.32-3,6.43-5.63,6.43h-1.9V23.05h-1.85Z"/><path d="M199.19,25.37A6.53,6.53,0,0,0,201.65,23h-1.32a4.18,4.18,0,0,1-4,2.74H194.2V23h-1.85V40.14c0,1.91-.17,2.73-.52,3.22v.38h2.88v-.38c-.35-.49-.51-1.31-.51-3.22v-14h2.18a7.78,7.78,0,0,0,1.06-.11l2.5,10.19c.92,3.76,1.41,5.72.8,7.14v.38h3.61v-.38c-.91-1.91-1.66-3.76-3-9.38Z"/><path d="M193.2,5h2.18c4.46,0,5.07,5.61,5.07,9.86A18,18,0,0,1,199.33,22h1.32a13.5,13.5,0,0,0,1.65-7.06c0-7.13-3.29-10.3-6.92-10.3h-4.55V5c.35.49.52,1.25.52,3.22V22h1.85Z"/><rect class="cls-262" x="206.44" y="37.59" width="6.01" height="6.01"/></g></g></g></svg>