<svg xmlns="http://www.w3.org/2000/svg" xmlns:xlink="http://www.w3.org/1999/xlink" viewBox="0 0 1049.47 430.01"><defs><style>.cls-1{fill:url(#linear-gradient);}.cls-2{fill:#fff;}.cls-3{fill:url(#linear-gradient-2);}</style><linearGradient id="linear-gradient" y1="215" x2="962.2" y2="215" gradientUnits="userSpaceOnUse"><stop offset="0" stop-color="#ff1d25"/><stop offset="0.25"/><stop offset="0.32" stop-color="#020107" stop-opacity="0.97"/><stop offset="0.39" stop-color="#07051b" stop-opacity="0.87"/><stop offset="0.46" stop-color="#110c3e" stop-opacity="0.71"/><stop offset="0.5" stop-color="#19125c" stop-opacity="0.57"/><stop offset="0.75" stop-color="#333" stop-opacity="0.8"/><stop offset="0.77" stop-color="#3c3131" stop-opacity="0.81"/><stop offset="0.81" stop-color="#552b2b" stop-opacity="0.83"/><stop offset="0.87" stop-color="#7d2020" stop-opacity="0.87"/><stop offset="0.93" stop-color="#b51212" stop-opacity="0.93"/><stop offset="1" stop-color="#fb0101"/><stop offset="1" stop-color="red"/></linearGradient><linearGradient id="linear-gradient-2" x1="854.51" y1="197.75" x2="985.58" y2="66.67" xlink:href="#linear-gradient"/></defs><g id="Layer_2" data-name="Layer 2"><g id="Layer_1-2" data-name="Layer 1"><path class="cls-1" d="M961.39,167.57l.12-.56h-.8l.12-.56H960l.13-.56h-.81l.13-.56h-.81l.12-.56H958l.12-.57h-.81l.13-.56h-.81l.12-.56h-.8l.12-.56h-.81l.13-.56h-.81l.13-.56h-.81l.12-.56h-.81l.13-.56h-.81l.13-.56h-.81l.12-.56h-.8l.12-.57h-.81l.13-.56h-.81l.13-.56h-.81l.12-.56h-.81l.13-.56h-.81l.13-.56h-.81l.12-.56h-.8l.12-.56h-.81l.13-.56H945l.12-.56h-.8l.12-.57h-.81l.13-.56H943l.13-.56h-.81l.12-.56h-.8l.12-.56h-.81l.13-.56h-.81l.12-.56h-.8l.12-.56h-.81l.13-.56h-.81l.13-.56h-.81l.12-.56h-.81l.13-.57h-.81l.13-.56h-.81l.12-.56h-.8l.12-.56h-.81l.13-.56h-1.36c-.18-.16-.37-.3-.56-.45l-.68-.56-.68-.56-.69-.56c-.22-.2-.45-.38-.68-.56s-.45-.38-.68-.56-.45-.38-.69-.56-.45-.38-.68-.56-.45-.38-.68-.56-.45-.38-.68-.56l-.69-.57-.68-.56-.68-.56-.69-.56a15.22,15.22,0,0,0-8.71-3.73l-.06-.06h-6.5c-4.22,0-8.25,1.45-16.32,5.93-9,4-19.49,10.7-31.75,20.42l0,0h0l-.68-.56h0l-.67-.56h0l-.68-.56h0l-.68-.56h0l-.67-.56h0l-.67-.56h0l-.68-.56h0l-.68-.56h0l-.67-.56h0l-.68-.55h0l-.68-.56h0l-.67-.56h0l-.68-.56h0l-.68-.56h0l-.67-.56h0l-.67-.56h0l-.68-.56h0l-.68-.56h0l-.67-.56h0l-.68-.55h0l-.68-.55h0L845,147h0l-.67-.56h0l-.68-.56h0l-.68-.56h0l-.67-.56h0l-.68-.56h0l-.68-.56h0l-.67-.56h0l-.68-.56h0l-.68-.55h0l-.67-.56h0l-.67-.56h0l-.68-.56h0l-.68-.56h0l-.67-.56h0l-.68-.56L820.22,134h-4.13c-6,0-12.09,2.43-19.46,7.92l.14-.61-1.07,1.16.38-1.72L795,141.91l.38-1.72-5.74,6.25a17.93,17.93,0,0,0-3.77,2.76l0,0a21.29,21.29,0,0,0-6.44,6.42l-.56-.46-.68-.56-.69-.56-.68-.56-.68-.56-.68-.56-.69-.56c-.22-.2-.45-.38-.68-.56s-.46-.38-.68-.56-.46-.38-.69-.56-.45-.38-.68-.57l-.68-.56-.68-.56-.69-.56-.68-.56-.68-.56-.69-.56c-.22-.2-.45-.38-.68-.56s-.45-.38-.68-.56-.46-.38-.68-.56l-.69-.57-.68-.56-.68-.56-.69-.56-.68-.56-.68-.56-.69-.56a28.79,28.79,0,0,0-13.48-6.74l-1.4-.27H744.4c-3.6,0-7.59.8-13.12,3.58l-.47-.47h-.12l-.57-.56H730l-.57-.56h-.11l-.57-.56h-.12l-.56-.57H728l-.57-.56h-.11l-.57-.56h-.11l-.57-.56h-.12l-.57-.56h-.11l-.57-.56h-.11l-.57-.56h-.12l-.56-.56h-.12l-.57-.56h-.11l-.57-.56h-.12l-.56-.56h-.12l-.57-.57h-.11l-.57-.56h-.11l-.57-.56h-.12l-.56-.56h-.12l-.57-.56h-.11l-.57-.56H717l-.56-.56h-.12l-.57-.56h-.11l-.57-.56H715l-.57-.56h-.12l-.57-.57h-.11l-.57-.56h-.11l-.57-.56h-.12l-.56-.56h-.12l-.57-.56h-.11l-.57-.56h-.12l-.56-.56h-3.95l-4.78-3.51-5.63,3.51H684.86l-2.61,11.74a50,50,0,0,1-1.83,5.44l-.72,1.93-.3,3.68c-.38,1.46-1,3.64-2.15,6.84l-.6-.49-.69-.56-.68-.56-.68-.56-.69-.56c-.22-.2-.45-.38-.68-.56s-.45-.38-.68-.56-.46-.38-.68-.56l-.69-.57-.68-.56-.68-.56-.69-.56-.68-.56-.68-.56-.69-.56a28.79,28.79,0,0,0-13.48-6.74l-1.4-.27h-1.82c-3.6,0-7.59.8-13.11,3.58l-.48-.47h-.12l-.56-.56H636l-.57-.56h-.11l-.57-.56h-.12l-.56-.57h-.12l-.57-.56h-.11l-.57-.56h-.11l-.57-.56h-.12l-.57-.56h-.11l-.57-.56h-.11l-.57-.56h-.12l-.56-.56h-.12l-.57-.56h-.11l-.57-.56h-.11l-.57-.56h-.12l-.57-.57h-.11l-.57-.56h-.11l-.57-.56h-.12l-.56-.56h-.12l-.57-.56h-.11l-.57-.56H623l-.56-.56h-.12l-.57-.56h-.11l-.57-.56H621l-.57-.56h-.12l-.56-.57h-.12l-.57-.56h-.11l-.57-.56h-.12l-.56-.56h-.12l-.57-.56h-.11l-.57-.56h-.11l-.57-.56h-4l-4.78-3.51-5.63,3.51H590.84l-2.61,11.74c0,.07-.1.44-.38,1.3H562.6l-1,1.1h-2.79l-.31,1.37h-3.47l-1.34,3h0l.17-.75-.85.19.17-.75-.85.19.17-.75-.86.19.17-.75-.85.19.17-.75-.85.19.17-.76-.85.2.16-.76-.85.2.17-.76-.85.2.17-.76-.85.2.16-.76-9.92,2.26-.08-.39-.54.12-.14-.68-.55.12-.14-.69-.54.13-.14-.69-.54.12-.14-.68-.55.12-.13-.68-.55.12-.14-.68-.54.12-.14-.68-13.31,3h-4.56a15.7,15.7,0,0,0-3.23.34c-.38-.06-.76-.11-1.13-.14l-.05-.06h-6.5c-4.22,0-8.25,1.45-16.32,5.93-10.18,4.49-22.16,12.44-36.49,24.24l-.31-.24-.69-.56-.68-.56-.68-.56-.69-.56-.68-.56-.68-.57-.68-.56-.69-.56-.68-.56-.68-.56-.69-.56-.68-.56-.68-.56-.68-.56-.69-.56-.68-.57-.68-.56-.69-.56-.68-.56-.68-.56-.69-.56-.68-.56-.68-.56-.68-.56L434,149c-.22-.2-.45-.38-.68-.56l-.68-.57-.69-.56-.68-.56-.68-.56-.68-.56-.69-.56-.68-.56-.68-.56-.69-.56-.68-.56-.68-.57-.68-.56-.69-.56a30.75,30.75,0,0,0-12.58-6.52l-.24-.29-.19,0-.49-.61-.19,0-.49-.61-.19,0-.5-.61-.19,0-.49-.61-7.42,1.69h-4l-.17-.16h-.09l-.59-.56h-.09l-.59-.56h-.09l-.59-.56h-.1l-.59-.56h-.09l-.59-.56h-.09l-.59-.56h-.1l-.59-.56h-.09l-.59-.56h-.09l-.59-.56H391l-.59-.57h-.1l-.59-.56h-.09l-.59-.56H389l-.59-.56h-.1l-.59-.56h-.09l-.59-.56h-.09l-.59-.56h-.1l-.58-.56h-.1l-.59-.56h-.09l-.59-.56h-.09l-.59-.57h-.1l-.59-.56h-.09l-.59-.56h-.09l-.59-.56h-.1l-.59-.56h-.09l-.59-.56h-.09l-.59-.56h-.09l-.59-.56h-.1l-.59-.56H378l-.59-.56h-.09l-.59-.57h-.1l-.59-.56H376l-.59-.56h-.09l-.59-.56h-9.4l-6.93,2.61v0a15.29,15.29,0,0,0-8.54,7.93c-.35.7-.72,1.54-1.16,2.64-.2.48-.42,1-.65,1.63h-2.58l-1.67,7.5-1.89,6.78h-.1l-3.34,10-.39-.31-.68-.56-.68-.56-.68-.56-.69-.56-.68-.56-.68-.56-.69-.56c-.22-.2-.45-.38-.68-.56s-.45-.38-.68-.56-.46-.38-.68-.56l-.69-.57-.68-.56-.68-.56-.69-.56-.68-.56-.68-.56-.68-.56-.69-.56c-.22-.2-.45-.38-.68-.56s-.46-.38-.68-.56l-.69-.57a35.65,35.65,0,0,0-23.15-8.21c-10.69,0-21.45,6.18-33.87,19.44h0l-.21-.16-.69-.57-.1-.08c5.17-12.57,7-17.26,7.71-19.4l10.65-25.58.21-.65c6.33-20.25,8.74-26.12,9.46-27.66l1.46-1.91,2.09-9.43L295.65,64l.32-1.43-2.63-4.91c-.57-1.06-1-1.94-1.41-2.67l.77-3.45-2.29-2.19,2.41-10.86H292l.13-.56h-.81l.12-.56h-.8l.12-.56H290l.13-.56h-.81l.12-.56h-.8l.12-.56h-.81l.13-.56h-.81l.13-.56h-.81l.12-.57h-.8l.12-.56h-.81l.13-.56h-.81l.12-.56h-.8l.12-.56h-.81l.13-.56h-.81l.12-.56h-.8l.12-.56h-.81l.13-.56h-.81l.13-.56h-.81l.12-.56H279l.12-.57h-.81l.13-.56h-.81l.12-.56H277l.12-.56h-.81l.13-.56h-.81l.13-.56h-.81l.12-.56h-.8l.12-.56h-.81l.13-.56h-.81l.12-.56h-.8l.12-.57h-.81l.13-.56h-.81l.13-.56h-.81l.12-.56h-.81l.13-.56h-.81l.13-.56h-.81l.12-.56h-.8l.12-.56h-.81l.13-.56h-.81l.12-.56h-.8l.12-.57h-.81l.13-.56H250.24l-.59-.55H243c-7.14,0-11.69,4.25-14.55,8.45l-.09-.07c-.23-.2-.45-.38-.68-.56s-.46-.38-.69-.56-.45-.38-.68-.56-.45-.39-.68-.56-.46-.39-.69-.57l-.68-.56-.68-.56-.68-.56-.69-.56-.68-.56c-.23-.2-.45-.38-.68-.56s-.46-.38-.69-.56-.45-.38-.68-.56-.45-.39-.68-.56l-.68-.57-.69-.56-.68-.56-.68-.56-.69-.56-.68-.56-.68-.56c-.23-.2-.46-.38-.68-.56s-.46-.38-.69-.56-.45-.38-.68-.56l-.68-.57-.69-.56-.68-.56-.68-.56-.69-.56-.68-.56L207.19,6c-.23-.2-.46-.38-.68-.56s-.46-.38-.69-.56A19.94,19.94,0,0,0,192.88,0h-.48C178,0,160.66,12.4,134.51,41.45A540.82,540.82,0,0,0,93.4,90.52C78,110.94,73,118.67,70.86,122.66c-3.33,4.78-8.8,13.32-16.68,26-5.55,8.26-12.09,21.1-20,39.22L32.44,192l0,.29a21.5,21.5,0,0,0-1.41,4.16l-.71,3.19-.16,1.63a19.89,19.89,0,0,0-.78,2.61,16,16,0,0,0-.23,5.6,25.63,25.63,0,0,0,.27,6.28c.42,8.17,4.72,17.65,13.78,30.71a24.11,24.11,0,0,0,5,5.29l.56.44.68.56.68.56.69.57.68.56.68.56c.22.19.46.37.69.56l.68.56.68.56c.22.19.45.38.69.56l.68.56.68.56.68.56.69.57.68.56.68.56c.22.19.46.37.69.56l.68.56.68.56.68.56.69.56.68.56.68.56c.22.19.46.38.69.56s.45.38.68.57l.68.56.68.56.69.56.68.56.68.56c.22.19.46.38.69.56l.68.56.68.56c.22.19.46.38.69.56s.45.38.68.57l.68.56.68.56.69.56.68.56.54.45c.22.19.44.39.67.57L48.76,311.94a16.78,16.78,0,0,0-5.69,7.68H38.73L36.3,330.57c-.9,1.3-2.65,3.75-6,8.26L5.1,373.49,0,396.44H.81L.68,397h.81l-.12.56h.8l-.12.56h.81l-.13.56h.5l-.54,2.42h.8l-.12.57h.81l-.13.56h.81l-.12.56h.8l-.12.56h.81l-.13.56h.81l-.13.56h.81l-.12.56h.81l-.13.56H9l-.13.56h.81l-.12.56h.8l-.12.57H11l-.13.56h.81l-.12.56h.8l-.12.56h.81l-.13.56h.81l-.13.56h.81l-.12.56h.8l-.12.56h.81l-.13.56h.81l-.12.56h.8l-.12.57h.81l-.13.56h.81l-.13.56h.81l-.12.56h.8l-.12.56h.81l-.13.56h.81l-.12.56h.8l-.12.56h.81l-.13.56h.81l-.13.56H24l-.12.56h.81l-.13.57h.81l-.13.56H26l-.12.56h.8l-.12.56h.81l-.13.56h.81l-.12.56h.8l-.12.56h.81l-.13.56h.81l-.13.56h.81l-.12.56h5.6v0h.57l.12.56h.56l.12.56h.56l.12.56h.57l.11.56h.57l.12.56h.56l.12.56H41l.12.56h.57l.12.56H53.92c6.9,0,10.93-4,15.84-9.74h2.58l4.47-6.59c1-1.49,1.77-2.58,2.35-3.37l1-.32,2.84-4c2.36-3.32,4.47-6.22,6.36-8.77l3-2.09h3.45l4.49-5.25c6.39-7.48,19.65-25,40.53-53.46l1.13-1.55a66.13,66.13,0,0,0,6.73-9.19q1-1.17,2.07-2.4H151l-.12.56h.81l-.13.56h.81l-.13.56h.81l-.12.57h2.19l.07.41.52-.2h0l.14.76.52-.2h0l.13.76.52-.2h0l.13.76.52-.2h0l.14.76.52-.2h0l.13.76.52-.19h0l.13.75.55-.2.13.76.55-.2.14.76.55-.2.13.77.55-.21.13.77.55-.21.14.77.54-.21.14.77.55-.21.13.77.55-.21.13.77.55-.21.14.77.55-.2.13.76.55-.2.13.76,16.93-6.38c.45-.17.88-.35,1.31-.54h6.59l1.25-2.16-.07.33h.8l-.12.56h.81l-.13.56H195l-.13.56h.81l-.12.56h.8l-.12.56H197l-.13.56h.81l-.12.56h.8l-.12.56h.81l-.13.56h.81l-.13.57h.81l-.12.56h.81l-.13.56h.81l-.13.56h.81l-.12.56h.8l-.12.56h.81l-.13.56h.81l-.12.56h.8l-.12.56h.81l-.13.56h.81l-.13.57h.81l-.12.56h.8l-.12.56h.81l-.13.56h.81l-.12.56h.8l-.12.56h.81l-.13.56h.81l-.13.56h8.18a15.3,15.3,0,0,0,5.34,1h10.05l.48-1h7.45l2.59-11.65c6.47-13.24,6.63-14,7-15.88l.08-.36.32-.67.65.54.69.56.68.56.68.56.69.56.68.56.68.56.68.56c.23.2.46.38.69.56s.45.38.68.56l.68.57.69.56.68.56.68.56.68.56.69.56.68.56a27.22,27.22,0,0,0,2.41,1.82,17.56,17.56,0,0,0-1.1,2.8c-.85,2.11-5,11.48-24.29,52.41l-2.89,6.18,1.83,4.2L237,403.71h.53l-.36,1.1H238l-.18.56h.87l-.19.56h.87l-.18.56h.86l-.18.57h.87l-.19.56h.87l-.18.56h.86l-.18.56h.86l-.18.56h.87l-.19.56h.87l-.18.56h.86l-.18.56h.87l-.19.56h.87l-.18.56h.86l-.18.57h.87l-.19.56h.87l-.18.56H249l-.18.56h.86l-.18.56h.87l-.19.56H251l-.18.56h.86l-.18.56h.87l-.19.56h.87l-.18.56h.86l-.18.56h.86l-.18.57h.87l-.19.56h.87l-.18.56h.86l-.18.56h.87l-.19.56h.87l-.18.56h.86l-.18.56h.86l-.18.56h.87l-.19.56h.87l-.18.56h.86l-.18.57H262l-.19.56h.87l-.18.56h.86l-.18.56H264l-.19.56h.87l-.18.56h.86l-.18.56h2.69l-.17.51h.86l-.18.57h.87l-.18.56h.86l-.18.56h30.1l.85-1.65h1.57l2.74-2.74h2.57l4.5-6.12a34.26,34.26,0,0,0,4.24-7.4c.26-.43.51-.86.74-1.31h1.34L322.66,399a34.25,34.25,0,0,0,4-8.14,25.1,25.1,0,0,0,1.84-3.67h3.06l2.54-11.43a16.73,16.73,0,0,0,1.78-3.94h2.72l2.56-11.52,2.78-5.56c6.7-13.39,12.4-25.47,17-36,2.76-1.13,7.2-2.87,14.29-5.56l.51-.19.48-.22c6.1-2.83,11.74-5.59,17-8.32v.06h.73l-.05.56h.73l0,.56h.73l0,.56H396l0,.56h.73l-.05.56h.73l-.05.56H398l-.05.56h.73l-.05.56h.73l-.05.56h.73l0,.57h.73l-.05.56h.73l-.05.56h.73l0,.56h.73l-.05.56h.73l-.05.56h.73l0,.56h.73l0,.56h.73l0,.56h.73l-.05.56h.73l0,.57h.73l-.05.56h.73l-.05.56h.73l-.05.56h.74l-.05.56h.73l-.05.56H411l-.05.56h.73l0,.56h.73l-.05.56H413l0,.56h.73l0,.56h.74l0,.57h.73l-.05.56h.73l-.05.56h.73l0,.56h.73l-.05.56h.73l-.05.56h.73l0,.56h.73l-.05.56h12.46l.14.12h0l.66.57h0l.66.57h0l.67.57h0l.66.57h0l.66.56,7.65-2.06a20.24,20.24,0,0,0,6.68-3.11c6.86-4.17,9.64-13.11,11.17-18.05l1.32-4.26c.83-2.11,1.22-3,1.38-3.37l.61-1.06.48-1.52c.53-1.68,1.12-3.4,1.76-5.14,1,.85,1.93,1.65,2.86,2.41.23.2.45.38.68.56l.68.57.69.56.68.56.68.56.69.56c.23.2.45.37.68.56s.45.37.68.56.46.37.68.56l.69.56c.23.2.45.37.68.56l.68.57.69.56.68.56.68.56.68.56.69.56c.23.2.45.37.68.56s.45.37.68.56l.69.56c.23.2.45.38.68.56l.68.57.69.56.68.56.68.56.68.56.69.56c.23.2.45.37.68.56s.45.37.68.56.46.37.68.56l.69.56.68.57.68.56.69.56.68.56.68.56.69.56.68.56c.23.2.45.37.68.56s.46.37.68.56c10.38,8.69,17.45,12.18,24.32,12.18h12l.4-1.81c6.61-2.37,13.41-7.11,20.61-14.4l.55.16-.07.34.76.22-.08.34.76.23-.07.33.75.23-.07.34,10.93,3.19,2,1,.22.28h.24l.44.56h.25l.43.56H571l.43.56h.25l.44.56h.25l.43.56h.25l.43.57h.25l.44.56h.24l.44.56h.25l.43.56h.25l.43.56h.25l.44.56h.25l.43.56h.25l.43.56h.25l.44.56h.24l.44.56h.25l.43.56h.25l.44.57h5.35l.56.48h0l.67.57h0l.67.57h0l.67.57h0l.66.57h0l.67.57h0l.67.57,15.51-10.52,3.38-6.18h0l-.13.57h.81l-.12.56h.8l-.12.56H612l-.13.56h.81l-.12.56h.8l-.12.56h.81l-.13.56h6.57l-.08.35h.81l-.13.56h.81l-.13.57h.81l-.12.56h.8l-.12.56H624l-.13.56H634l.69.17,4.11.94,1-.32,12.69,4.13,2.11-9.49a20.32,20.32,0,0,0,1.81-1.92l4.88,1.43,2,1,.22.28h.24l.44.56h.25l.43.56H665l.43.56h.25l.44.56h.25l.43.56h.25l.43.57h.25l.44.56h.24l.44.56h.25l.43.56h.25l.44.56h.24l.44.56h.25l.43.56h.25l.43.56h.25l.44.56h.25l.43.56h.25l.43.56h.25l.44.57h5.35l.56.48h0l.66.57h0l.67.57h0l.67.57h0l.66.57h0l.67.57h0l.67.57,15.51-10.52,3.38-6.18h0l-.13.57h.81l-.12.56h.8l-.12.56H706l-.13.56h.81l-.12.56h.8l-.12.56h.81l-.13.56h6.57l-.08.35h.81l-.13.56h.81l-.12.57h.8l-.12.56h.81l-.13.56H718l-.12.56H728l.69.17,4.1.94,1-.32,12.7,4.13,2.11-9.49a27.74,27.74,0,0,0,4.65-6c.11.1.22.2.34.29s.45.38.69.56.44.38.68.56.44.38.68.56.45.38.69.56.44.38.68.56.44.38.68.56l.68.56c.23.19.45.39.69.56a24.64,24.64,0,0,0,11,4.94c11.2,5.43,16.37,6.59,20.53,6.59h2.57l2.43-.86a49.66,49.66,0,0,0,15.44-8.7l1.21-1,0,.23h.73l0,.56h.73l0,.56h.73l0,.56h.73l0,.56h.73l-.05.56h.74l0,.56H817l-.05.56h.73l0,.56h.73l0,.57H819l0,.56h.73l-.05.56h.73l0,.56h.74l-.05.56h.73l0,.56h.73l-.05.56h.73l0,.56h12.46l.13.12h0l.66.57h0l.66.57h0l.66.57h0l.67.57h0l.66.56,7.65-2.06a20.18,20.18,0,0,0,6.67-3.11c6.87-4.17,9.65-13.11,11.18-18.05l1.32-4.26c.83-2.11,1.22-3,1.38-3.37l.6-1.06.49-1.52c4-12.76,11.12-27.24,21-43,5.25-7.78,12.76-16.35,22.34-25.46l.29-.28c4-4.06,10.41-9.11,18.93-15,6.84-3.59,11.69-6.58,14.88-10a39.53,39.53,0,0,0,8.22-7.53h2.52l2.61-11.75a15.87,15.87,0,0,0,.37-3l2.61-11.71ZM153,152.55h.24l.1.47.1-.07,0,.16H154l.1.47.1-.07,0,.16h.51l.1.47.11-.07,0,.16h.52l.1.47.1-.07,0,.16H156l.1.47.1-.07,0,.16h.51l.1.47.1-.07,0,.16h.51l.11.47.1-.07,0,.16h.52l.1.48.1-.08,0,.16h.52l.1.48.1-.08,0,.16h.51l.1.48.11-.07,0,.15h.52l.1.48.1-.07,0,.16h12.29l-12.32,29.92-.17-.13-.68-.56-.68-.56c-.22-.19-.45-.38-.69-.56s-.44-.38-.68-.57l-.68-.56-.68-.56-.69-.56-.68-.56-.68-.56-.69-.56a45.93,45.93,0,0,0-13.7-7.59l-.53-.2,4.06-6.3h-1l.36-.56h-1l.37-.57h-.52q3.56-5.1,7.52-10.47l0,0Z"/><path class="cls-2" d="M151.48,220.25q-2.58-14.55-5.28-20,1.31-5.9-11.91-10.85-10.21,0-26.91,6.87Q81.9,209.55,60.57,215.72l1.24-3.43a12,12,0,0,1,.18-4.67l.24-1.09h-.48a28.12,28.12,0,0,1,1.76-5.77Q74,174.68,81.94,167.67l-.37,1.65h.86q.18-.82,5.13-8.51c-.31,0-.43-.19-.35-.55l-1,.55a4.49,4.49,0,0,0-.08-1.79q12.51-21.56,33.89-48.6l1.06,1.23q7.56-8.24,13.19-15.51l.12-.55c-1.28,0-1.75-.73-1.42-2.2q1.14-3,10.37-13.18Q166,55.64,167.72,55.64q11.66-12.07,12.8-12.08H181q-1.53,6.86-39.05,65.76l.24,1.1,1.58-1.1h.47q-.54,2.48,3.29,8,4.2,0,3.44,3.44h.48q3.08-.56,26.1-38.86Q182,76.37,188.09,63.6q10.17-14.82,12.46-25.12l.5-4c.25,0,.43-.23.53-.69Q199.75,15,192.88,15h-.48q-13.93,0-46.9,36.66a522,522,0,0,0-40.13,47.91Q87,123.87,83.71,130.46q-4.59,6.47-16.93,26.36Q59.25,168,48,193.89l.2,1.24a13.92,13.92,0,0,0-2.43,4.53L45.2,202l-.41,4c-.32,0-.56.36-.72,1.09-.08.37,0,.55.35.55-.4,3.85-.39,5.77.06,5.77Q43.7,220.8,55.63,238q2,3,8.1,5.22,12.5,0,38.19-12.08,22.77-11.4,28.4-11.4h.48l-.13.55q-4,8.38-15.43,25.68L64.08,316.36l.24,1.1q-4.74,6.72-4.9,7.41h-1l.72-1.1.12-.55h-.47q-1.53.82-1.71,1.65l-.12.55h1.34l-.12.55q-5.85,8.65-7.46,8.65l-.37,1.65q-.21,1-8.1,11.53l-23.23,32-.37,1.65h1.43l3.26-2.2a20.75,20.75,0,0,0-.41,4c-.57,0-1,.37-1.2,1.1l-.39,1.78h.95c.57,0,.95-.41,1.13-1.23l.81.69h.95c2.52-2.75,3.87-4.12,4.07-4.12.63,0,.86.41.68,1.23-2.44,2.66-3.83,4.76-4.17,6.32l-.13.55.24,1.09q.66,0,6-6.31,2.19-3.44,4.49-3.43,5.11-7.56,6.35-8Q56.9,353,64,346q5.64-9.06,8.9-10.84-.35,1.5-15.39,21.14l-.25,1.1a7.47,7.47,0,0,1,3.62-1.65Q70,345.05,100.7,303.18l.25-1.1H99.61l-2.39,2.2Q84.43,320.62,84.12,322H82.69l.48-2.2L102.27,294a89.55,89.55,0,0,0,6.32-7.41H109q-1.65,4-9.57,14.27l2,1.24q6.22-7.41,6.62-9.2a120.86,120.86,0,0,0,13.07-17.16l.83.55h.48A127.91,127.91,0,0,1,132,259.66q15.9-23.48,18.92-37.07ZM73.39,334.62l.24-1.1q5-8.37,7.7-9.75h.48Q81.48,325.28,73.39,334.62ZM227.29,249h.77l-5.2,12.22h-.76l.12-.55C223.05,259.16,224.74,255.26,227.29,249Zm24.45-74.83q-6.87-25.4-17.74-25.4h-3.15q-7.12.69-23.75,15.79l.25-1.1q23.39-55.87,24-58.48L242,79.39q8.9-28.41,11.31-31.58l.34-1.51q-1.64-3.84-1.48-4.53-4.05-7.55-3.89-8.23c-1.53-1.47-2.22-2.48-2.1-3a2.5,2.5,0,0,0-1.17.55L243.77,30H243q-3.33,0-10.67,24.44h-.39l.29-3h-.67l-.33,1.51q-9.93,28.83-29,72.91-12.52,31-13.53,32.53Q185.11,169,184.53,169l-38.37,93.23-.14,1.92c-.19,0-.26-.14-.2-.41a21,21,0,0,0-3.49,7.55h1q-2.62,7.14-3,8.65a11.17,11.17,0,0,0-.24,4.11c.51,0,.83-.31,1-1,1.76,1.56,2.58,2.57,2.48,3a4.17,4.17,0,0,0,2.06-1.1c.61,2.38,1.18,3.57,1.69,3.57a5.17,5.17,0,0,0,3.1-1.51l.64.55a5.61,5.61,0,0,1-.71,1.51,3.91,3.91,0,0,0,0,1.51q3.65-1.38,11.7-20.87h.38l-.12.55q-2.67,7.28-8.09,18.81H155q3.09-5.35,13.67-31h1.71l1.7.55-.6,1c-.14.64,0,1,.55,1q1.28-.56,7.68-15.65,12.27-24.3,20.67-37.21,19.26-29.1,35.35-36.66,1.14,0,.93,1l-1.37,6.18q-4.34,19.5-27.07,70.71-5.2,10.57-17.31,39.68h.38l.76-.42a57.92,57.92,0,0,1-2.46,8.1c-.08,1.19,1.2,2.89,3.83,5.08.45,0,1.37-1,2.77-3h.29c-.44,3.39-.33,5.08.3,5.08h.77l7.58-15.24.17-2a17.73,17.73,0,0,0,4-7.14h1.15q-.77,3.42-8.55,20.86a5,5,0,0,1,.09,2.61h.76l.37-1.65q6.47-13.17,6.67-14.14c-.25,0-.34-.18-.26-.54l6.58-13.73q10.35-22.51,26-61.1h.39l-.1.41q-.75,3.44-13.82,35.15l-.12.55q1.05,0,3.9-8.1,14.27-32.4,18.62-52A46.41,46.41,0,0,0,251.74,174.12Zm-85.07,86.5h-.39l.1-.41,1.17-3.57h.67A30.19,30.19,0,0,0,166.67,260.62Zm44.61,17.43h-1.05a16.85,16.85,0,0,1,2.42-6.17c.26,0,.34.18.26.55l.79-.55h.39A26.28,26.28,0,0,0,211.28,278.05Zm6.84-6.72-.33,1.51H217l.09-.41C217.34,271.69,217.68,271.33,218.12,271.33Zm73.95-19.64c.2-.64.49-1,.88-1l-.12.55c-.13.55-.41.83-.86.83Zm-31.19,32.95q11-6.45,22.5-19.63a4.08,4.08,0,0,0,0-1.37,5.1,5.1,0,0,1,.59-1.37l.12-.55a13.64,13.64,0,0,0-4.43,2.74q.29-1.23,9.81-12.77,9.22-12.76,9.52-12.76,5.22-8.52,7.88-11h.28l-.09.41q-.36,1.65-9.08,15.11l-.12.55.79-.55q2.82-4.12,3.49-4.12,4.66-7.28,5-7.28,12.69-21.42,14.64-30.2c-.2,0-.26-.14-.2-.42.51,0,1.36-2.42,2.57-7.27q1.62-13.32.09-13.32-2.34-32-23.72-32-9.16,0-22.93,14.69-13.2,16.48-14.21,21-4,5.22-11.65,22.38c-.14.64,0,1,.46,1h.28q3.79-5.91,4.21-6h.67a19.71,19.71,0,0,0-1.12,3.29q-18.24,28-22.06,45.17.28,0-.55,5.49a.46.46,0,0,0-.47.41c-.1,1.29,0,1.93.24,1.93q-1.68,7.55,6.53,20.45,5.28,10.57,11.39,10.58h1.91Q259.38,287.11,260.88,284.64Zm49.42-62.19.09-.41a8.74,8.74,0,0,1,2.07-3.71l-.11-.82a6.09,6.09,0,0,0,1.69-3.3h1Q311.53,222.45,310.3,222.45ZM320.12,201c.44,0,.61.28.48.83s-.43,1-.88,1h-.28Zm-3.26,9.06-.3,1.38a6.22,6.22,0,0,0-1.19,2.33h-.57l.3-1.37C316,210.87,316.55,210.09,316.86,210.09Zm-37.81-5.49h.57l-.12.55a14.17,14.17,0,0,1-3.4,4.12h-.38Q278.86,205.43,279.05,204.6ZM248.2,269.13h-2.87l.14-2.33q5.79-26.09,38.76-65.77l-.07-1-3.69,3.71.12-.55q1.59-3.71,21.3-24.58c-.09-1.28-.59-1.92-1.48-1.92l.09-.41,2.24-2.75.09-.41a4.57,4.57,0,0,1-.8-3.7l.09-.42a13.24,13.24,0,0,1,3.84-1.37q5.57.69,5.42,1.37,5.44,0,3.21,10h-.38v1.78a85,85,0,0,1-2.5,8.24q-7.95,19.91-18.29,33.77-6.44,11.82-27,34.33Q254.46,267.62,248.2,269.13ZM425,198.7q3.3-14.83-3.51-37.89-7.15-12.09-16.6-12.09c-.08.37-.25.55-.5.55a1.47,1.47,0,0,1-1.21-.55l-2.42.55q-6.87,0-15.13,4.95-9.51,2.88-12.85,7.14h-.28l.36-1.65q.94-4.26,5.45-15.93a10.77,10.77,0,0,0-2.95-6c-1.81-2.2-3-3.29-3.57-3.29a14.46,14.46,0,0,0-3-4.4h-.67l-4.37,1.65q-.39,0-3.58,8.79-6.23,21.13-8.83,24.71a63.12,63.12,0,0,0,2-6h-.67q-4.85,14.55-16.36,42.28-6.36,17-7.48,18.68l.13,1.09-.24,1.1q-1.17.56-6.65,13.18c.44,0,.59.37.42,1.1l-.24,1.1c-1.17.37-2,1.65-2.48,3.85q-6.94,15-15.44,35.14l-.25,1.1.05,1.1a103.49,103.49,0,0,0-7.71,15.38l.3,1.64-.12.55q-7.87,16.07-13.31,28.56-3,4.39-3.23,5.49-.51,2.34-25.06,54.37a6.62,6.62,0,0,1,.77,3.84h.67a8,8,0,0,1,1.95-2.74c.44,0,.58.36.42,1.1l-.9,2.74h.67a6.74,6.74,0,0,1,2.19-3.84H261l-.12.55-1,1.64-.36,1.65h.66c.21-.91,2.14-4.58,5.78-11h.29l-.12.55a34.32,34.32,0,0,1-2.71,6.59c-.08.36.11.55.55.55l-.37,1.64L262.33,392h.38q9.21-17.85,9.94-18.13c.45,0,.59.37.43,1.1a105.25,105.25,0,0,1-4.49,9.89c.08,1.1.27,1.65.59,1.65a22.78,22.78,0,0,0-1.52,3.84H268a21.92,21.92,0,0,0,3.22-5.49q6.9-14.28,7.47-14.28,4.63-11,5.4-11,19.22-42.71,23.6-47.78l-.49,2.2a93.56,93.56,0,0,0-5,10.43l-.13.55h.39q11.67-23.34,18.95-40.64,3-1.65,20.44-8.24,30.86-14.28,46.55-26.91Q419.5,223.27,425,198.7ZM291.64,336.54a29.46,29.46,0,0,1-2,4.4h-.28l.12-.55q1.77-5,2.43-4.95Zm27.08-48.87q-.15.68-4.2,9.88l-.45-.55a74.2,74.2,0,0,1,5.77-12.63l.54.55C319.53,286.75,319,287.67,318.72,287.67ZM379,226.16l1.74-.55h.38c-.08.37-2.36,2.19-6.85,5.49-.7,0-1-.36-.8-1.1q-1.35,0-10.06,6.59l0,1.1-.12.55H363q-16.51,9.88-27,13.73h-.38l.12-.55q5.4-10.57,18.49-42.84,1.58-7.12,19.63-19.22,12.39-8.51,29.89-12.08c4.07,0,6.5.55,7.27,1.65l.79-.55c1.94,1.28,2.85,2.2,2.73,2.74l-.24,1.1Q413,188,402.42,203.09,393.85,213.66,379,226.16ZM293,343.68h.67l-.12.55c-.16.73-.47,1.1-.91,1.1Zm85-117.52h1c-.17.73-.47,1.1-.91,1.1h-.29Zm-79.09,106-.37,1.65h-.67l.12-.55C298.23,332.51,298.53,332.15,298.92,332.15Zm-11.79,24.71-.13.55c-.74,2.2-1.33,3.3-1.78,3.3l.12-.55C286.09,358,286.68,356.86,287.13,356.86ZM275,381.57l-.13.55a15.43,15.43,0,0,1-2.84,5.5h-.38l.12-.55C273.42,383.5,274.49,381.66,275,381.57Zm80.84-229h-.67l1.38-4.95h.67ZM276.11,379.38l-.24,1.1c-.16.73-.47,1.09-.91,1.09l.24-1.09C275.43,379.74,275.73,379.38,276.11,379.38Zm81.6-232.85h-.57l.36-1.65h.58ZM292,347l-.49,2.19h-.67l.24-1.1C291.31,347.34,291.61,347,292,347Zm-7.43,15.37-.12.55c-.33,1.47-1.48,3.66-3.47,6.59l.37-1.65C283.24,364.18,284.32,362.35,284.57,362.35Zm-6.65,13.18-.24,1.1c-.17.73-.47,1.1-.92,1.1l.25-1.1C277.3,375.9,277.6,375.53,277.92,375.53Zm10.89-22-.24,1.09c-.64,1.47-1.12,2.2-1.44,2.2l.24-1.1Q288.34,353.57,288.81,353.57ZM281,369.49l-.12.55-1,2.75h-.67C279.94,370.59,280.54,369.49,281,369.49ZM569.5,161.22l-.22,1c-.16.73-.46,1.1-.91,1.1l.25-1.1C568.82,161.54,569.12,161.22,569.5,161.22Zm0-1.51c.21-.64.5-1,.88-1h.39l-.13.55a5.48,5.48,0,0,0-.71,1.51C569.43,160.81,569.29,160.44,569.45,159.71Zm-81,33.63h-.28l.12-.55q1.4-2.88,2-2.88h.38l-.09.41C489.5,192.34,488.8,193.34,488.48,193.34Zm90-26.22-.79.55h-.39l.13-.55a8.32,8.32,0,0,0,1.43-3.43h.67l-.46,2.06-.17,2.47C578.47,168.22,578.33,167.86,578.5,167.12Zm-4.42,10.44c.51,0,1.4-1.47,2.69-4.4.2-1.74.33-2.74.39-3h.66l.13-.55-.17-1-.79.55.17-2.47a45.46,45.46,0,0,0,2.6-7l-1.5-1q-.68,0-3.32,5.9c-.25,0-.35-.14-.29-.41h-.38q-4,7.83-4.41,7.82h-.38q4.2-9.47,4.5-10.84l.1-.41c-.75.18-1.68,1.83-2.82,4.94l-.64-.55a38.06,38.06,0,0,1,4-6.87l.45-2.05-.17-1c-.44,0-.81.65-1.09,1.93h-.38l.21-1h-1l-.12.54.43,1.51-.09.42q-1,0-4,5.49a7.38,7.38,0,0,1-3.2,4.94c.08-.36-.1-.55-.55-.55l.43-1.92,1.63.41.21-1a1.86,1.86,0,0,1-1-.41,40.85,40.85,0,0,1,4.21-9.47l-.34-1.51.09-.42,1.44-3.43.16-2.47H570.9a5.58,5.58,0,0,1-1.09,1.92c-.45,0-.45-1,0-3h-.38l-1.79,2.06-12.08,25.13h-.38l.09-.42c1.87-4.66,3-7,3.28-7a149.76,149.76,0,0,1,7-17.3h-.76q-25.62,56.85-46.71,89.93-18.23,27-29.8,33.64-1-1-.62-11.4l.59-1a4.34,4.34,0,0,1,.05-1.92l1.65-7.42.93-2.47c-.26,0-.27-.5-.05-1.51l.46-2.06,1.07-1.37.12-.55q2.92-13.18,15.23-41,3.32-8.51,4.43-8.79,14-29.23,18.45-36.65l-.17-1q-2.67-3.43-2.46-4.4l-1.81.41c-.84-1.64-1.68-2.47-2.5-2.47h-1l-.79.55-.5-2.47a41.28,41.28,0,0,1-5.09,1c-.31,0-.69-.32-1.12-1-.64,0-1.17.82-1.6,2.47a13,13,0,0,0-3.15,3.43l-.21.45-.16,0,.09-.42.87-1.37c-.62-2.93-1.12-4.39-1.5-4.39a23.16,23.16,0,0,1-4.48.82l-.77-.82q-1.81,0-9.66,4.39-14.46,6.18-36.77,25-8.65,6.72-23.49,25-4.68,6.45-11.67,17.29-12.37,22.67-26.41,59.18-.23,1,.36,1h.38l.66-.41,1.53,3q8.42,4.67,8.35,5.35a2.2,2.2,0,0,0,1.34-.41l2.08,1.79c1.35-.37,2.09-.83,2.21-1.38q2.21,0,5.22-9.75c-.19,0-.25-.13-.19-.41q3.22-8.5,4-9.88,6.71-21.15,22.78-46.68,8.83-13.19,24.57-28.15,7.26-7.27,21.79-17.3,4.61-2.4,7.5-4.21-4.32,8.6-6.2,13l-.13.55h.67q5-10.31,6.84-14.31a21.7,21.7,0,0,0,2.59-2,346.22,346.22,0,0,0-19.45,42.93q-1.62,0-11.46,36.11a122.36,122.36,0,0,0-1.9,13.32l-.13.55q-1.05,0,.65-12.36l.12-.55h-.67q-2.46,11.13-.79,17.3-1.12,5.08,4.85,10.85,13.77,12.36,18.92,12.36c.08-.37.22-.55.41-.55l2,.55q16.8,0,45.12-45.45,20-35,33.93-64.66A3.91,3.91,0,0,0,574.08,177.56Zm-7.5,1.51a26.21,26.21,0,0,1-1.61,3.84h-.29l.43-1.92a6.51,6.51,0,0,0,1.21-2.47h.39Zm.89-1h-.67l.12-.55a1.1,1.1,0,0,1,.88-1Zm.5-7c1.42-2.65,2.28-4,2.6-4a22.14,22.14,0,0,1-2.05,4.53Zm-86.5,40.09q-3.57,10-4.18,12.77h-.76l.12-.55a121.68,121.68,0,0,1,4.15-12.22Zm1.93-4h-.67l.84-2.47h.66Zm166,3.71q-.39,1.79-12.52,28-3.74,9.06-9.38,20.73-9.37,23.74-12.24,23.75h-.76c.16-.73,0-1.1-.43-1.1a5.67,5.67,0,0,0-.74,1.65l-1.7-.55L610,284q-4.17-1-3.2-5.36h-.38c-.51,0-.88.55-1.13,1.65h-.67l.25-1.1q.6-2.75,39.52-92,.43-1.93,3.86-12.63h-1l1.5-2.06c.17-.74,0-1.1-.42-1.1q-12,9.62-15.17,13.73h.38l8.9-7.42h.38l-.12.55a199.24,199.24,0,0,0-16.8,16.34q-4.67,5.08-17.2,21.14l.12-.55q6.33-9.6,15.67-21.14l.13-.55h-.29q-.21,1-6.92,8-.17.69-5.92,6.87a524,524,0,0,0-39.08,65.08l-.09.41q1.05,0,6.83-11l7.1-12.21H587l-.13.55-19.73,36-3,2.06-.64-.55a14.57,14.57,0,0,1-3.08.55q-2.46-3.17-10.86-7.42c.14-.64-1-1.32-3.55-2.06l.12-.55q1.33-6,34-83.47,17.45-39,20.16-51.21l.23-2.75a64.46,64.46,0,0,0,2.41-7.41h1.81a2.89,2.89,0,0,0,1.53-.41,4,4,0,0,0,2.07,1,2.46,2.46,0,0,1,1.18-.55,39.33,39.33,0,0,1,4,5.35c1.78,0,2.76,1.06,2.93,3.16,1.52,0,3,1.79,4.34,5.35l-.7,3.16a99.3,99.3,0,0,1-6.52,19.5c-1.37,3.84-2.27,5.77-2.72,5.77a4.17,4.17,0,0,1,0-1.52h-.38a22.22,22.22,0,0,1-3.1,5.77L607,182c.25,0,1.47-1.6,3.64-4.81l.55.55h.38q.24-1.09,13.86-14.28,18.48-14.82,25-14.82h.39q7.13,1.36,14.05,12.77,1.15,0,2.47,5.21c1.12,3.85,1.52,6.5,1.19,8h-.76c.1-2.48-.1-3.71-.61-3.71l-.24,1.1a7,7,0,0,1,.06,3.15l-.58,2.61c-.08.37-.25.55-.51.55a4,4,0,0,1,0,1.51,18.73,18.73,0,0,1-1.83,4.81l.14,1.1q-2.3,6.85-3.05,6.86l-.55-.55c-.16.74-.37,1.1-.63,1.1l.17,1c-.72,2.11-1.34,3.16-1.84,3.16l.57-2.61.63-1.1-.67-.41q-.68,0-5.38,12.63Q649.54,210.37,649.42,210.92Zm-3.49,10.57.34-1.51H647l-.34,1.51Zm1.27-47c-.13.54-1.18,1.42-3.16,2.6h-.38Q645.19,174.55,647.2,174.54Zm.91,42.28.49-2.2h.67l-.25,1.1C648.86,216.46,648.56,216.82,648.11,216.82Zm-58.05,28-.33,1.51H589l.12-.55C589.29,245.15,589.61,244.83,590.06,244.83Zm15.11-23.34q-7.77,12.22-8.25,12.22l.37-1.65a57.3,57.3,0,0,1,7.59-11h.38ZM592,241.12a28.16,28.16,0,0,1,4.89-7.41l-.12.55c-2.74,4.58-4.14,7.05-4.23,7.41h-.66Zm151.41-30.2q-.39,1.79-12.52,28-3.74,9.06-9.38,20.73-9.37,23.74-12.24,23.75h-.76c.16-.73,0-1.1-.43-1.1a6,6,0,0,0-.75,1.65l-1.69-.55L704,284q-4.17-1-3.2-5.36h-.38c-.51,0-.88.55-1.13,1.65h-.67l.25-1.1q.6-2.75,39.52-92,.42-1.93,3.86-12.63h-1l1.5-2.06c.17-.74,0-1.1-.42-1.1q-12,9.62-15.17,13.73h.38l8.9-7.42h.38l-.12.55a199.24,199.24,0,0,0-16.8,16.34q-4.67,5.08-17.2,21.14l.12-.55q6.33-9.6,15.67-21.14l.13-.55h-.29q-.21,1-6.92,8-.17.69-5.92,6.87a524,524,0,0,0-39.08,65.08l-.09.41q1.05,0,6.83-11l7.1-12.21H681l-.12.55-19.73,36-3,2.06-.64-.55a14.57,14.57,0,0,1-3.08.55q-2.46-3.17-10.86-7.42c.14-.64-1-1.32-3.55-2.06l.12-.55q1.33-6,34-83.47,17.45-39,20.16-51.21l.23-2.75a64.46,64.46,0,0,0,2.41-7.41h1.81a2.89,2.89,0,0,0,1.53-.41,4,4,0,0,0,2.07,1,2.46,2.46,0,0,1,1.18-.55,39.33,39.33,0,0,1,4,5.35c1.78,0,2.76,1.06,2.93,3.16,1.52,0,3,1.79,4.34,5.35l-.7,3.16a99.3,99.3,0,0,1-6.52,19.5c-1.37,3.84-2.27,5.77-2.72,5.77a4.17,4.17,0,0,1,0-1.52h-.38a22.22,22.22,0,0,1-3.1,5.77L701,182c.25,0,1.47-1.6,3.64-4.81l.55.55h.38q.24-1.09,13.86-14.28,18.48-14.82,25-14.82h.38q7.14,1.36,14.06,12.77,1.15,0,2.47,5.21c1.12,3.85,1.52,6.5,1.19,8h-.76c.1-2.48-.1-3.71-.61-3.71l-.24,1.1a7,7,0,0,1,.06,3.15l-.58,2.61c-.08.37-.25.55-.51.55a4,4,0,0,1,0,1.51,19.5,19.5,0,0,1-1.83,4.81l.14,1.1q-2.29,6.85-3.05,6.86l-.55-.55c-.16.74-.37,1.1-.63,1.1l.17,1c-.72,2.11-1.34,3.16-1.85,3.16l.58-2.61.63-1.1-.67-.41q-.68,0-5.38,12.63Q743.56,210.37,743.44,210.92ZM740,221.49l.33-1.51h.77l-.34,1.51Zm3.34-6.87-.25,1.1c-.16.74-.46,1.1-.91,1.1l.49-2.2Zm-2.07-40.08c-.13.54-1.18,1.42-3.16,2.6h-.38Q739.21,174.55,741.22,174.54Zm-57.14,70.29-.34,1.51H683l.12-.55C683.31,245.15,683.63,244.83,684.08,244.83Zm15.11-23.34q-7.77,12.22-8.25,12.22l.37-1.65a57.3,57.3,0,0,1,7.59-11h.38Zm-13.14,19.63a28.16,28.16,0,0,1,4.89-7.41l-.12.55c-2.74,4.58-4.14,7.05-4.23,7.41h-.66Zm106.32-76.88H792l.12-.55c.11-.46.83-1.14,2.18-2.06h.38l-.24,1.1C794.05,162.73,793.36,163.23,792.37,164.24Zm-50,80.86h.76l-.45,2.06h-.77Zm78.48-37.89q15-18.68,18.75-35.42,1.83-8.23-12.12-19.77l-9.55-3h-1.81q-5.36,0-16.17,9.61c-2.45.46-3.78,1.14-4,2.06h1l-16.91,17.71c-1.28,2-2.1,3-2.49,3q-8.24,10.44-8.51,11.67h-.76l.34-1.51a47.44,47.44,0,0,0-6.72,10l-.12.55.79-.55c1.35-2.65,2.55-4.3,3.58-4.94l-.09.41q-2.13,3.57-2.61,3.57-5.76,12.23-6.91,12.22l-.21,1,.16,1a59.14,59.14,0,0,0-5.24,10.71L751,227h-.67q.91-4.11,5.69-13.18h-.28q-4.49,6.47-10.07,21.28l-.34,1.51c-.14.64,0,1,.55,1-.08.37-.25.55-.5.55-.15.64,0,1,.45,1a6.75,6.75,0,0,1-.62,1.51l0,1.1-1,1.51-1,4.53a14.74,14.74,0,0,0-3.44,6l.17,1a5.16,5.16,0,0,1-.72,1.51q-2.62,11.82-.52,18.26-1.68,7.56,7.91,8.65,12.1,6,15.93,6.05a34.43,34.43,0,0,0,10.79-6.05q8.13-11.65,9.28-11.67a4.16,4.16,0,0,0-.05-1.51,24.77,24.77,0,0,1,3.11-4.12c.12-.54-.06-.86-.55-1h-.67l-1.93.55.12-.55a9.46,9.46,0,0,0,2.31-4l.34-1.51c.14-.64,0-1-.42-1.09l-1.3,1.09h-.38a2.15,2.15,0,0,0-1.14-2.61l-8.31,5.63Q759,273.93,756.36,273.94a55.35,55.35,0,0,1,1.3-10.58l.21-1q4-18.12,20.56-49.56h1.33q9.21,8,17.61,8h1Q807.87,220.8,820.82,207.21ZM739.6,260.89h-.39l.58-2.6h.39Zm1.2-4.12h-.67l.55-2.47h.38Zm.67-3h-.67l.79-3.57h.67ZM746.62,237H746a6.14,6.14,0,0,0,.62-1.51H747Zm0-1.92a20.49,20.49,0,0,1,1.9-5.08l.57.41C747.87,233.53,747.05,235.08,746.66,235.08Zm2.69-5.63h-.29l.12-.55c.23-1,.56-1.51,1-1.51ZM807,191.56q-13.62,16.2-19.45,16.2a6.67,6.67,0,0,0-2.52-1.1c-.08.37-.25.55-.5.55l-.55-.55-.89.55-.54-.55q1.24-3,9.1-12.63l8.15-9.61q12.34-13,18.87-16.61H819Q816.66,178.24,807,191.56ZM916.57,156c-.32,0-1.13.92-2.42,2.75l-.18.82h1.52l-.21,1q-4,5-7.67,6.59-.51,2.34-12.39,8.51-14.54,10-21.79,17.3-15.73,15-24.58,28.15-16.07,25.53-22.77,46.68-.8,1.37-4,9.88c-.06.28,0,.41.19.41q-3,9.75-5.22,9.75c-.12.55-.86,1-2.21,1.38l-2.09-1.79a2.17,2.17,0,0,1-1.33.41q.06-.68-8.35-5.35l-1.53-3-.66.41h-.39c-.38,0-.5-.32-.35-1q14-36.52,26.41-59.18,7-10.83,11.67-17.29,14.84-18.27,23.49-25,22.32-18.81,36.77-25,7.85-4.4,9.66-4.39l.77.82a23.16,23.16,0,0,0,4.48-.82c.38,0,.88,1.46,1.5,4.39L914,153.8l-.1.42C915.87,154.58,916.75,155.18,916.57,156Z"/><path id="_4" data-name="4" class="cls-3" d="M1045.53,128.22H947.87A23.83,23.83,0,0,1,924,104.38h0V6.72h0a4,4,0,0,0-8,0h0v97.66h0a23.84,23.84,0,0,1-23.84,23.84H794.56a4,4,0,0,0,0,8h97.66A23.84,23.84,0,0,1,916.06,160h0v97.66h0a4,4,0,0,0,8,0h0V160h0a23.83,23.83,0,0,1,23.83-23.83h97.66a4,4,0,0,0,0-8Z"/></g></g></svg>