<svg xmlns="http://www.w3.org/2000/svg" xmlns:xlink="http://www.w3.org/1999/xlink" viewBox="0 0 214.34 47.17"><defs><style>.cls-1{fill:none;}.cls-2{fill:#fff;}.cls-3{fill:url(#linear-gradient);}.cls-4{fill:url(#linear-gradient-2);}.cls-5{fill:url(#linear-gradient-3);}.cls-6{fill:url(#linear-gradient-4);}.cls-7{fill:url(#linear-gradient-5);}.cls-8{fill:url(#linear-gradient-6);}.cls-9{fill:url(#linear-gradient-7);}.cls-10{fill:url(#linear-gradient-8);}.cls-11{fill:url(#linear-gradient-9);}.cls-12{fill:url(#linear-gradient-10);}.cls-13{fill:url(#linear-gradient-11);}.cls-14{fill:url(#linear-gradient-12);}.cls-15{fill:url(#linear-gradient-13);}.cls-16{fill:url(#linear-gradient-14);}.cls-17{fill:url(#linear-gradient-15);}.cls-18{fill:url(#linear-gradient-16);}.cls-19{fill:url(#linear-gradient-17);}.cls-20{fill:url(#linear-gradient-18);}.cls-21{fill:url(#linear-gradient-19);}.cls-22{fill:url(#linear-gradient-20);}.cls-23{fill:url(#linear-gradient-21);}.cls-24{fill:url(#linear-gradient-22);}.cls-25{fill:url(#linear-gradient-23);}.cls-26{fill:url(#linear-gradient-24);}.cls-27{fill:url(#linear-gradient-25);}.cls-28{fill:url(#linear-gradient-26);}.cls-29{fill:url(#linear-gradient-27);}.cls-30{fill:url(#linear-gradient-28);}.cls-31{fill:url(#linear-gradient-29);}.cls-32{fill:url(#linear-gradient-30);}.cls-33{fill:url(#linear-gradient-31);}.cls-34{fill:url(#linear-gradient-32);}.cls-35{fill:url(#linear-gradient-33);}.cls-36{fill:url(#linear-gradient-34);}.cls-37{fill:url(#linear-gradient-35);}.cls-38{fill:url(#linear-gradient-36);}.cls-39{fill:url(#linear-gradient-37);}.cls-40{fill:url(#linear-gradient-38);}.cls-41{fill:url(#linear-gradient-39);}.cls-42{fill:url(#linear-gradient-40);}.cls-43{fill:url(#linear-gradient-41);}.cls-44{fill:url(#linear-gradient-42);}.cls-45{fill:url(#linear-gradient-43);}.cls-46{fill:url(#linear-gradient-44);}.cls-47{fill:url(#linear-gradient-45);}.cls-48{fill:url(#linear-gradient-46);}.cls-49{fill:url(#linear-gradient-47);}.cls-50{fill:url(#linear-gradient-48);}.cls-51{fill:url(#linear-gradient-49);}.cls-52{fill:url(#linear-gradient-50);}.cls-53{fill:url(#linear-gradient-51);}.cls-54{fill:url(#linear-gradient-52);}.cls-55{fill:url(#linear-gradient-53);}.cls-56{fill:url(#linear-gradient-54);}.cls-57{fill:url(#linear-gradient-55);}.cls-58{fill:url(#linear-gradient-56);}.cls-59{fill:url(#linear-gradient-57);}.cls-60{fill:url(#linear-gradient-58);}.cls-61{fill:url(#linear-gradient-59);}.cls-62{fill:url(#linear-gradient-60);}.cls-63{fill:url(#linear-gradient-61);}.cls-64{fill:url(#linear-gradient-62);}.cls-65{fill:url(#linear-gradient-63);}.cls-66{fill:url(#linear-gradient-64);}.cls-67{fill:url(#linear-gradient-65);}.cls-68{fill:url(#linear-gradient-66);}.cls-69{fill:url(#linear-gradient-67);}.cls-70{fill:url(#linear-gradient-68);}.cls-71{fill:url(#linear-gradient-69);}.cls-100,.cls-103,.cls-148,.cls-149,.cls-150,.cls-151,.cls-152,.cls-153,.cls-155,.cls-156,.cls-157,.cls-158,.cls-159,.cls-160,.cls-161,.cls-163,.cls-164,.cls-165,.cls-166,.cls-167,.cls-168,.cls-169,.cls-170,.cls-171,.cls-172,.cls-173,.cls-174,.cls-175,.cls-176,.cls-177,.cls-178,.cls-179,.cls-181,.cls-183,.cls-185,.cls-187,.cls-189,.cls-191,.cls-193,.cls-195,.cls-197,.cls-200,.cls-201,.cls-202,.cls-203,.cls-204,.cls-205,.cls-206,.cls-207,.cls-208,.cls-209,.cls-211,.cls-72,.cls-73,.cls-74,.cls-75,.cls-76,.cls-77,.cls-78,.cls-79,.cls-80,.cls-81,.cls-82,.cls-85,.cls-86,.cls-87,.cls-88,.cls-89,.cls-90,.cls-91,.cls-92,.cls-93,.cls-94,.cls-95,.cls-96,.cls-97,.cls-99{opacity:0.5;isolation:isolate;}.cls-72{fill:url(#linear-gradient-70);}.cls-73{fill:url(#linear-gradient-71);}.cls-74{fill:url(#linear-gradient-72);}.cls-75{fill:url(#linear-gradient-73);}.cls-76{fill:url(#linear-gradient-74);}.cls-77{fill:url(#linear-gradient-75);}.cls-78{fill:url(#linear-gradient-76);}.cls-79{fill:url(#linear-gradient-77);}.cls-80{fill:url(#linear-gradient-78);}.cls-81{fill:url(#linear-gradient-79);}.cls-82{fill:url(#linear-gradient-80);}.cls-83{fill:url(#linear-gradient-81);}.cls-84{fill:url(#linear-gradient-82);}.cls-85{fill:url(#linear-gradient-83);}.cls-86{fill:url(#linear-gradient-84);}.cls-87{fill:url(#linear-gradient-85);}.cls-88{fill:url(#linear-gradient-86);}.cls-89{fill:url(#linear-gradient-87);}.cls-90{fill:url(#linear-gradient-88);}.cls-91{fill:url(#linear-gradient-89);}.cls-92{fill:url(#linear-gradient-90);}.cls-93{fill:url(#linear-gradient-91);}.cls-94{fill:url(#linear-gradient-92);}.cls-95{fill:url(#linear-gradient-93);}.cls-96{fill:url(#linear-gradient-94);}.cls-97{fill:url(#linear-gradient-95);}.cls-98{fill:url(#linear-gradient-96);}.cls-99{fill:url(#linear-gradient-97);}.cls-100{fill:url(#linear-gradient-99);}.cls-101{fill:url(#linear-gradient-100);}.cls-102{fill:url(#linear-gradient-101);}.cls-103{fill:url(#linear-gradient-102);}.cls-104{fill:url(#linear-gradient-103);}.cls-105{fill:url(#linear-gradient-104);}.cls-106{fill:url(#linear-gradient-105);}.cls-107{fill:url(#linear-gradient-106);}.cls-108{fill:url(#linear-gradient-107);}.cls-109{fill:url(#linear-gradient-108);}.cls-110{fill:url(#linear-gradient-109);}.cls-111{fill:url(#linear-gradient-110);}.cls-112{fill:url(#linear-gradient-111);}.cls-113{fill:url(#linear-gradient-112);}.cls-114{fill:url(#linear-gradient-113);}.cls-115{fill:url(#linear-gradient-114);}.cls-116{fill:url(#linear-gradient-116);}.cls-117{fill:url(#linear-gradient-117);}.cls-118{fill:url(#linear-gradient-118);}.cls-119{fill:url(#linear-gradient-119);}.cls-120{fill:url(#linear-gradient-120);}.cls-121{fill:url(#linear-gradient-121);}.cls-122{fill:url(#linear-gradient-122);}.cls-123{fill:url(#linear-gradient-123);}.cls-124{fill:url(#linear-gradient-124);}.cls-125{fill:url(#linear-gradient-125);}.cls-126{fill:url(#linear-gradient-126);}.cls-127{fill:url(#linear-gradient-127);}.cls-128{fill:url(#linear-gradient-128);}.cls-129{fill:url(#linear-gradient-129);}.cls-130{fill:url(#linear-gradient-130);}.cls-131{fill:url(#linear-gradient-131);}.cls-132{fill:url(#linear-gradient-132);}.cls-133{fill:url(#linear-gradient-133);}.cls-134{fill:url(#linear-gradient-134);}.cls-135{fill:url(#linear-gradient-135);}.cls-136{fill:url(#linear-gradient-136);}.cls-137{fill:url(#linear-gradient-137);}.cls-138{fill:url(#linear-gradient-138);}.cls-139{fill:url(#linear-gradient-139);}.cls-140{fill:url(#linear-gradient-140);}.cls-141{fill:url(#linear-gradient-141);}.cls-142{fill:url(#linear-gradient-142);}.cls-143{fill:url(#linear-gradient-143);}.cls-144{fill:url(#linear-gradient-144);}.cls-145{fill:url(#linear-gradient-145);}.cls-146{fill:url(#linear-gradient-146);}.cls-147{fill:url(#linear-gradient-147);}.cls-148{fill:url(#linear-gradient-148);}.cls-149{fill:url(#linear-gradient-149);}.cls-150{fill:url(#linear-gradient-150);}.cls-151{fill:url(#linear-gradient-151);}.cls-152{fill:url(#linear-gradient-152);}.cls-153{fill:url(#linear-gradient-153);}.cls-154{fill:url(#linear-gradient-154);}.cls-155{fill:url(#linear-gradient-155);}.cls-156{fill:url(#linear-gradient-156);}.cls-157{fill:url(#linear-gradient-157);}.cls-158{fill:url(#linear-gradient-158);}.cls-159{fill:url(#linear-gradient-159);}.cls-160{fill:url(#linear-gradient-160);}.cls-161{fill:url(#linear-gradient-161);}.cls-162{fill:url(#linear-gradient-162);}.cls-163{fill:url(#linear-gradient-163);}.cls-164{fill:url(#linear-gradient-164);}.cls-165{fill:url(#linear-gradient-165);}.cls-166{fill:url(#linear-gradient-166);}.cls-167{fill:url(#linear-gradient-167);}.cls-168{fill:url(#linear-gradient-168);}.cls-169{fill:url(#linear-gradient-169);}.cls-170{fill:url(#linear-gradient-170);}.cls-171{fill:url(#linear-gradient-171);}.cls-172{fill:url(#linear-gradient-172);}.cls-173{fill:url(#linear-gradient-173);}.cls-174{fill:url(#linear-gradient-174);}.cls-175{fill:url(#linear-gradient-175);}.cls-176{fill:url(#linear-gradient-176);}.cls-177{fill:url(#linear-gradient-177);}.cls-178{fill:url(#linear-gradient-178);}.cls-179{fill:url(#linear-gradient-179);}.cls-180{fill:url(#linear-gradient-180);}.cls-181{fill:url(#linear-gradient-181);}.cls-182{fill:url(#linear-gradient-182);}.cls-183{fill:url(#linear-gradient-183);}.cls-184{fill:url(#linear-gradient-184);}.cls-185{fill:url(#linear-gradient-185);}.cls-186{fill:url(#linear-gradient-186);}.cls-187{fill:url(#linear-gradient-187);}.cls-188{fill:url(#linear-gradient-188);}.cls-189{fill:url(#linear-gradient-189);}.cls-190{fill:url(#linear-gradient-190);}.cls-191{fill:url(#linear-gradient-191);}.cls-192{fill:url(#linear-gradient-192);}.cls-193{fill:url(#linear-gradient-193);}.cls-194{fill:url(#linear-gradient-194);}.cls-195{fill:url(#linear-gradient-195);}.cls-196{fill:url(#linear-gradient-196);}.cls-197{fill:url(#linear-gradient-197);}.cls-198{fill:url(#linear-gradient-198);}.cls-199{fill:url(#linear-gradient-199);}.cls-200{fill:url(#linear-gradient-200);}.cls-201{fill:url(#linear-gradient-201);}.cls-202{fill:url(#linear-gradient-202);}.cls-203{fill:url(#linear-gradient-203);}.cls-204{fill:url(#linear-gradient-204);}.cls-205{fill:url(#linear-gradient-205);}.cls-206{fill:url(#linear-gradient-206);}.cls-207{fill:url(#linear-gradient-207);}.cls-208{fill:url(#linear-gradient-208);}.cls-209{fill:url(#linear-gradient-209);}.cls-210{fill:url(#linear-gradient-210);}.cls-211{fill:url(#linear-gradient-211);}.cls-212{fill:#a00007;}</style><linearGradient id="linear-gradient" x1="396.06" y1="-97.67" x2="390.76" y2="-87.07" gradientTransform="translate(432.78 -72.51) rotate(180)" gradientUnits="userSpaceOnUse"><stop offset="0" stop-color="#ff31fa"/><stop offset="0.49" stop-color="#8733ff"/><stop offset="1" stop-color="#221dff"/></linearGradient><linearGradient id="linear-gradient-2" x1="396" y1="-97.69" x2="390.7" y2="-87.1" xlink:href="#linear-gradient"/><linearGradient id="linear-gradient-3" x1="394.31" y1="-98.54" x2="389.01" y2="-87.94" xlink:href="#linear-gradient"/><linearGradient id="linear-gradient-4" x1="396.3" y1="-97.54" x2="391" y2="-86.94" xlink:href="#linear-gradient"/><linearGradient id="linear-gradient-5" x1="391.82" y1="-99.78" x2="386.52" y2="-89.19" xlink:href="#linear-gradient"/><linearGradient id="linear-gradient-6" x1="396.24" y1="-97.56" x2="390.94" y2="-86.97" xlink:href="#linear-gradient"/><linearGradient id="linear-gradient-7" x1="394.85" y1="-98.27" x2="389.55" y2="-87.67" xlink:href="#linear-gradient"/><linearGradient id="linear-gradient-8" x1="396.2" y1="-97.59" x2="390.9" y2="-87" xlink:href="#linear-gradient"/><linearGradient id="linear-gradient-9" x1="389.94" y1="-100.72" x2="384.64" y2="-90.13" xlink:href="#linear-gradient"/><linearGradient id="linear-gradient-10" x1="396.28" y1="-97.55" x2="390.98" y2="-86.95" xlink:href="#linear-gradient"/><linearGradient id="linear-gradient-11" x1="392.44" y1="-99.47" x2="387.15" y2="-88.87" xlink:href="#linear-gradient"/><linearGradient id="linear-gradient-12" x1="393.09" y1="-99.14" x2="387.79" y2="-88.55" xlink:href="#linear-gradient"/><linearGradient id="linear-gradient-13" x1="396.12" y1="-97.62" x2="390.83" y2="-87.03" xlink:href="#linear-gradient"/><linearGradient id="linear-gradient-14" x1="396.29" y1="-97.55" x2="390.99" y2="-86.95" xlink:href="#linear-gradient"/><linearGradient id="linear-gradient-15" x1="343.24" y1="-90.74" x2="378.77" y2="-89.35" gradientTransform="translate(401.62 -67.64) rotate(-176.57)" xlink:href="#linear-gradient"/><linearGradient id="linear-gradient-16" x1="343.3" y1="-92.09" x2="378.82" y2="-90.69" gradientTransform="translate(401.62 -67.64) rotate(-176.57)" xlink:href="#linear-gradient"/><linearGradient id="linear-gradient-17" x1="343.27" y1="-91.38" x2="378.79" y2="-89.98" gradientTransform="translate(401.62 -67.64) rotate(-176.57)" xlink:href="#linear-gradient"/><linearGradient id="linear-gradient-18" x1="343.33" y1="-92.87" x2="378.85" y2="-91.47" gradientTransform="translate(401.62 -67.64) rotate(-176.57)" xlink:href="#linear-gradient"/><linearGradient id="linear-gradient-19" x1="343.22" y1="-90.21" x2="378.74" y2="-88.81" gradientTransform="translate(401.62 -67.64) rotate(-176.57)" xlink:href="#linear-gradient"/><linearGradient id="linear-gradient-20" x1="343.38" y1="-94.22" x2="378.9" y2="-92.82" gradientTransform="translate(401.62 -67.64) rotate(-176.57)" xlink:href="#linear-gradient"/><linearGradient id="linear-gradient-21" x1="343.2" y1="-89.78" x2="378.73" y2="-88.38" gradientTransform="translate(401.62 -67.64) rotate(-176.57)" xlink:href="#linear-gradient"/><linearGradient id="linear-gradient-22" x1="343.19" y1="-89.46" x2="378.72" y2="-88.06" gradientTransform="translate(401.62 -67.64) rotate(-176.57)" xlink:href="#linear-gradient"/><linearGradient id="linear-gradient-23" x1="343.43" y1="-95.45" x2="378.95" y2="-94.05" gradientTransform="translate(401.62 -67.64) rotate(-176.57)" xlink:href="#linear-gradient"/><linearGradient id="linear-gradient-24" x1="386.95" y1="-109.89" x2="369.94" y2="-125.54" gradientTransform="matrix(0.98, 0.21, 0.21, -0.98, -297.56, -151.6)" gradientUnits="userSpaceOnUse"><stop offset="0" stop-color="#ffde3e"/><stop offset="1" stop-color="#ff793e"/></linearGradient><linearGradient id="linear-gradient-25" x1="385.06" y1="-107.84" x2="368.05" y2="-123.49" xlink:href="#linear-gradient-24"/><linearGradient id="linear-gradient-26" x1="386.73" y1="-109.65" x2="369.72" y2="-125.3" xlink:href="#linear-gradient-24"/><linearGradient id="linear-gradient-27" x1="377.41" y1="-99.52" x2="360.4" y2="-115.18" xlink:href="#linear-gradient-24"/><linearGradient id="linear-gradient-28" x1="378.56" y1="-100.78" x2="361.55" y2="-116.43" xlink:href="#linear-gradient-24"/><linearGradient id="linear-gradient-29" x1="376.5" y1="-98.54" x2="359.49" y2="-114.19" xlink:href="#linear-gradient-24"/><linearGradient id="linear-gradient-30" x1="385.6" y1="-108.44" x2="368.59" y2="-124.09" xlink:href="#linear-gradient-24"/><linearGradient id="linear-gradient-31" x1="370.23" y1="-105.65" x2="340.63" y2="-122.55" xlink:href="#linear-gradient-24"/><linearGradient id="linear-gradient-32" x1="373.8" y1="-111.91" x2="344.2" y2="-128.82" xlink:href="#linear-gradient-24"/><linearGradient id="linear-gradient-33" x1="372.17" y1="-109.07" x2="342.57" y2="-125.98" xlink:href="#linear-gradient-24"/><linearGradient id="linear-gradient-34" x1="372.81" y1="-110.17" x2="343.21" y2="-127.07" xlink:href="#linear-gradient-24"/><linearGradient id="linear-gradient-35" x1="375.19" y1="-114.35" x2="345.59" y2="-131.25" xlink:href="#linear-gradient-24"/><linearGradient id="linear-gradient-36" x1="381.86" y1="-104.36" x2="364.85" y2="-120.01" xlink:href="#linear-gradient-24"/><linearGradient id="linear-gradient-37" x1="373.91" y1="-112.11" x2="344.31" y2="-129.02" xlink:href="#linear-gradient-24"/><linearGradient id="linear-gradient-38" x1="374.42" y1="-96.27" x2="357.41" y2="-111.93" xlink:href="#linear-gradient-24"/><linearGradient id="linear-gradient-39" x1="370.13" y1="-105.5" x2="340.53" y2="-122.4" xlink:href="#linear-gradient-24"/><linearGradient id="linear-gradient-40" x1="372.29" y1="-93.95" x2="355.28" y2="-109.61" xlink:href="#linear-gradient-24"/><linearGradient id="linear-gradient-41" x1="368.3" y1="-102.29" x2="338.7" y2="-119.19" xlink:href="#linear-gradient-24"/><linearGradient id="linear-gradient-42" x1="373.1" y1="-94.84" x2="356.09" y2="-110.49" xlink:href="#linear-gradient-24"/><linearGradient id="linear-gradient-43" x1="369.59" y1="-104.55" x2="339.99" y2="-121.46" xlink:href="#linear-gradient-24"/><linearGradient id="linear-gradient-44" x1="382.28" y1="-104.81" x2="365.27" y2="-120.46" xlink:href="#linear-gradient-24"/><linearGradient id="linear-gradient-45" x1="374.27" y1="-112.74" x2="344.67" y2="-129.64" xlink:href="#linear-gradient-24"/><linearGradient id="linear-gradient-46" x1="373.46" y1="-95.23" x2="356.45" y2="-110.88" xlink:href="#linear-gradient-24"/><linearGradient id="linear-gradient-47" x1="370.08" y1="-105.4" x2="340.48" y2="-122.31" xlink:href="#linear-gradient-24"/><linearGradient id="linear-gradient-48" x1="374.55" y1="-96.41" x2="357.54" y2="-112.07" xlink:href="#linear-gradient-24"/><linearGradient id="linear-gradient-49" x1="370.54" y1="-106.21" x2="340.94" y2="-123.12" xlink:href="#linear-gradient-24"/><linearGradient id="linear-gradient-50" x1="380.86" y1="-103.27" x2="363.85" y2="-118.92" xlink:href="#linear-gradient-24"/><linearGradient id="linear-gradient-51" x1="373.06" y1="-110.6" x2="343.46" y2="-127.51" xlink:href="#linear-gradient-24"/><linearGradient id="linear-gradient-52" x1="372.44" y1="-94.12" x2="355.43" y2="-109.77" xlink:href="#linear-gradient-24"/><linearGradient id="linear-gradient-53" x1="368.6" y1="-102.82" x2="339" y2="-119.72" xlink:href="#linear-gradient-24"/><linearGradient id="linear-gradient-54" x1="381.41" y1="-103.87" x2="364.4" y2="-119.52" xlink:href="#linear-gradient-24"/><linearGradient id="linear-gradient-55" x1="373.52" y1="-111.42" x2="343.92" y2="-128.33" xlink:href="#linear-gradient-24"/><linearGradient id="linear-gradient-56" x1="373.83" y1="-95.63" x2="356.82" y2="-111.28" xlink:href="#linear-gradient-24"/><linearGradient id="linear-gradient-57" x1="370.56" y1="-106.24" x2="340.96" y2="-123.14" xlink:href="#linear-gradient-24"/><linearGradient id="linear-gradient-58" x1="382.66" y1="-105.23" x2="365.65" y2="-120.88" xlink:href="#linear-gradient-24"/><linearGradient id="linear-gradient-59" x1="374.62" y1="-113.34" x2="345.02" y2="-130.25" xlink:href="#linear-gradient-24"/><linearGradient id="linear-gradient-60" x1="374.8" y1="-96.67" x2="357.78" y2="-112.32" xlink:href="#linear-gradient-24"/><linearGradient id="linear-gradient-61" x1="371.03" y1="-107.05" x2="341.43" y2="-123.95" xlink:href="#linear-gradient-24"/><linearGradient id="linear-gradient-62" x1="376.17" y1="-98.17" x2="359.16" y2="-113.83" xlink:href="#linear-gradient-24"/><linearGradient id="linear-gradient-63" x1="370.11" y1="-105.45" x2="340.51" y2="-122.35" xlink:href="#linear-gradient-24"/><linearGradient id="linear-gradient-64" x1="375.48" y1="-97.42" x2="358.47" y2="-113.07" xlink:href="#linear-gradient-24"/><linearGradient id="linear-gradient-65" x1="372.35" y1="-109.37" x2="342.75" y2="-126.27" xlink:href="#linear-gradient-24"/><linearGradient id="linear-gradient-66" x1="380.24" y1="-102.59" x2="363.22" y2="-118.24" xlink:href="#linear-gradient-24"/><linearGradient id="linear-gradient-67" x1="372.77" y1="-110.12" x2="343.17" y2="-127.02" xlink:href="#linear-gradient-24"/><linearGradient id="linear-gradient-68" x1="372.7" y1="-94.4" x2="355.68" y2="-110.05" xlink:href="#linear-gradient-24"/><linearGradient id="linear-gradient-69" x1="369" y1="-103.52" x2="339.4" y2="-120.43" xlink:href="#linear-gradient-24"/><linearGradient id="linear-gradient-70" x1="77.06" y1="-102.57" x2="66.41" y2="-119.16" gradientTransform="matrix(1, 0.08, 0.08, -1, -40.82, -80.88)" gradientUnits="userSpaceOnUse"><stop offset="0.11" stop-color="#fff"/><stop offset="0.92" stop-color="#fff" stop-opacity="0"/></linearGradient><linearGradient id="linear-gradient-71" x1="76.15" y1="-101.98" x2="65.5" y2="-118.57" xlink:href="#linear-gradient-70"/><linearGradient id="linear-gradient-72" x1="75.64" y1="-101.65" x2="64.99" y2="-118.24" xlink:href="#linear-gradient-70"/><linearGradient id="linear-gradient-73" x1="75.53" y1="-101.59" x2="64.88" y2="-118.18" xlink:href="#linear-gradient-70"/><linearGradient id="linear-gradient-74" x1="75.82" y1="-101.77" x2="65.17" y2="-118.37" xlink:href="#linear-gradient-70"/><linearGradient id="linear-gradient-75" x1="77.61" y1="-102.92" x2="66.96" y2="-119.51" xlink:href="#linear-gradient-70"/><linearGradient id="linear-gradient-76" x1="79.24" y1="-103.96" x2="68.59" y2="-120.55" xlink:href="#linear-gradient-70"/><linearGradient id="linear-gradient-77" x1="80.05" y1="-104.48" x2="69.39" y2="-121.07" xlink:href="#linear-gradient-70"/><linearGradient id="linear-gradient-78" x1="76.88" y1="-102.45" x2="66.23" y2="-119.05" xlink:href="#linear-gradient-70"/><linearGradient id="linear-gradient-79" x1="77.31" y1="-102.73" x2="66.66" y2="-119.32" xlink:href="#linear-gradient-70"/><linearGradient id="linear-gradient-80" x1="78.33" y1="-103.38" x2="67.68" y2="-119.97" xlink:href="#linear-gradient-70"/><linearGradient id="linear-gradient-81" x1="373.68" y1="-95.46" x2="356.66" y2="-111.11" xlink:href="#linear-gradient-24"/><linearGradient id="linear-gradient-82" x1="369.86" y1="-105.01" x2="340.26" y2="-121.91" xlink:href="#linear-gradient-24"/><linearGradient id="linear-gradient-83" x1="78" y1="-103.17" x2="67.35" y2="-119.76" xlink:href="#linear-gradient-70"/><linearGradient id="linear-gradient-84" x1="99.65" y1="-109.11" x2="89.89" y2="-124.31" xlink:href="#linear-gradient-70"/><linearGradient id="linear-gradient-85" x1="93.88" y1="-105.4" x2="84.12" y2="-120.6" xlink:href="#linear-gradient-70"/><linearGradient id="linear-gradient-86" x1="100.54" y1="-109.67" x2="90.78" y2="-124.87" xlink:href="#linear-gradient-70"/><linearGradient id="linear-gradient-87" x1="94.67" y1="-105.92" x2="84.92" y2="-121.12" xlink:href="#linear-gradient-70"/><linearGradient id="linear-gradient-88" x1="94.25" y1="-105.64" x2="84.49" y2="-120.84" xlink:href="#linear-gradient-70"/><linearGradient id="linear-gradient-89" x1="95.03" y1="-106.14" x2="85.28" y2="-121.34" xlink:href="#linear-gradient-70"/><linearGradient id="linear-gradient-90" x1="95.34" y1="-106.34" x2="85.58" y2="-121.54" xlink:href="#linear-gradient-70"/><linearGradient id="linear-gradient-91" x1="95.59" y1="-106.51" x2="85.84" y2="-121.71" xlink:href="#linear-gradient-70"/><linearGradient id="linear-gradient-92" x1="96.4" y1="-107.03" x2="86.65" y2="-122.23" xlink:href="#linear-gradient-70"/><linearGradient id="linear-gradient-93" x1="93.63" y1="-105.25" x2="83.88" y2="-120.45" xlink:href="#linear-gradient-70"/><linearGradient id="linear-gradient-94" x1="92.9" y1="-104.77" x2="83.14" y2="-119.97" xlink:href="#linear-gradient-70"/><linearGradient id="linear-gradient-95" x1="95.84" y1="-106.67" x2="86.08" y2="-121.86" xlink:href="#linear-gradient-70"/><linearGradient id="linear-gradient-96" x1="383.94" y1="-106.61" x2="366.92" y2="-122.26" xlink:href="#linear-gradient-24"/><linearGradient id="linear-gradient-97" x1="97.34" y1="-107.63" x2="87.59" y2="-122.82" xlink:href="#linear-gradient-70"/><linearGradient id="linear-gradient-99" x1="96.06" y1="-106.8" x2="86.3" y2="-122" xlink:href="#linear-gradient-70"/><linearGradient id="linear-gradient-100" x1="381.54" y1="-104.01" x2="364.53" y2="-119.66" xlink:href="#linear-gradient-24"/><linearGradient id="linear-gradient-101" x1="373.85" y1="-112.01" x2="344.25" y2="-128.91" xlink:href="#linear-gradient-24"/><linearGradient id="linear-gradient-102" x1="94.34" y1="-105.7" x2="84.58" y2="-120.9" xlink:href="#linear-gradient-70"/><linearGradient id="linear-gradient-103" x1="385.97" y1="-88.01" x2="410.57" y2="-87.54" xlink:href="#linear-gradient"/><linearGradient id="linear-gradient-104" x1="386.02" y1="-90.47" x2="410.62" y2="-90" xlink:href="#linear-gradient"/><linearGradient id="linear-gradient-105" x1="385.89" y1="-83.49" x2="410.48" y2="-83.02" xlink:href="#linear-gradient"/><linearGradient id="linear-gradient-106" x1="385.97" y1="-87.75" x2="410.57" y2="-87.28" xlink:href="#linear-gradient"/><linearGradient id="linear-gradient-107" x1="399.45" y1="-95.97" x2="394.15" y2="-85.37" xlink:href="#linear-gradient"/><linearGradient id="linear-gradient-108" x1="385.92" y1="-85.08" x2="410.51" y2="-84.6" xlink:href="#linear-gradient"/><linearGradient id="linear-gradient-109" x1="390.34" y1="-100.51" x2="385.05" y2="-89.92" xlink:href="#linear-gradient"/><linearGradient id="linear-gradient-110" x1="386.05" y1="-91.94" x2="410.65" y2="-91.47" xlink:href="#linear-gradient"/><linearGradient id="linear-gradient-111" x1="392.14" y1="-99.62" x2="386.84" y2="-89.02" xlink:href="#linear-gradient"/><linearGradient id="linear-gradient-112" x1="386" y1="-89.71" x2="396.92" y2="-89.5" xlink:href="#linear-gradient"/><linearGradient id="linear-gradient-113" x1="408.37" y1="-91.51" x2="403.07" y2="-80.91" xlink:href="#linear-gradient"/><linearGradient id="linear-gradient-114" x1="386.02" y1="-90.47" x2="410.62" y2="-90" xlink:href="#linear-gradient"/><linearGradient id="linear-gradient-116" x1="385.99" y1="-88.85" x2="410.59" y2="-88.38" xlink:href="#linear-gradient"/><linearGradient id="linear-gradient-117" x1="404.87" y1="-93.25" x2="399.58" y2="-82.66" xlink:href="#linear-gradient"/><linearGradient id="linear-gradient-118" x1="386.02" y1="-90.53" x2="410.62" y2="-90.06" xlink:href="#linear-gradient"/><linearGradient id="linear-gradient-119" x1="401.4" y1="-94.99" x2="396.1" y2="-84.39" xlink:href="#linear-gradient"/><linearGradient id="linear-gradient-120" x1="385.98" y1="-88.19" x2="410.57" y2="-87.72" xlink:href="#linear-gradient"/><linearGradient id="linear-gradient-121" x1="404.01" y1="-93.68" x2="398.71" y2="-83.09" xlink:href="#linear-gradient"/><linearGradient id="linear-gradient-122" x1="386.01" y1="-90.19" x2="410.61" y2="-89.72" xlink:href="#linear-gradient"/><linearGradient id="linear-gradient-123" x1="407.65" y1="-91.87" x2="402.35" y2="-81.27" xlink:href="#linear-gradient"/><linearGradient id="linear-gradient-124" x1="386" y1="-89.57" x2="410.6" y2="-89.1" xlink:href="#linear-gradient"/><linearGradient id="linear-gradient-125" x1="831.53" y1="117.02" x2="829.92" y2="102.17" gradientTransform="translate(678.23 -491.26) rotate(135)" xlink:href="#linear-gradient-24"/><linearGradient id="linear-gradient-126" x1="828.2" y1="117.38" x2="826.59" y2="102.53" gradientTransform="translate(678.23 -491.26) rotate(135)" xlink:href="#linear-gradient-24"/><linearGradient id="linear-gradient-127" x1="829.18" y1="117.27" x2="827.57" y2="102.43" gradientTransform="translate(678.23 -491.26) rotate(135)" xlink:href="#linear-gradient-24"/><linearGradient id="linear-gradient-128" x1="828.28" y1="117.37" x2="826.67" y2="102.52" gradientTransform="translate(678.23 -491.26) rotate(135)" xlink:href="#linear-gradient-24"/><linearGradient id="linear-gradient-129" x1="829.98" y1="117.19" x2="828.37" y2="102.34" gradientTransform="translate(678.23 -491.26) rotate(135)" xlink:href="#linear-gradient-24"/><linearGradient id="linear-gradient-130" x1="827.17" y1="117.49" x2="825.56" y2="102.65" gradientTransform="translate(678.23 -491.26) rotate(135)" xlink:href="#linear-gradient-24"/><linearGradient id="linear-gradient-131" x1="826.03" y1="117.62" x2="824.42" y2="102.77" gradientTransform="translate(678.23 -491.26) rotate(135)" xlink:href="#linear-gradient-24"/><linearGradient id="linear-gradient-132" x1="822.46" y1="118" x2="820.85" y2="103.15" gradientTransform="translate(678.23 -491.26) rotate(135)" xlink:href="#linear-gradient-24"/><linearGradient id="linear-gradient-133" x1="826.97" y1="117.51" x2="825.36" y2="102.67" gradientTransform="translate(678.23 -491.26) rotate(135)" xlink:href="#linear-gradient-24"/><linearGradient id="linear-gradient-134" x1="386.03" y1="-90.9" x2="410.63" y2="-90.43" xlink:href="#linear-gradient"/><linearGradient id="linear-gradient-135" x1="820.58" y1="118.21" x2="818.97" y2="103.36" gradientTransform="translate(678.23 -491.26) rotate(135)" xlink:href="#linear-gradient-24"/><linearGradient id="linear-gradient-136" x1="408.62" y1="-91.37" x2="403.33" y2="-80.78" xlink:href="#linear-gradient"/><linearGradient id="linear-gradient-137" x1="386.03" y1="-90.93" x2="410.63" y2="-90.46" xlink:href="#linear-gradient"/><linearGradient id="linear-gradient-138" x1="820.67" y1="118.19" x2="819.06" y2="103.34" gradientTransform="translate(678.23 -491.26) rotate(135)" xlink:href="#linear-gradient-24"/><linearGradient id="linear-gradient-139" x1="383.2" y1="-107.21" x2="398.83" y2="-106.59" gradientTransform="translate(401.62 -67.64) rotate(-176.57)" xlink:href="#linear-gradient"/><linearGradient id="linear-gradient-140" x1="383.1" y1="-104.57" x2="398.72" y2="-103.96" gradientTransform="translate(401.62 -67.64) rotate(-176.57)" xlink:href="#linear-gradient"/><linearGradient id="linear-gradient-141" x1="383.16" y1="-106.08" x2="398.78" y2="-105.47" gradientTransform="translate(401.62 -67.64) rotate(-176.57)" xlink:href="#linear-gradient"/><linearGradient id="linear-gradient-142" x1="383.08" y1="-104.12" x2="398.71" y2="-103.5" gradientTransform="translate(401.62 -67.64) rotate(-176.57)" xlink:href="#linear-gradient"/><linearGradient id="linear-gradient-143" x1="383.18" y1="-106.58" x2="398.8" y2="-105.97" gradientTransform="translate(401.62 -67.64) rotate(-176.57)" xlink:href="#linear-gradient"/><linearGradient id="linear-gradient-144" x1="383.09" y1="-104.32" x2="398.71" y2="-103.7" gradientTransform="translate(401.62 -67.64) rotate(-176.57)" xlink:href="#linear-gradient"/><linearGradient id="linear-gradient-145" x1="383.08" y1="-104.05" x2="398.7" y2="-103.43" gradientTransform="translate(401.62 -67.64) rotate(-176.57)" xlink:href="#linear-gradient"/><linearGradient id="linear-gradient-146" x1="383.08" y1="-104" x2="398.7" y2="-103.38" gradientTransform="translate(401.62 -67.64) rotate(-176.57)" xlink:href="#linear-gradient"/><linearGradient id="linear-gradient-147" x1="383.15" y1="-105.98" x2="398.78" y2="-105.37" gradientTransform="translate(401.62 -67.64) rotate(-176.57)" xlink:href="#linear-gradient"/><linearGradient id="linear-gradient-148" x1="9.93" y1="-85.16" x2="7.3" y2="-89.25" gradientTransform="matrix(1, 0, 0, -1, 0, -72.51)" xlink:href="#linear-gradient-70"/><linearGradient id="linear-gradient-149" x1="9.49" y1="-84.88" x2="6.86" y2="-88.97" gradientTransform="matrix(1, 0, 0, -1, 0, -72.51)" xlink:href="#linear-gradient-70"/><linearGradient id="linear-gradient-150" x1="9.67" y1="-84.99" x2="7.05" y2="-89.09" gradientTransform="matrix(1, 0, 0, -1, 0, -72.51)" xlink:href="#linear-gradient-70"/><linearGradient id="linear-gradient-151" x1="12.39" y1="-86.74" x2="9.76" y2="-90.83" gradientTransform="matrix(1, 0, 0, -1, 0, -72.51)" xlink:href="#linear-gradient-70"/><linearGradient id="linear-gradient-152" x1="12.38" y1="-86.73" x2="9.76" y2="-90.82" gradientTransform="matrix(1, 0, 0, -1, 0, -72.51)" xlink:href="#linear-gradient-70"/><linearGradient id="linear-gradient-153" x1="9.36" y1="-84.79" x2="6.73" y2="-88.88" gradientTransform="matrix(1, 0, 0, -1, 0, -72.51)" xlink:href="#linear-gradient-70"/><linearGradient id="linear-gradient-154" x1="383.14" y1="-105.71" x2="398.77" y2="-105.09" gradientTransform="translate(401.62 -67.64) rotate(-176.57)" xlink:href="#linear-gradient"/><linearGradient id="linear-gradient-155" x1="10.9" y1="-85.78" x2="8.28" y2="-89.87" gradientTransform="matrix(1, 0, 0, -1, 0, -72.51)" xlink:href="#linear-gradient-70"/><linearGradient id="linear-gradient-156" x1="13.04" y1="-87.84" x2="8.65" y2="-94.68" gradientTransform="matrix(1, 0, 0, -1, 0, -72.51)" xlink:href="#linear-gradient-70"/><linearGradient id="linear-gradient-157" x1="13.89" y1="-88.38" x2="9.5" y2="-95.22" gradientTransform="matrix(1, 0, 0, -1, 0, -72.51)" xlink:href="#linear-gradient-70"/><linearGradient id="linear-gradient-158" x1="14.82" y1="-88.98" x2="10.43" y2="-95.82" gradientTransform="matrix(1, 0, 0, -1, 0, -72.51)" xlink:href="#linear-gradient-70"/><linearGradient id="linear-gradient-159" x1="15.9" y1="-89.67" x2="11.51" y2="-96.51" gradientTransform="matrix(1, 0, 0, -1, 0, -72.51)" xlink:href="#linear-gradient-70"/><linearGradient id="linear-gradient-160" x1="16.79" y1="-90.25" x2="12.4" y2="-97.09" gradientTransform="matrix(1, 0, 0, -1, 0, -72.51)" xlink:href="#linear-gradient-70"/><linearGradient id="linear-gradient-161" x1="17.86" y1="-90.93" x2="13.48" y2="-97.77" gradientTransform="matrix(1, 0, 0, -1, 0, -72.51)" xlink:href="#linear-gradient-70"/><linearGradient id="linear-gradient-162" x1="828.3" y1="117.36" x2="826.7" y2="102.51" gradientTransform="translate(678.23 -491.26) rotate(135)" xlink:href="#linear-gradient-24"/><linearGradient id="linear-gradient-163" x1="15.97" y1="-89.72" x2="11.58" y2="-96.55" gradientTransform="matrix(1, 0, 0, -1, 0, -72.51)" xlink:href="#linear-gradient-70"/><linearGradient id="linear-gradient-164" x1="37.92" y1="-79.54" x2="25.19" y2="-99.38" gradientTransform="matrix(1, 0, 0, -1, 0, -72.51)" xlink:href="#linear-gradient-70"/><linearGradient id="linear-gradient-165" x1="50.27" y1="-87.47" x2="37.54" y2="-107.31" gradientTransform="matrix(1, 0, 0, -1, 0, -72.51)" xlink:href="#linear-gradient-70"/><linearGradient id="linear-gradient-166" x1="45.47" y1="-84.39" x2="32.73" y2="-104.23" gradientTransform="matrix(1, 0, 0, -1, 0, -72.51)" xlink:href="#linear-gradient-70"/><linearGradient id="linear-gradient-167" x1="46.02" y1="-84.75" x2="33.29" y2="-104.59" gradientTransform="matrix(1, 0, 0, -1, 0, -72.51)" xlink:href="#linear-gradient-70"/><linearGradient id="linear-gradient-168" x1="45.71" y1="-84.54" x2="32.97" y2="-104.38" gradientTransform="matrix(1, 0, 0, -1, 0, -72.51)" xlink:href="#linear-gradient-70"/><linearGradient id="linear-gradient-169" x1="33.44" y1="-76.67" x2="20.71" y2="-96.51" gradientTransform="matrix(1, 0, 0, -1, 0, -72.51)" xlink:href="#linear-gradient-70"/><linearGradient id="linear-gradient-170" x1="44.06" y1="-83.48" x2="31.32" y2="-103.32" gradientTransform="matrix(1, 0, 0, -1, 0, -72.51)" xlink:href="#linear-gradient-70"/><linearGradient id="linear-gradient-171" x1="49.24" y1="-86.81" x2="36.51" y2="-106.65" gradientTransform="matrix(1, 0, 0, -1, 0, -72.51)" xlink:href="#linear-gradient-70"/><linearGradient id="linear-gradient-172" x1="46.57" y1="-85.09" x2="33.83" y2="-104.93" gradientTransform="matrix(1, 0, 0, -1, 0, -72.51)" xlink:href="#linear-gradient-70"/><linearGradient id="linear-gradient-173" x1="47.52" y1="-85.7" x2="34.78" y2="-105.54" gradientTransform="matrix(1, 0, 0, -1, 0, -72.51)" xlink:href="#linear-gradient-70"/><linearGradient id="linear-gradient-174" x1="48.43" y1="-86.29" x2="35.7" y2="-106.13" gradientTransform="matrix(1, 0, 0, -1, 0, -72.51)" xlink:href="#linear-gradient-70"/><linearGradient id="linear-gradient-175" x1="44.17" y1="-83.55" x2="31.44" y2="-103.39" gradientTransform="matrix(1, 0, 0, -1, 0, -72.51)" xlink:href="#linear-gradient-70"/><linearGradient id="linear-gradient-176" x1="44.37" y1="-83.68" x2="31.64" y2="-103.52" gradientTransform="matrix(1, 0, 0, -1, 0, -72.51)" xlink:href="#linear-gradient-70"/><linearGradient id="linear-gradient-177" x1="44.49" y1="-83.77" x2="31.75" y2="-103.61" gradientTransform="matrix(1, 0, 0, -1, 0, -72.51)" xlink:href="#linear-gradient-70"/><linearGradient id="linear-gradient-178" x1="44.1" y1="-83.5" x2="31.36" y2="-103.35" gradientTransform="matrix(1, 0, 0, -1, 0, -72.51)" xlink:href="#linear-gradient-70"/><linearGradient id="linear-gradient-179" x1="44.27" y1="-83.62" x2="31.54" y2="-103.46" gradientTransform="matrix(1, 0, 0, -1, 0, -72.51)" xlink:href="#linear-gradient-70"/><linearGradient id="linear-gradient-180" x1="392.98" y1="-99.2" x2="387.68" y2="-88.61" xlink:href="#linear-gradient"/><linearGradient id="linear-gradient-181" x1="47.16" y1="-85.46" x2="34.42" y2="-105.31" gradientTransform="matrix(1, 0, 0, -1, 0, -72.51)" xlink:href="#linear-gradient-70"/><linearGradient id="linear-gradient-182" x1="390.66" y1="-100.36" x2="385.36" y2="-89.77" xlink:href="#linear-gradient"/><linearGradient id="linear-gradient-183" x1="49.32" y1="-86.86" x2="36.59" y2="-106.7" gradientTransform="matrix(1, 0, 0, -1, 0, -72.51)" xlink:href="#linear-gradient-70"/><linearGradient id="linear-gradient-184" x1="403.07" y1="-94.15" x2="397.78" y2="-83.56" xlink:href="#linear-gradient"/><linearGradient id="linear-gradient-185" x1="38.25" y1="-79.76" x2="25.51" y2="-99.6" gradientTransform="matrix(1, 0, 0, -1, 0, -72.51)" xlink:href="#linear-gradient-70"/><linearGradient id="linear-gradient-186" x1="394.7" y1="-98.34" x2="389.4" y2="-87.75" xlink:href="#linear-gradient"/><linearGradient id="linear-gradient-187" x1="45.54" y1="-84.43" x2="32.8" y2="-104.28" gradientTransform="matrix(1, 0, 0, -1, 0, -72.51)" xlink:href="#linear-gradient-70"/><linearGradient id="linear-gradient-188" x1="397.68" y1="-96.85" x2="392.38" y2="-86.25" xlink:href="#linear-gradient"/><linearGradient id="linear-gradient-189" x1="42.77" y1="-82.66" x2="30.04" y2="-102.5" gradientTransform="matrix(1, 0, 0, -1, 0, -72.51)" xlink:href="#linear-gradient-70"/><linearGradient id="linear-gradient-190" x1="386.02" y1="-90.68" x2="410.62" y2="-90.2" xlink:href="#linear-gradient"/><linearGradient id="linear-gradient-191" x1="36.32" y1="-78.52" x2="23.59" y2="-98.36" gradientTransform="matrix(1, 0, 0, -1, 0, -72.51)" xlink:href="#linear-gradient-70"/><linearGradient id="linear-gradient-192" x1="386.02" y1="-90.37" x2="410.62" y2="-89.9" xlink:href="#linear-gradient"/><linearGradient id="linear-gradient-193" x1="37.12" y1="-79.03" x2="24.38" y2="-98.87" gradientTransform="matrix(1, 0, 0, -1, 0, -72.51)" xlink:href="#linear-gradient-70"/><linearGradient id="linear-gradient-194" x1="386.01" y1="-90.08" x2="410.61" y2="-89.61" xlink:href="#linear-gradient"/><linearGradient id="linear-gradient-195" x1="37.68" y1="-79.39" x2="24.94" y2="-99.23" gradientTransform="matrix(1, 0, 0, -1, 0, -72.51)" xlink:href="#linear-gradient-70"/><linearGradient id="linear-gradient-196" x1="385.95" y1="-86.71" x2="410.55" y2="-86.24" xlink:href="#linear-gradient"/><linearGradient id="linear-gradient-197" x1="47.22" y1="-85.51" x2="34.48" y2="-105.35" gradientTransform="matrix(1, 0, 0, -1, 0, -72.51)" xlink:href="#linear-gradient-70"/><linearGradient id="linear-gradient-198" x1="399.82" y1="-95.78" x2="394.52" y2="-85.19" xlink:href="#linear-gradient"/><linearGradient id="linear-gradient-199" x1="385.97" y1="-88.43" x2="410.57" y2="-87.96" xlink:href="#linear-gradient"/><linearGradient id="linear-gradient-200" x1="41.29" y1="-81.7" x2="28.55" y2="-101.54" gradientTransform="matrix(1, 0, 0, -1, 0, -72.51)" xlink:href="#linear-gradient-70"/><linearGradient id="linear-gradient-201" x1="41.25" y1="-70.88" x2="36.42" y2="-78.41" gradientTransform="matrix(1, 0, 0, -1, 0, -72.51)" xlink:href="#linear-gradient-70"/><linearGradient id="linear-gradient-202" x1="41.54" y1="-71.07" x2="36.71" y2="-78.59" gradientTransform="matrix(1, 0, 0, -1, 0, -72.51)" xlink:href="#linear-gradient-70"/><linearGradient id="linear-gradient-203" x1="41.95" y1="-71.33" x2="37.12" y2="-78.86" gradientTransform="matrix(1, 0, 0, -1, 0, -72.51)" xlink:href="#linear-gradient-70"/><linearGradient id="linear-gradient-204" x1="41.25" y1="-70.88" x2="36.42" y2="-78.41" gradientTransform="matrix(1, 0, 0, -1, 0, -72.51)" xlink:href="#linear-gradient-70"/><linearGradient id="linear-gradient-205" x1="47.84" y1="-75.11" x2="43.01" y2="-82.63" gradientTransform="matrix(1, 0, 0, -1, 0, -72.51)" xlink:href="#linear-gradient-70"/><linearGradient id="linear-gradient-206" x1="42.54" y1="-71.71" x2="37.71" y2="-79.23" gradientTransform="matrix(1, 0, 0, -1, 0, -72.51)" xlink:href="#linear-gradient-70"/><linearGradient id="linear-gradient-207" x1="41.08" y1="-70.77" x2="36.25" y2="-78.3" gradientTransform="matrix(1, 0, 0, -1, 0, -72.51)" xlink:href="#linear-gradient-70"/><linearGradient id="linear-gradient-208" x1="41.03" y1="-70.74" x2="36.2" y2="-78.27" gradientTransform="matrix(1, 0, 0, -1, 0, -72.51)" xlink:href="#linear-gradient-70"/><linearGradient id="linear-gradient-209" x1="41.13" y1="-70.81" x2="36.3" y2="-78.34" gradientTransform="matrix(1, 0, 0, -1, 0, -72.51)" xlink:href="#linear-gradient-70"/><linearGradient id="linear-gradient-210" x1="343.29" y1="-91.86" x2="378.81" y2="-90.46" gradientTransform="translate(401.62 -67.64) rotate(-176.57)" xlink:href="#linear-gradient"/><linearGradient id="linear-gradient-211" x1="44.5" y1="-72.97" x2="39.67" y2="-80.5" gradientTransform="matrix(1, 0, 0, -1, 0, -72.51)" xlink:href="#linear-gradient-70"/></defs><g id="Layer_2" data-name="Layer 2"><g id="Layer_1-2" data-name="Layer 1"><line class="cls-1" y1="22.36" x2="212.94" y2="22.36"/><polygon class="cls-2" points="157.65 22.72 153 22.75 157.65 36.43 157.65 22.72"/><polygon class="cls-2" points="174.37 22.64 169.69 22.66 174.37 36.43 174.37 22.64"/><polygon class="cls-2" points="162.04 21.7 166.26 21.67 162.04 9.11 162.04 21.7"/><polygon class="cls-1" points="64.12 20.9 64.12 23.19 72.28 23.15 72.28 20.9 64.12 20.9"/><polygon class="cls-2" points="145.32 21.78 149.57 21.76 145.32 9.11 145.32 21.78"/><path class="cls-2" d="M136.57,43c2.88-.55,4.64-6.38,4.64-12.48V22.8l-10,.06v6.32C131.17,38.17,133.17,43.62,136.57,43Z"/><path class="cls-1" d="M119.45,25.26a4.06,4.06,0,0,0,3.75-2.36h-5.93v2.33Z"/><path class="cls-2" d="M123.52,14.45c0-4.25-.61-9.86-5.07-9.86h-2.18V21.93h5.93C123.29,19.88,123.52,16.92,123.52,14.45Z"/><polygon class="cls-1" points="180.69 22.61 183.25 22.59 180.69 22.1 180.69 22.61"/><path class="cls-1" d="M46.24,18.17h0a5.86,5.86,0,0,0-.57-.92v-.07c-.22-.28-.46-.55-.71-.81l-.07-.06A9.68,9.68,0,0,0,44,15.6c-.35.25-.68.52-1,.8l-.3.27c-.23.21-.44.43-.65.65a3.45,3.45,0,0,0-.26.28,10.12,10.12,0,0,0-1.51,2.22,2.91,2.91,0,0,0,2.52,2.54,3.55,3.55,0,0,0,3.86-2.09.87.87,0,0,0,.1-.59,1.6,1.6,0,0,0-.11-.43A5.61,5.61,0,0,0,46.24,18.17Z"/><path class="cls-2" d="M87.61,42.31c3.46-2.45,4.81-10.72,4.21-19.26l-13.31.07c.06,1.79.21,3.61.45,5.41C80.23,38.17,83.7,45.09,87.61,42.31Z"/><path class="cls-1" d="M192.79,25.26H195A4.17,4.17,0,0,0,199,22.51h-6.13Z"/><path class="cls-1" d="M99.33,27c2.48,0,4.06-1.49,4.94-4H98.18v4Z"/><path class="cls-2" d="M104.17,15.32c0-6.43-1.61-10.73-5.84-10.73H97.18V22h6.09A20.54,20.54,0,0,0,104.17,15.32Z"/><path class="cls-3" d="M40.39,17.89a2.91,2.91,0,0,1,.12-.39A2.91,2.91,0,0,0,40.39,17.89Z"/><path class="cls-4" d="M40.26,18.3l.11-.38Z"/><path class="cls-5" d="M43,16.36c.32-.28.65-.55,1-.8A9.22,9.22,0,0,0,43,16.36Z"/><path class="cls-6" d="M41.34,15.31c.06-.14.13-.28.2-.41A3.91,3.91,0,0,0,41.34,15.31Z"/><path class="cls-7" d="M39.49,23.84a3.28,3.28,0,0,0,4,2.39,3.17,3.17,0,0,0,1-.45,4.82,4.82,0,0,0,1.94-2.5h-7A2.6,2.6,0,0,0,39.49,23.84Z"/><path class="cls-8" d="M40.91,16.36a4.52,4.52,0,0,1,.18-.47A4.52,4.52,0,0,0,40.91,16.36Z"/><path class="cls-9" d="M42,17.28c.21-.22.42-.44.65-.65C42.46,16.84,42.25,17,42,17.28Z"/><path class="cls-10" d="M40.72,16.86l.15-.41Z"/><path class="cls-11" d="M47.48,18.54c0,.31-.08.64-.12,1C47.4,19.2,47.44,18.86,47.48,18.54Z"/><path class="cls-12" d="M41.59,14.81l.21-.35Z"/><path class="cls-13" d="M47,19.34a1.57,1.57,0,0,1-.2.3.87.87,0,0,1-.1.59,3.55,3.55,0,0,1-3.86,2.09,2.91,2.91,0,0,1-2.52-2.54,10.12,10.12,0,0,1,1.51-2.22c-.22.25-.43.5-.62.76h-.9c-.08.27-.13.46-.14.48-.15.7-.28,1.41-.41,2.15a10.2,10.2,0,0,0-.28,2.39h7a15.67,15.67,0,0,0,.88-3.77Z"/><path class="cls-14" d="M44.89,16.33l-.07-.06h0Z"/><path class="cls-15" d="M40.54,17.42a1.45,1.45,0,0,1,.15-.46C40.63,17.12,40.58,17.27,40.54,17.42Z"/><path class="cls-16" d="M41.14,15.78a1.12,1.12,0,0,1,.17-.41C41.25,15.5,41.19,15.64,41.14,15.78Z"/><path class="cls-17" d="M39.19,1.28A3.19,3.19,0,0,1,39.45,1,3.19,3.19,0,0,0,39.19,1.28Z"/><path class="cls-18" d="M38.3,2.59a2.26,2.26,0,0,1,.17-.35A2.26,2.26,0,0,0,38.3,2.59Z"/><path class="cls-19" d="M38.68,1.89l.23-.31Z"/><path class="cls-20" d="M38.05,3.36a1.4,1.4,0,0,1,.1-.39C38.11,3.1,38.08,3.23,38.05,3.36Z"/><path class="cls-21" d="M39.8.77a2.2,2.2,0,0,1,.3-.19A2.2,2.2,0,0,0,39.8.77Z"/><path class="cls-22" d="M46.31,5.26a.48.48,0,0,0,0,.17A.48.48,0,0,1,46.31,5.26Z"/><path class="cls-23" d="M40.52.38l.3-.13Z"/><path class="cls-24" d="M41.33.12,41.6,0Z"/><path class="cls-25" d="M41.93,8.51a4.24,4.24,0,0,0,4.32-3,12.54,12.54,0,0,0-5.34-1.82c-.93,0-1.9-.08-2.89-.1a3.85,3.85,0,0,0-.08.47A4.25,4.25,0,0,0,41.93,8.51Z"/><path class="cls-26" d="M49.26,41a9.71,9.71,0,0,1-2.15,1.32,20.27,20.27,0,0,1-5.63,3.11,7.79,7.79,0,0,1,0-3.33,7,7,0,0,0,.08,3.63,2.5,2.5,0,0,0,2.66,1.39C46.8,47,49,44.91,50.61,43l.24-.31A8.77,8.77,0,0,1,49.26,41Z"/><path class="cls-27" d="M43.12,42.48a1.88,1.88,0,0,1-.82-1.29A1.88,1.88,0,0,0,43.12,42.48Z"/><path class="cls-28" d="M46.11,42.66h0Z"/><path class="cls-29" d="M42.38,28.1a6.22,6.22,0,0,1,.82,1.09A6.22,6.22,0,0,0,42.38,28.1Z"/><path class="cls-30" d="M43.2,29.19a6.52,6.52,0,0,1,.8,1.93A6.52,6.52,0,0,0,43.2,29.19Z"/><path class="cls-31" d="M41.36,27.19a7.21,7.21,0,0,1,1,.91A7.21,7.21,0,0,0,41.36,27.19Z"/><path class="cls-32" d="M55.71,31.43c.21-1-2.29,4.61-4.87,7.89A10,10,0,0,0,52,41,27.39,27.39,0,0,0,55.71,31.43Z"/><path class="cls-33" d="M35.22,29.73a8.86,8.86,0,0,1,3.78.59h0A8.86,8.86,0,0,0,35.22,29.73Z"/><path class="cls-34" d="M12.82,45.63a3.46,3.46,0,0,0,.32-.52A3.46,3.46,0,0,1,12.82,45.63Z"/><path class="cls-35" d="M15,42c.37-.58.81-1.22,1.32-1.91A12.71,12.71,0,0,0,15,42Z"/><path class="cls-36" d="M14,43.54A12,12,0,0,1,15,42C14.58,42.57,14.27,43.09,14,43.54Z"/><path class="cls-37" d="M43,38.21c-.14.35-.29.7-.42,1C42.71,38.91,42.86,38.56,43,38.21Z"/><path class="cls-38" d="M43.86,35.54a.43.43,0,0,1-.07.29C43.81,35.74,43.84,35.64,43.86,35.54Z"/><path class="cls-39" d="M43.86,35.54a.43.43,0,0,1-.07.29C43.81,35.74,43.84,35.64,43.86,35.54Z"/><path class="cls-40" d="M26.64,33.09l-.69.46Z"/><path class="cls-41" d="M26.64,33.09l-.69.46Z"/><path class="cls-42" d="M26.37,29.7c.43-.34.88-.66,1.35-1C27.25,29,26.8,29.36,26.37,29.7Z"/><path class="cls-43" d="M26.37,29.7c.43-.34.88-.66,1.35-1C27.25,29,26.8,29.36,26.37,29.7Z"/><path class="cls-44" d="M21.58,34a12.92,12.92,0,0,1,1.09-1A12.92,12.92,0,0,0,21.58,34Z"/><path class="cls-45" d="M21.58,34a12.92,12.92,0,0,1,1.09-1A12.92,12.92,0,0,0,21.58,34Z"/><path class="cls-46" d="M43.64,36.38l-.09.29Z"/><path class="cls-47" d="M43.64,36.38l-.09.29Z"/><path class="cls-48" d="M20.14,35.51c.28-.3.59-.62.9-.93C20.73,34.89,20.42,35.21,20.14,35.51Z"/><path class="cls-49" d="M20.14,35.51c.28-.3.59-.62.9-.93C20.73,34.89,20.42,35.21,20.14,35.51Z"/><path class="cls-50" d="M24.3,34.67l-.75.56Z"/><path class="cls-51" d="M24.3,34.67l-.75.56Z"/><path class="cls-52" d="M44.17,33.63v.25A1,1,0,0,1,44.17,33.63Z"/><path class="cls-53" d="M44.17,33.63v.25A1,1,0,0,1,44.17,33.63Z"/><path class="cls-54" d="M25,30.82c.41-.36.84-.72,1.29-1.06C25.84,30.1,25.41,30.46,25,30.82Z"/><path class="cls-55" d="M25,30.82c.41-.36.84-.72,1.29-1.06C25.84,30.1,25.41,30.46,25,30.82Z"/><path class="cls-56" d="M44,34.71v0Z"/><path class="cls-57" d="M44,34.71v0Z"/><path class="cls-58" d="M18.86,36.92l.78-.87Z"/><path class="cls-59" d="M18.86,36.92l.78-.87Z"/><path class="cls-60" d="M43.37,37.22a.29.29,0,0,1-.08.24C43.32,37.38,43.34,37.3,43.37,37.22Z"/><path class="cls-61" d="M43.37,37.22a.29.29,0,0,1-.08.24C43.32,37.38,43.34,37.3,43.37,37.22Z"/><path class="cls-62" d="M22,36.4l-.73.61Z"/><path class="cls-63" d="M22,36.4l-.73.61Z"/><path class="cls-64" d="M44.18,32.47A6.26,6.26,0,0,0,44,31.12a6.52,6.52,0,0,0-.8-1.93,6.22,6.22,0,0,0-.82-1.09,7.21,7.21,0,0,0-1-.91l-.57-.37a8.16,8.16,0,0,0-2-.8c-3.84-1-7.77.46-11,2.64A25.78,25.78,0,0,0,31,30.78l-.19.09a13.84,13.84,0,0,1,4.47-1.15,8.79,8.79,0,0,1,3.73.6h.07A6,6,0,0,1,42,33v-.13C42.71,32.77,43.44,32.63,44.18,32.47Z"/><path class="cls-65" d="M44.18,32.47A6.26,6.26,0,0,0,44,31.12a6.52,6.52,0,0,0-.8-1.93,6.22,6.22,0,0,0-.82-1.09,7.21,7.21,0,0,0-1-.91l-.57-.37a8.16,8.16,0,0,0-2-.8c-3.84-1-7.77.46-11,2.64A25.78,25.78,0,0,0,31,30.78l-.19.09a13.84,13.84,0,0,1,4.47-1.15,8.79,8.79,0,0,1,3.73.6h.07A6,6,0,0,1,42,33v-.13C42.71,32.77,43.44,32.63,44.18,32.47Z"/><path class="cls-66" d="M18.66,37.14a37.31,37.31,0,0,0-2.38,3A19.1,19.1,0,0,0,15,42.05a18,18,0,0,1-1,1.54c-.39.68-.67,1.2-.87,1.57a3.46,3.46,0,0,1-.32.52,68.69,68.69,0,0,1,7-7.37l-.26.22A8,8,0,0,0,18.66,37.14Z"/><path class="cls-67" d="M18.66,37.14a37.31,37.31,0,0,0-2.38,3A19.1,19.1,0,0,0,15,42.05a18,18,0,0,1-1,1.54c-.39.68-.67,1.2-.87,1.57a3.46,3.46,0,0,1-.32.52,68.69,68.69,0,0,1,7-7.37l-.26.22A8,8,0,0,0,18.66,37.14Z"/><path class="cls-68" d="M42.41,33.85l-.09-.21Z"/><path class="cls-69" d="M42.41,33.85l-.09-.21Z"/><path class="cls-70" d="M23.2,32.46c.57-.53,1.16-1.08,1.8-1.64C24.36,31.38,23.77,31.93,23.2,32.46Z"/><path class="cls-71" d="M23.2,32.46c.57-.53,1.16-1.08,1.8-1.64C24.36,31.38,23.77,31.93,23.2,32.46Z"/><path class="cls-72" d="M21.31,37c-.49.41-1,.82-1.45,1.25C20.33,37.83,20.82,37.42,21.31,37Z"/><path class="cls-73" d="M22.67,33c.18-.17.34-.34.53-.51A2.11,2.11,0,0,0,22.67,33Z"/><path class="cls-74" d="M19.64,36c.16-.18.32-.36.5-.54A3.26,3.26,0,0,1,19.64,36Z"/><path class="cls-75" d="M18.66,37.14h0l.2-.22Z"/><path class="cls-76" d="M21,34.58l.54-.56Z"/><path class="cls-77" d="M23.55,35.23c-.51.38-1,.77-1.51,1.17C22.53,36,23,35.61,23.55,35.23Z"/><path class="cls-78" d="M29.06,31.68c-.82.44-1.63.91-2.42,1.41C27.43,32.59,28.24,32.12,29.06,31.68Z"/><path class="cls-79" d="M30.75,30.88c-.57.24-1.14.51-1.69.8C29.6,31.39,30.18,31.12,30.75,30.88Z"/><path class="cls-80" d="M26.29,29.76l.08-.06Z"/><path class="cls-81" d="M27.79,28.67l-.07.06.08-.06Z"/><path class="cls-82" d="M26,33.55c-.55.36-1.11.73-1.65,1.12A15.31,15.31,0,0,1,26,33.55Z"/><path class="cls-83" d="M27.8,28.67l-.08.06a13.08,13.08,0,0,0-1.35,1l-.08.06c-.45.34-.88.7-1.29,1.06-.64.56-1.23,1.11-1.8,1.64-.19.17-.35.34-.53.51-.38.35-.75.71-1.09,1l-.54.56c-.31.31-.62.63-.9.93l-.5.54c-.16.18-.53.58-.78.87l-.2.22c.3.46.61.91.94,1.34l.26-.22c.47-.43,1-.84,1.45-1.25l.73-.61c.49-.4,1-.79,1.51-1.17l.75-.56c.54-.39,1.1-.76,1.65-1.12l.69-.46c.79-.5,1.6-1,2.42-1.41.55-.29,1.12-.56,1.69-.8l.19-.09A25.26,25.26,0,0,1,27.8,28.67Z"/><path class="cls-84" d="M27.8,28.67l-.08.06a13.08,13.08,0,0,0-1.35,1l-.08.06c-.45.34-.88.7-1.29,1.06-.64.56-1.23,1.11-1.8,1.64-.19.17-.35.34-.53.51-.38.35-.75.71-1.09,1l-.54.56c-.31.31-.62.63-.9.93l-.5.54c-.16.18-.53.58-.78.87l-.2.22c.3.46.61.91.94,1.34l.26-.22c.47-.43,1-.84,1.45-1.25l.73-.61c.49-.4,1-.79,1.51-1.17l.75-.56c.54-.39,1.1-.76,1.65-1.12l.69-.46c.79-.5,1.6-1,2.42-1.41.55-.29,1.12-.56,1.69-.8l.19-.09A25.26,25.26,0,0,1,27.8,28.67Z"/><path class="cls-85" d="M27.8,28.67l-.08.06a13.08,13.08,0,0,0-1.35,1l-.08.06c-.45.34-.88.7-1.29,1.06-.64.56-1.23,1.11-1.8,1.64-.19.17-.35.34-.53.51-.38.35-.75.71-1.09,1l-.54.56c-.31.31-.62.63-.9.93l-.5.54c-.16.18-.53.58-.78.87l-.2.22c.3.46.61.91.94,1.34l.26-.22c.47-.43,1-.84,1.45-1.25l.73-.61c.49-.4,1-.79,1.51-1.17l.75-.56c.54-.39,1.1-.76,1.65-1.12l.69-.46c.79-.5,1.6-1,2.42-1.41.55-.29,1.12-.56,1.69-.8l.19-.09A25.26,25.26,0,0,1,27.8,28.67Z"/><path class="cls-86" d="M45.19,42.87a7.21,7.21,0,0,0,.92-.21,7.21,7.21,0,0,1-.92.21,3.38,3.38,0,0,1-1.1,0A3.38,3.38,0,0,0,45.19,42.87Z"/><path class="cls-87" d="M44.19,32.47h0v.27A2.43,2.43,0,0,0,44.19,32.47Z"/><path class="cls-88" d="M47.11,42.29a6.31,6.31,0,0,1-.91.35A6.31,6.31,0,0,0,47.11,42.29Z"/><path class="cls-89" d="M44.15,33.88a4.72,4.72,0,0,1-.11.83C44.09,34.43,44.12,34.16,44.15,33.88Z"/><path class="cls-90" d="M44.2,33v0Z"/><path class="cls-91" d="M44,34.88a2.6,2.6,0,0,1-.14.66A2.6,2.6,0,0,0,44,34.88Z"/><path class="cls-92" d="M43.79,35.83l-.15.55Z"/><path class="cls-93" d="M43.55,36.67l-.18.55Z"/><path class="cls-94" d="M42.58,39.26a5.28,5.28,0,0,0-.31,1.29A5.28,5.28,0,0,1,42.58,39.26Z"/><path class="cls-95" d="M42.68,34.71a6.59,6.59,0,0,0-.27-.86A6.59,6.59,0,0,1,42.68,34.71Z"/><path class="cls-96" d="M42.32,33.64c-.09-.22-.19-.43-.3-.64C42.13,33.21,42.23,33.42,42.32,33.64Z"/><path class="cls-97" d="M43,38.21h0c.1-.24.19-.5.29-.75C43.19,37.71,43.1,38,43,38.21Z"/><path class="cls-98" d="M41.48,45.4a20.27,20.27,0,0,0,5.63-3.11,6.31,6.31,0,0,1-.91.35h-.09a7.21,7.21,0,0,1-.92.21,3.38,3.38,0,0,1-1.1,0,2.52,2.52,0,0,1-1-.37,1.88,1.88,0,0,1-.82-1.29,3.42,3.42,0,0,1,0-.64,5.28,5.28,0,0,1,.31-1.29,11.61,11.61,0,0,0,.1-4.55c.59,2.61-.85,4.85-1.18,7.36A7.79,7.79,0,0,0,41.48,45.4Z"/><path class="cls-99" d="M41.48,45.4a20.27,20.27,0,0,0,5.63-3.11,6.31,6.31,0,0,1-.91.35h-.09a7.21,7.21,0,0,1-.92.21,3.38,3.38,0,0,1-1.1,0,2.52,2.52,0,0,1-1-.37,1.88,1.88,0,0,1-.82-1.29,3.42,3.42,0,0,1,0-.64,5.28,5.28,0,0,1,.31-1.29,11.61,11.61,0,0,0,.1-4.55c.59,2.61-.85,4.85-1.18,7.36A7.79,7.79,0,0,0,41.48,45.4Z"/><path class="cls-37" d="M42.58,39.26h0c.13-.35.28-.7.42-1h0C42.86,38.56,42.71,38.91,42.58,39.26Z"/><path class="cls-100" d="M42.58,39.26h0c.13-.35.28-.7.42-1h0C42.86,38.56,42.71,38.91,42.58,39.26Z"/><path class="cls-101" d="M42.58,39.26c.13-.35.28-.7.42-1s.19-.5.29-.75a.75.75,0,0,1,.08-.24l.18-.55.09-.29.15-.55a1.74,1.74,0,0,1,.07-.29c0-.1.1-.44.14-.66v-.17c0-.28.08-.55.11-.83V32.47q-1.11.24-2.22.42L42,33c.11.21.21.42.3.64l.09.21a6.59,6.59,0,0,1,.27.86A11.71,11.71,0,0,1,42.58,39.26Z"/><path class="cls-102" d="M42.58,39.26c.13-.35.28-.7.42-1s.19-.5.29-.75a.75.75,0,0,1,.08-.24l.18-.55.09-.29.15-.55a1.74,1.74,0,0,1,.07-.29c0-.1.1-.44.14-.66v-.17c0-.28.08-.55.11-.83V32.47q-1.11.24-2.22.42L42,33c.11.21.21.42.3.64l.09.21a6.59,6.59,0,0,1,.27.86A11.71,11.71,0,0,1,42.58,39.26Z"/><path class="cls-103" d="M42.58,39.26c.13-.35.28-.7.42-1s.19-.5.29-.75a.75.75,0,0,1,.08-.24l.18-.55.09-.29.15-.55a1.74,1.74,0,0,1,.07-.29c0-.1.1-.44.14-.66v-.17c0-.28.08-.55.11-.83V32.47q-1.11.24-2.22.42L42,33c.11.21.21.42.3.64l.09.21a6.59,6.59,0,0,1,.27.86A11.71,11.71,0,0,1,42.58,39.26Z"/><path class="cls-104" d="M35.32,15.17c-.56.27-1.1.58-1.64.89l-.59.32a23.76,23.76,0,0,1,5.47-2.18,15.9,15.9,0,0,0-2.46.65A6.71,6.71,0,0,0,35.32,15.17Z"/><path class="cls-105" d="M30.48,17.43l-.87.22-.37.08c-.32.07-.65.13-1,.18h.11l-.19.05a13,13,0,0,0,2.47-.57l.26-.09h-.06Z"/><path class="cls-106" d="M44.05,11.23a5.9,5.9,0,0,0-.69-.4l-.5-.23.5.23A5.9,5.9,0,0,1,44.05,11.23Z"/><path class="cls-107" d="M32.76,13.56c-.62.38-1.24.75-1.88,1.09a33.92,33.92,0,0,1-3.45,1.63,33.92,33.92,0,0,0,3.45-1.63C31.52,14.31,32.14,13.94,32.76,13.56Z"/><path class="cls-108" d="M32.66,13.62c1.59-.2,3.19-.4,4.79-.57a60,60,0,0,1,8.15-.42,7.13,7.13,0,0,0-1.55-1.4,5.9,5.9,0,0,0-.69-.4l-.5-.23a5.89,5.89,0,0,0-1.47-.48c-2.73-.37-4.7.7-6.83,2.23-.59.42-1.19.82-1.8,1.21s-1.24.75-1.88,1.09A17.8,17.8,0,0,0,32.66,13.62Z"/><path class="cls-109" d="M32.66,13.62c1.59-.2,3.19-.4,4.79-.57a60,60,0,0,1,8.15-.42,7.13,7.13,0,0,0-1.55-1.4,5.9,5.9,0,0,0-.69-.4l-.5-.23a5.89,5.89,0,0,0-1.47-.48c-2.73-.37-4.7.7-6.83,2.23-.59.42-1.19.82-1.8,1.21s-1.24.75-1.88,1.09A17.8,17.8,0,0,0,32.66,13.62Z"/><path class="cls-110" d="M46.64,19.21a2.47,2.47,0,0,0,.11.43,1.57,1.57,0,0,0,.2-.3Z"/><path class="cls-111" d="M46.64,19.21a2.47,2.47,0,0,0,.11.43,1.57,1.57,0,0,0,.2-.3Z"/><path class="cls-112" d="M45.6,17.14v0Z"/><path class="cls-113" d="M45.6,17.14v0Z"/><path class="cls-114" d="M28.09,17.9h0a37.52,37.52,0,0,1-3.95-.55l.68-.2c-.61.18-1.23.34-1.86.47-.34.07-.73.18-1.13.26C24.83,17.84,27.29,17.88,28.09,17.9Z"/><path class="cls-115" d="M28.09,17.9h0a37.52,37.52,0,0,1-3.95-.55l.68-.2c-.61.18-1.23.34-1.86.47-.34.07-.73.18-1.13.26C24.83,17.84,27.29,17.88,28.09,17.9Z"/><path class="cls-14" d="M44.82,16.27l.07.06Z"/><path class="cls-116" d="M44.82,16.27l.07.06Z"/><path class="cls-117" d="M29.24,17.73l.37-.08Z"/><path class="cls-118" d="M29.24,17.73l.37-.08Z"/><path class="cls-119" d="M36.1,14.85a6.71,6.71,0,0,0-.78.32c-.56.27-1.1.58-1.64.89.54-.31,1.08-.62,1.64-.89A6.71,6.71,0,0,1,36.1,14.85Z"/><path class="cls-120" d="M36.1,14.85a6.71,6.71,0,0,0-.78.32c-.56.27-1.1.58-1.64.89.54-.31,1.08-.62,1.64-.89A6.71,6.71,0,0,1,36.1,14.85Z"/><path class="cls-121" d="M30.48,17.43l.37-.11Z"/><path class="cls-122" d="M30.48,17.43l.37-.11Z"/><path class="cls-123" d="M25.47,17a17.49,17.49,0,0,0,2-.69C26.79,16.54,26.13,16.77,25.47,17Z"/><path class="cls-124" d="M25.47,17a17.49,17.49,0,0,0,2-.69C26.79,16.54,26.13,16.77,25.47,17Z"/><path class="cls-125" d="M7.39,20.3c.1.86,1.9,1,4.4.82-.29-.84-.59-1.69-.9-2.52C8.74,19,7.3,19.51,7.39,20.3Z"/><path class="cls-126" d="M12.33,18.39l1.26-.13Z"/><path class="cls-127" d="M11,18.58l1.18-.17Z"/><path class="cls-128" d="M16.45,20.5l-1.52.24Z"/><path class="cls-129" d="M14.8,20.76c-1,.16-2,.28-2.92.35C12.78,21,13.76,20.92,14.8,20.76Z"/><path class="cls-130" d="M13.76,18.24l1.39-.11Z"/><path class="cls-131" d="M15.41,18.11,16.87,18Z"/><path class="cls-132" d="M21,17.94a2.84,2.84,0,0,0,.82-.06c-1.58,0-3.29.06-5,.14a23.83,23.83,0,0,0,1.36,2.16c4.55-.86,9-2,9.93-2.22A30.74,30.74,0,0,1,21,17.94Z"/><path class="cls-133" d="M18.2,20.18l-1.54.28Z"/><path class="cls-134" d="M28.31,17.92H28.2a30.62,30.62,0,0,1-7.16,0,30.45,30.45,0,0,0,7.14,0l.19-.05Z"/><path class="cls-135" d="M28.31,17.92H28.2a30.62,30.62,0,0,1-7.16,0,30.45,30.45,0,0,0,7.14,0l.19-.05Z"/><path class="cls-136" d="M28.2,17.91h-.11c-.8,0-3.26-.06-6.23,0A2.84,2.84,0,0,1,21,18,30.62,30.62,0,0,0,28.2,17.91Z"/><path class="cls-137" d="M28.2,17.91h-.11c-.8,0-3.26-.06-6.23,0A2.84,2.84,0,0,1,21,18,30.62,30.62,0,0,0,28.2,17.91Z"/><path class="cls-138" d="M28.2,17.91h-.11c-.8,0-3.26-.06-6.23,0A2.84,2.84,0,0,1,21,18,30.62,30.62,0,0,0,28.2,17.91Z"/><path class="cls-139" d="M11.13,16.16a1.81,1.81,0,0,1-1,.55A1.81,1.81,0,0,0,11.13,16.16Z"/><path class="cls-140" d="M11.53,14.27a1.86,1.86,0,0,0-.63-.86A1.86,1.86,0,0,1,11.53,14.27Z"/><path class="cls-141" d="M9.66,16.76a1.85,1.85,0,0,0,.47,0A36,36,0,0,0,8.58,13.5a1.86,1.86,0,0,0-.27,2.62,1.82,1.82,0,0,0,1.35.68Z"/><path class="cls-142" d="M9,13.21l.18-.08Z"/><path class="cls-143" d="M11.47,15.65a2.11,2.11,0,0,1-.28.45A2.11,2.11,0,0,0,11.47,15.65Z"/><path class="cls-144" d="M8.67,13.4l.18-.13Z"/><path class="cls-145" d="M10.25,13.09a2.31,2.31,0,0,1,.65.32A2.31,2.31,0,0,0,10.25,13.09Z"/><path class="cls-146" d="M9.35,13.08h0Z"/><path class="cls-147" d="M11.63,15a1.7,1.7,0,0,1-.13.55A1.7,1.7,0,0,0,11.63,15Z"/><path class="cls-148" d="M9.51,13h0Z"/><path class="cls-149" d="M8.85,13.27,9,13.21Z"/><path class="cls-150" d="M9.16,13.13h0Z"/><path class="cls-151" d="M11.5,15.56v0Z"/><path class="cls-152" d="M11.19,16.1l-.06.06Z"/><path class="cls-153" d="M8.58,13.46h0l.09-.06Z"/><path class="cls-154" d="M10.18,16.71a1.81,1.81,0,0,0,1-.55l.06-.06a2.11,2.11,0,0,0,.28-.45v-.09a1.7,1.7,0,0,0,.13-.55,1.84,1.84,0,0,0-.73-1.6,2.31,2.31,0,0,0-.65-.32A2.66,2.66,0,0,0,9.88,13H9.16L9,13.21l-.13.06-.18.13-.09.06a36,36,0,0,1,1.55,3.26Z"/><path class="cls-155" d="M10.18,16.71a1.81,1.81,0,0,0,1-.55l.06-.06a2.11,2.11,0,0,0,.28-.45v-.09a1.7,1.7,0,0,0,.13-.55,1.84,1.84,0,0,0-.73-1.6,2.31,2.31,0,0,0-.65-.32A2.66,2.66,0,0,0,9.88,13H9.16L9,13.21l-.13.06-.18.13-.09.06a36,36,0,0,1,1.55,3.26Z"/><path class="cls-156" d="M10.88,18.6Z"/><path class="cls-157" d="M12.19,18.41h0Z"/><path class="cls-158" d="M13.59,18.26h0Z"/><path class="cls-159" d="M15.15,18.13h0Z"/><path class="cls-160" d="M14.93,20.74h0Z"/><path class="cls-161" d="M16.66,20.46h0Z"/><path class="cls-162" d="M16.87,18l-1.46.08h-.26l-1.39.11h-.17l-1.26.13h-.14L11,18.58h-.12c.31.83.61,1.68.9,2.52h.09c.9-.07,1.88-.19,2.92-.35h.13l1.52-.24h.21l1.54-.28h0A23.72,23.72,0,0,1,16.89,18Z"/><path class="cls-163" d="M16.87,18l-1.46.08h-.26l-1.39.11h-.17l-1.26.13h-.14L11,18.58h-.12c.31.83.61,1.68.9,2.52h.09c.9-.07,1.88-.19,2.92-.35h.13l1.52-.24h.21l1.54-.28h0A23.72,23.72,0,0,1,16.89,18Z"/><path class="cls-164" d="M30.91,17.3c.37-.12.74-.25,1.1-.4-.27.11-.55.2-.83.3Z"/><polygon class="cls-165" points="47.35 19.51 47.36 19.5 47.35 19.51 47.35 19.51"/><path class="cls-166" d="M41.78,17.56a3.45,3.45,0,0,1,.26-.28A3.45,3.45,0,0,0,41.78,17.56Z"/><path class="cls-167" d="M45.61,12.63h0l.18.2A1.12,1.12,0,0,0,45.61,12.63Z"/><path class="cls-168" d="M42.69,16.63l.3-.27Z"/><path class="cls-169" d="M24.85,17.15l.62-.18Z"/><path class="cls-170" d="M41.54,14.9l.05-.09Z"/><path class="cls-171" d="M46.24,18.17a5.35,5.35,0,0,1,.4,1A5.35,5.35,0,0,0,46.24,18.17Z"/><path class="cls-172" d="M44,15.56a9.68,9.68,0,0,1,.85.71A9.68,9.68,0,0,0,44,15.56Z"/><path class="cls-173" d="M45.6,17.14a9.19,9.19,0,0,0-.65-.75l-.06-.06C45.14,16.59,45.38,16.86,45.6,17.14Z"/><path class="cls-174" d="M45.65,17.21a5.86,5.86,0,0,1,.57.92A5.86,5.86,0,0,0,45.65,17.21Z"/><path class="cls-175" d="M41.09,15.89v0Z"/><path class="cls-176" d="M40.69,17v0Z"/><path class="cls-177" d="M40.51,17.5v0Z"/><path class="cls-178" d="M41.31,15.37v0Z"/><path class="cls-179" d="M40.87,16.45v0Z"/><path class="cls-180" d="M45,16.39l-.06-.06h0Z"/><path class="cls-181" d="M45,16.39l-.06-.06h0Z"/><path class="cls-182" d="M47,19.34l.41.17h0l.12-1a9.53,9.53,0,0,0-.36-3A5.67,5.67,0,0,1,47,19.34Z"/><path class="cls-183" d="M47,19.34l.41.17h0l.12-1a9.53,9.53,0,0,0-.36-3A5.67,5.67,0,0,1,47,19.34Z"/><path class="cls-184" d="M32,16.9a10.72,10.72,0,0,0,1.08-.52c-.62.29-1.26.57-1.91.82C31.46,17.1,31.74,17,32,16.9Z"/><path class="cls-185" d="M32,16.9a10.72,10.72,0,0,0,1.08-.52c-.62.29-1.26.57-1.91.82C31.46,17.1,31.74,17,32,16.9Z"/><path class="cls-186" d="M41.78,17.56a3.45,3.45,0,0,1,.26-.28c.21-.22.42-.44.65-.65l.3-.27a11.67,11.67,0,0,1,1-.8,9.68,9.68,0,0,1,.85.71h0a9.68,9.68,0,0,0-.85-.71l-2.17-1.1-.21.35,0,.09c-.07.13-.14.27-.2.41v.06c-.06.13-.12.27-.17.41v.11a4.52,4.52,0,0,0-.18.47v.09l-.15.41V17c-.06.16-.11.31-.15.46v.08a2.91,2.91,0,0,0-.12.39h0l-.11.38h.9C41.35,18,41.56,17.81,41.78,17.56Z"/><path class="cls-187" d="M41.78,17.56a3.45,3.45,0,0,1,.26-.28c.21-.22.42-.44.65-.65l.3-.27a11.67,11.67,0,0,1,1-.8,9.68,9.68,0,0,1,.85.71h0a9.68,9.68,0,0,0-.85-.71l-2.17-1.1-.21.35,0,.09c-.07.13-.14.27-.2.41v.06c-.06.13-.12.27-.17.41v.11a4.52,4.52,0,0,0-.18.47v.09l-.15.41V17c-.06.16-.11.31-.15.46v.08a2.91,2.91,0,0,0-.12.39h0l-.11.38h.9C41.35,18,41.56,17.81,41.78,17.56Z"/><path class="cls-188" d="M41,14.24a6.87,6.87,0,0,0-1.63-.14A6.87,6.87,0,0,1,41,14.24Z"/><path class="cls-189" d="M41,14.24a6.87,6.87,0,0,0-1.63-.14A6.87,6.87,0,0,1,41,14.24Z"/><path class="cls-190" d="M29.24,17.73c-.33.07-.67.13-1,.18h0C28.59,17.86,28.92,17.8,29.24,17.73Z"/><path class="cls-191" d="M29.24,17.73c-.33.07-.67.13-1,.18h0C28.59,17.86,28.92,17.8,29.24,17.73Z"/><path class="cls-192" d="M29.61,17.65l.87-.22Z"/><path class="cls-193" d="M29.61,17.65l.87-.22Z"/><path class="cls-194" d="M30.85,17.32h.06l.27-.1Z"/><path class="cls-195" d="M30.85,17.32h.06l.27-.1Z"/><path class="cls-196" d="M45.78,12.83a7.41,7.41,0,0,1,1.34,2.73A7.41,7.41,0,0,0,45.78,12.83Z"/><path class="cls-197" d="M45.78,12.83a7.41,7.41,0,0,1,1.34,2.73A7.41,7.41,0,0,0,45.78,12.83Z"/><path class="cls-198" d="M44.82,16.27l.07.06.06.06a9.19,9.19,0,0,1,.65.75v.07a5.86,5.86,0,0,1,.57.92h0a5.35,5.35,0,0,1,.4,1h0l.31.13a5.64,5.64,0,0,0,.17-3.78,7.41,7.41,0,0,0-1.34-2.73l-.18-.2a60,60,0,0,0-8.15.42c-1.6.17-3.2.37-4.79.57a19.63,19.63,0,0,1-1.78,1,33.92,33.92,0,0,1-3.45,1.63,17.49,17.49,0,0,1-2,.69l-.62.18-.68.2a37.52,37.52,0,0,0,4,.55h.12c.33-.05.67-.11,1-.18l.37-.08.87-.22.37-.11.33-.12c.65-.25,1.29-.53,1.91-.82l.59-.32c.54-.31,1.08-.62,1.64-.89a6.71,6.71,0,0,1,.78-.32,15.9,15.9,0,0,1,2.46-.65,7,7,0,0,1,.8-.1,6.87,6.87,0,0,1,1.63.14c.27.06.54.14.81.22L44,15.56A9.28,9.28,0,0,1,44.82,16.27Z"/><path class="cls-199" d="M44.82,16.27l.07.06.06.06a9.19,9.19,0,0,1,.65.75v.07a5.86,5.86,0,0,1,.57.92h0a5.35,5.35,0,0,1,.4,1h0l.31.13a5.64,5.64,0,0,0,.17-3.78,7.41,7.41,0,0,0-1.34-2.73l-.18-.2a60,60,0,0,0-8.15.42c-1.6.17-3.2.37-4.79.57a19.63,19.63,0,0,1-1.78,1,33.92,33.92,0,0,1-3.45,1.63,17.49,17.49,0,0,1-2,.69l-.62.18-.68.2a37.52,37.52,0,0,0,4,.55h.12c.33-.05.67-.11,1-.18l.37-.08.87-.22.37-.11.33-.12c.65-.25,1.29-.53,1.91-.82l.59-.32c.54-.31,1.08-.62,1.64-.89a6.71,6.71,0,0,1,.78-.32,15.9,15.9,0,0,1,2.46-.65,7,7,0,0,1,.8-.1,6.87,6.87,0,0,1,1.63.14c.27.06.54.14.81.22L44,15.56A9.28,9.28,0,0,1,44.82,16.27Z"/><path class="cls-200" d="M44.82,16.27l.07.06.06.06a9.19,9.19,0,0,1,.65.75v.07a5.86,5.86,0,0,1,.57.92h0a5.35,5.35,0,0,1,.4,1h0l.31.13a5.64,5.64,0,0,0,.17-3.78,7.41,7.41,0,0,0-1.34-2.73l-.18-.2a60,60,0,0,0-8.15.42c-1.6.17-3.2.37-4.79.57a19.63,19.63,0,0,1-1.78,1,33.92,33.92,0,0,1-3.45,1.63,17.49,17.49,0,0,1-2,.69l-.62.18-.68.2a37.52,37.52,0,0,0,4,.55h.12c.33-.05.67-.11,1-.18l.37-.08.87-.22.37-.11.33-.12c.65-.25,1.29-.53,1.91-.82l.59-.32c.54-.31,1.08-.62,1.64-.89a6.71,6.71,0,0,1,.78-.32,15.9,15.9,0,0,1,2.46-.65,7,7,0,0,1,.8-.1,6.87,6.87,0,0,1,1.63.14c.27.06.54.14.81.22L44,15.56A9.28,9.28,0,0,1,44.82,16.27Z"/><path class="cls-201" d="M39.45,1c.11-.09.23-.17.35-.25C39.68.85,39.56.93,39.45,1Z"/><path class="cls-202" d="M40.1.58a2.71,2.71,0,0,1,.42-.2A2.71,2.71,0,0,0,40.1.58Z"/><path class="cls-203" d="M40.82.25l.51-.13Z"/><path class="cls-204" d="M38,3.54h0v0Z"/><path class="cls-205" d="M46.42,4.52a4.55,4.55,0,0,1-.11.74A4.55,4.55,0,0,0,46.42,4.52Z"/><path class="cls-206" d="M41.6,0a3.84,3.84,0,0,1,.83,0A3.84,3.84,0,0,0,41.6,0Z"/><path class="cls-207" d="M38.91,1.58l.28-.3Z"/><path class="cls-208" d="M38.47,2.24a3.24,3.24,0,0,1,.21-.35A3.24,3.24,0,0,0,38.47,2.24Z"/><path class="cls-209" d="M38.15,3c.05-.13.09-.26.15-.38A1.09,1.09,0,0,0,38.15,3Z"/><path class="cls-210" d="M46.25,5.47h0a.48.48,0,0,1,0-.17,4.55,4.55,0,0,0,.11-.74,4.25,4.25,0,0,0-4-4.49h0a3.84,3.84,0,0,0-.83,0l-.27.06-.51.13-.3.13a2.71,2.71,0,0,0-.42.2,2.2,2.2,0,0,0-.3.19L39.38,1a3.07,3.07,0,0,0-.26.25l-.28.3-.23.31a3.24,3.24,0,0,0-.21.35,2.26,2.26,0,0,0-.17.35c-.06.12-.1.25-.15.38a2.79,2.79,0,0,0-.1.39v.19c1,0,2,0,2.89.1A12.56,12.56,0,0,1,46.25,5.47Z"/><path class="cls-211" d="M46.25,5.47h0a.48.48,0,0,1,0-.17,4.55,4.55,0,0,0,.11-.74,4.25,4.25,0,0,0-4-4.49h0a3.84,3.84,0,0,0-.83,0l-.27.06-.51.13-.3.13a2.71,2.71,0,0,0-.42.2,2.2,2.2,0,0,0-.3.19L39.38,1a3.07,3.07,0,0,0-.26.25l-.28.3-.23.31a3.24,3.24,0,0,0-.21.35,2.26,2.26,0,0,0-.17.35c-.06.12-.1.25-.15.38a2.79,2.79,0,0,0-.1.39v.19c1,0,2,0,2.89.1A12.56,12.56,0,0,1,46.25,5.47Z"/><path class="cls-2" d="M50.84,39.32a27.66,27.66,0,0,1-2.5-7.3h-.17l-.7,6.21A23.21,23.21,0,0,0,49.26,41l.24-.2A10.64,10.64,0,0,0,50.84,39.32Z"/><path class="cls-2" d="M58.63,36.1c-.18,3.43-1.85,6.43-3.84,6.43A3.76,3.76,0,0,1,52,41c-.35.54-.73,1.07-1.13,1.58a4.74,4.74,0,0,0,3,1c3.33,0,5.84-4.58,5.84-11.06,0-4.77-1.24-7.42-2.82-9.33H51.52C54.42,27.38,59.05,28.13,58.63,36.1Z"/><path class="cls-2" d="M49.05,10.64c.14-3.27,1.48-6.32,3.8-6.32,1.85,0,3.56,2.77,4.9,10.08h.16l.71-5.67c-1.39-2.51-3.36-5.12-5.16-5.12-3.78,0-5.3,5.5-5.3,9.91s1,6.86,2.32,8.74h5.37C52.91,18.68,48.76,17.72,49.05,10.64Z"/><path class="cls-2" d="M50.84,39.32a10.24,10.24,0,0,1-1.34,1.45l-.24.2a8.87,8.87,0,0,0,1.61,1.63A15.47,15.47,0,0,0,52,41,10,10,0,0,1,50.84,39.32Z"/><path class="cls-2" d="M72.28,39.7c0,1.91-.17,2.72-.54,3.21v.38h2.91v-.38c-.35-.49-.52-1.3-.52-3.21V23.14H72.28Z"/><path class="cls-2" d="M62.26,39.7c0,1.91-.16,2.72-.54,3.21v.38h2.91v-.38c-.35-.49-.51-1.3-.51-3.21V23.19H62.26Z"/><path class="cls-2" d="M73.65,4.59V4.15H70.74v.44c.37.49.54,1.31.54,3.21V19.52H63.12V7.8c0-1.9.16-2.72.51-3.21V4.15H60.72v.44c.38.49.54,1.31.54,3.21V22.2h1.86V19.9h8.16v2.25h1.85V7.8C73.13,5.9,73.3,5.08,73.65,4.59Z"/><path class="cls-2" d="M84.22,3.61c-4.5,0-8.26,8.19-8.49,18.52h1.78c-.27-7.76,1.14-14.95,4.32-17.2C85.74,2.14,89.22,9,90.48,18.65c.15,1.13.26,2.27.34,3.4h1.89C92.46,11.76,88.71,3.61,84.22,3.61Z"/><path class="cls-2" d="M87.61,42.31C83.7,45.09,80.23,38.17,79,28.53c-.24-1.8-.39-3.62-.45-5.41H76.73v1c0,10.74,3.87,19.51,8.51,19.51s8.51-8.77,8.51-19.51V23.05H91.82C92.42,31.59,91.07,39.86,87.61,42.31Z"/><path class="cls-2" d="M98.33,4.15H94.79v.44c.38.49.54,1.25.54,3.21V22h1.85V4.59h1.15c4.23,0,5.84,4.3,5.84,10.73a20.63,20.63,0,0,1-.9,6.67h1.63a17,17,0,0,0,1.1-6.67C106,7.59,103,4.15,98.33,4.15Z"/><path class="cls-2" d="M99.33,27H98.18V23H96.33V39.7c0,1.91-.16,2.72-.54,3.21v.38H98.7v-.38c-.35-.49-.52-1.3-.52-3.21V27.44h1.15A6.69,6.69,0,0,0,105.9,23h-1.63C103.39,25.51,101.81,27,99.33,27Z"/><path class="cls-2" d="M118.45,4.15H113.9v.44c.35.49.52,1.25.52,3.21V21.93h1.85V4.59h2.18c4.46,0,5.07,5.61,5.07,9.86,0,2.47-.23,5.43-1.32,7.45h1.27a13,13,0,0,0,1.9-7.44C125.37,7.31,122.09,4.15,118.45,4.15Z"/><path class="cls-2" d="M119.45,25.26h-2.18V22.93h-1.85V39.7c0,1.91-.17,2.72-.52,3.21v.38h2.89v-.38c-.36-.49-.52-1.3-.52-3.21v-14h2.18a7.46,7.46,0,0,0,1.06-.1L123,35.77c.91,3.76,1.4,5.73.79,7.14v.38h3.61v-.38c-.91-1.9-1.66-3.76-3-9.37l-2.11-8.61a6.39,6.39,0,0,0,2.2-2H123.2A4.06,4.06,0,0,1,119.45,25.26Z"/><path class="cls-2" d="M130.17,7.8c0-2,.17-2.72.52-3.21V4.15h-2.91v.44c.38.49.54,1.25.54,3.21V21.86h1.85Z"/><path class="cls-2" d="M141.21,30.49c0,6.1-1.76,11.93-4.64,12.48-3.4.65-5.4-4.8-5.4-13.79V22.86h-1.85v6.32c0,9.92,2.93,14.44,6.43,14.44,3.3,0,5.63-5.56,5.63-13.13V22.8h-.17Z"/><path class="cls-2" d="M141.36,4.59V4.15h-2.91v.44c1.15.38,1.76,3.7,1.76,6.7V21.8h.17V10.69C140.38,8.35,140.61,5.51,141.36,4.59Z"/><polygon class="cls-2" points="157.65 36.43 153 22.75 150.57 22.76 157.48 43.29 157.84 43.29 157.84 22.72 157.65 22.72 157.65 36.43"/><path class="cls-2" d="M158.31,4.59V4.15h-3.14v.44c.77.92,1.48,3.76,1.48,6.1v11h.19v-11C156.84,8.35,157.54,5.51,158.31,4.59Z"/><polygon class="cls-2" points="146.02 4.15 143.65 4.15 145.16 8.62 145.16 21.78 145.32 21.78 145.32 9.11 149.57 21.76 152 21.75 146.02 4.15"/><path class="cls-2" d="M146.16,36.76c0,2.34-.71,5.23-1.51,6.15v.38h3.17v-.38c-.8-.92-1.5-3.81-1.5-6.15v-14h-.16Z"/><path class="cls-2" d="M162.87,36.76c0,2.34-.7,5.23-1.5,6.15v.38h3.17v-.38c-.8-.92-1.5-3.81-1.5-6.15V22.69h-.17Z"/><polygon class="cls-2" points="162.74 4.15 160.37 4.15 161.87 8.62 161.87 21.7 162.04 21.7 162.04 9.11 166.26 21.67 168.69 21.66 162.74 4.15"/><polygon class="cls-2" points="174.37 36.43 169.69 22.66 167.26 22.67 174.2 43.29 174.55 43.29 174.55 22.64 174.37 22.64 174.37 36.43"/><path class="cls-2" d="M175,4.59V4.15h-3.14v.44c.77.92,1.47,3.76,1.47,6.1v11h.19v-11C173.55,8.35,174.26,5.51,175,4.59Z"/><polygon points="186.6 23.24 186.6 22.58 183.25 22.59 186.6 23.24"/><path class="cls-2" d="M179.69,20.66V4.59h1.64c2.61,0,4.06,3,5.14,5.83l.12-.22-.5-6h-8.77v.44c.36.49.52,1.31.52,3.21V21.62h1.85v-.51l2.56.49h3.35V19.46Z"/><path class="cls-2" d="M178.84,39.7c0,1.91-.16,2.72-.52,3.21v.38h9.53l.51-6.59-.14-.22c-1.1,3.33-3.05,6.43-5.63,6.43h-1.9V22.61h-1.85Z"/><path class="cls-2" d="M197.79,24.93a6.54,6.54,0,0,0,2.45-2.42h-1.32A4.18,4.18,0,0,1,195,25.26h-2.18V22.54H191V39.7c0,1.91-.17,2.72-.52,3.21v.38h2.89v-.38c-.36-.49-.52-1.3-.52-3.21v-14H195a7.46,7.46,0,0,0,1.06-.1l2.51,10.18c.91,3.76,1.4,5.73.79,7.14v.38H203v-.38c-.91-1.9-1.66-3.76-3-9.37Z"/><path class="cls-2" d="M191.79,4.59H194c4.46,0,5.07,5.61,5.07,9.86A18,18,0,0,1,198,21.51h1.32a13.57,13.57,0,0,0,1.65-7.06c0-7.14-3.28-10.3-6.92-10.3h-4.55v.44c.35.49.52,1.25.52,3.21V21.55h1.85Z"/><line class="cls-1" x1="1.41" y1="22.83" x2="214.34" y2="22.83"/><polygon class="cls-2" points="159.06 23.18 154.41 23.21 159.06 36.89 159.06 23.18"/><polygon class="cls-2" points="175.77 23.1 171.1 23.12 175.77 36.89 175.77 23.1"/><polygon class="cls-2" points="163.44 22.16 167.67 22.14 163.44 9.57 163.44 22.16"/><polygon class="cls-1" points="65.53 21.36 65.53 23.66 73.69 23.61 73.69 21.36 65.53 21.36"/><polygon class="cls-2" points="146.73 22.24 150.98 22.22 146.73 9.57 146.73 22.24"/><path class="cls-2" d="M138,43.43c2.88-.54,4.64-6.38,4.64-12.48V23.27l-10,.05v6.32C132.58,38.64,134.58,44.08,138,43.43Z"/><path class="cls-1" d="M120.86,25.72a4,4,0,0,0,3.75-2.36h-5.93v2.36Z"/><path class="cls-2" d="M124.93,14.91c0-4.25-.61-9.86-5.07-9.86h-2.18V22.39h5.93C124.7,20.34,124.93,17.38,124.93,14.91Z"/><polygon class="cls-1" points="182.1 23.07 184.66 23.06 182.1 22.56 182.1 23.07"/><path class="cls-2" d="M89,42.78c3.48-2.46,4.83-10.76,4.23-19.26l-13.31.06c.06,1.79.21,3.61.45,5.41C81.63,38.64,85.1,45.56,89,42.78Z"/><path class="cls-1" d="M194.2,25.72h2.18a4.18,4.18,0,0,0,4-2.74h-6.13Z"/><path class="cls-1" d="M100.74,27.46c2.48,0,4.06-1.49,4.94-4H99.59v4Z"/><path class="cls-2" d="M105.58,15.78C105.58,9.36,104,5,99.74,5H98.59V22.48h6.09A20.54,20.54,0,0,0,105.58,15.78Z"/><path class="cls-2" d="M60,36.56C59.85,40,58.19,43,56.2,43a3.76,3.76,0,0,1-2.79-1.51c-.35.54-.73,1.07-1.13,1.58a4.7,4.7,0,0,0,2.95,1c3.33,0,5.84-4.57,5.84-11.06,0-4.76-1.23-7.42-2.81-9.33H52.89C55.83,27.84,60.46,28.59,60,36.56Z"/><path class="cls-2" d="M50.46,11.1c.14-3.27,1.48-6.32,3.8-6.32,1.85,0,3.56,2.78,4.9,10.08h.16L60,9.19c-1.39-2.5-3.36-5.12-5.16-5.12-3.78,0-5.3,5.5-5.3,9.92s1,6.85,2.32,8.73h5.37C54.32,19.15,50.17,18.18,50.46,11.1Z"/><path class="cls-2" d="M73.69,40.16c0,1.91-.17,2.73-.54,3.22v.38h2.91v-.38c-.36-.49-.52-1.31-.52-3.22V23.61H73.69Z"/><path class="cls-2" d="M63.67,40.16c0,1.91-.16,2.73-.54,3.22v.38H66v-.38c-.35-.49-.51-1.31-.51-3.22V23.66H63.67Z"/><path class="cls-2" d="M75.06,5V4.61H72.15V5c.37.49.54,1.31.54,3.22V20H64.53V8.27c0-1.91.16-2.73.51-3.22V4.61H62.13V5c.38.49.54,1.31.54,3.22v14.4h1.86v-2.3h8.16v2.28h1.85V8.27C74.54,6.36,74.7,5.54,75.06,5Z"/><path class="cls-2" d="M85.63,4.07c-4.5,0-8.26,8.2-8.49,18.52h1.78c-.27-7.76,1.13-14.94,4.32-17.2,3.91-2.78,7.38,4.14,8.65,13.73.15,1.13.26,2.27.34,3.41h1.89C93.87,12.22,90.12,4.07,85.63,4.07Z"/><path class="cls-2" d="M89,42.78c-3.9,2.78-7.37-4.14-8.63-13.76-.24-1.8-.39-3.62-.45-5.41H78.14v1c0,10.73,3.87,19.5,8.51,19.5s8.51-8.77,8.51-19.5V23.54H93.23C93.83,32,92.48,40.32,89,42.78Z"/><path class="cls-2" d="M99.74,4.61H96.2V5c.38.49.54,1.25.54,3.22V22.49h1.85V5h1.15c4.22,0,5.84,4.31,5.84,10.73a20.63,20.63,0,0,1-.9,6.67h1.63a17.22,17.22,0,0,0,1.13-6.67C107.44,8,104.36,4.61,99.74,4.61Z"/><path class="cls-2" d="M100.74,27.46H99.59v-4H97.74v16.7c0,1.91-.16,2.73-.54,3.22v.38h2.91v-.38c-.35-.49-.52-1.31-.52-3.22V27.9h1.15a6.72,6.72,0,0,0,6.57-4.45h-1.63C104.8,26,103.22,27.46,100.74,27.46Z"/><path class="cls-2" d="M119.86,4.61h-4.55V5c.35.49.52,1.25.52,3.22V22.4h1.85V5h2.18c4.46,0,5.07,5.61,5.07,9.86,0,2.47-.23,5.43-1.32,7.45h1.27a12.9,12.9,0,0,0,1.9-7.44C126.78,7.78,123.49,4.61,119.86,4.61Z"/><path class="cls-2" d="M120.86,25.72h-2.18V23.39h-1.85V40.16c0,1.91-.17,2.73-.52,3.22v.38h2.88v-.38c-.35-.49-.51-1.31-.51-3.22v-14h2.18a7.47,7.47,0,0,0,1.06-.11l2.5,10.19c.92,3.76,1.41,5.72.8,7.14v.38h3.61v-.38c-.91-1.91-1.66-3.76-3.05-9.38l-2.11-8.61a6.32,6.32,0,0,0,2.21-2h-1.27A4,4,0,0,1,120.86,25.72Z"/><path class="cls-2" d="M131.58,8.27c0-2,.17-2.73.52-3.22V4.61h-2.91V5c.38.49.54,1.25.54,3.22V22.33h1.85Z"/><path class="cls-2" d="M142.62,31c0,6.1-1.76,11.94-4.64,12.48-3.4.65-5.4-4.79-5.4-13.79V23.32h-1.85v6.31c0,9.92,2.93,14.44,6.43,14.44,3.3,0,5.62-5.55,5.62-13.13V23.27h-.16Z"/><path class="cls-2" d="M142.77,5V4.61h-2.91V5c1.15.38,1.76,3.71,1.76,6.7V22.27h.16V11.15C141.78,8.81,142,6,142.77,5Z"/><polygon class="cls-2" points="159.06 36.89 154.41 23.21 151.98 23.22 158.89 43.76 159.24 43.76 159.24 23.18 159.06 23.18 159.06 36.89"/><path class="cls-2" d="M159.72,5V4.61h-3.14V5c.77.93,1.48,3.76,1.48,6.1v11h.18v-11A13,13,0,0,1,159.72,5Z"/><polygon class="cls-2" points="147.43 4.61 145.06 4.61 146.56 9.08 146.56 22.24 146.73 22.24 146.73 9.57 150.98 22.22 153.41 22.21 147.43 4.61"/><path class="cls-2" d="M147.56,37.22c0,2.34-.7,5.23-1.5,6.16v.38h3.17v-.38c-.8-.93-1.5-3.82-1.5-6.16v-14h-.17Z"/><path class="cls-2" d="M164.28,37.22c0,2.34-.7,5.23-1.5,6.16v.38H166v-.38c-.8-.93-1.5-3.82-1.5-6.16V23.16h-.17Z"/><polygon class="cls-2" points="164.15 4.61 161.78 4.61 163.28 9.08 163.28 22.16 163.44 22.16 163.44 9.57 167.67 22.14 170.1 22.12 164.15 4.61"/><polygon class="cls-2" points="175.77 36.89 171.1 23.12 168.67 23.14 175.61 43.76 175.96 43.76 175.96 23.1 175.77 23.1 175.77 36.89"/><path class="cls-2" d="M176.44,5V4.61H173.3V5c.77.93,1.47,3.76,1.47,6.1v11H175v-11C175,8.81,175.66,6,176.44,5Z"/><polygon class="cls-2" points="188.01 23.7 188.01 23.04 184.66 23.06 188.01 23.7"/><path class="cls-2" d="M181.1,21.12V5h1.64c2.61,0,4.06,3,5.14,5.83l.12-.22-.5-6.05h-8.77V5c.35.49.52,1.31.52,3.22V22.08h1.85v-.51l2.56.5L187,22V19.93Z"/><path class="cls-2" d="M180.25,40.16c0,1.91-.17,2.73-.52,3.22v.38h9.52l.52-6.6-.14-.21c-1.1,3.32-3,6.43-5.63,6.43h-1.9V23.07h-1.85Z"/><path class="cls-2" d="M199.19,25.39A6.51,6.51,0,0,0,201.65,23h-1.32a4.18,4.18,0,0,1-4,2.74H194.2V23h-1.85V40.16c0,1.91-.17,2.73-.52,3.22v.38h2.88v-.38c-.35-.49-.51-1.31-.51-3.22v-14h2.18a7.47,7.47,0,0,0,1.06-.11l2.5,10.19c.92,3.76,1.41,5.72.8,7.14v.38h3.61v-.38c-.91-1.91-1.66-3.76-3-9.38Z"/><path class="cls-2" d="M193.2,5h2.18c4.46,0,5.07,5.61,5.07,9.86A18.1,18.1,0,0,1,199.33,22h1.32A13.57,13.57,0,0,0,202.3,15c0-7.13-3.29-10.3-6.92-10.3h-4.55V5c.35.49.52,1.25.52,3.22V22h1.85Z"/><rect class="cls-212" x="206.44" y="37.61" width="6.01" height="6.01"/></g></g></svg>