<svg xmlns="http://www.w3.org/2000/svg" viewBox="0 0 1005.82 426.51"><defs><style>.cls-1{fill:#fff;}</style></defs><g id="Layer_2" data-name="Layer 2"><g id="Layer_1-2" data-name="Layer 1"><path d="M940.62,174.73l.94-5.67h-.78l.09-.56h-.79l.1-.57h-.79l.1-.56h-.79l.09-.56H938l.09-.56h-.51c-.06-.18-.12-.36-.19-.54v0h0a13,13,0,0,0-4.25-6.3,7.65,7.65,0,0,0-.69-.56,7.34,7.34,0,0,0-.69-.56q-.33-.3-.69-.57c-.22-.19-.45-.38-.69-.56s-.46-.38-.7-.56A7.34,7.34,0,0,0,929,156q-.33-.3-.69-.57c-.22-.19-.45-.38-.69-.56a7.8,7.8,0,0,0-.7-.56q-.33-.3-.69-.57c-.22-.19-.45-.38-.69-.56s-.45-.38-.69-.56a57,57,0,0,1-1.39-1.13c-.22-.19-.45-.38-.69-.56s-.45-.38-.69-.56-.45-.38-.69-.56-.46-.39-.7-.57-.45-.38-.69-.56-.45-.38-.69-.56a7.34,7.34,0,0,0-.69-.56,7.89,7.89,0,0,0-.7-.57c-.22-.19-.45-.38-.69-.56s-.45-.38-.69-.56a7.34,7.34,0,0,0-.69-.56,7.89,7.89,0,0,0-.7-.57c-.21-.19-.45-.38-.69-.56s-.45-.38-.69-.56-.45-.39-.69-.57-.45-.38-.69-.56-.46-.38-.7-.56-.45-.38-.69-.56-.45-.39-.69-.57-.45-.38-.69-.56a7.8,7.8,0,0,0-.7-.56,7.65,7.65,0,0,0-.69-.56q-.33-.3-.69-.57c-.22-.19-.45-.38-.69-.56s-.45-.38-.69-.56a7.46,7.46,0,0,0-.7-.56q-.33-.3-.69-.57a10,10,0,0,0-7-2.48h-5.25c-3.9,0-7.9,1.51-15.6,5.94-9.17,4.17-19.69,11.29-32,21.62l-.12-.1-.69-.56-.69-.56-.7-.56L842,159l-.69-.56-.69-.56-.7-.56-.69-.57-.69-.56-.69-.56-.7-.56c-.23-.2-.46-.38-.69-.57l-.69-.56-.69-.56-.69-.56-.69-.56-.7-.57-.69-.56-.7-.57-.68-.55c-.23-.2-.47-.38-.7-.57l-.69-.56-.69-.56-.69-.57-.7-.56-.69-.57-.69-.55-.69-.57-.7-.56-.68-.56-.7-.57-.69-.56-.7-.56-.68-.56-.7-.57-.69-.56-1.25-1-1.42-1.13-13.12-4.11H800.5c-6.75,0-13.8,3.48-22.57,11.19a18.54,18.54,0,0,0-6.46,4.11l-.11.08a20.22,20.22,0,0,0-6.89,7.71l-.64-.52-.69-.56c-.23-.2-.46-.38-.7-.56s-.46-.38-.69-.57l-.69-.56-.69-.56c-.23-.2-.46-.38-.69-.56s-.47-.38-.7-.57l-.69-.56-.69-.56c-.23-.2-.46-.38-.69-.56s-.46-.38-.7-.57l-.69-.56c-.23-.2-.46-.38-.69-.56s-.46-.38-.69-.56l-.69-.57-.7-.56c-.23-.2-.46-.38-.69-.56s-.46-.38-.69-.57l-.69-.56-.7-.56c-.23-.2-.46-.38-.69-.56l-.69-.57-.69-.56-.69-.56c-.23-.2-.47-.38-.7-.56l-.69-.57-.69-.56-.69-.56c-.23-.2-.47-.38-.7-.56s-.46-.38-.69-.57a25.34,25.34,0,0,0-11.7-5.89l-1.07-.21h-1.5c-4.16,0-8.71,1.4-14.23,4.5l-.32-.3h-.09l-.6-.56h-.09l-.6-.56h-.1l-.59-.56h-.1l-.6-.57h-.09l-.6-.56h-.09l-.6-.56H710l-.59-.56h-.1l-.6-.57h-.09l-.6-.56h-.09l-.6-.56h-.1l-.59-.57h-.1l-.59-.56h-.1l-.6-.56h-.09l-.6-.56h-.09l-.6-.57h-.1l-.59-.56h-.1l-.6-.56h-.09l-.6-.56h-.09l-.6-.57H701l-.59-.56h-.1l-.6-.56h-.09l-.6-.56h-.09l-.6-.57h-.1l-.59-.56h-.1l-.59-.56h-.1l-.6-.56h-.09l-.6-.57h-.09l-.6-.56h-.1l-.59-.56h-.1l-.6-.57h-.09l-.6-.56h-.09l-.6-.56H692l-.59-.56h-3.48l-4.15-2.94L679.23,120H668.49l-2,11.81a49.23,49.23,0,0,1-1.59,5.74l-.52,1.66-.1,3.55a86.07,86.07,0,0,1-2.17,8.35c-.21-.18-.43-.35-.65-.52s-.46-.38-.69-.56-.46-.38-.69-.56-.46-.38-.69-.57l-.7-.56c-.23-.2-.46-.38-.69-.56l-.69-.57-.69-.56-.7-.56c-.23-.2-.46-.38-.69-.56l-.69-.57-.69-.56-.69-.56c-.23-.2-.47-.38-.7-.56s-.46-.38-.69-.57l-.69-.56-.69-.56c-.23-.2-.47-.38-.7-.56s-.46-.38-.69-.57a25.29,25.29,0,0,0-11.7-5.89l-1.07-.21h-1.5c-4.16,0-8.71,1.4-14.23,4.5l-.32-.3h-.09l-.6-.56h-.09l-.6-.56h-.1l-.59-.56h-.1l-.6-.57h-.09l-.6-.56h-.09l-.6-.56H616l-.59-.56h-.1l-.6-.57h-.09l-.6-.56h-.09l-.6-.56h-.09l-.6-.57h-.1l-.59-.56h-.1l-.6-.56h-.09l-.6-.56h-.09l-.6-.57h-.1l-.59-.56h-.1l-.6-.56h-.09l-.6-.56h-.09l-.6-.57H607l-.59-.56h-.1l-.6-.56h-.09l-.6-.56h-.09l-.6-.57h-.09l-.6-.56h-.1l-.59-.56h-.1l-.6-.56h-.09l-.6-.57h-.09l-.6-.56h-.1l-.59-.56h-.1l-.6-.57h-.09l-.6-.56h-.09l-.6-.56H598l-.59-.56H593.9l-4.15-2.94L585.21,120H574.47l-2,11.81a49.23,49.23,0,0,1-1.59,5.74l0,.07h0l.1-.56h-.79l.09-.57h-.78l.09-.56h-.78l.09-.56h-.79l.1-.56h-.79l.1-.57h-.79l.09-.56H566l.09-.56h-19l-.89,1.1h-3l-.23,1.38h-3.43l-3.35,8.53-.26.06.13-.76-.82.19.12-.75-.81.19.12-.75-.82.19.13-.75-.82.19.13-.76-.82.19.12-.75-.81.19.12-.75-.82.19.13-.75-.82.18.13-.75-.82.19.12-.75-.81.19.12-.75-.81.19.12-.76-.82.19.13-.75-.82.19.13-.75-.82.19.12-.75-.81.19.12-.76-.82.19.13-.75-7,1.62-.12-.46-.52.12-.17-.68-.52.11-.17-.68-.52.12-.18-.68-.51.12-.18-.68-.52.12-.17-.69-.52.12-.17-.68-.52.12-.18-.68-8.9,2h-4.79a13.21,13.21,0,0,0-3.14.38,12.29,12.29,0,0,0-2.51-.24h-5.25c-3.91,0-7.91,1.51-15.61,5.94-10.3,4.68-22.29,13.08-36.56,25.58-.49-.44-1-.85-1.48-1.24-.23-.2-.46-.38-.69-.57l-.69-.56c-.23-.19-.46-.38-.7-.56s-.45-.38-.69-.57l-.69-.56-.69-.56-.69-.56c-.23-.2-.46-.38-.7-.57l-.69-.56-.69-.56-.69-.56c-.23-.2-.46-.38-.7-.57l-.69-.56-.69-.56-.69-.56-.69-.57-.7-.56-.69-.56-.69-.57-.69-.56c-.23-.19-.46-.38-.7-.56l-.69-.56-.69-.57-.69-.56-.69-.56-.7-.56c-.23-.2-.46-.38-.69-.57l-.69-.56-.69-.56-.7-.56-.69-.57-.69-.56-.69-.56c-.23-.19-.46-.38-.7-.56l-.69-.57-.69-.56-.69-.56-.7-.57-.69-.56-.69-.56-.69-.56a26.77,26.77,0,0,0-13.41-6.23l-.34-.39-.17,0-.53-.61-.17,0-.52-.6-5.29,1.23h-6.69l-.24-.22h-.07l-.62-.56h-.08l-.62-.56h-.07l-.62-.57H377l-.62-.56h-.07l-.62-.56h-.08l-.61-.56h-.08l-.62-.57h-.07l-.62-.56h-.07l-.62-.56h-.07l-.62-.56h-.08l-.62-.57h-.07l-.62-.56h-.07l-.62-.56h-.07l-.62-.56h-.08l-.62-.57h-.07l-.62-.56H368l-.62-.56h-.07l-.62-.56h-.08l-.61-.57h-.08l-.62-.56h-.07l-.62-.56h-.07l-.62-.57h-.07l-.62-.56h-.08l-.62-.56h-.07l-.62-.56h-.07l-.62-.57h-.07l-.62-.56h-.08l-.62-.56h-.07l-.62-.56H359l-.62-.57h-.07l-.62-.56h-.08l-.61-.56h-.08l-.62-.56H349l-6.55,2.53a15.29,15.29,0,0,0-8.71,8.45c-.3.7-.61,1.52-1,2.6l-.46,1.33h-2.6l-1.27,7.61L326.91,145h-.08l-2.92,10.54c-.08.27-.16.56-.24.85l-.14-.1c-.23-.2-.46-.38-.69-.57l-.69-.56-.69-.56c-.23-.19-.46-.38-.7-.56l-.69-.57-.69-.56-.69-.56c-.23-.19-.46-.38-.7-.56l-.69-.57-.69-.56-.69-.56-.69-.57c-.23-.19-.46-.38-.7-.56l-.69-.56-.69-.56c-.23-.2-.46-.38-.69-.57s-.46-.38-.7-.56-.46-.38-.69-.56l-.69-.56-.69-.57c-.23-.19-.46-.38-.7-.56s-.46-.38-.69-.56l-.69-.56-.69-.57-.69-.56c-.23-.19-.46-.38-.7-.56a31.34,31.34,0,0,0-20.54-7c-10.37,0-21.09,6.48-32.78,19.82l-.4.45-.37.49h0l-.07-.06-.69-.56c-.23-.19-.46-.38-.7-.56s-.45-.38-.69-.57l-.69-.56-.69-.56c-.23-.19-.46-.38-.7-.56s-.45-.38-.69-.57l-.69-.56-.69-.56-.69-.56c5.36-15.09,7-20.12,7.6-22.23l9.22-25.67.15-.59c5.25-20.49,7.36-26.44,8-28l1.3-1.85L272,63.51l-1.38-2.89-.46-1,.2-1.16-1.85-3.14c-1.25-2.12-2.07-3.57-2.6-4.55l.38-2.33-2.4-2.2,1.16-7h-.78l.09-.57h-.78l.09-.56h-.79l.1-.56h-.79l.09-.56h-.78l.09-.57h-.78l.09-.56h-.79l.1-.56h-.79l.1-.56h-.79l.09-.57h-.78l.09-.56h-.78l.09-.56h-.79l.1-.56H256l.09-.57h-.78l.09-.56h-.78l.09-.56h-.79l.1-.57h-.79l.1-.56h-.79l.09-.56h-.78l.09-.56h-.79l.1-.57h-.79l.1-.56h-.79l.09-.56h-.78l.09-.56h-.78l.09-.57h-.79l.1-.56H247l.09-.56h-.78l.09-.56h-.78l.09-.57h-.79l.1-.56h-.79l.1-.56h-.79l.09-.56h-.78l.09-.57h-.79l.1-.56h-.79l.1-.56h-.79l.09-.57h-.78l.09-.56h-.78l.09-.56h-.79l.1-.56H238l.09-.57h-.78l.09-.56h-.78l.09-.56h-.79l.1-.56h-9.63l-.62-.56h-4.91c-6,0-10.94,3.33-14.67,9.88l-.61-.49-.69-.56c-.23-.19-.46-.38-.7-.56s-.45-.39-.69-.57-.45-.38-.69-.56l-.69-.56c-.23-.2-.46-.38-.7-.57s-.45-.38-.69-.56-.45-.38-.69-.56l-.69-.56c-.23-.2-.46-.38-.69-.57s-.46-.38-.7-.56-.45-.38-.69-.56l-.69-.56q-.34-.3-.69-.57c-.23-.19-.46-.38-.7-.56s-.45-.38-.69-.56-.45-.38-.69-.56l-.69-.57c-.23-.19-.46-.38-.7-.56s-.45-.38-.69-.56-.45-.38-.69-.56-.46-.39-.69-.57-.46-.38-.7-.56-.45-.38-.69-.56-.45-.38-.69-.57l-.69-.56c-.23-.19-.46-.38-.7-.56s-.45-.38-.69-.56-.45-.39-.69-.57-.45-.38-.69-.56L184.11,7c-.23-.19-.46-.38-.7-.56s-.45-.39-.69-.57-.45-.38-.69-.56l-.69-.56c-.23-.19-.46-.38-.7-.56s-.45-.39-.69-.57A15,15,0,0,0,169.9,0h-.48c-14.06,0-31.21,12.94-55.59,42A500.2,500.2,0,0,0,75.36,91.42C61,112,56.49,119.77,54.57,123.77c-3.07,4.83-8.07,13.41-15.24,26.17-5.1,8.32-10.92,21.22-17.8,39.42l-1.27,3.37.07.32A19.15,19.15,0,0,0,19,197.57l-.51,3-.08,1.83a16.08,16.08,0,0,0-.65,2.59,11.89,11.89,0,0,0,.14,4.78c0,1.06,0,1.95.05,2.74a16.19,16.19,0,0,0,.48,3c.65,7.27,5.08,16,14.31,28.37a19.19,19.19,0,0,0,4,4l.58.46L38,249l.69.56c.23.19.45.38.69.56s.46.38.7.56l.69.57c.22.19.45.37.69.56s.45.38.69.56l.69.56.7.57c.22.19.45.38.69.56s.45.38.69.56.45.38.69.56l.7.57c.22.19.45.38.69.56s.45.38.69.56l.69.57L49,258c.23.19.46.38.7.56s.45.38.69.56l.69.57.69.56c.23.19.46.38.7.56s.45.38.69.56l.69.57.69.56c.23.19.46.38.7.56s.45.38.69.56l.69.57c.23.19.45.38.69.56s.46.38.7.56.45.38.69.56l.69.57c.23.19.45.38.69.56s.45.38.69.56l.7.57.69.56c.23.19.45.38.69.56s.45.38.69.56l.7.57c.18.15.36.31.56.46A26.23,26.23,0,0,0,69.7,274L43,314a16.51,16.51,0,0,0-5.22,7.49H33.41l-1.88,11.31c-.81,1.28-2.42,3.74-5.6,8.37L2.69,376,0,392.24H.79l-.1.57h.79l-.1.56h.79l-.09.56h.78l-.09.56h.58l-.41,2.45h.79l-.1.56h.79l-.09.56h.78l-.09.57h.79l-.1.56H6.5l-.1.56h.79l-.09.57h.78l-.09.56h.78l-.09.56h.79l-.1.56H10l-.09.57h.78l-.09.56h.78l-.09.56H12l-.1.56h.79l-.1.57h.79l-.09.56h.78l-.09.56h.79l-.1.56h.79l-.1.57h.79l-.09.56h.78l-.09.56h.78l-.09.56h.79l-.1.57H19l-.09.56h.78l-.09.56h.78l-.09.57H21l-.1.56h.79l-.1.56h.79l-.09.56h.78l-.09.57h.79l-.1.56h.79l-.1.56h.79l-.09.56h.78l-.09.57h.78l-.09.56h.79l-.1.56H28l-.09.56h.78l-.09.57h.78l-.09.56H30l-.1.56h.79l-.1.56h.79l-.09.57h.78l-.09.56h3.29v.06h.55l.15.56h.54l.15.56h.54l.15.56h.54l.15.57h.54l.15.56h.55l.15.56H40l.15.57h.54l.15.56H48.8c6.57,0,10.59-4.18,15.08-9.81h2.64l4.34-7c.81-1.31,1.45-2.31,2-3.06l1-.32,2.82-4.33c2.13-3.26,4-6.13,5.76-8.65l2.62-1.9h3.55l4.45-5.6c6-7.55,18.31-25.16,37.63-53.83l1-1.53a61.34,61.34,0,0,0,6.23-9.27q2.13-2.56,4.2-5.42h.56l-.1.56h.79l-.09.57H144l-.09.56h.78l-.09.56h.79l-.1.56h.79l-.09.57h.78l-.09.56h.78l-.09.56h.79l-.1.56h.79l-.1.57h1.94l.1.46.52-.2.17.76.52-.2.18.76.51-.2.18.76.52-.2.17.77.52-.2.17.76.52-.2.17.76.52-.2.18.76.51-.2.18.77.52-.2.17.76.52-.2.17.76.52-.2.18.76.51-.2.18.77.52-.2.17.76.52-.2.17.76,12.15-4.7c.47-.18.93-.38,1.38-.59h6.79l3.28-6.3h.45l-.09.56h.78l-.09.57h.78l-.09.56h.79l-.1.56h.79l-.1.56H188l-.09.57h.78l-.09.56h.78l-.09.56h.79l-.1.56h.79l-.09.57h.78l-.09.56h.78l-.09.56h.79l-.1.56h.79l-.09.57h.78l-.09.56h.78l-.09.56h.79l-.1.56h.79l-.1.57H197l-.09.56h.78l-.09.56h.78l-.09.57h.79l-.1.56h.79l-.09.56h.78l-.09.56h.78l-.09.57h.79l-.1.56h.79l-.09.56h.78l-.09.56h.78l-.09.57h.79l-.1.56h.79l-.1.56H206l-.09.56h.78l-.09.57h.78l-.09.56h.79l-.1.56h2.27a11.47,11.47,0,0,0,4.61,1h10l.42-1h7.51l2-11.95c5.74-13.31,5.87-14.05,6.15-15.75l.09-.58.66-1.55h.16l.4.33.69.56c.23.19.46.38.7.56l.69.57.69.56.69.56.69.56.7.57c.22.19.45.37.69.56l.69.56c.23.19.46.38.7.56l.69.57c.22.19.45.37.69.56l.69.56.69.56.7.57c.22.19.45.37.69.56s.46.38.69.56l.69.56.7.57c.22.19.45.37.69.56a20.7,20.7,0,0,0,7.19,4,23.12,23.12,0,0,0-2.56,6c-.68,2-4.22,11.24-21.45,52.86l-2,4.93,1.87,3.83-1.62,9.72h.79l-.1.57h.37l-.14.54h.47v0h.36l-.14.54h.47v0h.37l-.15.54h.47v0h.37l-.15.55h.48v0h.37l-.14.54h.47v0h.36l-.14.54h.47v0h.37l-.15.55h.84l-.15.55h.48v0H244l-.15.54h.48v0h.37l-.14.54H245v0h.37l-.15.55h.47v0h.37l-.15.54h.47v0h.37l-.15.54h.48v0h.37l-.14.54h.47v0h.36l-.14.55h.47v0h.37l-.15.54h.47v0h.37l-.15.54h.48v0h.37l-.15.54h.48v0h.36l-.14.55h.47v0h.37l-.15.54H252v0h.37l-.15.54h.48v0H253l-.15.54h.48v0h.37l-.14.55H254v0h.37l-.15.54h.47v0h.37l-.15.54h.47v0h.37l-.15.55h.84l-.14.55h.47v0h.36l-.14.54h.47v0h.37l-.15.54h.47v0h.37l-.15.55h.48v0h.37l-.15.54h.48v0h.36l-.14.54h.47v0h.37l-.15.54H261v0h.37l-.15.55h.48v0H262l-.15.54h.48v0h.37l-.14.54H263v0h.37l-.15.54h.47v0h.37l-.15.55h.47v0h.37l-.15.54h.48v0h.37l-.14.54h.47v0h.36l-.14.54h.47v0h.37l-.15.55h.84l-.15.56h2.73l-.14.52h.84l-.15.56h.84l-.15.57h.84l-.15.56H294.7l.76-1.66h1.42l2.58-2.76h2.64l4.41-6.51a31.71,31.71,0,0,0,3.84-7.45c.18-.31.35-.63.5-1h1.39L316,394.94a31.19,31.19,0,0,0,3.51-8.12,22.93,22.93,0,0,0,1.54-3.4h3.09l2-11.78a15.48,15.48,0,0,0,1.51-3.69h2.73l2-11.81,2.54-5.74c5.91-13.36,10.91-25.43,14.91-36,2.72-1.13,7-2.84,13.59-5.42l.5-.19.5-.24c7.64-3.65,14.55-7.21,20.81-10.71v.18h.71l0,.57h.71l0,.56h.71v.56h.71l0,.56h.71l0,.57h.71l0,.56H390V302h.7v.57h.71l0,.56H392l0,.56h.71l0,.56h.71v.57h.71l0,.56h.71l0,.56h.71l0,.56h.71v.57h.71l0,.56h.71l0,.56h.71l0,.56H399v.57h.7v.56h.71l0,.56H401l0,.56h.71l0,.57h.71v.56h.71l0,.56h.71l0,.57h.71l0,.56h.71v.56h.71l0,.56h.71l0,.57h.71l0,.56H408v.56h.7v.56h.71l0,.57H410l0,.56h.71l0,.56h.71v.56h.71l0,.57h.71l0,.56h.71l0,.56h.71v.56h8.35l.36.3h0l.69.56h0l.69.57h0l.68.57h0l.69.56,6-1.64a19.21,19.21,0,0,0,7.31-3.72,19.83,19.83,0,0,0,6.51-8,53.47,53.47,0,0,0,3.3-9.8l1.1-4.34c.75-2.24,1.1-3.18,1.24-3.53l.52-1,.37-1.39c.56-2.18,1.22-4.4,1.95-6.67l.25.23.24.22q2.26,1.95,4.29,3.58l.69.57.69.56.7.57.69.56.69.56.69.56.7.56.69.57.69.55c.23.2.47.39.7.57l.69.56.69.57.69.56.69.56.7.56.68.56.7.57.69.56.7.56.68.56.7.57.69.56.69.56.7.57.69.56.69.56.69.56.7.57.69.56.69.56.7.57.69.56.69.56.69.56.69.57c.24.19.47.37.69.56l.69.56.7.57.69.56.69.56.69.56C499,321,504.92,323.07,510,323.07h12l.31-1.84c7-2.61,14.16-8.08,21.63-16.64l.41.11-.05.35.75.22-.06.34.75.22-.06.34.75.22-.06.35.75.21-.05.35.75.22-.06.34.75.22-.06.35.75.21-.06.35.75.22-.05.34.75.22-.06.34.75.22-.06.35,6.22,1.8,4.09,2,1.84.93.25.31h.23l.46.56h.23l.47.57h.22l.47.56h.23l.46.56h.23l.46.56h.23l.47.57H568l.47.56h.23l.46.56h.23l.46.56h.23l.46.57h.23l.47.56h.22l.47.56h.23l.46.57h4.8l.38.31h0l.69.56h0l.69.57h0l.69.57h0l.69.56h0l.68.56,14.22-10.08,4.85-9.9h.22l-.1.56h.79l-.1.57h.79l-.09.56h.78l-.09.56h.78l-.09.56H604l-.1.57h.79l-.09.56h.78l-.09.56h.78l-.09.57h.79l-.1.56h.79l-.1.56h.79L608,313h.78l-.09.57h.79l-.1.56h6.67l-.06.36h.78l-.09.56h.79l-.1.57h.79l-.1.56h.79l-.09.56h.78l-.09.56h3.91c.34.1.69.19,1,.27l3.32.76,1.09-.37,12.8,4.11,1.6-9.67a23.19,23.19,0,0,0,1.8-2.09l.22.06-.06.35,6.22,1.8,4.09,2,1.84.93.25.31h.23l.46.56h.23l.47.57h.22l.47.56h.23l.46.56h.23l.46.56h.23l.47.57H662l.47.56h.23l.46.56h.23l.46.56h.23l.46.57h.23l.47.56h.22l.47.56h.23l.46.57h4.8l.38.31h0l.68.56h0l.69.57h0l.69.57h0l.69.56h0l.68.56,14.22-10.08,4.85-9.9h.21l-.09.56h.79l-.1.57h.79l-.09.56h.78l-.09.56h.78l-.09.56H698l-.1.57h.79l-.09.56h.78l-.09.56h.78l-.09.57h.79l-.1.56h.79l-.1.56h.79l-.09.56h.78l-.09.57h.78l-.09.56h6.67l-.06.36h.78l-.09.56h.79l-.1.57h.79l-.1.56h.79l-.09.56h.78l-.09.56h3.91c.34.1.69.19,1,.27l3.32.76,1.09-.37,12.8,4.11,1.6-9.67a28.53,28.53,0,0,0,4.73-6.75c.13.11.29.22.43.32s.45.38.69.57.45.38.69.56.46.38.69.56.46.38.69.56.46.38.7.57.45.38.69.56.46.38.69.56.46.38.69.57l.7.56c.22.19.45.38.69.56s.45.38.69.56a20.44,20.44,0,0,0,10.14,4.5c11.11,5.33,15.92,6.45,19.63,6.45h2.27l2.24-.82a46.93,46.93,0,0,0,15.27-8.95l1.58-1.4,1.12-1.75c.21-.34.41-.64.61-.95v.11h.71v.56h.71l0,.56H805l0,.56h.71l0,.57h.71v.56h.7v.56h.71l0,.57h.71l0,.56h.71l0,.56h.71v.56h.71l0,.57h.71l0,.56h.71l0,.56h.71v.56h.71l0,.57H814l0,.56h.71l0,.56h.71v.56h.7V320h.71l0,.56h.71l0,.56h.71l0,.56h8.35l.36.3h0l.69.56h0l.69.57h0l.68.57h0l.68.56,6-1.64a19.21,19.21,0,0,0,7.31-3.72,19.74,19.74,0,0,0,6.5-8,53.38,53.38,0,0,0,3.31-9.8l1.1-4.34c.75-2.24,1.1-3.18,1.24-3.53l.52-1,.36-1.39c3.37-12.94,9.68-27.57,18.75-43.48,4.79-7.78,11.79-16.34,20.8-25.44l.15-.15.15-.16c3.75-4,9.75-9,17.84-14.89,5.81-3.16,11-6.27,14.44-10.1a37.23,37.23,0,0,0,7.77-7.48h2.71l2-11.82A12.37,12.37,0,0,0,940.62,174.73ZM142.89,149.82l-.07.41h.72l0,.15-.07.41h.79l-.09.56H145l-.09.57h.79l-.1.56h.79l-.1.56h.79l-.09.57h13.3l-.3,1.06c-.28,1-.54,1.89-.76,2.68l-11.88,33.52-.28-.22c-.23-.19-.46-.38-.7-.56s-.46-.38-.69-.56L145,189l-.69-.57c-.23-.19-.46-.38-.7-.56s-.45-.38-.69-.56l-.69-.56-.69-.57c-.23-.19-.46-.38-.7-.56s-.45-.38-.69-.56l-.69-.57-.69-.56-.69-.56c-.23-.19-.46-.38-.7-.56-4.38-3.69-9.87-5.72-12.55-6.71L123,175.4h-2c-1.42,0-2.89.08-4.4.22l3.11-5.32h-1l.33-.56h-1l.33-.56h-.82q5.37-8.85,12-18.53l.13.14,5.78-6.75h.59l0,.15-.07.41h.72l0,.16-.07.41h.72l0,.15-.07.41H138l0,.15-.06.41h.72l0,.15-.07.41h.72l0,.16-.07.41h.72l0,.15-.07.41h.72l0,.15-.06.41h.72l0,.15-.07.41h.72l0,.16-.07.41h.72Z"/><path class="cls-1" d="M122.51,107.8l1.52-1.1h.48c-.28,1.65,1,4.33,3.72,8q4.2,0,3.63,3.45h.48q3-.55,24-39.09,4.15-5.52,9.54-18.36,9.34-14.93,11.06-25.28l.29-4c.25,0,.42-.23.49-.69q-2.87-18.93-9.74-18.92h-.48q-13.94,0-44.87,36.87a484,484,0,0,0-37.5,48.2q-17,24.45-20,31.08-4.23,6.48-15.48,26.51-6.91,11.19-16.78,37.29l.27,1.24A13.26,13.26,0,0,0,31,197.57l-.39,2.35-.19,4c-.32,0-.54.36-.66,1.1-.06.37.07.55.38.55-.19,3.87-.07,5.8.38,5.8q-.37,7.47,12.5,24.72,2.18,3,8.39,5.25,12.5,0,37.53-12.15,22.13-11.46,27.77-11.46h.47l-.09.55q-3.6,8.43-14,25.83L55.76,315l.29,1.1c-2.91,4.51-4.41,7-4.48,7.46h-1l.66-1.11.09-.55h-.47c-1,.55-1.52,1.11-1.61,1.66l-.1.55h1.34l-.09.55q-5.35,8.7-7,8.7L43.17,335q-.15,1-7.46,11.6L14.24,378.77,14,380.43h1.43l3.14-2.21a19.6,19.6,0,0,0-.19,4q-.86,0-1.14,1.11l-.3,1.79h1c.57,0,.93-.41,1.06-1.24l.84.69h1q3.56-4.14,3.84-4.14c.63,0,.88.41.74,1.24-2.28,2.67-3.56,4.79-3.82,6.36l-.09.55.29,1.1q.67,0,5.64-6.35,2-3.45,4.3-3.45,4.69-7.61,5.91-8,13.06-20,19.76-27.07,5.15-9.12,8.31-10.91-.25,1.51-14.23,21.27l-.18,1.1a7,7,0,0,1,3.52-1.66q8.57-10.77,36.94-52.89l.19-1.11H90.5l-2.28,2.21Q76.33,319.25,76.1,320.63H74.67l.37-2.21,17.67-26A83.07,83.07,0,0,0,98.63,285H99q-1.44,4-8.78,14.36l2.08,1.24q5.82-7.46,6.12-9.25a112.83,112.83,0,0,0,12.13-17.26l.86.55h.48a119.58,119.58,0,0,1,8.69-16.71q14.61-23.62,16.88-37.29l.39-2.35q-3.39-14.64-6.39-20.17,1-5.93-12.51-10.91-10.21,0-26.53,6.91-24.75,13.4-45.73,19.61l1-3.45a12.12,12.12,0,0,1-.08-4.7l.18-1.1h-.48a27.86,27.86,0,0,1,1.44-5.8q9-26.25,16.6-33.29l-.27,1.66H66q.14-.83,4.66-8.56c-.32,0-.44-.19-.38-.56l-1,.56a4.69,4.69,0,0,0-.18-1.8Q80.47,135,100.36,107.8l1.13,1.24q7.11-8.28,12.33-15.6l.09-.55c-1.27,0-1.78-.74-1.54-2.21q1-3,9.65-13.26Q143.31,52.7,145,52.7q11-12.16,12.14-12.16h.47q-1.14,6.91-35.41,66.16ZM66.07,333.33l.18-1.1c3-5.62,5.42-8.89,7.17-9.81h.47Q73.65,324,66.07,333.33Zm141.24-63.67-.25,1.52h-.76l.07-.41C206.55,270,206.87,269.66,207.31,269.66Zm7.94-22.51H216l-4.52,12.29h-.76l.09-.55Q211.95,256.69,215.25,247.15Zm20.32-75.27q-8.26-25.55-19.14-25.55h-3.15q-7.08.71-22.87,15.89l.18-1.11q20.31-56.21,20.75-58.83l9.22-25.69Q227.9,48,230.13,44.82l.26-1.52q-1.84-3.86-1.73-4.55-4.47-7.6-4.35-8.29c-1.6-1.47-2.36-2.49-2.26-3a2.42,2.42,0,0,0-1.15.55l-1.24-1.1h-.77q-3.34,0-9.33,24.58h-.38l.12-3h-.67l-.25,1.52q-8.34,29-25,73.34Q172.61,154.49,171.68,156q-3,10.77-3.6,10.77l-33.23,93.78,0,1.93c-.19,0-.27-.13-.22-.41a19.93,19.93,0,0,0-3.08,7.59h1q-2.23,7.18-2.49,8.71a11.29,11.29,0,0,0,0,4.14c.51,0,.82-.32.92-1,1.84,1.57,2.73,2.58,2.65,3a3.91,3.91,0,0,0,2-1.1c.74,2.39,1.37,3.59,1.88,3.59a4.82,4.82,0,0,0,3-1.52l.67.55a5.08,5.08,0,0,1-.63,1.52,4.13,4.13,0,0,0,.13,1.52q3.57-1.38,10.55-21h.38l-.09.55q-2.26,7.32-7.06,18.92h.67q2.81-5.39,12-31.21h1.72l1.72.55-.54,1q-.16,1,.6,1,1.24-.54,6.82-15.74,10.92-24.45,18.62-37.43,17.65-29.28,33.32-36.87,1.15,0,1,1l-1,6.22q-3.26,19.6-23.17,71.12-4.64,10.64-15.12,39.92h.38l.74-.42a58.62,58.62,0,0,1-2,8.15q0,1.8,4.11,5.11c.44,0,1.31-1,2.6-3h.29c-.25,3.41,0,5.11.58,5.11h.77l6.74-15.33.06-2.07c1.45-1.47,2.65-3.87,3.58-7.18H200q-.59,3.45-7.4,21a5.17,5.17,0,0,1,.23,2.63h.76l.28-1.66q5.73-13.26,5.89-14.23c-.25,0-.35-.18-.29-.55l5.83-13.81q9.1-22.65,22.61-61.46h.38l-.07.42q-.57,3.45-11.88,35.35l-.09.55q1,0,3.45-8.14,12.47-32.6,15.75-52.35A46.74,46.74,0,0,0,235.57,171.88Zm-80.3,87h-.38l.06-.41,1-3.59h.67A30.16,30.16,0,0,0,155.27,258.89Zm45.57,17.54h-1.05a15.88,15.88,0,0,1,2.09-6.21c.25,0,.35.18.29.55l.76-.55h.38A24.92,24.92,0,0,0,200.84,276.43Zm79.33-26.51c.17-.65.45-1,.83-1l-.09.55c-.09.55-.36.83-.8.83Zm-8,12a5,5,0,0,1,.51-1.38l.09-.55a12.49,12.49,0,0,0-4.27,2.76q.19-1.25,9.1-12.84,8.52-12.85,8.81-12.85,4.77-8.56,7.28-11H294l-.07.42q-.27,1.65-8.24,15.19l-.1.55.76-.55q2.6-4.14,3.27-4.14,4.26-7.32,4.65-7.32,11.5-21.55,13-30.39c-.19,0-.27-.14-.22-.41q.76,0,2.17-7.32.88-13.4-.64-13.4-4.11-32.18-25.49-32.18-9.16,0-22.11,14.78-12.3,16.58-13.06,21.13-3.74,5.25-10.42,22.51c-.1.65.07,1,.51,1h.29q3.47-5.94,3.87-6.08h.67a18.88,18.88,0,0,0-.93,3.32q-16.71,28.17-19.58,45.43c.2,0,.11,1.85-.24,5.53a.43.43,0,0,0-.46.41c0,1.29.1,1.94.35,1.94Q220.66,264,229.58,277q5.86,10.63,12,10.63h1.91q6-2.07,7.34-4.56,10.62-6.48,21.41-19.75A4.14,4.14,0,0,0,272.17,261.93Zm33.27-63c.44,0,.62.28.53.83s-.39,1-.83,1h-.29Zm-4.39,11.47c.77-1.57,1.31-2.35,1.63-2.35l-.23,1.38a6,6,0,0,0-1.06,2.35h-.57Zm-4.18,9.66a8.24,8.24,0,0,1,1.86-3.72l-.15-.83a5.78,5.78,0,0,0,1.5-3.32h1q-3,8.29-4.24,8.29Zm-32.31-17.54h.57l-.09.56a13.26,13.26,0,0,1-3.17,4.14h-.38C263.44,204.66,264.47,203.1,264.56,202.54Zm-9.74,52.9q-11.38,10.5-17.55,12h-2.86v-2.35q4.36-26.24,35.14-66.16l-.13-1-3.48,3.73.09-.56q1.38-3.72,20-24.72c-.17-1.29-.7-1.93-1.59-1.93l.07-.42,2.08-2.76.07-.41a4.74,4.74,0,0,1-1-3.73l.06-.42a12.44,12.44,0,0,1,3.77-1.38q5.61.69,5.49,1.38,5.44,0,3.77,10.09h-.38l.08,1.79a81.73,81.73,0,0,1-2,8.29q-6.86,20-16.43,34Q274.14,232.79,254.82,255.44Zm36.64,75.41-.28,1.65h-.66l.09-.55C290.79,331.21,291.08,330.85,291.46,330.85Zm-15.88,37.56-.09.56-.84,2.76H274C274.6,369.52,275.14,368.41,275.58,368.41Zm10.61-26h.67l-.09.55c-.12.74-.41,1.11-.85,1.11Zm-7.41,18.78-.09.55c-.25,1.48-1.28,3.69-3.11,6.63l.28-1.65C277.55,363.07,278.53,361.23,278.78,361.23Zm2.25-5.52-.09.55c-.62,2.21-1.15,3.31-1.6,3.31l.09-.55C280.05,356.81,280.59,355.71,281,355.71Zm1.51-3.32-.19,1.11c-.56,1.47-1,2.21-1.32,2.21l.19-1.11C281.78,353.13,282.22,352.39,282.54,352.39Zm2.82-6.63L285,348h-.67l.18-1.1C284.69,346.13,285,345.76,285.36,345.76Zm79.35-121.53h1c-.12.74-.41,1.1-.85,1.1h-.29Zm-26.27-74h-.67l1.12-5h.66ZM270.22,380.57l-.09.55a14.63,14.63,0,0,1-2.54,5.52h-.38l.09-.55Q269.54,380.71,270.22,380.57ZM340,144.12h-.57l.28-1.65h.57Zm64.53,14.37q-7.82-12.15-17.26-12.16c-.06.37-.22.56-.48.56a1.56,1.56,0,0,1-1.24-.56l-2.38.56q-6.88,0-14.86,5Q359,154.76,355.87,159h-.28l.27-1.66q.72-4.27,4.57-16a11.55,11.55,0,0,0-3.28-6.07Q354.26,132,353.4,132a16,16,0,0,0-3.28-4.42h-.66l-4.29,1.66q-.37,0-3.09,8.84-5.06,21.27-7.47,24.86a60.65,60.65,0,0,0,1.68-6.08h-.67q-4,14.64-14,42.54-5.41,17.13-6.46,18.78l.2,1.11-.18,1.1q-1.14.55-5.92,13.26c.44,0,.6.37.48,1.1l-.18,1.11c-1.15.37-1.9,1.66-2.27,3.87q-6.12,15-13.5,35.35l-.19,1.11.11,1.1a98.91,98.91,0,0,0-6.87,15.47l.39,1.66-.09.55q-7,16.15-11.73,28.73c-1.83,2.94-2.8,4.78-2.93,5.52q-.39,2.34-22.06,54.69a6.93,6.93,0,0,1,1,3.87H252a7.56,7.56,0,0,1,1.8-2.76c.44,0,.6.36.48,1.1l-.74,2.76h.66a6.39,6.39,0,0,1,2-3.86h.29l-.09.55-1,1.66-.27,1.65h.67q.22-1.38,5.17-11h.29l-.09.55a32.22,32.22,0,0,1-2.35,6.63c-.06.36.14.55.58.55l-.27,1.66-1,3.86h.38q8.24-18,8.95-18.23c.44,0,.61.37.48,1.11a100.15,100.15,0,0,1-3.94,9.94c.14,1.11.36,1.66.68,1.66a21.66,21.66,0,0,0-1.31,3.87h.38a20.7,20.7,0,0,0,2.92-5.53q6.12-14.36,6.68-14.36,4-11.06,4.8-11,16.86-43,21-48.06l-.37,2.21a91.4,91.4,0,0,0-4.41,10.49l-.1.56h.39q10.38-23.49,16.71-40.88,2.94-1.67,20-8.29,30.06-14.37,45.06-27.07,29.63-26.1,33.73-50.82Q412.63,181.69,404.55,158.49ZM284.43,335.27a29.14,29.14,0,0,1-1.79,4.42h-.28l.09-.56c1-3.31,1.72-5,2.16-5Zm24.39-49.17q-.12.69-3.66,9.94l-.48-.55a69.71,69.71,0,0,1,5.07-12.7l.57.55Q309.2,286.1,308.82,286.1ZM398.59,180q-1,5.81-10.74,21-8,10.64-22.18,23.2l1.71-.55h.38q-.09.54-6.54,5.52c-.71,0-1-.37-.87-1.11q-1.34,0-9.69,6.63l.1,1.11-.09.55h-.29q-16,9.94-26.25,13.81h-.38l.09-.55Q328.66,239,340,206.55q1.18-7.19,18.58-19.34,11.91-8.55,29.22-12.15,6.11,0,7.36,1.66l.76-.55q3,1.94,2.88,2.76ZM272.86,374.49l-.19,1.11c-.12.73-.4,1.1-.85,1.1l.18-1.1C272.25,374.86,272.54,374.49,272.86,374.49Zm-1.6,3.87-.18,1.1c-.13.74-.41,1.11-.86,1.11l.19-1.11C270.59,378.72,270.88,378.36,271.26,378.36ZM552.62,158.9l-.16,1c-.12.74-.41,1.1-.85,1.1l.18-1.1C552,159.23,552.24,158.9,552.62,158.9Zm.7-2.48h.38l-.09.55a5.08,5.08,0,0,0-.63,1.52c-.45,0-.61-.37-.49-1.11S552.94,156.42,553.32,156.42Zm9.48,5-.34,2.07,0,2.49c-.45,0-.61-.37-.49-1.11l-.76.55h-.38l.09-.55a7.83,7.83,0,0,0,1.25-3.45Zm-4.7,14c.51,0,1.33-1.48,2.45-4.42.1-1.75.17-2.77.22-3h.67l.09-.55-.22-1-.76.55,0-2.48a43.41,43.41,0,0,0,2.22-7.05l-1.56-1q-.66,0-3,5.93c-.25,0-.36-.13-.31-.41h-.38q-3.6,7.88-4,7.87h-.38q3.67-9.52,3.91-10.91l.07-.41c-.74.18-1.58,1.84-2.55,5l-.67-.55a36,36,0,0,1,3.63-6.91l.34-2.07-.22-1c-.44,0-.77.65-1,1.94h-.38l.16-1h-1l-.09.55.51,1.52-.07.42q-.94,0-3.68,5.52a6.92,6.92,0,0,1-2.93,5c.06-.36-.13-.55-.58-.55l.33-1.93,1.64.41.17-1a1.86,1.86,0,0,1-1-.41,39.77,39.77,0,0,1,3.69-9.53l-.42-1.52.07-.41,1.24-3.46,0-2.48h-1a5.53,5.53,0,0,1-1,1.93c-.44,0-.5-1-.16-3h-.38L550.11,147,539.42,172.3H539l.07-.42c1.6-4.69,2.57-7,2.88-7a146.34,146.34,0,0,1,6-17.4h-.76q-22.47,57.18-41.75,90.46-16.72,27.21-27.95,33.84-1.08-1-1.25-11.47l.55-1a4.15,4.15,0,0,1-.06-1.94l1.23-7.45.8-2.49c-.26,0-.3-.51-.13-1.52l.34-2.07,1-1.38.09-.55q2.21-13.26,13-41.3,2.85-8.56,3.95-8.84,12.42-29.42,16.43-36.87l-.22-1q-2.86-3.45-2.7-4.42l-1.79.41c-.93-1.65-1.81-2.48-2.64-2.48h-1.05l-.76.55-.64-2.48a39.94,39.94,0,0,1-5,1c-.31,0-.71-.32-1.17-1-.64,0-1.13.82-1.46,2.48a11.87,11.87,0,0,0-3,3.45l-.2.45-.16,0,.07-.42.8-1.38c-.78-2.94-1.36-4.42-1.75-4.42a21,21,0,0,1-4.43.83l-.82-.83q-1.8,0-9.41,4.42Q463,156.29,441.77,175.2q-8.28,6.77-22.12,25.13-4.32,6.49-10.71,17.41-11.15,22.78-23.15,59.52c-.11.65,0,1,.41,1h.38l.64-.42,1.69,3q8.67,4.69,8.65,5.39a2.08,2.08,0,0,0,1.31-.42l2.19,1.8q2-.56,2.13-1.38,2.21,0,4.69-9.81c-.19,0-.27-.14-.22-.41q2.76-8.56,3.46-9.95,5.53-21.25,20.21-46.95,8.12-13.26,23-28.31,6.86-7.32,20.84-17.41,4.47-2.42,7.27-4.24-3.85,8.66-5.49,13.08l-.09.55h.66q4.48-10.36,6-14.39a19.23,19.23,0,0,0,2.49-2A329.14,329.14,0,0,0,469,209.59q-1.62,0-9.47,36.32a120.21,120.21,0,0,0-1.17,13.4l-.09.55q-1,0,0-12.43l.09-.55h-.66q-1.86,11.19.16,17.4-.85,5.12,5.44,10.91,14.46,12.44,19.61,12.43c.06-.37.18-.55.38-.55l2,.55q16.8,0,42.62-45.71,18.07-35.22,30.37-65A4.12,4.12,0,0,0,558.1,175.34ZM554,164.84a21.26,21.26,0,0,1-1.81,4.56l-.57-.55Q553.54,164.85,554,164.84Zm-3.33,12a24.51,24.51,0,0,1-1.41,3.86H549l.32-1.93a6.14,6.14,0,0,0,1.08-2.49h.38Zm.83-1h-.67l.09-.55a1,1,0,0,1,.83-1Zm-78.14,15.33h-.29l.09-.55c.83-1.94,1.44-2.9,1.82-2.9h.38l-.07.41C474.34,190.21,473.69,191.22,473.38,191.22Zm-3.62,11.46-.7,2.49h-.67l.7-2.49ZM463.87,222h-.76l.09-.55a117,117,0,0,1,3.47-12.3h.67Q464.33,219.27,463.87,222ZM631.05,172.3c-.09.55-1.09,1.43-3,2.62h-.38C628.58,173.17,629.72,172.3,631.05,172.3Zm12.79,20.16.56-1.1-.69-.42q-.68,0-4.69,12.71c-2.43,3.13-3.67,4.88-3.74,5.25q-.28,1.78-11,28.17-3.24,9.12-8.24,20.86-8.07,23.9-10.93,23.89h-.77c.13-.74,0-1.11-.48-1.11a5.56,5.56,0,0,0-.66,1.66l-1.72-.55-1.62.55c-2.82-.64-4-2.44-3.49-5.38H596c-.51,0-.85.55-1,1.65h-.66l.18-1.1q.46-2.76,34.45-92.54.33-1.92,3.16-12.7h-1.05l1.4-2.07c.12-.74,0-1.11-.49-1.11q-11.43,9.67-14.41,13.81h.38l8.49-7.45h.38l-.09.55a182.49,182.49,0,0,0-15.9,16.43q-4.38,5.11-16,21.27l.09-.55a252,252,0,0,1,14.5-21.27l.1-.55h-.29q-.16,1-6.48,8-.12.69-5.54,6.9a492.2,492.2,0,0,0-35.5,65.47l-.07.41q1,0,6.23-11l6.43-12.29H575l-.09.55-17.74,36.19-2.93,2.07-.67-.55a13.47,13.47,0,0,1-3.05.55q-2.62-3.18-11.26-7.46.15-1-3.67-2.07l.09-.55q1-6.07,29.41-84,15.28-39.23,17.33-51.52l.08-2.76a62.14,62.14,0,0,0,2-7.46h1.81a2.72,2.72,0,0,0,1.5-.41,4.25,4.25,0,0,0,2.13,1,2.42,2.42,0,0,1,1.15-.55,43.5,43.5,0,0,1,4.26,5.39q2.67,0,3.1,3.18,2.28,0,4.64,5.38l-.53,3.18a95.64,95.64,0,0,1-5.45,19.61q-1.73,5.81-2.4,5.8a4.35,4.35,0,0,1-.13-1.52h-.38c-.18,1.11-1.11,3-2.77,5.8l-.19,1.11c.26,0,1.38-1.61,3.38-4.84l.58.56h.38q.18-1.11,13.08-14.37,17.64-14.91,24.14-14.91h.38Q640.41,147.58,648,159c.77,0,1.68,1.75,2.76,5.25,1.33,3.86,1.87,6.54,1.63,8h-.77c0-2.49-.3-3.73-.81-3.73l-.18,1.1a7.12,7.12,0,0,1,.23,3.18l-.43,2.63c-.06.36-.22.55-.47.55a4.08,4.08,0,0,1,.12,1.52,18.56,18.56,0,0,1-1.56,4.83l.2,1.11q-1.92,6.9-2.68,6.9l-.57-.55c-.13.74-.31,1.1-.57,1.1l.22,1c-.6,2.12-1.16,3.18-1.67,3.18Zm-9.17,20.17h.66l-.18,1.1c-.12.74-.41,1.11-.85,1.11Zm-2,5.38h.76l-.25,1.52h-.77Zm-54.84,25-.25,1.52h-.76l.09-.55C577,243.33,577.35,243,577.79,243Zm1.77-3.73c1.61-3.59,3.11-6.08,4.48-7.46l-.09.56a83,83,0,0,0-3.82,7.45h-.67Zm11.74-20.16h.39l-.07.41q-7.11,12.3-7.58,12.29l.28-1.65A53.42,53.42,0,0,1,591.3,219.12ZM726.65,218h.76l-.25,1.52h-.77Zm2-5.38h.66l-.18,1.1c-.12.74-.41,1.11-.85,1.11Zm-3.62-40.33c-.09.55-1.09,1.43-3,2.62h-.38C722.6,173.17,723.74,172.3,725.07,172.3Zm13.35,19.06-.69-.42q-.68,0-4.69,12.71c-2.43,3.13-3.67,4.88-3.74,5.25q-.28,1.78-11,28.17-3.24,9.12-8.24,20.86-8.07,23.9-10.93,23.89h-.77c.13-.74,0-1.11-.48-1.11a5.56,5.56,0,0,0-.66,1.66l-1.72-.55-1.62.55c-2.82-.64-4-2.44-3.5-5.38H690c-.51,0-.85.55-1,1.65h-.66l.18-1.1Q689,274.78,723,185q.33-1.92,3.16-12.7h-1l1.4-2.07c.12-.74,0-1.11-.49-1.11q-11.43,9.67-14.41,13.81H712l8.49-7.45h.38l-.09.55a182.49,182.49,0,0,0-15.9,16.43q-4.38,5.11-16,21.27l.1-.55a252,252,0,0,1,14.5-21.27l.1-.55h-.29q-.16,1-6.48,8-.12.69-5.54,6.9a492.2,492.2,0,0,0-35.5,65.47l-.07.41q1,0,6.23-11l6.43-12.29H669l-.09.55-17.75,36.19-2.92,2.07-.67-.55a13.47,13.47,0,0,1-3.05.55q-2.62-3.18-11.26-7.46.15-1-3.67-2.07l.09-.55q1-6.07,29.41-84,15.28-39.23,17.33-51.52l.08-2.76a62.14,62.14,0,0,0,2-7.46h1.81a2.72,2.72,0,0,0,1.5-.41,4.25,4.25,0,0,0,2.13,1,2.44,2.44,0,0,1,1.14-.55,42.54,42.54,0,0,1,4.26,5.39c1.79,0,2.82,1.06,3.11,3.18q2.28,0,4.64,5.38l-.53,3.18a95.64,95.64,0,0,1-5.45,19.61q-1.73,5.81-2.4,5.8a4.12,4.12,0,0,1-.13-1.52h-.38q-.27,1.67-2.78,5.8l-.18,1.11c.26,0,1.38-1.61,3.38-4.84l.58.56h.38q.18-1.11,13.08-14.37,17.64-14.91,24.14-14.91h.38Q734.43,147.58,742,159c.77,0,1.68,1.75,2.76,5.25,1.33,3.86,1.87,6.54,1.63,8h-.77c0-2.49-.3-3.73-.81-3.73l-.18,1.1a7.12,7.12,0,0,1,.23,3.18l-.43,2.63c-.06.36-.22.55-.48.55a3.91,3.91,0,0,1,.13,1.52,18.56,18.56,0,0,1-1.56,4.83l.2,1.11q-1.92,6.9-2.68,6.9l-.57-.55c-.13.74-.31,1.1-.57,1.1l.22,1c-.6,2.12-1.16,3.18-1.67,3.18l.44-2.63ZM671.81,243l-.25,1.52h-.77l.1-.55C671.06,243.33,671.37,243,671.81,243Zm1.77-3.73q2.42-5.39,4.48-7.46l-.09.56a83,83,0,0,0-3.82,7.45h-.67Zm11.74-20.16h.39l-.07.41q-7.11,12.3-7.58,12.29l.27-1.65A53.81,53.81,0,0,1,685.32,219.12Zm90.34-57.18h-.38l.09-.55c.08-.46.77-1.15,2.06-2.07h.39l-.19,1.1C777.25,160.42,776.59,160.93,775.66,161.94Zm47.61,7.6q1.38-8.29-13.21-19.89l-9.71-3h-1.81q-5.35,0-15.64,9.67-3.64.69-3.87,2.07h1.05l-15.94,17.82c-1.17,2-1.94,3-2.32,3q-7.67,10.5-7.87,11.74h-.76l.25-1.52a44.63,44.63,0,0,0-6.16,10.09l-.09.55.76-.55q1.81-4,3.31-5l-.07.42c-1.29,2.39-2.09,3.59-2.41,3.59q-5.1,12.28-6.24,12.29l-.16,1,.22,1A54.7,54.7,0,0,0,738,223.54l-.26,1.52H737q.69-4.16,5-13.26h-.28q-4.14,6.49-8.9,21.4l-.25,1.52c-.11.65.09,1,.6,1-.06.37-.22.55-.47.55-.11.65.06,1,.5,1a6.6,6.6,0,0,1-.53,1.52l.1,1.1-.92,1.52-.76,4.56A13.9,13.9,0,0,0,728,252l.22,1a5.08,5.08,0,0,1-.63,1.52q-2,11.88.48,18.37-1.26,7.61,8.39,8.7,12.45,6.09,16.27,6.08a32,32,0,0,0,10.45-6.08q7.49-11.73,8.64-11.74a4.38,4.38,0,0,0-.13-1.52,22.82,22.82,0,0,1,2.88-4.14c.09-.55-.11-.87-.6-1h-.67l-1.91.56.09-.56a9,9,0,0,0,2.1-4l.25-1.52q.16-1-.48-1.11l-1.23,1.11h-.39a2.28,2.28,0,0,0-1.28-2.62l-8,5.66q-14.05,11.6-16.72,11.6a54.61,54.61,0,0,1,.71-10.63l.16-1q3-18.24,17.83-49.86h1.33q9.64,8,18,8h1.05q9.45,0,21.64-13.67Q820.48,186.39,823.27,169.54Zm-95.06,89.63h-.38l.44-2.63h.38Zm.31-4.14.41-2.49h.38l-.12,2.49Zm1.17-3H729l.6-3.59h.67Zm4.23-16.85h-.67a6.26,6.26,0,0,0,.54-1.52h.38Zm-.06-1.94a19.25,19.25,0,0,1,1.61-5.11l.6.42Q734.44,233.21,733.86,233.2Zm2.37-5.66h-.29l.1-.55c.16-1,.47-1.52.92-1.52Zm55.58-38.12q-12.72,16.31-18.55,16.3a6.94,6.94,0,0,0-2.58-1.1c-.06.36-.22.55-.48.55l-.57-.55-.86.55-.58-.55q1.08-3,8.41-12.71l7.62-9.67q11.63-13.11,17.95-16.71h.29Q800.72,176,791.81,189.42Zm-61.72,53.87h.76l-.35,2.07h-.76Zm166.91-86h1.52l-.16,1q-3.69,5-7.3,6.63-.39,2.35-11.92,8.56-14,10.09-20.84,17.41-14.91,15-23,28.31-14.67,25.68-20.21,46.95-.71,1.4-3.46,9.95c-.05.27,0,.41.21.41q-2.48,9.81-4.68,9.81c-.09.55-.8,1-2.14,1.38l-2.18-1.8a2.08,2.08,0,0,1-1.31.42q0-.69-8.65-5.39l-1.69-3-.64.42h-.38c-.39,0-.52-.32-.42-1q12-36.73,23.15-59.52,6.4-10.92,10.72-17.41Q837.43,182,845.72,175.2,867,156.29,881.1,150.06q7.6-4.41,9.42-4.42l.82.83a21,21,0,0,0,4.43-.83c.38,0,1,1.48,1.75,4.42l-.8,1.38-.07.42c2,.37,2.89,1,2.76,1.79-.32,0-1.08.92-2.28,2.77Z"/><path id="_4" data-name="4" d="M1002.91,128.45H930.76c-9.72,0-17.61-8.69-17.61-19.41h0V29.47h0a3,3,0,1,0-5.89,0h0V109h0c0,10.72-7.89,19.41-17.61,19.41H817.5a3.26,3.26,0,0,0,0,6.49h72.15c9.72,0,17.61,8.7,17.61,19.42h0v79.56h0a3,3,0,1,0,5.89,0h0V154.36h0c0-10.72,7.89-19.42,17.61-19.42h72.15a3.26,3.26,0,0,0,0-6.49Z"/></g></g></svg>