<?xml version="1.0" encoding="utf-8"?>
<!-- Generator: Adobe Illustrator 27.8.0, SVG Export Plug-In . SVG Version: 6.00 Build 0)  -->
<svg version="1.0" id="katman_1" xmlns="http://www.w3.org/2000/svg" xmlns:xlink="http://www.w3.org/1999/xlink" x="0px" y="0px"
	 viewBox="0 0 600 450" style="enable-background:new 0 0 600 450;" xml:space="preserve">
<style type="text/css">
	.st0{fill:#4D77AC;}
	.st1{fill-rule:evenodd;clip-rule:evenodd;fill:#4D77AC;}
	.st2{fill:url(#SVGID_1_);}
	.st3{fill:url(#SVGID_00000079461781463330315590000000936185751499213720_);}
	.st4{fill:url(#SVGID_00000038376482875380097330000005554754733276646534_);}
	.st5{fill:url(#SVGID_00000132774402666921664100000003838892302374180266_);}
	.st6{fill:#E73933;}
	.st7{fill-rule:evenodd;clip-rule:evenodd;fill:#E73933;}
	.st8{fill:#1186C8;}
</style>
<g id="Footer">
	<path class="st0" d="M242.64,212.96c7.16,22.01-4.88,45.65-26.89,52.81c-22.01,7.16-45.65-4.88-52.81-26.89
		c-7.16-22.01,4.88-45.65,26.89-52.81c4.19-1.36,8.57-2.06,12.97-2.06C220.95,184.02,237.03,195.7,242.64,212.96z M202.8,187.79
		c-21.06,0.03-38.11,17.12-38.08,38.19c0.03,21.06,17.12,38.11,38.19,38.08c21.06-0.03,38.11-17.12,38.08-38.19
		c-0.01-3.99-0.64-7.95-1.87-11.74C234.01,198.4,219.34,187.76,202.8,187.79z"/>
	<path class="st1" d="M209.65,211.48c1.37,0,2.79,0,4.11,0h0.56v-7.12c-0.73,0-1.48-0.17-2.26-0.22c-1.4,0-2.79,0-4.19,0
		c-2.12-0.01-4.18,0.64-5.92,1.84c-1.93,1.42-3.21,3.55-3.55,5.92c-0.16,0.94-0.25,1.89-0.28,2.85c0,1.59,0,3.18,0,4.78v0.81h-6.79
		v7.93h6.73v19.92h8.38v-20h6.73l0.81-7.85h-7.82c0,0,0-3.94,0-5.59C206.38,212.23,207.78,211.53,209.65,211.48z"/>
</g>
<g id="Footer_00000060731145794484315360000009105668273505501614_">
	
		<linearGradient id="SVGID_1_" gradientUnits="userSpaceOnUse" x1="194.4528" y1="117.067" x2="259.0692" y2="190.3156" gradientTransform="matrix(1 0 0 -1 -120.9449 379.3622)">
		<stop  offset="0" style="stop-color:#ECAE53"/>
		<stop  offset="0.33" style="stop-color:#E0213F"/>
		<stop  offset="0.65" style="stop-color:#9B358B"/>
		<stop  offset="1" style="stop-color:#4A4A9A"/>
	</linearGradient>
	<path class="st2" d="M105.59,184.03c-23.14,0-41.9,18.76-41.9,41.9s18.76,41.9,41.9,41.9s41.9-18.76,41.9-41.9
		S128.73,184.03,105.59,184.03z M105.59,264.62c-21.35-0.01-38.65-17.34-38.64-38.69c0.01-21.35,17.34-38.65,38.69-38.64
		c21.35,0.01,38.65,17.34,38.64,38.69c0,5.46-1.16,10.86-3.41,15.84C134.62,255.7,120.81,264.62,105.59,264.62z"/>
	
		<linearGradient id="SVGID_00000035508515696844371420000008593761164705053338_" gradientUnits="userSpaceOnUse" x1="189.1479" y1="111.0581" x2="266.6987" y2="198.9453" gradientTransform="matrix(1 0 0 -1 -120.9449 379.3622)">
		<stop  offset="0" style="stop-color:#ECAE53"/>
		<stop  offset="0.33" style="stop-color:#E0213F"/>
		<stop  offset="0.65" style="stop-color:#9B358B"/>
		<stop  offset="1" style="stop-color:#4A4A9A"/>
	</linearGradient>
	<path style="fill:url(#SVGID_00000035508515696844371420000008593761164705053338_);" d="M118.47,203.25H92.71
		c-5.27-0.05-9.59,4.17-9.67,9.44v26.51c0.06,5.28,4.39,9.5,9.66,9.44c0,0,0,0,0,0h25.73c5.28,0.06,9.6-4.16,9.67-9.44c0,0,0,0,0,0
		v-26.51C128.04,207.42,123.73,203.2,118.47,203.25z M124.25,239.2c0,3.09-2.5,5.59-5.58,5.59c-0.07,0-0.13,0-0.2,0H92.71
		c-3.08,0.11-5.67-2.3-5.78-5.39c0-0.07,0-0.13,0-0.2v-26.51c0-3.09,2.5-5.59,5.58-5.59c0.07,0,0.13,0,0.2,0h25.73
		c3.08-0.11,5.67,2.3,5.78,5.39c0,0.07,0,0.13,0,0.2L124.25,239.2z"/>
	
		<linearGradient id="SVGID_00000093868854278675296590000011127513731554085761_" gradientUnits="userSpaceOnUse" x1="189.1445" y1="111.0611" x2="266.6953" y2="198.9482" gradientTransform="matrix(1 0 0 -1 -120.9449 379.3622)">
		<stop  offset="0" style="stop-color:#ECAE53"/>
		<stop  offset="0.33" style="stop-color:#E0213F"/>
		<stop  offset="0.65" style="stop-color:#9B358B"/>
		<stop  offset="1" style="stop-color:#4A4A9A"/>
	</linearGradient>
	<path style="fill:url(#SVGID_00000093868854278675296590000011127513731554085761_);" d="M105.59,214.14
		c-6.51,0-11.79,5.28-11.79,11.79s5.28,11.79,11.79,11.79c6.51,0,11.79-5.28,11.79-11.79S112.1,214.14,105.59,214.14L105.59,214.14z
		 M105.59,233.7c-4.35,0-7.88-3.53-7.88-7.88c0-4.35,3.53-7.88,7.88-7.88s7.88,3.53,7.88,7.88c0,0.04,0,0.07,0,0.11
		c-0.02,4.34-3.53,7.86-7.88,7.88V233.7z"/>
	
		<linearGradient id="SVGID_00000115489355279211971570000016168076493391693954_" gradientUnits="userSpaceOnUse" x1="190.1421" y1="110.2055" x2="267.665" y2="198.0926" gradientTransform="matrix(1 0 0 -1 -120.9449 379.3622)">
		<stop  offset="0" style="stop-color:#ECAE53"/>
		<stop  offset="0.33" style="stop-color:#E0213F"/>
		<stop  offset="0.65" style="stop-color:#9B358B"/>
		<stop  offset="1" style="stop-color:#4A4A9A"/>
	</linearGradient>
	<circle style="fill:url(#SVGID_00000115489355279211971570000016168076493391693954_);" cx="118.24" cy="213.55" r="2.77"/>
</g>
<g id="Footer_00000097478219325602259810000016515601242319258798_">
	<path class="st6" d="M437.05,212.96c7.16,22.01-4.88,45.65-26.89,52.81c-22.01,7.16-45.65-4.88-52.81-26.89
		c-7.16-22.01,4.88-45.65,26.89-52.81c4.19-1.36,8.57-2.06,12.97-2.06C415.35,184.02,431.43,195.7,437.05,212.96z M397.21,187.79
		c-21.06,0.03-38.11,17.12-38.08,38.19c0.03,21.06,17.12,38.11,38.19,38.08c21.06-0.03,38.11-17.12,38.08-38.19
		c-0.01-3.99-0.64-7.95-1.87-11.74C428.41,198.4,413.75,187.76,397.21,187.79z"/>
	<path class="st7" d="M380.28,239.89c-1.53-0.43-2.76-1.58-3.3-3.07c-1.42-3.91-1.84-20.2,0.89-23.41c0.89-1.08,2.18-1.77,3.58-1.9
		c7.35-0.78,30.09-0.67,32.71,0.28c1.46,0.46,2.64,1.55,3.21,2.96c1.56,4.02,1.59,18.69-0.2,22.57c-0.49,1.01-1.31,1.83-2.32,2.32
		C412.13,241.2,383.88,241.17,380.28,239.89z M391.96,232.23l13.24-6.87l-13.24-6.93V232.23z"/>
</g>
<g id="Grundutbildningsprogram">
	<path class="st8" d="M534.25,212.96c7.16,22.01-4.88,45.65-26.89,52.81c-22.01,7.16-45.65-4.88-52.81-26.89s4.88-45.65,26.89-52.81
		c4.19-1.36,8.57-2.06,12.97-2.06C512.56,184.02,528.64,195.7,534.25,212.96z M494.41,187.79c-21.06,0.03-38.11,17.12-38.08,38.19
		s17.12,38.11,38.19,38.08c21.06-0.03,38.11-17.12,38.08-38.19c-0.01-3.99-0.64-7.95-1.87-11.74
		C525.62,198.4,510.95,187.76,494.41,187.79z"/>
	<path class="st8" d="M478.66,218.63h8.02v25.79h-8.02V218.63z M482.68,205.8c2.56,0.02,4.62,2.1,4.61,4.67
		c-0.02,2.56-2.1,4.62-4.67,4.61c-2.55-0.02-4.61-2.09-4.61-4.64C478.03,207.88,480.11,205.8,482.68,205.8"/>
	<path class="st8" d="M491.62,218.63h7.68v3.52l0,0c1.56-2.69,4.49-4.29,7.6-4.16c8.1,0,9.61,5.34,9.61,12.29v14.14h-7.82v-12.54
		c0-2.99,0-6.84-4.16-6.84s-4.81,3.27-4.81,6.48v12.77h-8.1V218.63z"/>
</g>
<g>
	<path d="M339.84,212.96c7.16,22.01-4.88,45.65-26.89,52.81c-22.01,7.16-45.65-4.88-52.81-26.89c-7.16-22.01,4.88-45.65,26.89-52.81
		c4.19-1.36,8.57-2.06,12.97-2.06C318.15,184.02,334.23,195.7,339.84,212.96z M300.01,187.79c-21.06,0.03-38.11,17.12-38.08,38.19
		s17.12,38.11,38.19,38.08c21.06-0.03,38.11-17.12,38.08-38.19c-0.01-3.99-0.64-7.95-1.87-11.74
		C331.21,198.4,316.54,187.76,300.01,187.79z"/>
	<g id="layer1" transform="translate(52.390088,-25.058597)">
		<path id="path1009" d="M224.62,229.37l17.83,23.84l-17.94,19.39h4.04l15.71-16.97l12.69,16.97h13.74l-18.84-25.18l16.7-18.04
			h-4.04L250.06,245l-11.69-15.63H224.62z M230.56,232.34h6.31l27.88,37.28h-6.31L230.56,232.34z"/>
	</g>
</g>
</svg>
