<svg xmlns="http://www.w3.org/2000/svg" viewBox="0 0 83.83 83.82"><defs><style>.cls-1,.cls-2{fill:#4c78aa;}.cls-2{fill-rule:evenodd;}</style></defs><g id="Layer_2" data-name="Layer 2"><g id="katman_1" data-name="katman 1"><g id="Footer"><path class="cls-1" d="M81.76,28.94A41.89,41.89,0,1,1,41.93,0,41.9,41.9,0,0,1,81.76,28.94ZM41.93,3.77A38.14,38.14,0,1,0,80.11,41.85a37.73,37.73,0,0,0-1.87-11.73A38.13,38.13,0,0,0,41.93,3.77Z"/><path class="cls-2" d="M48.77,27.46h4.67V20.34c-.73,0-1.48-.17-2.27-.23H47A10.37,10.37,0,0,0,41.06,22a8.9,8.9,0,0,0-3.55,5.92,20.84,20.84,0,0,0-.28,2.85v5.59H30.45v7.93h6.73V64.17h8.38v-20h6.73l.81-7.85H45.28V30.73C45.5,28.22,46.9,27.52,48.77,27.46Z"/></g></g></g></svg>