<svg xmlns="http://www.w3.org/2000/svg" viewBox="0 0 83.83 83.82"><defs><style>.cls-1{fill:#0e88ca;}</style></defs><g id="Layer_2" data-name="Layer 2"><g id="katman_1" data-name="katman 1"><g id="Grundutbildningsprogram"><path class="cls-1" d="M81.76,28.94A41.89,41.89,0,1,1,41.93,0,41.9,41.9,0,0,1,81.76,28.94ZM41.93,3.77A38.14,38.14,0,1,0,80.11,41.85a37.73,37.73,0,0,0-1.87-11.73A38.13,38.13,0,0,0,41.93,3.77Z"/><path class="cls-1" d="M26.17,34.61h8V60.4h-8Zm4-12.82a4.64,4.64,0,1,1-4.66,4.64,4.63,4.63,0,0,1,4.66-4.64"/><path class="cls-1" d="M39.13,34.61h7.69v3.52h0A8.38,8.38,0,0,1,54.42,34C62.52,34,64,39.31,64,46.26V60.4H56.2V47.85c0-3,0-6.84-4.16-6.84s-4.8,3.27-4.8,6.48V60.26H39.13Z"/></g></g></g></svg>