<svg xmlns="http://www.w3.org/2000/svg" xmlns:xlink="http://www.w3.org/1999/xlink" viewBox="0 0 83.81 83.81"><defs><style>.cls-1{fill:url(#Adsız_degrade_4);}.cls-2{fill:url(#Adsız_degrade_4-2);}.cls-3{fill:url(#Adsız_degrade_4-3);}.cls-4{fill:url(#Adsız_degrade_4-4);}</style><linearGradient id="Adsız_degrade_4" x1="130.77" y1="-96.76" x2="195.39" y2="-23.51" gradientTransform="matrix(1, 0, 0, -1, -120.94, -18.49)" gradientUnits="userSpaceOnUse"><stop offset="0" stop-color="#e8a95a"/><stop offset="0.33" stop-color="#e42e4a"/><stop offset="0.65" stop-color="#953f98"/><stop offset="1" stop-color="#4754a4"/></linearGradient><linearGradient id="Adsız_degrade_4-2" x1="125.46" y1="-102.77" x2="203.02" y2="-14.88" xlink:href="#Adsız_degrade_4"/><linearGradient id="Adsız_degrade_4-3" x1="125.46" y1="-102.77" x2="203.01" y2="-14.88" xlink:href="#Adsız_degrade_4"/><linearGradient id="Adsız_degrade_4-4" x1="126.46" y1="-103.62" x2="203.98" y2="-15.74" xlink:href="#Adsız_degrade_4"/></defs><g id="Layer_2" data-name="Layer 2"><g id="katman_1" data-name="katman 1"><g id="Footer"><path class="cls-1" d="M41.9,0A41.91,41.91,0,1,0,83.81,41.9,41.9,41.9,0,0,0,41.9,0Zm0,80.6A38.65,38.65,0,1,1,77.19,57.8,38.66,38.66,0,0,1,41.9,80.6Z"/><path class="cls-2" d="M54.78,19.22H29a9.58,9.58,0,0,0-9.67,9.44V55.17A9.56,9.56,0,0,0,29,64.62H54.75a9.56,9.56,0,0,0,9.67-9.44h0V28.66A9.55,9.55,0,0,0,54.78,19.22Zm5.79,36A5.59,5.59,0,0,1,55,60.76H29a5.58,5.58,0,0,1-5.78-5.39,1.27,1.27,0,0,1,0-.2V28.66a5.59,5.59,0,0,1,5.59-5.59H54.75a5.57,5.57,0,0,1,5.78,5.38,1.41,1.41,0,0,1,0,.2Z"/><path class="cls-3" d="M41.9,30.12A11.79,11.79,0,1,0,53.69,41.9,11.77,11.77,0,0,0,41.9,30.12Zm0,19.55a7.88,7.88,0,1,1,7.88-7.88v.11a7.9,7.9,0,0,1-7.88,7.88Z"/><circle class="cls-4" cx="54.56" cy="29.53" r="2.77"/></g></g></g></svg>