<svg xmlns="http://www.w3.org/2000/svg" viewBox="0 0 83.83 83.82"><defs><style>.cls-1{fill:#fdfefe;}</style></defs><g id="Layer_2" data-name="Layer 2"><g id="katman_1" data-name="katman 1"><path class="cls-1" d="M81.76,28.94A41.89,41.89,0,1,1,41.93,0,41.9,41.9,0,0,1,81.76,28.94ZM41.93,3.77A38.14,38.14,0,1,0,80.11,41.85a37.73,37.73,0,0,0-1.87-11.73A38.13,38.13,0,0,0,41.93,3.77Z"/><g id="layer1"><path id="path1009" class="cls-1" d="M18.94,20.3,36.77,44.14l-18,19.38h4l15.71-17,12.7,17H65L46.17,38.34l16.71-18h-4L44.37,35.93,32.68,20.3Zm5.93,3h6.32L59.07,60.55H52.76Z"/></g></g></g></svg>