<svg xmlns="http://www.w3.org/2000/svg" viewBox="0 0 83.83 83.82"><defs><style>.cls-1,.cls-2{fill:#ef463f;}.cls-2{fill-rule:evenodd;}</style></defs><g id="Layer_2" data-name="Layer 2"><g id="katman_1" data-name="katman 1"><g id="Footer"><path class="cls-1" d="M81.76,28.94A41.89,41.89,0,1,1,41.93,0,41.9,41.9,0,0,1,81.76,28.94ZM41.93,3.77A38.14,38.14,0,1,0,80.11,41.85a37.73,37.73,0,0,0-1.87-11.73A38.13,38.13,0,0,0,41.93,3.77Z"/><path class="cls-2" d="M25,55.87a4.94,4.94,0,0,1-3.3-3.07c-1.42-3.91-1.84-20.2.9-23.41a5.26,5.26,0,0,1,3.57-1.9c7.35-.78,30.09-.67,32.71.28a5.14,5.14,0,0,1,3.22,3c1.56,4,1.59,18.69-.2,22.57a4.93,4.93,0,0,1-2.32,2.32C56.85,57.19,28.6,57.16,25,55.87Zm11.68-7.65,13.24-6.87L36.68,34.42Z"/></g></g></g></svg>